{
    "asset" : {
        "extensions" : {
            "ASOBO_normal_map_convention" : {
                "tangent_space_convention" : "DirectX"
            }
        },
        "generator" : "Extended Khronos glTF Blender I/O v1.0.0",
        "version" : "2.0"
    },
    "extensionsUsed" : [
        "ASOBO_normal_map_convention"
    ],
    "scene" : 0,
    "scenes" : [
        {
            "extras" : {},
            "name" : "Scene",
            "nodes" : [
                0
            ]
        }
    ],
    "nodes" : [
        {
            "mesh" : 0,
            "name" : "Sphere03"
        }
    ],
    "meshes" : [
        {
            "name" : "Sphere.003",
            "primitives" : [
                {
                    "attributes" : {
                        "POSITION" : 0,
                        "NORMAL" : 1,
                        "TEXCOORD_0" : 2
                    },
                    "indices" : 3
                }
            ]
        }
    ],
    "accessors" : [
        {
            "bufferView" : 0,
            "componentType" : 5126,
            "count" : 55,
            "max" : [
                4.563570499420166,
                30.287673950195312,
                4.563570499420166
            ],
            "min" : [
                -4.563570499420166,
                -14.255997657775879,
                -4.563570499420166
            ],
            "type" : "VEC3"
        },
        {
            "bufferView" : 1,
            "componentType" : 5126,
            "count" : 55,
            "type" : "VEC3"
        },
        {
            "bufferView" : 2,
            "componentType" : 5126,
            "count" : 55,
            "type" : "VEC2"
        },
        {
            "bufferView" : 3,
            "componentType" : 5123,
            "count" : 216,
            "type" : "SCALAR"
        }
    ],
    "bufferViews" : [
        {
            "buffer" : 0,
            "byteLength" : 660,
            "byteOffset" : 0
        },
        {
            "buffer" : 0,
            "byteLength" : 660,
            "byteOffset" : 660
        },
        {
            "buffer" : 0,
            "byteLength" : 440,
            "byteOffset" : 1320
        },
        {
            "buffer" : 0,
            "byteLength" : 432,
            "byteOffset" : 1760
        }
    ],
    "buffers" : [
        {
            "byteLength" : 2192,
            "uri" : "water-tower-sphere-30x9-cbj_LOD02.bin"
        }
    ]
}
