{
    "asset" : {
        "extensions" : {
            "ASOBO_normal_map_convention" : {
                "tangent_space_convention" : "DirectX"
            }
        },
        "generator" : "Extended Khronos glTF Blender I/O v1.0.0",
        "version" : "2.0"
    },
    "extensionsUsed" : [
        "ASOBO_normal_map_convention"
    ],
    "scene" : 0,
    "scenes" : [
        {
            "extras" : {},
            "name" : "Scene",
            "nodes" : [
                0
            ]
        }
    ],
    "nodes" : [
        {
            "mesh" : 0,
            "name" : "fuel-trailer1-02"
        }
    ],
    "materials" : [
        {
            "emissiveFactor" : [
                0,
                0,
                0
            ],
            "extras" : {
                "msfs_material_mode" : 1,
                "msfs_albedo_texture" : {
                    "name" : "fuel-trailer1-cbj.png",
                    "type" : "Image"
                },
                "msfs_metallic_texture" : {
                    "name" : "fuel-trailer1-cbj-AO.png",
                    "type" : "Image"
                },
                "msfs_normal_texture" : {
                    "name" : "fuel-trailer1-cbj-NORMAL.png",
                    "type" : "Image"
                },
                "msfs_show_tint" : 1,
                "msfs_show_sss_color" : 0,
                "msfs_show_glass_parameters" : 0,
                "msfs_show_decal_parameters" : 0,
                "msfs_show_fresnel_parameters" : 0,
                "msfs_show_parallax_parameters" : 0,
                "msfs_show_geo_decal_parameters" : 0,
                "msfs_show_albedo" : 1,
                "msfs_show_metallic" : 1,
                "msfs_show_normal" : 1,
                "msfs_show_emissive" : 1,
                "msfs_show_detail_albedo" : 1,
                "msfs_show_detail_metallic" : 1,
                "msfs_show_detail_normal" : 1,
                "msfs_show_blend_mask" : 1,
                "msfs_show_anisotropic_direction" : 0,
                "msfs_show_clearcoat" : 0,
                "msfs_show_behind_glass" : 0,
                "msfs_show_blend_mode" : 1,
                "msfs_show_draworder" : 1,
                "msfs_show_no_cast_shadow" : 1,
                "msfs_show_double_sided" : 1,
                "msfs_show_responsive_aa" : 0,
                "msfs_show_day_night_cycle" : 1,
                "msfs_show_collision_material" : 1,
                "msfs_show_road_material" : 1,
                "msfs_show_ao_use_uv2" : 1,
                "msfs_show_uv_clamp" : 1,
                "msfs_show_alpha_cutoff" : 1,
                "msfs_show_blend_threshold" : 1
            },
            "name" : "trailer-02",
            "normalTexture" : {
                "index" : 0,
                "texCoord" : 0
            },
            "occlusionTexture" : {
                "index" : 1,
                "texCoord" : 0
            },
            "pbrMetallicRoughness" : {
                "baseColorTexture" : {
                    "index" : 2,
                    "texCoord" : 0
                },
                "metallicRoughnessTexture" : {
                    "index" : 1,
                    "texCoord" : 0
                }
            }
        },
        {
            "alphaCutoff" : 0.5,
            "alphaMode" : "MASK",
            "emissiveFactor" : [
                0,
                0,
                0
            ],
            "extras" : {
                "msfs_material_mode" : 1,
                "msfs_albedo_texture" : {
                    "name" : "fuel-trailer1-cbj.png",
                    "type" : "Image"
                },
                "msfs_metallic_texture" : {
                    "name" : "fuel-trailer1-cbj-AO.png",
                    "type" : "Image"
                },
                "msfs_normal_texture" : {
                    "name" : "fuel-trailer1-cbj-NORMAL.png",
                    "type" : "Image"
                },
                "msfs_show_tint" : 1,
                "msfs_show_sss_color" : 0,
                "msfs_show_glass_parameters" : 0,
                "msfs_show_decal_parameters" : 0,
                "msfs_show_fresnel_parameters" : 0,
                "msfs_show_parallax_parameters" : 0,
                "msfs_show_geo_decal_parameters" : 0,
                "msfs_show_albedo" : 1,
                "msfs_show_metallic" : 1,
                "msfs_show_normal" : 1,
                "msfs_show_emissive" : 1,
                "msfs_show_detail_albedo" : 1,
                "msfs_show_detail_metallic" : 1,
                "msfs_show_detail_normal" : 1,
                "msfs_show_blend_mask" : 1,
                "msfs_show_anisotropic_direction" : 0,
                "msfs_show_clearcoat" : 0,
                "msfs_show_behind_glass" : 0,
                "msfs_show_blend_mode" : 1,
                "msfs_show_draworder" : 1,
                "msfs_show_no_cast_shadow" : 1,
                "msfs_show_double_sided" : 1,
                "msfs_show_responsive_aa" : 0,
                "msfs_show_day_night_cycle" : 1,
                "msfs_show_collision_material" : 1,
                "msfs_show_road_material" : 1,
                "msfs_show_ao_use_uv2" : 1,
                "msfs_show_uv_clamp" : 1,
                "msfs_show_alpha_cutoff" : 1,
                "msfs_show_blend_threshold" : 1,
                "msfs_blend_mode" : 2
            },
            "name" : "trialer-transp-02",
            "normalTexture" : {
                "index" : 3,
                "texCoord" : 0
            },
            "occlusionTexture" : {
                "index" : 4,
                "texCoord" : 0
            },
            "pbrMetallicRoughness" : {
                "baseColorTexture" : {
                    "index" : 5,
                    "texCoord" : 0
                },
                "metallicRoughnessTexture" : {
                    "index" : 4,
                    "texCoord" : 0
                }
            }
        },
        {
            "doubleSided" : true,
            "emissiveFactor" : [
                0,
                0,
                0
            ],
            "extras" : {
                "msfs_material_mode" : 1,
                "msfs_albedo_texture" : {
                    "name" : "fuel-trailer1-cbj.png",
                    "type" : "Image"
                },
                "msfs_metallic_texture" : {
                    "name" : "fuel-trailer1-cbj-AO.png",
                    "type" : "Image"
                },
                "msfs_normal_texture" : {
                    "name" : "fuel-trailer1-cbj-NORMAL.png",
                    "type" : "Image"
                },
                "msfs_show_tint" : 1,
                "msfs_show_sss_color" : 0,
                "msfs_show_glass_parameters" : 0,
                "msfs_show_decal_parameters" : 0,
                "msfs_show_fresnel_parameters" : 0,
                "msfs_show_parallax_parameters" : 0,
                "msfs_show_geo_decal_parameters" : 0,
                "msfs_show_albedo" : 1,
                "msfs_show_metallic" : 1,
                "msfs_show_normal" : 1,
                "msfs_show_emissive" : 1,
                "msfs_show_detail_albedo" : 1,
                "msfs_show_detail_metallic" : 1,
                "msfs_show_detail_normal" : 1,
                "msfs_show_blend_mask" : 1,
                "msfs_show_anisotropic_direction" : 0,
                "msfs_show_clearcoat" : 0,
                "msfs_show_behind_glass" : 0,
                "msfs_show_blend_mode" : 1,
                "msfs_show_draworder" : 1,
                "msfs_show_no_cast_shadow" : 1,
                "msfs_show_double_sided" : 1,
                "msfs_show_responsive_aa" : 0,
                "msfs_show_day_night_cycle" : 1,
                "msfs_show_collision_material" : 1,
                "msfs_show_road_material" : 1,
                "msfs_show_ao_use_uv2" : 1,
                "msfs_show_uv_clamp" : 1,
                "msfs_show_alpha_cutoff" : 1,
                "msfs_show_blend_threshold" : 1,
                "msfs_double_sided" : 1
            },
            "name" : "trailer-doubleS-02",
            "normalTexture" : {
                "index" : 6,
                "texCoord" : 0
            },
            "occlusionTexture" : {
                "index" : 7,
                "texCoord" : 0
            },
            "pbrMetallicRoughness" : {
                "baseColorTexture" : {
                    "index" : 8,
                    "texCoord" : 0
                },
                "metallicRoughnessTexture" : {
                    "index" : 7,
                    "texCoord" : 0
                }
            }
        },
        {
            "emissiveFactor" : [
                0,
                0,
                0
            ],
            "extras" : {
                "msfs_material_mode" : 1,
                "msfs_albedo_texture" : {
                    "name" : "fire-extinguisher-cbj.png",
                    "type" : "Image"
                },
                "msfs_metallic_texture" : {
                    "name" : "fire-extinguisher-AO-cbj.png",
                    "type" : "Image"
                },
                "msfs_normal_texture" : {
                    "name" : "fire-extinguisherNORMALcbj.png",
                    "type" : "Image"
                },
                "msfs_show_tint" : 1,
                "msfs_show_sss_color" : 0,
                "msfs_show_glass_parameters" : 0,
                "msfs_show_decal_parameters" : 0,
                "msfs_show_fresnel_parameters" : 0,
                "msfs_show_parallax_parameters" : 0,
                "msfs_show_geo_decal_parameters" : 0,
                "msfs_show_albedo" : 1,
                "msfs_show_metallic" : 1,
                "msfs_show_normal" : 1,
                "msfs_show_emissive" : 1,
                "msfs_show_detail_albedo" : 1,
                "msfs_show_detail_metallic" : 1,
                "msfs_show_detail_normal" : 1,
                "msfs_show_blend_mask" : 1,
                "msfs_show_anisotropic_direction" : 0,
                "msfs_show_clearcoat" : 0,
                "msfs_show_behind_glass" : 0,
                "msfs_show_blend_mode" : 1,
                "msfs_show_draworder" : 1,
                "msfs_show_no_cast_shadow" : 1,
                "msfs_show_double_sided" : 1,
                "msfs_show_responsive_aa" : 0,
                "msfs_show_day_night_cycle" : 1,
                "msfs_show_collision_material" : 1,
                "msfs_show_road_material" : 1,
                "msfs_show_ao_use_uv2" : 1,
                "msfs_show_uv_clamp" : 1,
                "msfs_show_alpha_cutoff" : 1,
                "msfs_show_blend_threshold" : 1
            },
            "name" : "extinguisher-02",
            "normalTexture" : {
                "index" : 9,
                "texCoord" : 0
            },
            "occlusionTexture" : {
                "index" : 10,
                "texCoord" : 0
            },
            "pbrMetallicRoughness" : {
                "baseColorTexture" : {
                    "index" : 11,
                    "texCoord" : 0
                },
                "metallicRoughnessTexture" : {
                    "index" : 10,
                    "texCoord" : 0
                }
            }
        },
        {
            "emissiveFactor" : [
                0,
                0,
                0
            ],
            "extras" : {
                "msfs_material_mode" : 1,
                "msfs_albedo_texture" : {
                    "name" : "fire-extinguish-parts-cbj.png",
                    "type" : "Image"
                },
                "msfs_metallic_texture" : {
                    "name" : "fire-extinguish-parts-AO-cbj.png",
                    "type" : "Image"
                },
                "msfs_normal_texture" : {
                    "name" : "fire-extinguish-partsNORMALcbj.png",
                    "type" : "Image"
                },
                "msfs_show_tint" : 1,
                "msfs_show_sss_color" : 0,
                "msfs_show_glass_parameters" : 0,
                "msfs_show_decal_parameters" : 0,
                "msfs_show_fresnel_parameters" : 0,
                "msfs_show_parallax_parameters" : 0,
                "msfs_show_geo_decal_parameters" : 0,
                "msfs_show_albedo" : 1,
                "msfs_show_metallic" : 1,
                "msfs_show_normal" : 1,
                "msfs_show_emissive" : 1,
                "msfs_show_detail_albedo" : 1,
                "msfs_show_detail_metallic" : 1,
                "msfs_show_detail_normal" : 1,
                "msfs_show_blend_mask" : 1,
                "msfs_show_anisotropic_direction" : 0,
                "msfs_show_clearcoat" : 0,
                "msfs_show_behind_glass" : 0,
                "msfs_show_blend_mode" : 1,
                "msfs_show_draworder" : 1,
                "msfs_show_no_cast_shadow" : 1,
                "msfs_show_double_sided" : 1,
                "msfs_show_responsive_aa" : 0,
                "msfs_show_day_night_cycle" : 1,
                "msfs_show_collision_material" : 1,
                "msfs_show_road_material" : 1,
                "msfs_show_ao_use_uv2" : 1,
                "msfs_show_uv_clamp" : 1,
                "msfs_show_alpha_cutoff" : 1,
                "msfs_show_blend_threshold" : 1
            },
            "name" : "exting-parts-02",
            "normalTexture" : {
                "index" : 12,
                "texCoord" : 0
            },
            "occlusionTexture" : {
                "index" : 13,
                "texCoord" : 0
            },
            "pbrMetallicRoughness" : {
                "baseColorTexture" : {
                    "index" : 14,
                    "texCoord" : 0
                },
                "metallicRoughnessTexture" : {
                    "index" : 13,
                    "texCoord" : 0
                }
            }
        }
    ],
    "meshes" : [
        {
            "name" : "Cube.017",
            "primitives" : [
                {
                    "attributes" : {
                        "POSITION" : 0,
                        "NORMAL" : 1,
                        "TEXCOORD_0" : 2
                    },
                    "indices" : 3,
                    "material" : 0
                },
                {
                    "attributes" : {
                        "POSITION" : 4,
                        "NORMAL" : 5,
                        "TEXCOORD_0" : 6
                    },
                    "indices" : 7,
                    "material" : 1
                },
                {
                    "attributes" : {
                        "POSITION" : 8,
                        "NORMAL" : 9,
                        "TEXCOORD_0" : 10
                    },
                    "indices" : 11,
                    "material" : 2
                },
                {
                    "attributes" : {
                        "POSITION" : 12,
                        "NORMAL" : 13,
                        "TEXCOORD_0" : 14
                    },
                    "indices" : 15,
                    "material" : 3
                },
                {
                    "attributes" : {
                        "POSITION" : 16,
                        "NORMAL" : 17,
                        "TEXCOORD_0" : 18
                    },
                    "indices" : 19,
                    "material" : 4
                }
            ]
        }
    ],
    "textures" : [
        {
            "source" : 0
        },
        {
            "source" : 1
        },
        {
            "source" : 2
        },
        {
            "source" : 0
        },
        {
            "source" : 1
        },
        {
            "source" : 2
        },
        {
            "source" : 0
        },
        {
            "source" : 1
        },
        {
            "source" : 2
        },
        {
            "source" : 3
        },
        {
            "source" : 4
        },
        {
            "source" : 5
        },
        {
            "source" : 6
        },
        {
            "source" : 7
        },
        {
            "source" : 8
        }
    ],
    "images" : [
        {
            "mimeType" : "image/png",
            "name" : "fuel-trailer1-cbj-NORMAL",
            "uri" : "fuel-trailer1-cbj-NORMAL.png"
        },
        {
            "mimeType" : "image/png",
            "name" : "fuel-trailer1-cbj-AO",
            "uri" : "fuel-trailer1-cbj-AO.png"
        },
        {
            "mimeType" : "image/png",
            "name" : "fuel-trailer1-cbj",
            "uri" : "fuel-trailer1-cbj.png"
        },
        {
            "mimeType" : "image/png",
            "name" : "fire-extinguisherNORMALcbj",
            "uri" : "fire-extinguisherNORMALcbj.png"
        },
        {
            "mimeType" : "image/png",
            "name" : "fire-extinguisher-AO-cbj",
            "uri" : "fire-extinguisher-AO-cbj.png"
        },
        {
            "mimeType" : "image/png",
            "name" : "fire-extinguisher-cbj",
            "uri" : "fire-extinguisher-cbj.png"
        },
        {
            "mimeType" : "image/png",
            "name" : "fire-extinguish-partsNORMALcbj",
            "uri" : "fire-extinguish-partsNORMALcbj.png"
        },
        {
            "mimeType" : "image/png",
            "name" : "fire-extinguish-parts-AO-cbj",
            "uri" : "fire-extinguish-parts-AO-cbj.png"
        },
        {
            "mimeType" : "image/png",
            "name" : "fire-extinguish-parts-cbj",
            "uri" : "fire-extinguish-parts-cbj.png"
        }
    ],
    "accessors" : [
        {
            "bufferView" : 0,
            "componentType" : 5126,
            "count" : 790,
            "max" : [
                0.9124619960784912,
                1.424415946006775,
                2.5189898014068604
            ],
            "min" : [
                -0.9124619960784912,
                -0.0033504366874694824,
                -2.687662124633789
            ],
            "type" : "VEC3"
        },
        {
            "bufferView" : 1,
            "componentType" : 5126,
            "count" : 790,
            "type" : "VEC3"
        },
        {
            "bufferView" : 2,
            "componentType" : 5126,
            "count" : 790,
            "type" : "VEC2"
        },
        {
            "bufferView" : 3,
            "componentType" : 5123,
            "count" : 1644,
            "type" : "SCALAR"
        },
        {
            "bufferView" : 4,
            "componentType" : 5126,
            "count" : 216,
            "max" : [
                0.8660131692886353,
                1.3683186769485474,
                2.0019779205322266
            ],
            "min" : [
                -0.8660131692886353,
                -0.0020569264888763428,
                -1.955187201499939
            ],
            "type" : "VEC3"
        },
        {
            "bufferView" : 5,
            "componentType" : 5126,
            "count" : 216,
            "type" : "VEC3"
        },
        {
            "bufferView" : 6,
            "componentType" : 5126,
            "count" : 216,
            "type" : "VEC2"
        },
        {
            "bufferView" : 7,
            "componentType" : 5123,
            "count" : 516,
            "type" : "SCALAR"
        },
        {
            "bufferView" : 8,
            "componentType" : 5126,
            "count" : 32,
            "max" : [
                0.9124619960784912,
                0.9501491785049438,
                2.0426130294799805
            ],
            "min" : [
                -0.9124619960784912,
                0.4003048539161682,
                0.06999629735946655
            ],
            "type" : "VEC3"
        },
        {
            "bufferView" : 9,
            "componentType" : 5126,
            "count" : 32,
            "type" : "VEC3"
        },
        {
            "bufferView" : 10,
            "componentType" : 5126,
            "count" : 32,
            "type" : "VEC2"
        },
        {
            "bufferView" : 11,
            "componentType" : 5123,
            "count" : 48,
            "type" : "SCALAR"
        },
        {
            "bufferView" : 12,
            "componentType" : 5126,
            "count" : 113,
            "max" : [
                -0.6287288665771484,
                1.1670036315917969,
                2.4066262245178223
            ],
            "min" : [
                -0.8107289671897888,
                0.6499455571174622,
                2.1808371543884277
            ],
            "type" : "VEC3"
        },
        {
            "bufferView" : 13,
            "componentType" : 5126,
            "count" : 113,
            "type" : "VEC3"
        },
        {
            "bufferView" : 14,
            "componentType" : 5126,
            "count" : 113,
            "type" : "VEC2"
        },
        {
            "bufferView" : 15,
            "componentType" : 5123,
            "count" : 378,
            "type" : "SCALAR"
        },
        {
            "bufferView" : 16,
            "componentType" : 5126,
            "count" : 570,
            "max" : [
                -0.6069425940513611,
                1.2813085317611694,
                2.4582085609436035
            ],
            "min" : [
                -0.8375598788261414,
                0.6399074196815491,
                2.131720781326294
            ],
            "type" : "VEC3"
        },
        {
            "bufferView" : 17,
            "componentType" : 5126,
            "count" : 570,
            "type" : "VEC3"
        },
        {
            "bufferView" : 18,
            "componentType" : 5126,
            "count" : 570,
            "type" : "VEC2"
        },
        {
            "bufferView" : 19,
            "componentType" : 5123,
            "count" : 1263,
            "type" : "SCALAR"
        }
    ],
    "bufferViews" : [
        {
            "buffer" : 0,
            "byteLength" : 9480,
            "byteOffset" : 0
        },
        {
            "buffer" : 0,
            "byteLength" : 9480,
            "byteOffset" : 9480
        },
        {
            "buffer" : 0,
            "byteLength" : 6320,
            "byteOffset" : 18960
        },
        {
            "buffer" : 0,
            "byteLength" : 3288,
            "byteOffset" : 25280
        },
        {
            "buffer" : 0,
            "byteLength" : 2592,
            "byteOffset" : 28568
        },
        {
            "buffer" : 0,
            "byteLength" : 2592,
            "byteOffset" : 31160
        },
        {
            "buffer" : 0,
            "byteLength" : 1728,
            "byteOffset" : 33752
        },
        {
            "buffer" : 0,
            "byteLength" : 1032,
            "byteOffset" : 35480
        },
        {
            "buffer" : 0,
            "byteLength" : 384,
            "byteOffset" : 36512
        },
        {
            "buffer" : 0,
            "byteLength" : 384,
            "byteOffset" : 36896
        },
        {
            "buffer" : 0,
            "byteLength" : 256,
            "byteOffset" : 37280
        },
        {
            "buffer" : 0,
            "byteLength" : 96,
            "byteOffset" : 37536
        },
        {
            "buffer" : 0,
            "byteLength" : 1356,
            "byteOffset" : 37632
        },
        {
            "buffer" : 0,
            "byteLength" : 1356,
            "byteOffset" : 38988
        },
        {
            "buffer" : 0,
            "byteLength" : 904,
            "byteOffset" : 40344
        },
        {
            "buffer" : 0,
            "byteLength" : 756,
            "byteOffset" : 41248
        },
        {
            "buffer" : 0,
            "byteLength" : 6840,
            "byteOffset" : 42004
        },
        {
            "buffer" : 0,
            "byteLength" : 6840,
            "byteOffset" : 48844
        },
        {
            "buffer" : 0,
            "byteLength" : 4560,
            "byteOffset" : 55684
        },
        {
            "buffer" : 0,
            "byteLength" : 2526,
            "byteOffset" : 60244
        }
    ],
    "buffers" : [
        {
            "byteLength" : 62772,
            "uri" : "fuel-trailer-5m-cbj_LOD02.bin"
        }
    ]
}
