{
    "asset" : {
        "extensions" : {
            "ASOBO_normal_map_convention" : {
                "tangent_space_convention" : "DirectX"
            }
        },
        "generator" : "Extended Khronos glTF Blender I/O v1.0.0",
        "version" : "2.0"
    },
    "extensionsUsed" : [
        "ASOBO_normal_map_convention",
        "ASOBO_material_invisible"
    ],
    "scene" : 0,
    "scenes" : [
        {
            "name" : "Scene",
            "nodes" : [
                0,
                2
            ]
        }
    ],
    "nodes" : [
        {
            "name" : "NurbsCircle.002"
        },
        {
            "mesh" : 0,
            "name" : "glider00",
            "rotation" : [
                -0.08715574443340302,
                0,
                0,
                0.9961947202682495
            ],
            "scale" : [
                0.005263158120214939,
                0.005263158120214939,
                0.005263157654553652
            ]
        },
        {
            "children" : [
                1
            ],
            "name" : "Empty",
            "rotation" : [
                0,
                -0.001150332624092698,
                0,
                1
            ],
            "scale" : [
                190.00001525878906,
                190,
                190.00001525878906
            ],
            "translation" : [
                -85.01024627685547,
                0.0001148415612988174,
                19.482149124145508
            ]
        }
    ],
    "animations" : [
        {
            "channels" : [
                {
                    "sampler" : 0,
                    "target" : {
                        "node" : 1,
                        "path" : "rotation"
                    }
                }
            ],
            "name" : "glider00",
            "samplers" : [
                {
                    "input" : 20,
                    "interpolation" : "LINEAR",
                    "output" : 21
                }
            ]
        },
        {
            "channels" : [
                {
                    "sampler" : 0,
                    "target" : {
                        "node" : 2,
                        "path" : "translation"
                    }
                },
                {
                    "sampler" : 1,
                    "target" : {
                        "node" : 2,
                        "path" : "rotation"
                    }
                },
                {
                    "sampler" : 2,
                    "target" : {
                        "node" : 2,
                        "path" : "scale"
                    }
                }
            ],
            "name" : "Cube1",
            "samplers" : [
                {
                    "input" : 20,
                    "interpolation" : "LINEAR",
                    "output" : 22
                },
                {
                    "input" : 20,
                    "interpolation" : "LINEAR",
                    "output" : 23
                },
                {
                    "input" : 20,
                    "interpolation" : "LINEAR",
                    "output" : 24
                }
            ]
        }
    ],
    "materials" : [
        {
            "emissiveFactor" : [
                0,
                0,
                0
            ],
            "name" : "black-cloth",
            "occlusionTexture" : {
                "index" : 0,
                "texCoord" : 0
            },
            "pbrMetallicRoughness" : {
                "baseColorTexture" : {
                    "index" : 1,
                    "texCoord" : 0
                },
                "metallicRoughnessTexture" : {
                    "index" : 0,
                    "texCoord" : 0
                }
            }
        },
        {
            "emissiveFactor" : [
                0,
                0,
                0
            ],
            "name" : "black-cloth-stripe",
            "occlusionTexture" : {
                "index" : 2,
                "texCoord" : 0
            },
            "pbrMetallicRoughness" : {
                "baseColorTexture" : {
                    "index" : 3,
                    "texCoord" : 0
                },
                "metallicRoughnessTexture" : {
                    "index" : 2,
                    "texCoord" : 0
                }
            }
        },
        {
            "alphaMode" : "BLEND",
            "emissiveFactor" : [
                0,
                0,
                0
            ],
            "extensions" : {
                "ASOBO_material_invisible" : {
                    "enabled" : true
                }
            },
            "name" : "invisible",
            "pbrMetallicRoughness" : {
                "baseColorFactor" : [
                    0.800000011920929,
                    0,
                    0,
                    0
                ],
                "metallicFactor" : 0,
                "roughnessFactor" : 0.5
            }
        },
        {
            "emissiveFactor" : [
                0,
                0,
                0
            ],
            "name" : "paraglider-wing.003",
            "pbrMetallicRoughness" : {
                "baseColorTexture" : {
                    "index" : 4,
                    "texCoord" : 0
                },
                "metallicRoughnessTexture" : {
                    "index" : 5,
                    "texCoord" : 0
                }
            }
        }
    ],
    "meshes" : [
        {
            "name" : "Plane.001",
            "primitives" : [
                {
                    "attributes" : {
                        "POSITION" : 0,
                        "NORMAL" : 1,
                        "TEXCOORD_0" : 2,
                        "TEXCOORD_1" : 3
                    },
                    "indices" : 4,
                    "material" : 0
                },
                {
                    "attributes" : {
                        "POSITION" : 5,
                        "NORMAL" : 6,
                        "TEXCOORD_0" : 7,
                        "TEXCOORD_1" : 8
                    },
                    "indices" : 9,
                    "material" : 1
                },
                {
                    "attributes" : {
                        "POSITION" : 10,
                        "NORMAL" : 11,
                        "TEXCOORD_0" : 12,
                        "TEXCOORD_1" : 13
                    },
                    "indices" : 14,
                    "material" : 2
                },
                {
                    "attributes" : {
                        "POSITION" : 15,
                        "NORMAL" : 16,
                        "TEXCOORD_0" : 17,
                        "TEXCOORD_1" : 18
                    },
                    "indices" : 19,
                    "material" : 3
                }
            ]
        }
    ],
    "textures" : [
        {
            "source" : 0
        },
        {
            "source" : 1
        },
        {
            "source" : 0
        },
        {
            "source" : 2
        },
        {
            "source" : 3
        },
        {
            "source" : 0
        }
    ],
    "images" : [
        {
            "mimeType" : "image/png",
            "name" : "black-cloth-AO",
            "uri" : "black-cloth-AO.png"
        },
        {
            "mimeType" : "image/png",
            "name" : "black-cloth",
            "uri" : "black-cloth.png"
        },
        {
            "mimeType" : "image/png",
            "name" : "black-cloth-yellow-stripe",
            "uri" : "black-cloth-yellow-stripe.png"
        },
        {
            "mimeType" : "image/png",
            "name" : "paraglider",
            "uri" : "paraglider.png"
        }
    ],
    "accessors" : [
        {
            "bufferView" : 0,
            "componentType" : 5126,
            "count" : 12,
            "max" : [
                1.289998173713684,
                -6.760188102722168,
                0.44393253326416016
            ],
            "min" : [
                -2.1304218769073486,
                -8.012078285217285,
                -0.39876556396484375
            ],
            "type" : "VEC3"
        },
        {
            "bufferView" : 1,
            "componentType" : 5126,
            "count" : 12,
            "type" : "VEC3"
        },
        {
            "bufferView" : 2,
            "componentType" : 5126,
            "count" : 12,
            "type" : "VEC2"
        },
        {
            "bufferView" : 3,
            "componentType" : 5126,
            "count" : 12,
            "type" : "VEC2"
        },
        {
            "bufferView" : 4,
            "componentType" : 5123,
            "count" : 12,
            "type" : "SCALAR"
        },
        {
            "bufferView" : 5,
            "componentType" : 5126,
            "count" : 6,
            "max" : [
                1.289998173713684,
                -6.760188102722168,
                0.44393253326416016
            ],
            "min" : [
                0.026013730093836784,
                -8.012078285217285,
                -0.39876556396484375
            ],
            "type" : "VEC3"
        },
        {
            "bufferView" : 6,
            "componentType" : 5126,
            "count" : 6,
            "type" : "VEC3"
        },
        {
            "bufferView" : 7,
            "componentType" : 5126,
            "count" : 6,
            "type" : "VEC2"
        },
        {
            "bufferView" : 8,
            "componentType" : 5126,
            "count" : 6,
            "type" : "VEC2"
        },
        {
            "bufferView" : 9,
            "componentType" : 5123,
            "count" : 6,
            "type" : "SCALAR"
        },
        {
            "bufferView" : 10,
            "componentType" : 5126,
            "count" : 3,
            "max" : [
                7.49629020690918,
                -7.081107139587402,
                10.77027416229248
            ],
            "min" : [
                -14.056533813476562,
                -7.089719772338867,
                -10.75816535949707
            ],
            "type" : "VEC3"
        },
        {
            "bufferView" : 11,
            "componentType" : 5126,
            "count" : 3,
            "type" : "VEC3"
        },
        {
            "bufferView" : 12,
            "componentType" : 5126,
            "count" : 3,
            "type" : "VEC2"
        },
        {
            "bufferView" : 13,
            "componentType" : 5126,
            "count" : 3,
            "type" : "VEC2"
        },
        {
            "bufferView" : 14,
            "componentType" : 5123,
            "count" : 3,
            "type" : "SCALAR"
        },
        {
            "bufferView" : 15,
            "componentType" : 5126,
            "count" : 72,
            "max" : [
                1.2628051042556763,
                0.276583194732666,
                4.659096717834473
            ],
            "min" : [
                -1.3225113153457642,
                -2.4562511444091797,
                -4.611581802368164
            ],
            "type" : "VEC3"
        },
        {
            "bufferView" : 16,
            "componentType" : 5126,
            "count" : 72,
            "type" : "VEC3"
        },
        {
            "bufferView" : 17,
            "componentType" : 5126,
            "count" : 72,
            "type" : "VEC2"
        },
        {
            "bufferView" : 18,
            "componentType" : 5126,
            "count" : 72,
            "type" : "VEC2"
        },
        {
            "bufferView" : 19,
            "componentType" : 5123,
            "count" : 108,
            "type" : "SCALAR"
        },
        {
            "bufferView" : 20,
            "componentType" : 5126,
            "count" : 1722,
            "max" : [
                71.75
            ],
            "min" : [
                0.041666666666666664
            ],
            "type" : "SCALAR"
        },
        {
            "bufferView" : 21,
            "componentType" : 5126,
            "count" : 1722,
            "type" : "VEC4"
        },
        {
            "bufferView" : 22,
            "componentType" : 5126,
            "count" : 1722,
            "type" : "VEC3"
        },
        {
            "bufferView" : 23,
            "componentType" : 5126,
            "count" : 1722,
            "type" : "VEC4"
        },
        {
            "bufferView" : 24,
            "componentType" : 5126,
            "count" : 1722,
            "type" : "VEC3"
        }
    ],
    "bufferViews" : [
        {
            "buffer" : 0,
            "byteLength" : 144,
            "byteOffset" : 0
        },
        {
            "buffer" : 0,
            "byteLength" : 144,
            "byteOffset" : 144
        },
        {
            "buffer" : 0,
            "byteLength" : 96,
            "byteOffset" : 288
        },
        {
            "buffer" : 0,
            "byteLength" : 96,
            "byteOffset" : 384
        },
        {
            "buffer" : 0,
            "byteLength" : 24,
            "byteOffset" : 480
        },
        {
            "buffer" : 0,
            "byteLength" : 72,
            "byteOffset" : 504
        },
        {
            "buffer" : 0,
            "byteLength" : 72,
            "byteOffset" : 576
        },
        {
            "buffer" : 0,
            "byteLength" : 48,
            "byteOffset" : 648
        },
        {
            "buffer" : 0,
            "byteLength" : 48,
            "byteOffset" : 696
        },
        {
            "buffer" : 0,
            "byteLength" : 12,
            "byteOffset" : 744
        },
        {
            "buffer" : 0,
            "byteLength" : 36,
            "byteOffset" : 756
        },
        {
            "buffer" : 0,
            "byteLength" : 36,
            "byteOffset" : 792
        },
        {
            "buffer" : 0,
            "byteLength" : 24,
            "byteOffset" : 828
        },
        {
            "buffer" : 0,
            "byteLength" : 24,
            "byteOffset" : 852
        },
        {
            "buffer" : 0,
            "byteLength" : 6,
            "byteOffset" : 876
        },
        {
            "buffer" : 0,
            "byteLength" : 864,
            "byteOffset" : 884
        },
        {
            "buffer" : 0,
            "byteLength" : 864,
            "byteOffset" : 1748
        },
        {
            "buffer" : 0,
            "byteLength" : 576,
            "byteOffset" : 2612
        },
        {
            "buffer" : 0,
            "byteLength" : 576,
            "byteOffset" : 3188
        },
        {
            "buffer" : 0,
            "byteLength" : 216,
            "byteOffset" : 3764
        },
        {
            "buffer" : 0,
            "byteLength" : 6888,
            "byteOffset" : 3980
        },
        {
            "buffer" : 0,
            "byteLength" : 27552,
            "byteOffset" : 10868
        },
        {
            "buffer" : 0,
            "byteLength" : 20664,
            "byteOffset" : 38420
        },
        {
            "buffer" : 0,
            "byteLength" : 27552,
            "byteOffset" : 59084
        },
        {
            "buffer" : 0,
            "byteLength" : 20664,
            "byteOffset" : 86636
        }
    ],
    "buffers" : [
        {
            "byteLength" : 107300,
            "uri" : "paraglider-red-ridge-cbj_LOD03.bin"
        }
    ]
}
