{"accessors":[{"bufferView":0,"componentType":5126,"count":288,"min":[-0.4512217044830322,-2.8728437423706056,-14.257547378540039],"max":[7.865409851074219,-0.007798922248184681,0.6230665445327759],"type":"VEC3","name":"LSZF_wind_rwy26_vertices#0_POSITION"},{"bufferView":0,"byteOffset":12,"componentType":5120,"count":288,"type":"VEC4","name":"LSZF_wind_rwy26_vertices#0_TANGENT"},{"bufferView":0,"byteOffset":16,"componentType":5120,"count":288,"type":"VEC4","name":"LSZF_wind_rwy26_vertices#0_NORMAL"},{"bufferView":0,"byteOffset":20,"componentType":5122,"count":288,"type":"VEC2","name":"LSZF_wind_rwy26_vertices#0_TEXCOORD_0"},{"bufferView":0,"byteOffset":24,"componentType":5122,"count":288,"type":"VEC2","name":"LSZF_wind_rwy26_vertices#0_TEXCOORD_1"},{"bufferView":0,"byteOffset":28,"componentType":5123,"count":288,"type":"VEC4","name":"LSZF_wind_rwy26_vertices#0_COLOR_0"},{"bufferView":1,"componentType":5123,"count":492,"type":"SCALAR","name":"LSZF_wind_rwy26_indices#1"},{"bufferView":0,"byteOffset":10368,"componentType":5126,"count":288,"min":[-4.158316135406494,0.0,-7.182108402252197],"max":[4.158315181732178,2.8650448322296144,7.698505401611328],"type":"VEC3","name":"LSZF_wind_rwy26.002_vertices#0_POSITION"},{"bufferView":0,"byteOffset":10380,"componentType":5120,"count":288,"type":"VEC4","name":"LSZF_wind_rwy26.002_vertices#0_TANGENT"},{"bufferView":0,"byteOffset":10384,"componentType":5120,"count":288,"type":"VEC4","name":"LSZF_wind_rwy26.002_vertices#0_NORMAL"},{"bufferView":0,"byteOffset":10388,"componentType":5122,"count":288,"type":"VEC2","name":"LSZF_wind_rwy26.002_vertices#0_TEXCOORD_0"},{"bufferView":0,"byteOffset":10392,"componentType":5122,"count":288,"type":"VEC2","name":"LSZF_wind_rwy26.002_vertices#0_TEXCOORD_1"},{"bufferView":0,"byteOffset":10396,"componentType":5123,"count":288,"type":"VEC4","name":"LSZF_wind_rwy26.002_vertices#0_COLOR_0"},{"bufferView":1,"byteOffset":984,"componentType":5123,"count":492,"type":"SCALAR","name":"LSZF_wind_rwy26.002_indices#1"}],"asset":{"generator":"Extended Khronos glTF Blender I/O v1.0.0","version":"2.0","extensions":{"ASOBO_asset_optimized":{"BoundingBoxMax":[0.5000680088996887,8.230826377868653,0.48945650458335879],"BoundingBoxMin":[-0.2643779516220093,-8.253231048583985,-0.9064680337905884],"MajorVersion":4,"MinorVersion":4,"UseCheckerboardMaterialForMissingTextures":true,"UseOnlyFilenameForImageURI":true},"ASOBO_normal_map_convention":{"tangent_space_convention":"DirectX"}}},"bufferViews":[{"buffer":0,"byteLength":20736,"byteStride":36,"target":34962,"name":"BufferViewVertexND"},{"buffer":0,"byteLength":1968,"byteOffset":20736,"target":34963,"name":"BufferViewIndex"}],"materials":[{"name":"metall","doubleSided":true,"pbrMetallicRoughness":{"baseColorFactor":[0.2597983777523041,0.1771921664476395,0.18900588154792784,1.0],"roughnessFactor":0.4000000059604645}},{"name":"weiss","doubleSided":true,"pbrMetallicRoughness":{"baseColorFactor":[0.35884007811546328,0.35884007811546328,0.35884007811546328,1.0],"metallicFactor":0.0,"roughnessFactor":0.5}}],"meshes":[{"primitives":[{"attributes":{"COLOR_0":5,"NORMAL":2,"POSITION":0,"TANGENT":1,"TEXCOORD_0":3,"TEXCOORD_1":4},"indices":6,"material":0,"mode":4,"extras":{"ASOBO_primitive":{"PrimitiveCount":140,"VertexType":"VTX","VertexVersion":2}}},{"attributes":{"COLOR_0":5,"NORMAL":2,"POSITION":0,"TANGENT":1,"TEXCOORD_0":3,"TEXCOORD_1":4},"indices":6,"material":1,"mode":4,"extras":{"ASOBO_primitive":{"PrimitiveCount":24,"StartIndex":420,"VertexType":"VTX","VertexVersion":2}}}],"name":"LSZF_wind_rwy26"},{"primitives":[{"attributes":{"COLOR_0":12,"NORMAL":9,"POSITION":7,"TANGENT":8,"TEXCOORD_0":10,"TEXCOORD_1":11},"indices":13,"material":0,"mode":4,"extras":{"ASOBO_primitive":{"PrimitiveCount":140,"VertexType":"VTX","VertexVersion":2}}},{"attributes":{"COLOR_0":12,"NORMAL":9,"POSITION":7,"TANGENT":8,"TEXCOORD_0":10,"TEXCOORD_1":11},"indices":13,"material":1,"mode":4,"extras":{"ASOBO_primitive":{"PrimitiveCount":24,"StartIndex":420,"VertexType":"VTX","VertexVersion":2}}}],"name":"LSZF_wind_rwy26.002"}],"nodes":[{"translation":[-0.01137709617614746,1.0,1.2903918027877808],"rotation":[0.0,0.7071067690849304,0.0,0.7071067690849304],"scale":[0.022130727767944337,1.0,0.022130727767944337],"mesh":0,"name":"LSZF_wind_rwy26"},{"translation":[2.480809211730957,0.0,0.0],"rotation":[0.0,0.7071067690849304,0.0,-0.7071067690849304],"scale":[0.022130727767944337,1.0,0.022130727767944337],"mesh":1,"name":"LSZF_wind_rwy08"}],"scene":0,"scenes":[{"nodes":[0,1],"name":"Scene"}],"extensionsUsed":["ASOBO_normal_map_convention","ASOBO_asset_optimized"],"buffers":[{"byteLength":22704,"uri":"LSZF-tee.bin"}]}
