{
    "asset" : {
        "extensions" : {
            "ASOBO_normal_map_convention" : {
                "tangent_space_convention" : "DirectX"
            }
        },
        "generator" : "Extended Khronos glTF Blender I/O v1.0.0",
        "version" : "2.0"
    },
    "extensionsUsed" : [
        "ASOBO_normal_map_convention",
        "ASOBO_tags"
    ],
    "scene" : 0,
    "scenes" : [
        {
            "name" : "Scene",
            "nodes" : [
                0,
                1
            ]
        }
    ],
    "nodes" : [
        {
            "mesh" : 0,
            "name" : "Plane.016"
        },
        {
            "mesh" : 1,
            "name" : "Plane.017",
            "rotation" : [
                0,
                -0.0011632114183157682,
                0,
                1
            ],
            "translation" : [
                0.09696798771619797,
                0,
                -0.019904568791389465
            ]
        }
    ],
    "materials" : [
        {
            "emissiveFactor" : [
                0,
                0,
                0
            ],
            "name" : "Hangar_206",
            "pbrMetallicRoughness" : {
                "baseColorTexture" : {
                    "index" : 0,
                    "texCoord" : 0
                },
                "metallicFactor" : 0,
                "roughnessFactor" : 0.5
            }
        },
        {
            "doubleSided" : true,
            "emissiveFactor" : [
                0,
                0,
                0
            ],
            "name" : "unicolor_grey",
            "pbrMetallicRoughness" : {
                "baseColorFactor" : [
                    0.800000011920929,
                    0.800000011920929,
                    0.800000011920929,
                    1
                ],
                "metallicFactor" : 0,
                "roughnessFactor" : 0.5
            }
        },
        {
            "doubleSided" : true,
            "emissiveFactor" : [
                0,
                0,
                0
            ],
            "extensions" : {
                "ASOBO_tags" : {
                    "Collision" : true
                }
            },
            "name" : "generic_roof_ethernit",
            "normalTexture" : {
                "index" : 1,
                "scale" : 6.490000247955322,
                "texCoord" : 0
            },
            "pbrMetallicRoughness" : {
                "baseColorTexture" : {
                    "index" : 2,
                    "texCoord" : 0
                },
                "metallicFactor" : 0,
                "roughnessFactor" : 0.5
            }
        },
        {
            "emissiveFactor" : [
                0,
                0,
                0
            ],
            "extensions" : {
                "ASOBO_tags" : {
                    "tags" : [
                        "Road"
                    ]
                }
            },
            "name" : "CC0_Hangarboden",
            "normalTexture" : {
                "index" : 3,
                "texCoord" : 0
            },
            "pbrMetallicRoughness" : {
                "baseColorTexture" : {
                    "index" : 4,
                    "texCoord" : 0
                },
                "metallicFactor" : 0,
                "roughnessFactor" : 0.5
            }
        },
        {
            "emissiveFactor" : [
                0,
                0,
                0
            ],
            "name" : "CC0_wood_planks",
            "normalTexture" : {
                "index" : 5,
                "texCoord" : 0
            },
            "pbrMetallicRoughness" : {
                "baseColorTexture" : {
                    "index" : 6,
                    "texCoord" : 0
                },
                "metallicFactor" : 0,
                "roughnessFactor" : 0.5
            }
        }
    ],
    "meshes" : [
        {
            "name" : "Plane.022",
            "primitives" : [
                {
                    "attributes" : {
                        "POSITION" : 0,
                        "NORMAL" : 1,
                        "TEXCOORD_0" : 2
                    },
                    "indices" : 3,
                    "material" : 0
                },
                {
                    "attributes" : {
                        "POSITION" : 4,
                        "NORMAL" : 5,
                        "TEXCOORD_0" : 6
                    },
                    "indices" : 7,
                    "material" : 1
                },
                {
                    "attributes" : {
                        "POSITION" : 8,
                        "NORMAL" : 9,
                        "TEXCOORD_0" : 10
                    },
                    "indices" : 11,
                    "material" : 2
                },
                {
                    "attributes" : {
                        "POSITION" : 12,
                        "NORMAL" : 13,
                        "TEXCOORD_0" : 14
                    },
                    "indices" : 15,
                    "material" : 3
                }
            ]
        },
        {
            "name" : "Plane.025",
            "primitives" : [
                {
                    "attributes" : {
                        "POSITION" : 16,
                        "NORMAL" : 17,
                        "TANGENT" : 18,
                        "TEXCOORD_0" : 19
                    },
                    "indices" : 20,
                    "material" : 4
                }
            ]
        }
    ],
    "textures" : [
        {
            "source" : 0
        },
        {
            "source" : 1
        },
        {
            "source" : 2
        },
        {
            "source" : 3
        },
        {
            "source" : 4
        },
        {
            "source" : 5
        },
        {
            "source" : 6
        }
    ],
    "images" : [
        {
            "mimeType" : "image/png",
            "name" : "lszf_hangar206_2K_albedo",
            "uri" : "lszf_hangar206_2K_albedo.png"
        },
        {
            "mimeType" : "image/png",
            "name" : "generic_roof_metal_1K_albedo_normal",
            "uri" : "generic_roof_metal_1K_albedo_normal.png"
        },
        {
            "mimeType" : "image/png",
            "name" : "generic_roof_metal_1K_albedo",
            "uri" : "generic_roof_metal_1K_albedo.png"
        },
        {
            "mimeType" : "image/jpeg",
            "name" : "generic-concrete_3_1K_normal",
            "uri" : "generic-concrete_3_1K_normal.jpg"
        },
        {
            "mimeType" : "image/jpeg",
            "name" : "generic-concrete_3_1K_diffuse",
            "uri" : "generic-concrete_3_1K_diffuse.jpg"
        },
        {
            "mimeType" : "image/jpeg",
            "name" : "generic_wood_plaks_1K_normal",
            "uri" : "generic_wood_plaks_1K_normal.jpg"
        },
        {
            "mimeType" : "image/jpeg",
            "name" : "generic_wood_plaks_1K_albedo",
            "uri" : "generic_wood_plaks_1K_albedo.jpg"
        }
    ],
    "accessors" : [
        {
            "bufferView" : 0,
            "componentType" : 5126,
            "count" : 122,
            "max" : [
                0.20212848484516144,
                4.817797660827637,
                0.4040403962135315
            ],
            "min" : [
                -86.92816162109375,
                -6.681375452899374e-10,
                -11.353092193603516
            ],
            "type" : "VEC3"
        },
        {
            "bufferView" : 1,
            "componentType" : 5126,
            "count" : 122,
            "type" : "VEC3"
        },
        {
            "bufferView" : 2,
            "componentType" : 5126,
            "count" : 122,
            "type" : "VEC2"
        },
        {
            "bufferView" : 3,
            "componentType" : 5123,
            "count" : 186,
            "type" : "SCALAR"
        },
        {
            "bufferView" : 4,
            "componentType" : 5126,
            "count" : 106,
            "max" : [
                0.20212848484516144,
                4.817797660827637,
                0.4040403962135315
            ],
            "min" : [
                -86.92816162109375,
                0,
                -11.747028350830078
            ],
            "type" : "VEC3"
        },
        {
            "bufferView" : 5,
            "componentType" : 5126,
            "count" : 106,
            "type" : "VEC3"
        },
        {
            "bufferView" : 6,
            "componentType" : 5126,
            "count" : 106,
            "type" : "VEC2"
        },
        {
            "bufferView" : 7,
            "componentType" : 5123,
            "count" : 204,
            "type" : "SCALAR"
        },
        {
            "bufferView" : 8,
            "componentType" : 5126,
            "count" : 61,
            "max" : [
                0.20212848484516144,
                4.817797660827637,
                0.4040403962135315
            ],
            "min" : [
                -86.9979019165039,
                2.9517407417297363,
                -11.747506141662598
            ],
            "type" : "VEC3"
        },
        {
            "bufferView" : 9,
            "componentType" : 5126,
            "count" : 61,
            "type" : "VEC3"
        },
        {
            "bufferView" : 10,
            "componentType" : 5126,
            "count" : 61,
            "type" : "VEC2"
        },
        {
            "bufferView" : 11,
            "componentType" : 5123,
            "count" : 93,
            "type" : "SCALAR"
        },
        {
            "bufferView" : 12,
            "componentType" : 5126,
            "count" : 127,
            "max" : [
                0.5499952435493469,
                4.817797660827637,
                0.5055062770843506
            ],
            "min" : [
                -87.42977905273438,
                -0.20000000298023224,
                -11.941904067993164
            ],
            "type" : "VEC3"
        },
        {
            "bufferView" : 13,
            "componentType" : 5126,
            "count" : 127,
            "type" : "VEC3"
        },
        {
            "bufferView" : 14,
            "componentType" : 5126,
            "count" : 127,
            "type" : "VEC2"
        },
        {
            "bufferView" : 15,
            "componentType" : 5123,
            "count" : 195,
            "type" : "SCALAR"
        },
        {
            "bufferView" : 16,
            "componentType" : 5126,
            "count" : 896,
            "max" : [
                -0.11640451848506927,
                4.500617504119873,
                0.2361394762992859
            ],
            "min" : [
                -86.92433166503906,
                2.373502731323242,
                -11.335220336914062
            ],
            "type" : "VEC3"
        },
        {
            "bufferView" : 17,
            "componentType" : 5126,
            "count" : 896,
            "type" : "VEC3"
        },
        {
            "bufferView" : 18,
            "componentType" : 5126,
            "count" : 896,
            "type" : "VEC4"
        },
        {
            "bufferView" : 19,
            "componentType" : 5126,
            "count" : 896,
            "type" : "VEC2"
        },
        {
            "bufferView" : 20,
            "componentType" : 5123,
            "count" : 1344,
            "type" : "SCALAR"
        }
    ],
    "bufferViews" : [
        {
            "buffer" : 0,
            "byteLength" : 1464,
            "byteOffset" : 0
        },
        {
            "buffer" : 0,
            "byteLength" : 1464,
            "byteOffset" : 1464
        },
        {
            "buffer" : 0,
            "byteLength" : 976,
            "byteOffset" : 2928
        },
        {
            "buffer" : 0,
            "byteLength" : 372,
            "byteOffset" : 3904
        },
        {
            "buffer" : 0,
            "byteLength" : 1272,
            "byteOffset" : 4276
        },
        {
            "buffer" : 0,
            "byteLength" : 1272,
            "byteOffset" : 5548
        },
        {
            "buffer" : 0,
            "byteLength" : 848,
            "byteOffset" : 6820
        },
        {
            "buffer" : 0,
            "byteLength" : 408,
            "byteOffset" : 7668
        },
        {
            "buffer" : 0,
            "byteLength" : 732,
            "byteOffset" : 8076
        },
        {
            "buffer" : 0,
            "byteLength" : 732,
            "byteOffset" : 8808
        },
        {
            "buffer" : 0,
            "byteLength" : 488,
            "byteOffset" : 9540
        },
        {
            "buffer" : 0,
            "byteLength" : 186,
            "byteOffset" : 10028
        },
        {
            "buffer" : 0,
            "byteLength" : 1524,
            "byteOffset" : 10216
        },
        {
            "buffer" : 0,
            "byteLength" : 1524,
            "byteOffset" : 11740
        },
        {
            "buffer" : 0,
            "byteLength" : 1016,
            "byteOffset" : 13264
        },
        {
            "buffer" : 0,
            "byteLength" : 390,
            "byteOffset" : 14280
        },
        {
            "buffer" : 0,
            "byteLength" : 10752,
            "byteOffset" : 14672
        },
        {
            "buffer" : 0,
            "byteLength" : 10752,
            "byteOffset" : 25424
        },
        {
            "buffer" : 0,
            "byteLength" : 14336,
            "byteOffset" : 36176
        },
        {
            "buffer" : 0,
            "byteLength" : 7168,
            "byteOffset" : 50512
        },
        {
            "buffer" : 0,
            "byteLength" : 2688,
            "byteOffset" : 57680
        }
    ],
    "buffers" : [
        {
            "byteLength" : 60368,
            "uri" : "lszf-hangar206.bin"
        }
    ]
}
