{
    "asset" : {
        "extensions" : {
            "ASOBO_normal_map_convention" : {
                "tangent_space_convention" : "DirectX"
            }
        },
        "generator" : "Extended Khronos glTF Blender I/O v1.0.0",
        "version" : "2.0"
    },
    "extensionsUsed" : [
        "ASOBO_normal_map_convention"
    ],
    "scene" : 0,
    "scenes" : [
        {
            "name" : "Scene",
            "nodes" : [
                0,
                1
            ]
        }
    ],
    "nodes" : [
        {
            "mesh" : 0,
            "name" : "Plane.016"
        },
        {
            "mesh" : 1,
            "name" : "Plane.017",
            "rotation" : [
                0,
                -0.0011632114183157682,
                0,
                1
            ]
        }
    ],
    "materials" : [
        {
            "emissiveFactor" : [
                0,
                0,
                0
            ],
            "name" : "Hangar_206",
            "pbrMetallicRoughness" : {
                "baseColorTexture" : {
                    "index" : 0,
                    "texCoord" : 0
                },
                "metallicFactor" : 0,
                "roughnessFactor" : 0.5
            }
        },
        {
            "doubleSided" : true,
            "emissiveFactor" : [
                0,
                0,
                0
            ],
            "name" : "unicolor_grey",
            "pbrMetallicRoughness" : {
                "baseColorFactor" : [
                    0.800000011920929,
                    0.800000011920929,
                    0.800000011920929,
                    1
                ],
                "metallicFactor" : 0,
                "roughnessFactor" : 0.5
            }
        },
        {
            "emissiveFactor" : [
                0,
                0,
                0
            ],
            "name" : "CC0_wood_planks",
            "normalTexture" : {
                "index" : 1,
                "texCoord" : 0
            },
            "pbrMetallicRoughness" : {
                "baseColorTexture" : {
                    "index" : 2,
                    "texCoord" : 0
                },
                "metallicFactor" : 0,
                "roughnessFactor" : 0.5
            }
        }
    ],
    "meshes" : [
        {
            "name" : "Plane.022",
            "primitives" : [
                {
                    "attributes" : {
                        "POSITION" : 0,
                        "NORMAL" : 1,
                        "TEXCOORD_0" : 2
                    },
                    "indices" : 3,
                    "material" : 0
                },
                {
                    "attributes" : {
                        "POSITION" : 4,
                        "NORMAL" : 5,
                        "TEXCOORD_0" : 6
                    },
                    "indices" : 7,
                    "material" : 1
                }
            ]
        },
        {
            "name" : "Plane.025",
            "primitives" : [
                {
                    "attributes" : {
                        "POSITION" : 8,
                        "NORMAL" : 9,
                        "TANGENT" : 10,
                        "TEXCOORD_0" : 11
                    },
                    "indices" : 12,
                    "material" : 2
                }
            ]
        }
    ],
    "textures" : [
        {
            "source" : 0
        },
        {
            "source" : 1
        },
        {
            "source" : 2
        }
    ],
    "images" : [
        {
            "mimeType" : "image/png",
            "name" : "lszf_hangar206_2K_albedo",
            "uri" : "lszf_hangar206_2K_albedo.png"
        },
        {
            "mimeType" : "image/jpeg",
            "name" : "generic_wood_plaks_1K_normal",
            "uri" : "generic_wood_plaks_1K_normal.jpg"
        },
        {
            "mimeType" : "image/jpeg",
            "name" : "generic_wood_plaks_1K_albedo",
            "uri" : "generic_wood_plaks_1K_albedo.jpg"
        }
    ],
    "accessors" : [
        {
            "bufferView" : 0,
            "componentType" : 5126,
            "count" : 85,
            "max" : [
                0.20212848484516144,
                4.817797660827637,
                0.39846593141555786
            ],
            "min" : [
                -86.92816162109375,
                -6.681375452899374e-10,
                -11.353092193603516
            ],
            "type" : "VEC3"
        },
        {
            "bufferView" : 1,
            "componentType" : 5126,
            "count" : 85,
            "type" : "VEC3"
        },
        {
            "bufferView" : 2,
            "componentType" : 5126,
            "count" : 85,
            "type" : "VEC2"
        },
        {
            "bufferView" : 3,
            "componentType" : 5123,
            "count" : 129,
            "type" : "SCALAR"
        },
        {
            "bufferView" : 4,
            "componentType" : 5126,
            "count" : 327,
            "max" : [
                0.5499952435493469,
                4.817797660827637,
                0.5055062770843506
            ],
            "min" : [
                -87.42977905273438,
                -0.20000000298023224,
                -11.941904067993164
            ],
            "type" : "VEC3"
        },
        {
            "bufferView" : 5,
            "componentType" : 5126,
            "count" : 327,
            "type" : "VEC3"
        },
        {
            "bufferView" : 6,
            "componentType" : 5126,
            "count" : 327,
            "type" : "VEC2"
        },
        {
            "bufferView" : 7,
            "componentType" : 5123,
            "count" : 537,
            "type" : "SCALAR"
        },
        {
            "bufferView" : 8,
            "componentType" : 5126,
            "count" : 896,
            "max" : [
                -0.11640451848506927,
                4.500617504119873,
                0.2361394762992859
            ],
            "min" : [
                -86.7743148803711,
                2.373502731323242,
                -11.335220336914062
            ],
            "type" : "VEC3"
        },
        {
            "bufferView" : 9,
            "componentType" : 5126,
            "count" : 896,
            "type" : "VEC3"
        },
        {
            "bufferView" : 10,
            "componentType" : 5126,
            "count" : 896,
            "type" : "VEC4"
        },
        {
            "bufferView" : 11,
            "componentType" : 5126,
            "count" : 896,
            "type" : "VEC2"
        },
        {
            "bufferView" : 12,
            "componentType" : 5123,
            "count" : 1344,
            "type" : "SCALAR"
        }
    ],
    "bufferViews" : [
        {
            "buffer" : 0,
            "byteLength" : 1020,
            "byteOffset" : 0
        },
        {
            "buffer" : 0,
            "byteLength" : 1020,
            "byteOffset" : 1020
        },
        {
            "buffer" : 0,
            "byteLength" : 680,
            "byteOffset" : 2040
        },
        {
            "buffer" : 0,
            "byteLength" : 258,
            "byteOffset" : 2720
        },
        {
            "buffer" : 0,
            "byteLength" : 3924,
            "byteOffset" : 2980
        },
        {
            "buffer" : 0,
            "byteLength" : 3924,
            "byteOffset" : 6904
        },
        {
            "buffer" : 0,
            "byteLength" : 2616,
            "byteOffset" : 10828
        },
        {
            "buffer" : 0,
            "byteLength" : 1074,
            "byteOffset" : 13444
        },
        {
            "buffer" : 0,
            "byteLength" : 10752,
            "byteOffset" : 14520
        },
        {
            "buffer" : 0,
            "byteLength" : 10752,
            "byteOffset" : 25272
        },
        {
            "buffer" : 0,
            "byteLength" : 14336,
            "byteOffset" : 36024
        },
        {
            "buffer" : 0,
            "byteLength" : 7168,
            "byteOffset" : 50360
        },
        {
            "buffer" : 0,
            "byteLength" : 2688,
            "byteOffset" : 57528
        }
    ],
    "buffers" : [
        {
            "byteLength" : 60216,
            "uri" : "lszf-hangar206.bin"
        }
    ]
}
