{
    "asset" : {
        "extensions" : {
            "ASOBO_normal_map_convention" : {
                "tangent_space_convention" : "DirectX"
            }
        },
        "generator" : "Extended Khronos glTF Blender I/O v1.0.0",
        "version" : "2.0"
    },
    "extensionsUsed" : [
        "ASOBO_normal_map_convention",
        "ASOBO_tags"
    ],
    "scene" : 0,
    "scenes" : [
        {
            "name" : "Scene",
            "nodes" : [
                0
            ]
        }
    ],
    "nodes" : [
        {
            "mesh" : 0,
            "name" : "Plane.016"
        }
    ],
    "materials" : [
        {
            "emissiveFactor" : [
                0,
                0,
                0
            ],
            "name" : "Hangar_206",
            "pbrMetallicRoughness" : {
                "baseColorTexture" : {
                    "index" : 0,
                    "texCoord" : 0
                },
                "metallicFactor" : 0,
                "roughnessFactor" : 0.5
            }
        },
        {
            "doubleSided" : true,
            "emissiveFactor" : [
                0,
                0,
                0
            ],
            "name" : "unicolor_grey",
            "pbrMetallicRoughness" : {
                "baseColorFactor" : [
                    0.800000011920929,
                    0.800000011920929,
                    0.800000011920929,
                    1
                ],
                "metallicFactor" : 0,
                "roughnessFactor" : 0.5
            }
        },
        {
            "emissiveFactor" : [
                0,
                0,
                0
            ],
            "name" : "generic_roof_ethernit",
            "normalTexture" : {
                "index" : 1,
                "scale" : 6.490000247955322,
                "texCoord" : 0
            },
            "pbrMetallicRoughness" : {
                "baseColorTexture" : {
                    "index" : 2,
                    "texCoord" : 0
                },
                "metallicFactor" : 0,
                "roughnessFactor" : 0.5
            }
        },
        {
            "emissiveFactor" : [
                0,
                0,
                0
            ],
            "extensions" : {
                "ASOBO_tags" : {
                    "tags" : [
                        "Road"
                    ]
                }
            },
            "name" : "CC0_Hangarboden",
            "normalTexture" : {
                "index" : 3,
                "texCoord" : 0
            },
            "pbrMetallicRoughness" : {
                "baseColorTexture" : {
                    "index" : 4,
                    "texCoord" : 0
                },
                "metallicFactor" : 0,
                "roughnessFactor" : 0.5
            }
        }
    ],
    "meshes" : [
        {
            "name" : "Plane.022",
            "primitives" : [
                {
                    "attributes" : {
                        "POSITION" : 0,
                        "NORMAL" : 1,
                        "TEXCOORD_0" : 2
                    },
                    "indices" : 3,
                    "material" : 0
                },
                {
                    "attributes" : {
                        "POSITION" : 4,
                        "NORMAL" : 5,
                        "TEXCOORD_0" : 6
                    },
                    "indices" : 7,
                    "material" : 1
                },
                {
                    "attributes" : {
                        "POSITION" : 8,
                        "NORMAL" : 9,
                        "TEXCOORD_0" : 10
                    },
                    "indices" : 11,
                    "material" : 2
                },
                {
                    "attributes" : {
                        "POSITION" : 12,
                        "NORMAL" : 13,
                        "TEXCOORD_0" : 14
                    },
                    "indices" : 15,
                    "material" : 3
                }
            ]
        }
    ],
    "textures" : [
        {
            "source" : 0
        },
        {
            "source" : 1
        },
        {
            "source" : 2
        },
        {
            "source" : 3
        },
        {
            "source" : 4
        }
    ],
    "images" : [
        {
            "mimeType" : "image/png",
            "name" : "lszf_hangar206_2K_albedo",
            "uri" : "lszf_hangar206_2K_albedo.png"
        },
        {
            "mimeType" : "image/png",
            "name" : "generic_roof_metal_1K_albedo_normal",
            "uri" : "generic_roof_metal_1K_albedo_normal.png"
        },
        {
            "mimeType" : "image/png",
            "name" : "generic_roof_metal_1K_albedo",
            "uri" : "generic_roof_metal_1K_albedo.png"
        },
        {
            "mimeType" : "image/jpeg",
            "name" : "generic-concrete_3_1K_normal",
            "uri" : "generic-concrete_3_1K_normal.jpg"
        },
        {
            "mimeType" : "image/jpeg",
            "name" : "generic-concrete_3_1K_diffuse",
            "uri" : "generic-concrete_3_1K_diffuse.jpg"
        }
    ],
    "accessors" : [
        {
            "bufferView" : 0,
            "componentType" : 5126,
            "count" : 126,
            "max" : [
                0.20212848484516144,
                4.817797660827637,
                0.4040403962135315
            ],
            "min" : [
                -87.12601470947266,
                -6.681375452899374e-10,
                -11.353092193603516
            ],
            "type" : "VEC3"
        },
        {
            "bufferView" : 1,
            "componentType" : 5126,
            "count" : 126,
            "type" : "VEC3"
        },
        {
            "bufferView" : 2,
            "componentType" : 5126,
            "count" : 126,
            "type" : "VEC2"
        },
        {
            "bufferView" : 3,
            "componentType" : 5123,
            "count" : 192,
            "type" : "SCALAR"
        },
        {
            "bufferView" : 4,
            "componentType" : 5126,
            "count" : 134,
            "max" : [
                0.20212848484516144,
                4.817797660827637,
                0.4040403962135315
            ],
            "min" : [
                -87.1281509399414,
                0,
                -11.74839973449707
            ],
            "type" : "VEC3"
        },
        {
            "bufferView" : 5,
            "componentType" : 5126,
            "count" : 134,
            "type" : "VEC3"
        },
        {
            "bufferView" : 6,
            "componentType" : 5126,
            "count" : 134,
            "type" : "VEC2"
        },
        {
            "bufferView" : 7,
            "componentType" : 5123,
            "count" : 246,
            "type" : "SCALAR"
        },
        {
            "bufferView" : 8,
            "componentType" : 5126,
            "count" : 61,
            "max" : [
                0.20212848484516144,
                4.817797660827637,
                0.4040403962135315
            ],
            "min" : [
                -87.1281509399414,
                2.9517407417297363,
                -11.74839973449707
            ],
            "type" : "VEC3"
        },
        {
            "bufferView" : 9,
            "componentType" : 5126,
            "count" : 61,
            "type" : "VEC3"
        },
        {
            "bufferView" : 10,
            "componentType" : 5126,
            "count" : 61,
            "type" : "VEC2"
        },
        {
            "bufferView" : 11,
            "componentType" : 5123,
            "count" : 93,
            "type" : "SCALAR"
        },
        {
            "bufferView" : 12,
            "componentType" : 5126,
            "count" : 112,
            "max" : [
                0.5499952435493469,
                4.454063415527344,
                0.5055062770843506
            ],
            "min" : [
                -87.42977905273438,
                -0.20000000298023224,
                -11.941904067993164
            ],
            "type" : "VEC3"
        },
        {
            "bufferView" : 13,
            "componentType" : 5126,
            "count" : 112,
            "type" : "VEC3"
        },
        {
            "bufferView" : 14,
            "componentType" : 5126,
            "count" : 112,
            "type" : "VEC2"
        },
        {
            "bufferView" : 15,
            "componentType" : 5123,
            "count" : 168,
            "type" : "SCALAR"
        }
    ],
    "bufferViews" : [
        {
            "buffer" : 0,
            "byteLength" : 1512,
            "byteOffset" : 0
        },
        {
            "buffer" : 0,
            "byteLength" : 1512,
            "byteOffset" : 1512
        },
        {
            "buffer" : 0,
            "byteLength" : 1008,
            "byteOffset" : 3024
        },
        {
            "buffer" : 0,
            "byteLength" : 384,
            "byteOffset" : 4032
        },
        {
            "buffer" : 0,
            "byteLength" : 1608,
            "byteOffset" : 4416
        },
        {
            "buffer" : 0,
            "byteLength" : 1608,
            "byteOffset" : 6024
        },
        {
            "buffer" : 0,
            "byteLength" : 1072,
            "byteOffset" : 7632
        },
        {
            "buffer" : 0,
            "byteLength" : 492,
            "byteOffset" : 8704
        },
        {
            "buffer" : 0,
            "byteLength" : 732,
            "byteOffset" : 9196
        },
        {
            "buffer" : 0,
            "byteLength" : 732,
            "byteOffset" : 9928
        },
        {
            "buffer" : 0,
            "byteLength" : 488,
            "byteOffset" : 10660
        },
        {
            "buffer" : 0,
            "byteLength" : 186,
            "byteOffset" : 11148
        },
        {
            "buffer" : 0,
            "byteLength" : 1344,
            "byteOffset" : 11336
        },
        {
            "buffer" : 0,
            "byteLength" : 1344,
            "byteOffset" : 12680
        },
        {
            "buffer" : 0,
            "byteLength" : 896,
            "byteOffset" : 14024
        },
        {
            "buffer" : 0,
            "byteLength" : 336,
            "byteOffset" : 14920
        }
    ],
    "buffers" : [
        {
            "byteLength" : 15256,
            "uri" : "lszf-hangar206.bin"
        }
    ]
}
