{"asset":{"version":"2.0","generator":"babylon.js glTF exporter for 3dsmax 2019 v1.5.0","extensions":{"ASOBO_normal_map_convention":{"tangent_space_convention":"DirectX"}}},"extensionsUsed":["ASOBO_normal_map_convention"],"scene":0,"scenes":[{"nodes":[0],"extensions":{}}],"nodes":[{"children":[1,2,3],"translation":[0.0,-0.774984,3.77185643E-08],"rotation":[0.0,0.0,0.0,1.0],"scale":[1.0,1.0,1.0],"name":"marker1_white_LOD0"},{"mesh":0,"translation":[0.0,0.774984,-3.77185643E-08],"rotation":[0.7071068,0.0,0.0,0.7071067],"scale":[1.0,1.0,1.0],"name":"marker1_white_LOD0"},{"mesh":1,"translation":[-0.24,-1.225016,-3.77185643E-08],"rotation":[0.0,0.0,0.0,1.0],"scale":[1.0,1.0,1.0],"name":"Cylinder002"},{"mesh":2,"translation":[0.24,-1.225016,-3.77185643E-08],"rotation":[0.0,0.0,0.0,1.0],"scale":[1.0,1.0,1.0],"name":"Cylinder001"}],"meshes":[{"primitives":[{"attributes":{"POSITION":1,"NORMAL":2},"indices":0,"mode":4,"material":0}],"name":"marker1_white_LOD0"},{"primitives":[{"attributes":{"POSITION":4,"NORMAL":5,"TEXCOORD_0":6},"indices":3,"mode":4,"material":0}],"name":"Cylinder002"},{"primitives":[{"attributes":{"POSITION":8,"NORMAL":9,"TEXCOORD_0":10},"indices":7,"mode":4,"material":0}],"name":"Cylinder001"}],"accessors":[{"bufferView":0,"componentType":5123,"count":744,"type":"SCALAR","name":"accessorIndices"},{"bufferView":1,"componentType":5126,"count":744,"max":[0.2500319,0.0100001208,-0.0500000119],"min":[-0.2500319,-0.0100001255,-0.450031936],"type":"VEC3","name":"accessorPositions"},{"bufferView":1,"byteOffset":8928,"componentType":5126,"count":744,"type":"VEC3","name":"accessorNormals"},{"bufferView":0,"byteOffset":1488,"componentType":5123,"count":96,"type":"SCALAR","name":"accessorIndices"},{"bufferView":1,"byteOffset":17856,"componentType":5126,"count":96,"max":[0.01,2.05,0.01],"min":[-0.01,0.0,-0.01],"type":"VEC3","name":"accessorPositions"},{"bufferView":1,"byteOffset":19008,"componentType":5126,"count":96,"type":"VEC3","name":"accessorNormals"},{"bufferView":2,"componentType":5126,"count":96,"type":"VEC2","name":"accessorUVs"},{"bufferView":0,"byteOffset":1680,"componentType":5123,"count":96,"type":"SCALAR","name":"accessorIndices"},{"bufferView":1,"byteOffset":20160,"componentType":5126,"count":96,"max":[0.01,2.05,0.01],"min":[-0.01,0.0,-0.01],"type":"VEC3","name":"accessorPositions"},{"bufferView":1,"byteOffset":21312,"componentType":5126,"count":96,"type":"VEC3","name":"accessorNormals"},{"bufferView":2,"byteOffset":768,"componentType":5126,"count":96,"type":"VEC2","name":"accessorUVs"}],"bufferViews":[{"buffer":0,"byteLength":1872,"name":"bufferViewScalar"},{"buffer":0,"byteOffset":1872,"byteLength":22464,"byteStride":12,"name":"bufferViewFloatVec3"},{"buffer":0,"byteOffset":24336,"byteLength":1536,"byteStride":8,"name":"bufferViewFloatVec2"}],"buffers":[{"uri":"marker1_white_LOD0.bin","byteLength":25872}],"materials":[{"pbrMetallicRoughness":{"baseColorFactor":[0.92549026,0.92549026,0.92549026,1.0],"metallicFactor":0.0,"roughnessFactor":0.0},"emissiveFactor":[0.0,0.0,0.0],"alphaMode":"OPAQUE","name":"white plastic"}]}