{
    "asset" : {
        "extensions" : {
            "ASOBO_normal_map_convention" : {
                "tangent_space_convention" : "DirectX"
            }
        },
        "generator" : "Extended Khronos glTF Blender I/O v1.0.0",
        "version" : "2.0"
    },
    "extensionsUsed" : [
        "ASOBO_normal_map_convention"
    ],
    "scene" : 0,
    "scenes" : [
        {
            "extras" : {
                "glTF2ExportSettings" : {
                    "export_apply" : 1,
                    "export_extras" : 1,
                    "export_generate_guid" : 0,
                    "export_lods" : 1,
                    "export_texture_dir" : "../texture",
                    "export_xml" : 1,
                    "export_xml_file" : "fence-mesh-grey-post-cbj",
                    "use_selection" : 1
                }
            },
            "name" : "Scene",
            "nodes" : [
                0
            ]
        }
    ],
    "nodes" : [
        {
            "mesh" : 0,
            "name" : "post"
        }
    ],
    "materials" : [
        {
            "emissiveFactor" : [
                0,
                0,
                0
            ],
            "extras" : {
                "msfs_material_mode" : 1,
                "msfs_albedo_texture" : {
                    "name" : "metal-aluminium-postTEXTURE.png",
                    "type" : "Image"
                },
                "msfs_metallic_texture" : {
                    "name" : "metal-aluminium-postAO.png",
                    "type" : "Image"
                },
                "msfs_normal_texture" : {
                    "name" : "metal-aluminium-postNORMAL.png",
                    "type" : "Image"
                },
                "msfs_show_tint" : 1,
                "msfs_show_sss_color" : 0,
                "msfs_show_glass_parameters" : 0,
                "msfs_show_decal_parameters" : 0,
                "msfs_show_fresnel_parameters" : 0,
                "msfs_show_parallax_parameters" : 0,
                "msfs_show_geo_decal_parameters" : 0,
                "msfs_show_albedo" : 1,
                "msfs_show_metallic" : 1,
                "msfs_show_normal" : 1,
                "msfs_show_emissive" : 1,
                "msfs_show_detail_albedo" : 1,
                "msfs_show_detail_metallic" : 1,
                "msfs_show_detail_normal" : 1,
                "msfs_show_blend_mask" : 1,
                "msfs_show_anisotropic_direction" : 0,
                "msfs_show_clearcoat" : 0,
                "msfs_show_behind_glass" : 0,
                "msfs_show_blend_mode" : 1,
                "msfs_show_draworder" : 1,
                "msfs_show_no_cast_shadow" : 1,
                "msfs_show_double_sided" : 1,
                "msfs_show_responsive_aa" : 0,
                "msfs_show_day_night_cycle" : 1,
                "msfs_show_collision_material" : 1,
                "msfs_show_road_material" : 1,
                "msfs_show_ao_use_uv2" : 1,
                "msfs_show_uv_clamp" : 1,
                "msfs_show_alpha_cutoff" : 1,
                "msfs_show_blend_threshold" : 1
            },
            "name" : "post1",
            "normalTexture" : {
                "index" : 0,
                "texCoord" : 0
            },
            "occlusionTexture" : {
                "index" : 1,
                "texCoord" : 0
            },
            "pbrMetallicRoughness" : {
                "baseColorTexture" : {
                    "index" : 2,
                    "texCoord" : 0
                },
                "metallicRoughnessTexture" : {
                    "index" : 1,
                    "texCoord" : 0
                }
            }
        }
    ],
    "meshes" : [
        {
            "name" : "Cube",
            "primitives" : [
                {
                    "attributes" : {
                        "POSITION" : 0,
                        "NORMAL" : 1,
                        "TEXCOORD_0" : 2
                    },
                    "indices" : 3,
                    "material" : 0
                }
            ]
        }
    ],
    "textures" : [
        {
            "source" : 0
        },
        {
            "source" : 1
        },
        {
            "source" : 2
        }
    ],
    "images" : [
        {
            "mimeType" : "image/png",
            "name" : "metal-aluminium-postNORMAL",
            "uri" : "metal-aluminium-postNORMAL.png"
        },
        {
            "mimeType" : "image/png",
            "name" : "metal-aluminium-postAO",
            "uri" : "metal-aluminium-postAO.png"
        },
        {
            "mimeType" : "image/png",
            "name" : "metal-aluminium-postTEXTURE",
            "uri" : "metal-aluminium-postTEXTURE.png"
        }
    ],
    "accessors" : [
        {
            "bufferView" : 0,
            "componentType" : 5126,
            "count" : 20,
            "max" : [
                0.06999999284744263,
                1.3000000715255737,
                0.034999992698431015
            ],
            "min" : [
                0,
                -0.30000001192092896,
                -0.034999992698431015
            ],
            "type" : "VEC3"
        },
        {
            "bufferView" : 1,
            "componentType" : 5126,
            "count" : 20,
            "type" : "VEC3"
        },
        {
            "bufferView" : 2,
            "componentType" : 5126,
            "count" : 20,
            "type" : "VEC2"
        },
        {
            "bufferView" : 3,
            "componentType" : 5123,
            "count" : 30,
            "type" : "SCALAR"
        }
    ],
    "bufferViews" : [
        {
            "buffer" : 0,
            "byteLength" : 240,
            "byteOffset" : 0
        },
        {
            "buffer" : 0,
            "byteLength" : 240,
            "byteOffset" : 240
        },
        {
            "buffer" : 0,
            "byteLength" : 160,
            "byteOffset" : 480
        },
        {
            "buffer" : 0,
            "byteLength" : 60,
            "byteOffset" : 640
        }
    ],
    "buffers" : [
        {
            "byteLength" : 700,
            "uri" : "fence-mesh-grey-post-cbj_LOD00.bin"
        }
    ]
}
