{
    "asset" : {
        "extensions" : {
            "ASOBO_normal_map_convention" : {
                "tangent_space_convention" : "DirectX"
            }
        },
        "generator" : "Extended Khronos glTF Blender I/O v1.0.0",
        "version" : "2.0"
    },
    "extensionsUsed" : [
        "ASOBO_normal_map_convention",
        "ASOBO_material_invisible",
        "ASOBO_macro_light"
    ],
    "scene" : 0,
    "scenes" : [
        {
            "extras" : {},
            "name" : "Scene",
            "nodes" : [
                0,
                1,
                2,
                3,
                4,
                5,
                6,
                7
            ]
        }
    ],
    "nodes" : [
        {
            "mesh" : 0,
            "name" : "night.002"
        },
        {
            "extensions" : {
                "ASOBO_macro_light" : {
                    "color" : [
                        1,
                        0.5972020626068115,
                        0.0021247342228889465
                    ],
                    "intensity" : 5,
                    "cone_angle" : 84.99999667351618,
                    "has_simmetry" : false,
                    "flash_frequency" : 0,
                    "flash_duration" : 0,
                    "flash_phase" : 0,
                    "rotation_speed" : 0,
                    "day_night_cycle" : true
                }
            },
            "extras" : {
                "msfs_light_flash_frequency" : 0,
                "msfs_light_flash_duration" : 0,
                "msfs_light_day_night_cycle" : 1,
                "msfs_light_has_symmetry" : 0
            },
            "name" : "Spot.001",
            "rotation" : [
                0.7050945162773132,
                -0.0030370629392564297,
                -0.0030370631720870733,
                0.7091003656387329
            ],
            "scale" : [
                1.6899998188018799,
                1.6899998188018799,
                1.6899998188018799
            ],
            "translation" : [
                0,
                9.505781173706055,
                0
            ]
        },
        {
            "extensions" : {
                "ASOBO_macro_light" : {
                    "color" : [
                        1,
                        0.5972020626068115,
                        0.0021247342228889465
                    ],
                    "intensity" : 61,
                    "cone_angle" : 69.99999967119774,
                    "has_simmetry" : false,
                    "flash_frequency" : 0,
                    "flash_duration" : 0,
                    "flash_phase" : 0,
                    "rotation_speed" : 0,
                    "day_night_cycle" : true
                }
            },
            "extras" : {
                "msfs_light_flash_frequency" : 0,
                "msfs_light_flash_duration" : 0,
                "msfs_light_day_night_cycle" : 1,
                "msfs_light_has_symmetry" : 0
            },
            "name" : "Point.023",
            "rotation" : [
                0.2409350574016571,
                -0.4802616238594055,
                -0.13910430669784546,
                -0.8318347930908203
            ],
            "scale" : [
                2.702331781387329,
                2.4801225662231445,
                1.9129297733306885
            ],
            "translation" : [
                -0.9355613589286804,
                0.1666117161512375,
                -0.539506196975708
            ]
        },
        {
            "extensions" : {
                "ASOBO_macro_light" : {
                    "color" : [
                        1,
                        0.5972020626068115,
                        0.0021247342228889465
                    ],
                    "intensity" : 61,
                    "cone_angle" : 69.99999967119774,
                    "has_simmetry" : false,
                    "flash_frequency" : 0,
                    "flash_duration" : 0,
                    "flash_phase" : 0,
                    "rotation_speed" : 0,
                    "day_night_cycle" : true
                }
            },
            "extras" : {
                "msfs_light_flash_frequency" : 0,
                "msfs_light_flash_duration" : 0,
                "msfs_light_day_night_cycle" : 1,
                "msfs_light_has_symmetry" : 0
            },
            "name" : "Point.022",
            "rotation" : [
                0.24093535542488098,
                0.4802594780921936,
                0.13910377025604248,
                -0.8318360447883606
            ],
            "scale" : [
                2.70233154296875,
                2.4801223278045654,
                1.9129297733306885
            ],
            "translation" : [
                0.9350067377090454,
                0.1666117161512375,
                -0.5404666066169739
            ]
        },
        {
            "extensions" : {
                "ASOBO_macro_light" : {
                    "color" : [
                        1,
                        0.5972020626068115,
                        0.0021247342228889465
                    ],
                    "intensity" : 61,
                    "cone_angle" : 69.99999967119774,
                    "has_simmetry" : false,
                    "flash_frequency" : 0,
                    "flash_duration" : 0,
                    "flash_phase" : 0,
                    "rotation_speed" : 0,
                    "day_night_cycle" : true
                }
            },
            "extras" : {
                "msfs_light_flash_frequency" : 0,
                "msfs_light_flash_duration" : 0,
                "msfs_light_day_night_cycle" : 1,
                "msfs_light_has_symmetry" : 0
            },
            "name" : "Point.021",
            "rotation" : [
                0.2782079875469208,
                0,
                0,
                -0.96052086353302
            ],
            "scale" : [
                2.70233154296875,
                2.4801228046417236,
                1.9129297733306885
            ],
            "translation" : [
                -0.0005545371677726507,
                0.1666117161512375,
                -1.0799728631973267
            ]
        },
        {
            "extensions" : {
                "ASOBO_macro_light" : {
                    "color" : [
                        1,
                        0.5972020626068115,
                        0.0021247342228889465
                    ],
                    "intensity" : 61,
                    "cone_angle" : 69.99999967119774,
                    "has_simmetry" : false,
                    "flash_frequency" : 0,
                    "flash_duration" : 0,
                    "flash_phase" : 0,
                    "rotation_speed" : 0,
                    "day_night_cycle" : true
                }
            },
            "extras" : {
                "msfs_light_flash_frequency" : 0,
                "msfs_light_flash_duration" : 0,
                "msfs_light_day_night_cycle" : 1,
                "msfs_light_has_symmetry" : 0
            },
            "name" : "Point.005",
            "rotation" : [
                -0.13910438120365143,
                -0.831834614276886,
                -0.24093499779701233,
                0.4802619516849518
            ],
            "scale" : [
                2.702331781387329,
                2.4801228046417236,
                1.9129297733306885
            ],
            "translation" : [
                0.93556147813797,
                0.1666117161512375,
                0.5395061373710632
            ]
        },
        {
            "extensions" : {
                "ASOBO_macro_light" : {
                    "color" : [
                        1,
                        0.5972020626068115,
                        0.0021247342228889465
                    ],
                    "intensity" : 61,
                    "cone_angle" : 69.99999967119774,
                    "has_simmetry" : false,
                    "flash_frequency" : 0,
                    "flash_duration" : 0,
                    "flash_phase" : 0,
                    "rotation_speed" : 0,
                    "day_night_cycle" : true
                }
            },
            "extras" : {
                "msfs_light_flash_frequency" : 0,
                "msfs_light_flash_duration" : 0,
                "msfs_light_day_night_cycle" : 1,
                "msfs_light_has_symmetry" : 0
            },
            "name" : "Point.004",
            "rotation" : [
                0,
                0.96052086353302,
                0.2782079875469208,
                -7.411774163301743e-07
            ],
            "scale" : [
                2.70233154296875,
                2.4801228046417236,
                1.9129297733306885
            ],
            "translation" : [
                0.0005543148145079613,
                0.1666117161512375,
                1.079972743988037
            ]
        },
        {
            "extensions" : {
                "ASOBO_macro_light" : {
                    "color" : [
                        1,
                        0.5972020626068115,
                        0.0021247342228889465
                    ],
                    "intensity" : 61,
                    "cone_angle" : 69.99999967119774,
                    "has_simmetry" : false,
                    "flash_frequency" : 0,
                    "flash_duration" : 0,
                    "flash_phase" : 0,
                    "rotation_speed" : 0,
                    "day_night_cycle" : true
                }
            },
            "extras" : {
                "msfs_light_flash_frequency" : 0,
                "msfs_light_flash_duration" : 0,
                "msfs_light_day_night_cycle" : 1,
                "msfs_light_has_symmetry" : 0
            },
            "name" : "Point.003",
            "rotation" : [
                0.13910366594791412,
                -0.8318362236022949,
                -0.24093538522720337,
                -0.48025915026664734
            ],
            "scale" : [
                2.70233154296875,
                2.4801228046417236,
                1.9129297733306885
            ],
            "translation" : [
                -0.9350067377090454,
                0.1666117161512375,
                0.540466845035553
            ]
        }
    ],
    "materials" : [
        {
            "emissiveFactor" : [
                0,
                0,
                0
            ],
            "emissiveTexture" : {
                "index" : 0,
                "texCoord" : 0
            },
            "extras" : {
                "msfs_material_mode" : 1,
                "msfs_albedo_texture" : {
                    "name" : "gable_color_msfs.png.001",
                    "type" : "Image"
                },
                "msfs_emissive_texture" : {
                    "name" : "gable_color_msfs.png.001",
                    "type" : "Image"
                },
                "msfs_show_tint" : 1,
                "msfs_show_sss_color" : 0,
                "msfs_show_glass_parameters" : 0,
                "msfs_show_decal_parameters" : 0,
                "msfs_show_fresnel_parameters" : 0,
                "msfs_show_parallax_parameters" : 0,
                "msfs_show_geo_decal_parameters" : 0,
                "msfs_show_albedo" : 1,
                "msfs_show_metallic" : 1,
                "msfs_show_normal" : 1,
                "msfs_show_emissive" : 1,
                "msfs_show_detail_albedo" : 1,
                "msfs_show_detail_metallic" : 1,
                "msfs_show_detail_normal" : 1,
                "msfs_show_blend_mask" : 1,
                "msfs_show_anisotropic_direction" : 0,
                "msfs_show_clearcoat" : 0,
                "msfs_show_behind_glass" : 0,
                "msfs_show_blend_mode" : 1,
                "msfs_show_draworder" : 1,
                "msfs_show_no_cast_shadow" : 1,
                "msfs_show_double_sided" : 1,
                "msfs_show_responsive_aa" : 0,
                "msfs_show_day_night_cycle" : 1,
                "msfs_show_collision_material" : 1,
                "msfs_show_road_material" : 1,
                "msfs_show_ao_use_uv2" : 1,
                "msfs_show_uv_clamp" : 1,
                "msfs_show_alpha_cutoff" : 1,
                "msfs_show_blend_threshold" : 1
            },
            "name" : "light-material.001",
            "pbrMetallicRoughness" : {
                "baseColorTexture" : {
                    "index" : 1,
                    "texCoord" : 0
                },
                "metallicFactor" : 0,
                "roughnessFactor" : 0.5
            }
        },
        {
            "alphaMode" : "BLEND",
            "emissiveFactor" : [
                0.800000011920929,
                0,
                0
            ],
            "extensions" : {
                "ASOBO_material_invisible" : {
                    "enabled" : true
                }
            },
            "extras" : {
                "msfs_material_mode" : 15,
                "msfs_show_tint" : 0,
                "msfs_show_sss_color" : 0,
                "msfs_show_glass_parameters" : 0,
                "msfs_show_decal_parameters" : 0,
                "msfs_show_fresnel_parameters" : 0,
                "msfs_show_parallax_parameters" : 0,
                "msfs_show_geo_decal_parameters" : 0,
                "msfs_show_albedo" : 0,
                "msfs_show_metallic" : 0,
                "msfs_show_normal" : 0,
                "msfs_show_emissive" : 0,
                "msfs_show_detail_albedo" : 0,
                "msfs_show_detail_metallic" : 0,
                "msfs_show_detail_normal" : 0,
                "msfs_show_blend_mask" : 0,
                "msfs_show_anisotropic_direction" : 0,
                "msfs_show_clearcoat" : 0,
                "msfs_show_behind_glass" : 0,
                "msfs_show_blend_mode" : 0,
                "msfs_show_draworder" : 0,
                "msfs_show_no_cast_shadow" : 0,
                "msfs_show_double_sided" : 0,
                "msfs_show_responsive_aa" : 0,
                "msfs_show_day_night_cycle" : 0,
                "msfs_show_collision_material" : 1,
                "msfs_show_road_material" : 1,
                "msfs_show_ao_use_uv2" : 0,
                "msfs_show_uv_clamp" : 1,
                "msfs_show_alpha_cutoff" : 0,
                "msfs_show_blend_threshold" : 0
            },
            "name" : "invisable2",
            "pbrMetallicRoughness" : {
                "baseColorFactor" : [
                    0.800000011920929,
                    0,
                    0,
                    0
                ],
                "metallicFactor" : 0,
                "roughnessFactor" : 0.5
            }
        }
    ],
    "meshes" : [
        {
            "name" : "Cube.001",
            "primitives" : [
                {
                    "attributes" : {
                        "POSITION" : 0,
                        "NORMAL" : 1,
                        "TEXCOORD_0" : 2
                    },
                    "indices" : 3,
                    "material" : 0
                },
                {
                    "attributes" : {
                        "POSITION" : 4,
                        "NORMAL" : 5,
                        "TEXCOORD_0" : 6
                    },
                    "indices" : 7,
                    "material" : 1
                }
            ]
        }
    ],
    "textures" : [
        {
            "source" : 0
        },
        {
            "source" : 0
        }
    ],
    "images" : [
        {
            "mimeType" : "image/png",
            "name" : "gable_color_msfs",
            "uri" : "gable_color_msfs.png"
        }
    ],
    "accessors" : [
        {
            "bufferView" : 0,
            "componentType" : 5126,
            "count" : 42,
            "max" : [
                0.2370503544807434,
                0.8516296744346619,
                0.2737221121788025
            ],
            "min" : [
                -0.2370503544807434,
                -0.29116231203079224,
                -0.2737221121788025
            ],
            "type" : "VEC3"
        },
        {
            "bufferView" : 1,
            "componentType" : 5126,
            "count" : 42,
            "type" : "VEC3"
        },
        {
            "bufferView" : 2,
            "componentType" : 5126,
            "count" : 42,
            "type" : "VEC2"
        },
        {
            "bufferView" : 3,
            "componentType" : 5123,
            "count" : 66,
            "type" : "SCALAR"
        },
        {
            "bufferView" : 4,
            "componentType" : 5126,
            "count" : 3,
            "max" : [
                10.498881340026855,
                -6.6951093673706055,
                7.9674072265625
            ],
            "min" : [
                -5.435933589935303,
                -6.6951093673706055,
                -7.9674072265625
            ],
            "type" : "VEC3"
        },
        {
            "bufferView" : 5,
            "componentType" : 5126,
            "count" : 3,
            "type" : "VEC3"
        },
        {
            "bufferView" : 6,
            "componentType" : 5126,
            "count" : 3,
            "type" : "VEC2"
        },
        {
            "bufferView" : 7,
            "componentType" : 5123,
            "count" : 3,
            "type" : "SCALAR"
        }
    ],
    "bufferViews" : [
        {
            "buffer" : 0,
            "byteLength" : 504,
            "byteOffset" : 0
        },
        {
            "buffer" : 0,
            "byteLength" : 504,
            "byteOffset" : 504
        },
        {
            "buffer" : 0,
            "byteLength" : 336,
            "byteOffset" : 1008
        },
        {
            "buffer" : 0,
            "byteLength" : 132,
            "byteOffset" : 1344
        },
        {
            "buffer" : 0,
            "byteLength" : 36,
            "byteOffset" : 1476
        },
        {
            "buffer" : 0,
            "byteLength" : 36,
            "byteOffset" : 1512
        },
        {
            "buffer" : 0,
            "byteLength" : 24,
            "byteOffset" : 1548
        },
        {
            "buffer" : 0,
            "byteLength" : 6,
            "byteOffset" : 1572
        }
    ],
    "buffers" : [
        {
            "byteLength" : 1580,
            "uri" : "obstacle-light-steady-yellow-cbj_LOD01.bin"
        }
    ]
}
