{"accessors":[{"bufferView":0,"componentType":5126,"count":2,"min":[0.0],"max":[0.0333333351],"type":"SCALAR","name":"accessorAnimationInput"},{"bufferView":1,"componentType":5126,"count":2,"type":"VEC4","name":"accessorAnimationRotations"},{"bufferView":0,"byteOffset":8,"componentType":5126,"count":2,"min":[0.0],"max":[0.0333333351],"type":"SCALAR","name":"accessorAnimationInput"},{"bufferView":1,"byteOffset":32,"componentType":5126,"count":2,"type":"VEC4","name":"accessorAnimationRotations"},{"bufferView":2,"componentType":5126,"count":36,"min":[-2.0999999046325685,0.0,-0.3499999940395355],"max":[2.0999999046325685,0.05999999865889549,0.3499999940395355],"type":"VEC3","name":"Box002_vertices#0_POSITION"},{"bufferView":2,"byteOffset":12,"componentType":5120,"count":36,"type":"VEC4","name":"Box002_vertices#0_TANGENT"},{"bufferView":2,"byteOffset":16,"componentType":5120,"count":36,"type":"VEC4","name":"Box002_vertices#0_NORMAL"},{"bufferView":2,"byteOffset":20,"componentType":5122,"count":36,"type":"VEC2","name":"Box002_vertices#0_TEXCOORD_0"},{"bufferView":2,"byteOffset":24,"componentType":5122,"count":36,"type":"VEC2","name":"Box002_vertices#0_TEXCOORD_1"},{"bufferView":2,"byteOffset":28,"componentType":5123,"count":36,"type":"VEC4","name":"Box002_vertices#0_COLOR_0"},{"bufferView":3,"componentType":5123,"count":36,"type":"SCALAR","name":"Box002_indices#0"},{"bufferView":2,"byteOffset":1296,"componentType":5126,"count":36,"min":[-2.0999999046325685,0.0,-0.3499999940395355],"max":[2.0999999046325685,0.05999999865889549,0.3499999940395355],"type":"VEC3","name":"Box001_vertices#0_POSITION"},{"bufferView":2,"byteOffset":1308,"componentType":5120,"count":36,"type":"VEC4","name":"Box001_vertices#0_TANGENT"},{"bufferView":2,"byteOffset":1312,"componentType":5120,"count":36,"type":"VEC4","name":"Box001_vertices#0_NORMAL"},{"bufferView":2,"byteOffset":1316,"componentType":5122,"count":36,"type":"VEC2","name":"Box001_vertices#0_TEXCOORD_0"},{"bufferView":2,"byteOffset":1320,"componentType":5122,"count":36,"type":"VEC2","name":"Box001_vertices#0_TEXCOORD_1"},{"bufferView":2,"byteOffset":1324,"componentType":5123,"count":36,"type":"VEC4","name":"Box001_vertices#0_COLOR_0"},{"bufferView":3,"byteOffset":72,"componentType":5123,"count":36,"type":"SCALAR","name":"Box001_indices#0"}],"animations":[{"name":"flip","channels":[{"sampler":0,"target":{"node":1,"path":"rotation"}},{"sampler":1,"target":{"node":2,"path":"rotation"}}],"samplers":[{"input":0,"output":1,"interpolation":"LINEAR"},{"input":2,"output":3,"interpolation":"LINEAR"}]}],"asset":{"generator":"babylon.js glTF exporter for 3dsmax 2019 v1.5.0","version":"2.0","extensions":{"ASOBO_asset_optimized":{"BoundingBoxMax":[2.0999999046325685,0.05999999865889549,0.3499999940395355],"BoundingBoxMin":[-2.0999999046325685,0.0,-0.3499999940395355],"MajorVersion":4,"MinorVersion":2},"ASOBO_normal_map_convention":{"tangent_space_convention":"DirectX"}}},"bufferViews":[{"buffer":0,"byteLength":16,"name":"bufferViewAnimationFloatScalar"},{"buffer":0,"byteLength":64,"byteOffset":16,"name":"bufferViewAnimationFloatVec4"},{"buffer":0,"byteLength":2592,"byteStride":36,"byteOffset":80,"target":34962,"name":"BufferViewVertexND"},{"buffer":0,"byteLength":144,"byteOffset":2672,"target":34963,"name":"BufferViewIndex"}],"extensionsUsed":["ASOBO_normal_map_convention","ASOBO_asset_optimized"],"materials":[{"name":"Material #25","pbrMetallicRoughness":{"baseColorFactor":[0.9640288,0.9640288,0.9640288,1.0],"metallicFactor":0.0,"roughnessFactor":0.7}}],"meshes":[{"primitives":[{"attributes":{"COLOR_0":9,"NORMAL":6,"POSITION":4,"TANGENT":5,"TEXCOORD_0":7,"TEXCOORD_1":8},"indices":10,"material":0,"mode":4,"extras":{"ASOBO_primitive":{"PrimitiveCount":12,"VertexType":"VTX","VertexVersion":2}}}],"name":"Box002"},{"primitives":[{"attributes":{"COLOR_0":16,"NORMAL":13,"POSITION":11,"TANGENT":12,"TEXCOORD_0":14,"TEXCOORD_1":15},"indices":17,"material":0,"mode":4,"extras":{"ASOBO_primitive":{"PrimitiveCount":12,"VertexType":"VTX","VertexVersion":2}}}],"name":"Box001"}],"nodes":[{"translation":[0.0,0.03,0.875000656],"rotation":[0.0,0.0,0.0,1.0],"scale":[1.0,1.0,1.0],"name":"tee","children":[1,2]},{"translation":[0.0,-0.03,0.224999249],"rotation":[0.0,0.7071068,0.0,0.7071067],"scale":[1.0,1.0,1.0],"mesh":0,"name":"Box002"},{"translation":[0.0,-0.03,-1.97499919],"rotation":[0.0,0.0,0.0,1.0],"scale":[1.0,1.0,1.0],"mesh":1,"name":"Box001"}],"scene":0,"scenes":[{"nodes":[0]}],"buffers":[{"byteLength":2816,"uri":"LSZF-tee.bin"}]}
