{
    "asset" : {
        "extensions" : {
            "ASOBO_normal_map_convention" : {
                "tangent_space_convention" : "DirectX"
            }
        },
        "generator" : "Extended Khronos glTF Blender I/O v1.0.0",
        "version" : "2.0"
    },
    "extensionsUsed" : [
        "ASOBO_normal_map_convention"
    ],
    "scene" : 0,
    "scenes" : [
        {
            "extras" : {},
            "name" : "Scene",
            "nodes" : [
                0,
                1,
                2,
                3
            ]
        }
    ],
    "nodes" : [
        {
            "extras" : {
                "currentUVSet" : "map1"
            },
            "mesh" : 0,
            "name" : "head",
            "translation" : [
                0,
                1.4900000095367432,
                0
            ]
        },
        {
            "extras" : {
                "currentUVSet" : "map1"
            },
            "mesh" : 1,
            "name" : "legs"
        },
        {
            "extras" : {
                "currentUVSet" : "map1"
            },
            "mesh" : 2,
            "name" : "trunk-no-arm",
            "translation" : [
                0,
                1.100000023841858,
                0
            ]
        },
        {
            "extras" : {
                "currentUVSet" : "map1"
            },
            "mesh" : 3,
            "name" : "arm-left",
            "translation" : [
                0.1850000023841858,
                1.350000023841858,
                -0.004999999888241291
            ]
        }
    ],
    "animations" : [
        {
            "channels" : [
                {
                    "sampler" : 0,
                    "target" : {
                        "node" : 0,
                        "path" : "rotation"
                    }
                },
                {
                    "sampler" : 1,
                    "target" : {
                        "node" : 0,
                        "path" : "translation"
                    }
                }
            ],
            "name" : "head",
            "samplers" : [
                {
                    "input" : 24,
                    "interpolation" : "LINEAR",
                    "output" : 25
                },
                {
                    "input" : 26,
                    "interpolation" : "LINEAR",
                    "output" : 27
                }
            ]
        },
        {
            "channels" : [
                {
                    "sampler" : 0,
                    "target" : {
                        "node" : 2,
                        "path" : "rotation"
                    }
                }
            ],
            "name" : "trunk-no-arm",
            "samplers" : [
                {
                    "input" : 24,
                    "interpolation" : "LINEAR",
                    "output" : 28
                }
            ]
        },
        {
            "channels" : [
                {
                    "sampler" : 0,
                    "target" : {
                        "node" : 3,
                        "path" : "translation"
                    }
                },
                {
                    "sampler" : 1,
                    "target" : {
                        "node" : 3,
                        "path" : "rotation"
                    }
                }
            ],
            "name" : "arm-left",
            "samplers" : [
                {
                    "input" : 24,
                    "interpolation" : "LINEAR",
                    "output" : 29
                },
                {
                    "input" : 24,
                    "interpolation" : "LINEAR",
                    "output" : 30
                }
            ]
        }
    ],
    "materials" : [
        {
            "emissiveFactor" : [
                0,
                0,
                0
            ],
            "extras" : {
                "msfs_material_mode" : 1,
                "msfs_albedo_texture" : {
                    "name" : "rp_carla_rigged_001_dif.png",
                    "type" : "Image"
                },
                "msfs_metallic_texture" : {
                    "name" : "rp_carla_rigged_001_gloss.png",
                    "type" : "Image"
                },
                "msfs_normal_texture" : {
                    "name" : "rp_carla_rigged_001_norm.png",
                    "type" : "Image"
                },
                "msfs_show_tint" : 1,
                "msfs_show_sss_color" : 0,
                "msfs_show_glass_parameters" : 0,
                "msfs_show_decal_parameters" : 0,
                "msfs_show_fresnel_parameters" : 0,
                "msfs_show_parallax_parameters" : 0,
                "msfs_show_geo_decal_parameters" : 0,
                "msfs_show_albedo" : 1,
                "msfs_show_metallic" : 1,
                "msfs_show_normal" : 1,
                "msfs_show_emissive" : 1,
                "msfs_show_detail_albedo" : 1,
                "msfs_show_detail_metallic" : 1,
                "msfs_show_detail_normal" : 1,
                "msfs_show_blend_mask" : 1,
                "msfs_show_anisotropic_direction" : 0,
                "msfs_show_clearcoat" : 0,
                "msfs_show_behind_glass" : 0,
                "msfs_show_blend_mode" : 1,
                "msfs_show_draworder" : 1,
                "msfs_show_no_cast_shadow" : 1,
                "msfs_show_double_sided" : 1,
                "msfs_show_responsive_aa" : 0,
                "msfs_show_day_night_cycle" : 1,
                "msfs_show_collision_material" : 1,
                "msfs_show_road_material" : 1,
                "msfs_show_ao_use_uv2" : 1,
                "msfs_show_uv_clamp" : 1,
                "msfs_show_alpha_cutoff" : 1,
                "msfs_show_blend_threshold" : 1
            },
            "name" : "rp_carla_rigged_001_mat",
            "normalTexture" : {
                "index" : 0,
                "texCoord" : 0
            },
            "occlusionTexture" : {
                "index" : 1,
                "texCoord" : 0
            },
            "pbrMetallicRoughness" : {
                "baseColorTexture" : {
                    "index" : 2,
                    "texCoord" : 0
                },
                "metallicRoughnessTexture" : {
                    "index" : 1,
                    "texCoord" : 0
                }
            }
        },
        {
            "emissiveFactor" : [
                0,
                0,
                0
            ],
            "extras" : {
                "msfs_material_mode" : 1,
                "msfs_albedo_texture" : {
                    "name" : "rp_carla_rigged_001_dif.png",
                    "type" : "Image"
                },
                "msfs_metallic_texture" : {
                    "name" : "rp_carla_rigged_001_gloss.png",
                    "type" : "Image"
                },
                "msfs_normal_texture" : {
                    "name" : "rp_carla_rigged_001_norm.png",
                    "type" : "Image"
                },
                "msfs_show_tint" : 1,
                "msfs_show_sss_color" : 0,
                "msfs_show_glass_parameters" : 0,
                "msfs_show_decal_parameters" : 0,
                "msfs_show_fresnel_parameters" : 0,
                "msfs_show_parallax_parameters" : 0,
                "msfs_show_geo_decal_parameters" : 0,
                "msfs_show_albedo" : 1,
                "msfs_show_metallic" : 1,
                "msfs_show_normal" : 1,
                "msfs_show_emissive" : 1,
                "msfs_show_detail_albedo" : 1,
                "msfs_show_detail_metallic" : 1,
                "msfs_show_detail_normal" : 1,
                "msfs_show_blend_mask" : 1,
                "msfs_show_anisotropic_direction" : 0,
                "msfs_show_clearcoat" : 0,
                "msfs_show_behind_glass" : 0,
                "msfs_show_blend_mode" : 1,
                "msfs_show_draworder" : 1,
                "msfs_show_no_cast_shadow" : 1,
                "msfs_show_double_sided" : 1,
                "msfs_show_responsive_aa" : 0,
                "msfs_show_day_night_cycle" : 1,
                "msfs_show_collision_material" : 1,
                "msfs_show_road_material" : 1,
                "msfs_show_ao_use_uv2" : 1,
                "msfs_show_uv_clamp" : 1,
                "msfs_show_alpha_cutoff" : 1,
                "msfs_show_blend_threshold" : 1
            },
            "name" : "rp_carla_rigged_001_mat.005",
            "normalTexture" : {
                "index" : 3,
                "texCoord" : 0
            },
            "pbrMetallicRoughness" : {
                "baseColorTexture" : {
                    "index" : 4,
                    "texCoord" : 0
                },
                "metallicRoughnessTexture" : {
                    "index" : 5,
                    "texCoord" : 0
                }
            }
        },
        {
            "emissiveFactor" : [
                0,
                0,
                0
            ],
            "extras" : {
                "msfs_material_mode" : 1,
                "msfs_albedo_texture" : {
                    "name" : "rp_carla_rigged_001_dif.png",
                    "type" : "Image"
                },
                "msfs_metallic_texture" : {
                    "name" : "rp_carla_rigged_001_gloss.png",
                    "type" : "Image"
                },
                "msfs_normal_texture" : {
                    "name" : "rp_carla_rigged_001_norm.png",
                    "type" : "Image"
                },
                "msfs_show_tint" : 1,
                "msfs_show_sss_color" : 0,
                "msfs_show_glass_parameters" : 0,
                "msfs_show_decal_parameters" : 0,
                "msfs_show_fresnel_parameters" : 0,
                "msfs_show_parallax_parameters" : 0,
                "msfs_show_geo_decal_parameters" : 0,
                "msfs_show_albedo" : 1,
                "msfs_show_metallic" : 1,
                "msfs_show_normal" : 1,
                "msfs_show_emissive" : 1,
                "msfs_show_detail_albedo" : 1,
                "msfs_show_detail_metallic" : 1,
                "msfs_show_detail_normal" : 1,
                "msfs_show_blend_mask" : 1,
                "msfs_show_anisotropic_direction" : 0,
                "msfs_show_clearcoat" : 0,
                "msfs_show_behind_glass" : 0,
                "msfs_show_blend_mode" : 1,
                "msfs_show_draworder" : 1,
                "msfs_show_no_cast_shadow" : 1,
                "msfs_show_double_sided" : 1,
                "msfs_show_responsive_aa" : 0,
                "msfs_show_day_night_cycle" : 1,
                "msfs_show_collision_material" : 1,
                "msfs_show_road_material" : 1,
                "msfs_show_ao_use_uv2" : 1,
                "msfs_show_uv_clamp" : 1,
                "msfs_show_alpha_cutoff" : 1,
                "msfs_show_blend_threshold" : 1
            },
            "name" : "rp_carla_rigged_001_mat.004",
            "normalTexture" : {
                "index" : 6,
                "texCoord" : 0
            },
            "pbrMetallicRoughness" : {
                "baseColorTexture" : {
                    "index" : 7,
                    "texCoord" : 0
                },
                "metallicRoughnessTexture" : {
                    "index" : 8,
                    "texCoord" : 0
                }
            }
        }
    ],
    "meshes" : [
        {
            "name" : "Mesh.003",
            "primitives" : [
                {
                    "attributes" : {
                        "POSITION" : 0,
                        "NORMAL" : 1,
                        "TEXCOORD_0" : 2,
                        "JOINTS_0" : 3,
                        "WEIGHTS_0" : 4
                    },
                    "indices" : 5,
                    "material" : 0
                }
            ]
        },
        {
            "name" : "Mesh.004",
            "primitives" : [
                {
                    "attributes" : {
                        "POSITION" : 6,
                        "NORMAL" : 7,
                        "TEXCOORD_0" : 8,
                        "JOINTS_0" : 9,
                        "WEIGHTS_0" : 10
                    },
                    "indices" : 11,
                    "material" : 0
                }
            ]
        },
        {
            "name" : "Mesh.009",
            "primitives" : [
                {
                    "attributes" : {
                        "POSITION" : 12,
                        "NORMAL" : 13,
                        "TEXCOORD_0" : 14,
                        "JOINTS_0" : 15,
                        "WEIGHTS_0" : 16
                    },
                    "indices" : 17,
                    "material" : 1
                }
            ]
        },
        {
            "name" : "Mesh.007",
            "primitives" : [
                {
                    "attributes" : {
                        "POSITION" : 18,
                        "NORMAL" : 19,
                        "TEXCOORD_0" : 20,
                        "JOINTS_0" : 21,
                        "WEIGHTS_0" : 22
                    },
                    "indices" : 23,
                    "material" : 2
                }
            ]
        }
    ],
    "textures" : [
        {
            "source" : 0
        },
        {
            "source" : 1
        },
        {
            "source" : 2
        },
        {
            "source" : 0
        },
        {
            "source" : 2
        },
        {
            "source" : 1
        },
        {
            "source" : 0
        },
        {
            "source" : 2
        },
        {
            "source" : 1
        }
    ],
    "images" : [
        {
            "mimeType" : "image/png",
            "name" : "rp_carla_rigged_001_norm",
            "uri" : "rp_carla_rigged_001_norm.png"
        },
        {
            "mimeType" : "image/png",
            "name" : "rp_carla_rigged_001_gloss",
            "uri" : "rp_carla_rigged_001_gloss.png"
        },
        {
            "mimeType" : "image/png",
            "name" : "rp_carla_rigged_001_dif",
            "uri" : "rp_carla_rigged_001_dif.png"
        }
    ],
    "accessors" : [
        {
            "bufferView" : 0,
            "componentType" : 5126,
            "count" : 539,
            "max" : [
                0.09196364879608154,
                0.24106848239898682,
                0.116648368537426
            ],
            "min" : [
                -0.0855870470404625,
                -0.0728313997387886,
                -0.1435760259628296
            ],
            "type" : "VEC3"
        },
        {
            "bufferView" : 1,
            "componentType" : 5126,
            "count" : 539,
            "type" : "VEC3"
        },
        {
            "bufferView" : 2,
            "componentType" : 5126,
            "count" : 539,
            "type" : "VEC2"
        },
        {
            "bufferView" : 3,
            "componentType" : 5123,
            "count" : 539,
            "type" : "VEC4"
        },
        {
            "bufferView" : 4,
            "componentType" : 5126,
            "count" : 539,
            "type" : "VEC4"
        },
        {
            "bufferView" : 5,
            "componentType" : 5123,
            "count" : 2076,
            "type" : "SCALAR"
        },
        {
            "bufferView" : 6,
            "componentType" : 5126,
            "count" : 1122,
            "max" : [
                0.17824505269527435,
                1.1363929510116577,
                0.17465677857398987
            ],
            "min" : [
                -0.18831364810466766,
                -0.00013607938308268785,
                -0.11739437282085419
            ],
            "type" : "VEC3"
        },
        {
            "bufferView" : 7,
            "componentType" : 5126,
            "count" : 1122,
            "type" : "VEC3"
        },
        {
            "bufferView" : 8,
            "componentType" : 5126,
            "count" : 1122,
            "type" : "VEC2"
        },
        {
            "bufferView" : 9,
            "componentType" : 5123,
            "count" : 1122,
            "type" : "VEC4"
        },
        {
            "bufferView" : 10,
            "componentType" : 5126,
            "count" : 1122,
            "type" : "VEC4"
        },
        {
            "bufferView" : 11,
            "componentType" : 5123,
            "count" : 4578,
            "type" : "SCALAR"
        },
        {
            "bufferView" : 12,
            "componentType" : 5126,
            "count" : 940,
            "max" : [
                0.2511996626853943,
                0.4068957567214966,
                0.21565090119838715
            ],
            "min" : [
                -0.2957261800765991,
                -0.35823071002960205,
                -0.11492369323968887
            ],
            "type" : "VEC3"
        },
        {
            "bufferView" : 13,
            "componentType" : 5126,
            "count" : 940,
            "type" : "VEC3"
        },
        {
            "bufferView" : 14,
            "componentType" : 5126,
            "count" : 940,
            "type" : "VEC2"
        },
        {
            "bufferView" : 15,
            "componentType" : 5123,
            "count" : 940,
            "type" : "VEC4"
        },
        {
            "bufferView" : 16,
            "componentType" : 5126,
            "count" : 940,
            "type" : "VEC4"
        },
        {
            "bufferView" : 17,
            "componentType" : 5123,
            "count" : 3795,
            "type" : "SCALAR"
        },
        {
            "bufferView" : 18,
            "componentType" : 5126,
            "count" : 404,
            "max" : [
                0.09050536155700684,
                0.10254848003387451,
                0.12178681045770645
            ],
            "min" : [
                -0.05853423848748207,
                -0.6352320313453674,
                -0.07334915548563004
            ],
            "type" : "VEC3"
        },
        {
            "bufferView" : 19,
            "componentType" : 5126,
            "count" : 404,
            "type" : "VEC3"
        },
        {
            "bufferView" : 20,
            "componentType" : 5126,
            "count" : 404,
            "type" : "VEC2"
        },
        {
            "bufferView" : 21,
            "componentType" : 5123,
            "count" : 404,
            "type" : "VEC4"
        },
        {
            "bufferView" : 22,
            "componentType" : 5126,
            "count" : 404,
            "type" : "VEC4"
        },
        {
            "bufferView" : 23,
            "componentType" : 5123,
            "count" : 1575,
            "type" : "SCALAR"
        },
        {
            "bufferView" : 24,
            "componentType" : 5126,
            "count" : 299,
            "max" : [
                12.458333333333334
            ],
            "min" : [
                0.041666666666666664
            ],
            "type" : "SCALAR"
        },
        {
            "bufferView" : 25,
            "componentType" : 5126,
            "count" : 299,
            "type" : "VEC4"
        },
        {
            "bufferView" : 26,
            "componentType" : 5126,
            "count" : 238,
            "max" : [
                9.916666666666666
            ],
            "min" : [
                0.041666666666666664
            ],
            "type" : "SCALAR"
        },
        {
            "bufferView" : 27,
            "componentType" : 5126,
            "count" : 238,
            "type" : "VEC3"
        },
        {
            "bufferView" : 28,
            "componentType" : 5126,
            "count" : 299,
            "type" : "VEC4"
        },
        {
            "bufferView" : 29,
            "componentType" : 5126,
            "count" : 299,
            "type" : "VEC3"
        },
        {
            "bufferView" : 30,
            "componentType" : 5126,
            "count" : 299,
            "type" : "VEC4"
        }
    ],
    "bufferViews" : [
        {
            "buffer" : 0,
            "byteLength" : 6468,
            "byteOffset" : 0
        },
        {
            "buffer" : 0,
            "byteLength" : 6468,
            "byteOffset" : 6468
        },
        {
            "buffer" : 0,
            "byteLength" : 4312,
            "byteOffset" : 12936
        },
        {
            "buffer" : 0,
            "byteLength" : 4312,
            "byteOffset" : 17248
        },
        {
            "buffer" : 0,
            "byteLength" : 8624,
            "byteOffset" : 21560
        },
        {
            "buffer" : 0,
            "byteLength" : 4152,
            "byteOffset" : 30184
        },
        {
            "buffer" : 0,
            "byteLength" : 13464,
            "byteOffset" : 34336
        },
        {
            "buffer" : 0,
            "byteLength" : 13464,
            "byteOffset" : 47800
        },
        {
            "buffer" : 0,
            "byteLength" : 8976,
            "byteOffset" : 61264
        },
        {
            "buffer" : 0,
            "byteLength" : 8976,
            "byteOffset" : 70240
        },
        {
            "buffer" : 0,
            "byteLength" : 17952,
            "byteOffset" : 79216
        },
        {
            "buffer" : 0,
            "byteLength" : 9156,
            "byteOffset" : 97168
        },
        {
            "buffer" : 0,
            "byteLength" : 11280,
            "byteOffset" : 106324
        },
        {
            "buffer" : 0,
            "byteLength" : 11280,
            "byteOffset" : 117604
        },
        {
            "buffer" : 0,
            "byteLength" : 7520,
            "byteOffset" : 128884
        },
        {
            "buffer" : 0,
            "byteLength" : 7520,
            "byteOffset" : 136404
        },
        {
            "buffer" : 0,
            "byteLength" : 15040,
            "byteOffset" : 143924
        },
        {
            "buffer" : 0,
            "byteLength" : 7590,
            "byteOffset" : 158964
        },
        {
            "buffer" : 0,
            "byteLength" : 4848,
            "byteOffset" : 166556
        },
        {
            "buffer" : 0,
            "byteLength" : 4848,
            "byteOffset" : 171404
        },
        {
            "buffer" : 0,
            "byteLength" : 3232,
            "byteOffset" : 176252
        },
        {
            "buffer" : 0,
            "byteLength" : 3232,
            "byteOffset" : 179484
        },
        {
            "buffer" : 0,
            "byteLength" : 6464,
            "byteOffset" : 182716
        },
        {
            "buffer" : 0,
            "byteLength" : 3150,
            "byteOffset" : 189180
        },
        {
            "buffer" : 0,
            "byteLength" : 1196,
            "byteOffset" : 192332
        },
        {
            "buffer" : 0,
            "byteLength" : 4784,
            "byteOffset" : 193528
        },
        {
            "buffer" : 0,
            "byteLength" : 952,
            "byteOffset" : 198312
        },
        {
            "buffer" : 0,
            "byteLength" : 2856,
            "byteOffset" : 199264
        },
        {
            "buffer" : 0,
            "byteLength" : 4784,
            "byteOffset" : 202120
        },
        {
            "buffer" : 0,
            "byteLength" : 3588,
            "byteOffset" : 206904
        },
        {
            "buffer" : 0,
            "byteLength" : 4784,
            "byteOffset" : 210492
        }
    ],
    "buffers" : [
        {
            "byteLength" : 215276,
            "uri" : "woman-well-dressed-cbj_LOD00.bin"
        }
    ]
}
