{
    "asset" : {
        "extensions" : {
            "ASOBO_normal_map_convention" : {
                "tangent_space_convention" : "DirectX"
            }
        },
        "generator" : "Extended Khronos glTF Blender I/O v1.0.0",
        "version" : "2.0"
    },
    "extensionsUsed" : [
        "ASOBO_normal_map_convention",
        "ASOBO_material_glass"
    ],
    "scene" : 0,
    "scenes" : [
        {
            "extras" : {},
            "name" : "Scene",
            "nodes" : [
                1
            ]
        }
    ],
    "nodes" : [
        {
            "mesh" : 0,
            "name" : "glider00",
            "rotation" : [
                -0.0010645933216437697,
                0,
                -0.13052186369895935,
                0.9914448857307434
            ],
            "scale" : [
                0.004999999422580004,
                0.004999999888241291,
                0.005000000353902578
            ]
        },
        {
            "children" : [
                0
            ],
            "name" : "Empty",
            "rotation" : [
                7.139165063563269e-06,
                0.704217255115509,
                5.540913207369158e-06,
                0.709984540939331
            ],
            "scale" : [
                199.99996948242188,
                200,
                200
            ],
            "translation" : [
                -140.65074157714844,
                -0.0016708729090169072,
                50.15842056274414
            ]
        }
    ],
    "animations" : [
        {
            "channels" : [
                {
                    "sampler" : 0,
                    "target" : {
                        "node" : 0,
                        "path" : "rotation"
                    }
                }
            ],
            "name" : "glider00",
            "samplers" : [
                {
                    "input" : 12,
                    "interpolation" : "LINEAR",
                    "output" : 13
                }
            ]
        },
        {
            "channels" : [
                {
                    "sampler" : 0,
                    "target" : {
                        "node" : 1,
                        "path" : "translation"
                    }
                },
                {
                    "sampler" : 1,
                    "target" : {
                        "node" : 1,
                        "path" : "rotation"
                    }
                },
                {
                    "sampler" : 2,
                    "target" : {
                        "node" : 1,
                        "path" : "scale"
                    }
                }
            ],
            "name" : "Cube1",
            "samplers" : [
                {
                    "input" : 12,
                    "interpolation" : "LINEAR",
                    "output" : 14
                },
                {
                    "input" : 12,
                    "interpolation" : "LINEAR",
                    "output" : 15
                },
                {
                    "input" : 12,
                    "interpolation" : "LINEAR",
                    "output" : 16
                }
            ]
        }
    ],
    "materials" : [
        {
            "alphaMode" : "BLEND",
            "emissiveFactor" : [
                0,
                0,
                0
            ],
            "extensions" : {
                "ASOBO_material_glass" : {
                    "glassReflectionMaskFactor" : 1,
                    "glassDeformationFactor" : 0
                }
            },
            "extras" : {
                "msfs_material_mode" : 4,
                "msfs_blend_mode" : 2,
                "msfs_show_tint" : 1,
                "msfs_show_sss_color" : 0,
                "msfs_show_glass_parameters" : 1,
                "msfs_show_decal_parameters" : 0,
                "msfs_show_fresnel_parameters" : 0,
                "msfs_show_parallax_parameters" : 0,
                "msfs_show_geo_decal_parameters" : 0,
                "msfs_show_albedo" : 1,
                "msfs_show_metallic" : 1,
                "msfs_show_normal" : 1,
                "msfs_show_emissive" : 1,
                "msfs_show_detail_albedo" : 1,
                "msfs_show_detail_metallic" : 1,
                "msfs_show_detail_normal" : 1,
                "msfs_show_blend_mask" : 1,
                "msfs_show_anisotropic_direction" : 0,
                "msfs_show_clearcoat" : 0,
                "msfs_show_behind_glass" : 0,
                "msfs_show_blend_mode" : 1,
                "msfs_show_draworder" : 1,
                "msfs_show_no_cast_shadow" : 1,
                "msfs_show_double_sided" : 1,
                "msfs_show_responsive_aa" : 0,
                "msfs_show_day_night_cycle" : 0,
                "msfs_show_collision_material" : 1,
                "msfs_show_road_material" : 1,
                "msfs_show_ao_use_uv2" : 1,
                "msfs_show_uv_clamp" : 1,
                "msfs_show_alpha_cutoff" : 0,
                "msfs_show_blend_threshold" : 1,
                "msfs_color_albedo_mix" : [
                    0.5334927439689636,
                    0.8436184525489807,
                    1
                ],
                "msfs_color_alpha_mix" : 0.009999999776482582
            },
            "name" : "glass.004",
            "pbrMetallicRoughness" : {
                "baseColorFactor" : [
                    0.5334927439689636,
                    0.8436184525489807,
                    1,
                    0.009999999776482582
                ],
                "metallicFactor" : 0.6000000238418579,
                "roughnessFactor" : 0.30000001192092896
            }
        },
        {
            "emissiveFactor" : [
                0,
                0,
                0
            ],
            "extras" : {
                "msfs_material_mode" : 1,
                "msfs_albedo_texture" : {
                    "name" : "glider-material.png.008",
                    "type" : "Image"
                },
                "msfs_metallic_texture" : {
                    "name" : "glider-material-AO.png.006",
                    "type" : "Image"
                },
                "msfs_show_tint" : 1,
                "msfs_show_sss_color" : 0,
                "msfs_show_glass_parameters" : 0,
                "msfs_show_decal_parameters" : 0,
                "msfs_show_fresnel_parameters" : 0,
                "msfs_show_parallax_parameters" : 0,
                "msfs_show_geo_decal_parameters" : 0,
                "msfs_show_albedo" : 1,
                "msfs_show_metallic" : 1,
                "msfs_show_normal" : 1,
                "msfs_show_emissive" : 1,
                "msfs_show_detail_albedo" : 1,
                "msfs_show_detail_metallic" : 1,
                "msfs_show_detail_normal" : 1,
                "msfs_show_blend_mask" : 1,
                "msfs_show_anisotropic_direction" : 0,
                "msfs_show_clearcoat" : 0,
                "msfs_show_behind_glass" : 0,
                "msfs_show_blend_mode" : 1,
                "msfs_show_draworder" : 1,
                "msfs_show_no_cast_shadow" : 1,
                "msfs_show_double_sided" : 1,
                "msfs_show_responsive_aa" : 0,
                "msfs_show_day_night_cycle" : 1,
                "msfs_show_collision_material" : 1,
                "msfs_show_road_material" : 1,
                "msfs_show_ao_use_uv2" : 1,
                "msfs_show_uv_clamp" : 1,
                "msfs_show_alpha_cutoff" : 1,
                "msfs_show_blend_threshold" : 1
            },
            "name" : "glider1.003",
            "pbrMetallicRoughness" : {
                "baseColorTexture" : {
                    "index" : 0,
                    "texCoord" : 0
                },
                "metallicRoughnessTexture" : {
                    "index" : 1,
                    "texCoord" : 0
                }
            }
        },
        {
            "emissiveFactor" : [
                0,
                0,
                0
            ],
            "extras" : {
                "msfs_material_mode" : 1,
                "msfs_albedo_texture" : {
                    "name" : "glider-material.png.009",
                    "type" : "Image"
                },
                "msfs_metallic_texture" : {
                    "name" : "glider-material-AO.png.007",
                    "type" : "Image"
                },
                "msfs_show_tint" : 1,
                "msfs_show_sss_color" : 0,
                "msfs_show_glass_parameters" : 0,
                "msfs_show_decal_parameters" : 0,
                "msfs_show_fresnel_parameters" : 0,
                "msfs_show_parallax_parameters" : 0,
                "msfs_show_geo_decal_parameters" : 0,
                "msfs_show_albedo" : 1,
                "msfs_show_metallic" : 1,
                "msfs_show_normal" : 1,
                "msfs_show_emissive" : 1,
                "msfs_show_detail_albedo" : 1,
                "msfs_show_detail_metallic" : 1,
                "msfs_show_detail_normal" : 1,
                "msfs_show_blend_mask" : 1,
                "msfs_show_anisotropic_direction" : 0,
                "msfs_show_clearcoat" : 0,
                "msfs_show_behind_glass" : 0,
                "msfs_show_blend_mode" : 1,
                "msfs_show_draworder" : 1,
                "msfs_show_no_cast_shadow" : 1,
                "msfs_show_double_sided" : 1,
                "msfs_show_responsive_aa" : 0,
                "msfs_show_day_night_cycle" : 1,
                "msfs_show_collision_material" : 1,
                "msfs_show_road_material" : 1,
                "msfs_show_ao_use_uv2" : 1,
                "msfs_show_uv_clamp" : 1,
                "msfs_show_alpha_cutoff" : 1,
                "msfs_show_blend_threshold" : 1
            },
            "name" : "glider1.008",
            "pbrMetallicRoughness" : {
                "baseColorTexture" : {
                    "index" : 2,
                    "texCoord" : 0
                },
                "metallicRoughnessTexture" : {
                    "index" : 3,
                    "texCoord" : 0
                }
            }
        }
    ],
    "meshes" : [
        {
            "name" : "lpcw5-female1605",
            "primitives" : [
                {
                    "attributes" : {
                        "POSITION" : 0,
                        "NORMAL" : 1,
                        "TEXCOORD_0" : 2
                    },
                    "indices" : 3,
                    "material" : 0
                },
                {
                    "attributes" : {
                        "POSITION" : 4,
                        "NORMAL" : 5,
                        "TEXCOORD_0" : 6
                    },
                    "indices" : 7,
                    "material" : 1
                },
                {
                    "attributes" : {
                        "POSITION" : 8,
                        "NORMAL" : 9,
                        "TEXCOORD_0" : 10
                    },
                    "indices" : 11,
                    "material" : 2
                }
            ]
        }
    ],
    "textures" : [
        {
            "source" : 0
        },
        {
            "source" : 1
        },
        {
            "source" : 0
        },
        {
            "source" : 1
        }
    ],
    "images" : [
        {
            "mimeType" : "image/png",
            "name" : "glider-material",
            "uri" : "glider-material.png"
        },
        {
            "mimeType" : "image/png",
            "name" : "glider-material-AO",
            "uri" : "glider-material-AO.png"
        }
    ],
    "accessors" : [
        {
            "bufferView" : 0,
            "componentType" : 5126,
            "count" : 12,
            "max" : [
                0.3479642868041992,
                1.123039960861206,
                0.134502574801445
            ],
            "min" : [
                -0.32768726348876953,
                0.6637990474700928,
                -1.7576912641525269
            ],
            "type" : "VEC3"
        },
        {
            "bufferView" : 1,
            "componentType" : 5126,
            "count" : 12,
            "type" : "VEC3"
        },
        {
            "bufferView" : 2,
            "componentType" : 5126,
            "count" : 12,
            "type" : "VEC2"
        },
        {
            "bufferView" : 3,
            "componentType" : 5123,
            "count" : 12,
            "type" : "SCALAR"
        },
        {
            "bufferView" : 4,
            "componentType" : 5126,
            "count" : 53,
            "max" : [
                1.1525793075561523,
                1.9117529392242432,
                5.117148399353027
            ],
            "min" : [
                -1.138819694519043,
                0.29683995246887207,
                -1.8908146619796753
            ],
            "type" : "VEC3"
        },
        {
            "bufferView" : 5,
            "componentType" : 5126,
            "count" : 53,
            "type" : "VEC3"
        },
        {
            "bufferView" : 6,
            "componentType" : 5126,
            "count" : 53,
            "type" : "VEC2"
        },
        {
            "bufferView" : 7,
            "componentType" : 5123,
            "count" : 63,
            "type" : "SCALAR"
        },
        {
            "bufferView" : 8,
            "componentType" : 5126,
            "count" : 24,
            "max" : [
                7.530730247497559,
                1.2904138565063477,
                1.0532538890838623
            ],
            "min" : [
                -7.510951519012451,
                0.823786735534668,
                0.07082461565732956
            ],
            "type" : "VEC3"
        },
        {
            "bufferView" : 9,
            "componentType" : 5126,
            "count" : 24,
            "type" : "VEC3"
        },
        {
            "bufferView" : 10,
            "componentType" : 5126,
            "count" : 24,
            "type" : "VEC2"
        },
        {
            "bufferView" : 11,
            "componentType" : 5123,
            "count" : 36,
            "type" : "SCALAR"
        },
        {
            "bufferView" : 12,
            "componentType" : 5126,
            "count" : 936,
            "max" : [
                39
            ],
            "min" : [
                0.041666666666666664
            ],
            "type" : "SCALAR"
        },
        {
            "bufferView" : 13,
            "componentType" : 5126,
            "count" : 936,
            "type" : "VEC4"
        },
        {
            "bufferView" : 14,
            "componentType" : 5126,
            "count" : 936,
            "type" : "VEC3"
        },
        {
            "bufferView" : 15,
            "componentType" : 5126,
            "count" : 936,
            "type" : "VEC4"
        },
        {
            "bufferView" : 16,
            "componentType" : 5126,
            "count" : 936,
            "type" : "VEC3"
        }
    ],
    "bufferViews" : [
        {
            "buffer" : 0,
            "byteLength" : 144,
            "byteOffset" : 0
        },
        {
            "buffer" : 0,
            "byteLength" : 144,
            "byteOffset" : 144
        },
        {
            "buffer" : 0,
            "byteLength" : 96,
            "byteOffset" : 288
        },
        {
            "buffer" : 0,
            "byteLength" : 24,
            "byteOffset" : 384
        },
        {
            "buffer" : 0,
            "byteLength" : 636,
            "byteOffset" : 408
        },
        {
            "buffer" : 0,
            "byteLength" : 636,
            "byteOffset" : 1044
        },
        {
            "buffer" : 0,
            "byteLength" : 424,
            "byteOffset" : 1680
        },
        {
            "buffer" : 0,
            "byteLength" : 126,
            "byteOffset" : 2104
        },
        {
            "buffer" : 0,
            "byteLength" : 288,
            "byteOffset" : 2232
        },
        {
            "buffer" : 0,
            "byteLength" : 288,
            "byteOffset" : 2520
        },
        {
            "buffer" : 0,
            "byteLength" : 192,
            "byteOffset" : 2808
        },
        {
            "buffer" : 0,
            "byteLength" : 72,
            "byteOffset" : 3000
        },
        {
            "buffer" : 0,
            "byteLength" : 3744,
            "byteOffset" : 3072
        },
        {
            "buffer" : 0,
            "byteLength" : 14976,
            "byteOffset" : 6816
        },
        {
            "buffer" : 0,
            "byteLength" : 11232,
            "byteOffset" : 21792
        },
        {
            "buffer" : 0,
            "byteLength" : 14976,
            "byteOffset" : 33024
        },
        {
            "buffer" : 0,
            "byteLength" : 11232,
            "byteOffset" : 48000
        }
    ],
    "buffers" : [
        {
            "byteLength" : 59232,
            "uri" : "glider-blue-ridge-cbj_LOD02.bin"
        }
    ]
}
