{"asset":{"version":"2.0","generator":"babylon.js glTF exporter for 3dsmax 2019 v1.5.0","extensions":{"ASOBO_normal_map_convention":{"tangent_space_convention":"DirectX"}}},"extensionsUsed":["ASOBO_normal_map_convention"],"scene":0,"scenes":[{"nodes":[0],"extensions":{}}],"nodes":[{"mesh":0,"translation":[0.0,0.0,0.0],"rotation":[0.0,0.7071068,0.0,0.7071067],"scale":[1.0,1.0,1.0],"name":"Cylinder001"}],"meshes":[{"primitives":[{"attributes":{"POSITION":1,"NORMAL":2,"TEXCOORD_0":3},"indices":0,"mode":4,"material":0},{"attributes":{"POSITION":5,"NORMAL":6,"TEXCOORD_0":7},"indices":4,"mode":4,"material":1}],"name":"Cylinder001"}],"accessors":[{"bufferView":0,"componentType":5123,"count":216,"type":"SCALAR","name":"accessorIndices"},{"bufferView":1,"componentType":5126,"count":216,"max":[1.5,0.8299999,2.0],"min":[-2.5,-10.0,-2.0],"type":"VEC3","name":"accessorPositions"},{"bufferView":1,"byteOffset":2592,"componentType":5126,"count":216,"type":"VEC3","name":"accessorNormals"},{"bufferView":2,"componentType":5126,"count":216,"type":"VEC2","name":"accessorUVs"},{"bufferView":0,"byteOffset":432,"componentType":5123,"count":264,"type":"SCALAR","name":"accessorIndices"},{"bufferView":1,"byteOffset":5184,"componentType":5126,"count":264,"max":[1.24603117,0.799999237,1.923507],"min":[-1.31036627,0.190937042,-1.923507],"type":"VEC3","name":"accessorPositions"},{"bufferView":1,"byteOffset":8352,"componentType":5126,"count":264,"type":"VEC3","name":"accessorNormals"},{"bufferView":2,"byteOffset":1728,"componentType":5126,"count":264,"type":"VEC2","name":"accessorUVs"},{"bufferView":3,"componentType":5126,"count":2,"max":[0.0333333351],"min":[0.0],"type":"SCALAR","name":"accessorAnimationInput"},{"bufferView":4,"componentType":5126,"count":2,"type":"VEC4","name":"accessorAnimationRotations"}],"bufferViews":[{"buffer":0,"byteLength":960,"name":"bufferViewScalar"},{"buffer":0,"byteOffset":960,"byteLength":11520,"byteStride":12,"name":"bufferViewFloatVec3"},{"buffer":0,"byteOffset":12480,"byteLength":3840,"byteStride":8,"name":"bufferViewFloatVec2"},{"buffer":0,"byteOffset":16320,"byteLength":8,"name":"bufferViewAnimationFloatScalar"},{"buffer":0,"byteOffset":16328,"byteLength":32,"name":"bufferViewAnimationFloatVec4"}],"buffers":[{"uri":"LSZT-tee.bin","byteLength":16360}],"materials":[{"pbrMetallicRoughness":{"baseColorFactor":[0.8588236,0.854902,0.8470589,1.0],"metallicFactor":0.0,"roughnessFactor":0.7},"emissiveFactor":[0.0,0.0,0.0],"alphaMode":"OPAQUE","name":"Material #25"},{"pbrMetallicRoughness":{"baseColorFactor":[0.03246442,0.03455563,0.058604598,1.0],"metallicFactor":0.0,"roughnessFactor":0.8},"emissiveFactor":[0.0,0.0,0.0],"alphaMode":"OPAQUE","name":"Material #26"}],"animations":[{"channels":[{"sampler":0,"target":{"node":0,"path":"rotation"}}],"samplers":[{"input":8,"interpolation":"LINEAR","output":9}],"name":"flip"}]}