{
    "asset" : {
        "extensions" : {
            "ASOBO_normal_map_convention" : {
                "tangent_space_convention" : "DirectX"
            }
        },
        "generator" : "Extended Khronos glTF Blender I/O v1.0.0",
        "version" : "2.0"
    },
    "extensionsUsed" : [
        "ASOBO_normal_map_convention"
    ],
    "scene" : 0,
    "scenes" : [
        {
            "extras" : {},
            "name" : "Scene",
            "nodes" : [
                0
            ]
        }
    ],
    "nodes" : [
        {
            "mesh" : 0,
            "name" : "hang-glider03"
        }
    ],
    "materials" : [
        {
            "emissiveFactor" : [
                0,
                0,
                0
            ],
            "extras" : {
                "msfs_material_mode" : 1,
                "msfs_albedo_texture" : {
                    "name" : "gable_color_msfs.png.015",
                    "type" : "Image"
                },
                "msfs_metallic_texture" : {
                    "name" : "gable_color_msfs-AO.png.015",
                    "type" : "Image"
                },
                "msfs_show_tint" : 1,
                "msfs_show_sss_color" : 0,
                "msfs_show_glass_parameters" : 0,
                "msfs_show_decal_parameters" : 0,
                "msfs_show_fresnel_parameters" : 0,
                "msfs_show_parallax_parameters" : 0,
                "msfs_show_geo_decal_parameters" : 0,
                "msfs_show_albedo" : 1,
                "msfs_show_metallic" : 1,
                "msfs_show_normal" : 1,
                "msfs_show_emissive" : 1,
                "msfs_show_detail_albedo" : 1,
                "msfs_show_detail_metallic" : 1,
                "msfs_show_detail_normal" : 1,
                "msfs_show_blend_mask" : 1,
                "msfs_show_anisotropic_direction" : 0,
                "msfs_show_clearcoat" : 0,
                "msfs_show_behind_glass" : 0,
                "msfs_show_blend_mode" : 1,
                "msfs_show_draworder" : 1,
                "msfs_show_no_cast_shadow" : 1,
                "msfs_show_double_sided" : 1,
                "msfs_show_responsive_aa" : 0,
                "msfs_show_day_night_cycle" : 1,
                "msfs_show_collision_material" : 1,
                "msfs_show_road_material" : 1,
                "msfs_show_ao_use_uv2" : 1,
                "msfs_show_uv_clamp" : 1,
                "msfs_show_alpha_cutoff" : 1,
                "msfs_show_blend_threshold" : 1
            },
            "name" : "gable2.015",
            "pbrMetallicRoughness" : {
                "baseColorTexture" : {
                    "index" : 0,
                    "texCoord" : 0
                },
                "metallicRoughnessTexture" : {
                    "index" : 1,
                    "texCoord" : 0
                }
            }
        },
        {
            "emissiveFactor" : [
                0,
                0,
                0
            ],
            "extras" : {
                "msfs_material_mode" : 1,
                "msfs_albedo_texture" : {
                    "name" : "carbon_fibre512.png.017",
                    "type" : "Image"
                },
                "msfs_metallic_texture" : {
                    "name" : "carbon_fibre512_AO.png.017",
                    "type" : "Image"
                },
                "msfs_show_tint" : 1,
                "msfs_show_sss_color" : 0,
                "msfs_show_glass_parameters" : 0,
                "msfs_show_decal_parameters" : 0,
                "msfs_show_fresnel_parameters" : 0,
                "msfs_show_parallax_parameters" : 0,
                "msfs_show_geo_decal_parameters" : 0,
                "msfs_show_albedo" : 1,
                "msfs_show_metallic" : 1,
                "msfs_show_normal" : 1,
                "msfs_show_emissive" : 1,
                "msfs_show_detail_albedo" : 1,
                "msfs_show_detail_metallic" : 1,
                "msfs_show_detail_normal" : 1,
                "msfs_show_blend_mask" : 1,
                "msfs_show_anisotropic_direction" : 0,
                "msfs_show_clearcoat" : 0,
                "msfs_show_behind_glass" : 0,
                "msfs_show_blend_mode" : 1,
                "msfs_show_draworder" : 1,
                "msfs_show_no_cast_shadow" : 1,
                "msfs_show_double_sided" : 1,
                "msfs_show_responsive_aa" : 0,
                "msfs_show_day_night_cycle" : 1,
                "msfs_show_collision_material" : 1,
                "msfs_show_road_material" : 1,
                "msfs_show_ao_use_uv2" : 1,
                "msfs_show_uv_clamp" : 1,
                "msfs_show_alpha_cutoff" : 1,
                "msfs_show_blend_threshold" : 1
            },
            "name" : "carbon_fibre.007",
            "pbrMetallicRoughness" : {
                "baseColorTexture" : {
                    "index" : 2,
                    "texCoord" : 0
                },
                "metallicRoughnessTexture" : {
                    "index" : 3,
                    "texCoord" : 0
                }
            }
        },
        {
            "emissiveFactor" : [
                0,
                0,
                0
            ],
            "extras" : {
                "msfs_material_mode" : 1,
                "msfs_albedo_texture" : {
                    "name" : "8-aluminium-TEXTURE-1024.png.002",
                    "type" : "Image"
                },
                "msfs_metallic_texture" : {
                    "name" : "8-aluminium-SPEC-1024.png.009",
                    "type" : "Image"
                },
                "msfs_show_tint" : 1,
                "msfs_show_sss_color" : 0,
                "msfs_show_glass_parameters" : 0,
                "msfs_show_decal_parameters" : 0,
                "msfs_show_fresnel_parameters" : 0,
                "msfs_show_parallax_parameters" : 0,
                "msfs_show_geo_decal_parameters" : 0,
                "msfs_show_albedo" : 1,
                "msfs_show_metallic" : 1,
                "msfs_show_normal" : 1,
                "msfs_show_emissive" : 1,
                "msfs_show_detail_albedo" : 1,
                "msfs_show_detail_metallic" : 1,
                "msfs_show_detail_normal" : 1,
                "msfs_show_blend_mask" : 1,
                "msfs_show_anisotropic_direction" : 0,
                "msfs_show_clearcoat" : 0,
                "msfs_show_behind_glass" : 0,
                "msfs_show_blend_mode" : 1,
                "msfs_show_draworder" : 1,
                "msfs_show_no_cast_shadow" : 1,
                "msfs_show_double_sided" : 1,
                "msfs_show_responsive_aa" : 0,
                "msfs_show_day_night_cycle" : 1,
                "msfs_show_collision_material" : 1,
                "msfs_show_road_material" : 1,
                "msfs_show_ao_use_uv2" : 1,
                "msfs_show_uv_clamp" : 1,
                "msfs_show_alpha_cutoff" : 1,
                "msfs_show_blend_threshold" : 1
            },
            "name" : "aluminiumAO.002",
            "pbrMetallicRoughness" : {
                "baseColorTexture" : {
                    "index" : 4,
                    "texCoord" : 0
                },
                "metallicRoughnessTexture" : {
                    "index" : 5,
                    "texCoord" : 0
                }
            }
        },
        {
            "emissiveFactor" : [
                0,
                0,
                0
            ],
            "extras" : {
                "msfs_material_mode" : 1,
                "msfs_albedo_texture" : {
                    "name" : "Mylar_02_fine-greenblue1024.png",
                    "type" : "Image"
                },
                "msfs_show_tint" : 1,
                "msfs_show_sss_color" : 0,
                "msfs_show_glass_parameters" : 0,
                "msfs_show_decal_parameters" : 0,
                "msfs_show_fresnel_parameters" : 0,
                "msfs_show_parallax_parameters" : 0,
                "msfs_show_geo_decal_parameters" : 0,
                "msfs_show_albedo" : 1,
                "msfs_show_metallic" : 1,
                "msfs_show_normal" : 1,
                "msfs_show_emissive" : 1,
                "msfs_show_detail_albedo" : 1,
                "msfs_show_detail_metallic" : 1,
                "msfs_show_detail_normal" : 1,
                "msfs_show_blend_mask" : 1,
                "msfs_show_anisotropic_direction" : 0,
                "msfs_show_clearcoat" : 0,
                "msfs_show_behind_glass" : 0,
                "msfs_show_blend_mode" : 1,
                "msfs_show_draworder" : 1,
                "msfs_show_no_cast_shadow" : 1,
                "msfs_show_double_sided" : 1,
                "msfs_show_responsive_aa" : 0,
                "msfs_show_day_night_cycle" : 1,
                "msfs_show_collision_material" : 1,
                "msfs_show_road_material" : 1,
                "msfs_show_ao_use_uv2" : 1,
                "msfs_show_uv_clamp" : 1,
                "msfs_show_alpha_cutoff" : 1,
                "msfs_show_blend_threshold" : 1
            },
            "name" : "mylar-color-green-blue",
            "pbrMetallicRoughness" : {
                "baseColorTexture" : {
                    "index" : 6,
                    "texCoord" : 0
                },
                "metallicFactor" : 0,
                "roughnessFactor" : 0.5
            }
        }
    ],
    "meshes" : [
        {
            "name" : "T2C01JD.045",
            "primitives" : [
                {
                    "attributes" : {
                        "POSITION" : 0,
                        "NORMAL" : 1,
                        "TEXCOORD_0" : 2,
                        "TEXCOORD_1" : 3
                    },
                    "indices" : 4,
                    "material" : 0
                },
                {
                    "attributes" : {
                        "POSITION" : 5,
                        "NORMAL" : 6,
                        "TEXCOORD_0" : 7,
                        "TEXCOORD_1" : 8
                    },
                    "indices" : 9,
                    "material" : 1
                },
                {
                    "attributes" : {
                        "POSITION" : 10,
                        "NORMAL" : 11,
                        "TEXCOORD_0" : 12,
                        "TEXCOORD_1" : 13
                    },
                    "indices" : 14,
                    "material" : 2
                },
                {
                    "attributes" : {
                        "POSITION" : 15,
                        "NORMAL" : 16,
                        "TEXCOORD_0" : 17,
                        "TEXCOORD_1" : 18
                    },
                    "indices" : 19,
                    "material" : 3
                }
            ]
        }
    ],
    "textures" : [
        {
            "source" : 0
        },
        {
            "source" : 1
        },
        {
            "source" : 2
        },
        {
            "source" : 3
        },
        {
            "source" : 4
        },
        {
            "source" : 5
        },
        {
            "source" : 6
        }
    ],
    "images" : [
        {
            "mimeType" : "image/png",
            "name" : "gable_color_msfs",
            "uri" : "gable_color_msfs.png"
        },
        {
            "mimeType" : "image/png",
            "name" : "gable_color_msfs-AO",
            "uri" : "gable_color_msfs-AO.png"
        },
        {
            "mimeType" : "image/png",
            "name" : "carbon_fibre512",
            "uri" : "carbon_fibre512.png"
        },
        {
            "mimeType" : "image/png",
            "name" : "carbon_fibre512_AO",
            "uri" : "carbon_fibre512_AO.png"
        },
        {
            "mimeType" : "image/png",
            "name" : "8-aluminium-TEXTURE-1024",
            "uri" : "8-aluminium-TEXTURE-1024.png"
        },
        {
            "mimeType" : "image/png",
            "name" : "8-aluminium-SPEC-1024",
            "uri" : "8-aluminium-SPEC-1024.png"
        },
        {
            "mimeType" : "image/png",
            "name" : "Mylar_02_fine-greenblue1024",
            "uri" : "Mylar_02_fine-greenblue1024.png"
        }
    ],
    "accessors" : [
        {
            "bufferView" : 0,
            "componentType" : 5126,
            "count" : 107,
            "max" : [
                2.3242244720458984,
                1.8451411724090576,
                2.756196975708008
            ],
            "min" : [
                -0.6209880709648132,
                0.002251863479614258,
                -2.7571604251861572
            ],
            "type" : "VEC3"
        },
        {
            "bufferView" : 1,
            "componentType" : 5126,
            "count" : 107,
            "type" : "VEC3"
        },
        {
            "bufferView" : 2,
            "componentType" : 5126,
            "count" : 107,
            "type" : "VEC2"
        },
        {
            "bufferView" : 3,
            "componentType" : 5126,
            "count" : 107,
            "type" : "VEC2"
        },
        {
            "bufferView" : 4,
            "componentType" : 5123,
            "count" : 165,
            "type" : "SCALAR"
        },
        {
            "bufferView" : 5,
            "componentType" : 5126,
            "count" : 58,
            "max" : [
                0.6069141626358032,
                1.1362351179122925,
                0.7377675771713257
            ],
            "min" : [
                -0.6085792779922485,
                0.002251863479614258,
                -0.7372217774391174
            ],
            "type" : "VEC3"
        },
        {
            "bufferView" : 6,
            "componentType" : 5126,
            "count" : 58,
            "type" : "VEC3"
        },
        {
            "bufferView" : 7,
            "componentType" : 5126,
            "count" : 58,
            "type" : "VEC2"
        },
        {
            "bufferView" : 8,
            "componentType" : 5126,
            "count" : 58,
            "type" : "VEC2"
        },
        {
            "bufferView" : 9,
            "componentType" : 5123,
            "count" : 126,
            "type" : "SCALAR"
        },
        {
            "bufferView" : 10,
            "componentType" : 5126,
            "count" : 12,
            "max" : [
                0.5874930024147034,
                1.1388320922851562,
                0.008038381114602089
            ],
            "min" : [
                0.5212917327880859,
                1.0556639432907104,
                -0.008038381114602089
            ],
            "type" : "VEC3"
        },
        {
            "bufferView" : 11,
            "componentType" : 5126,
            "count" : 12,
            "type" : "VEC3"
        },
        {
            "bufferView" : 12,
            "componentType" : 5126,
            "count" : 12,
            "type" : "VEC2"
        },
        {
            "bufferView" : 13,
            "componentType" : 5126,
            "count" : 12,
            "type" : "VEC2"
        },
        {
            "bufferView" : 14,
            "componentType" : 5123,
            "count" : 18,
            "type" : "SCALAR"
        },
        {
            "bufferView" : 15,
            "componentType" : 5126,
            "count" : 90,
            "max" : [
                1.9593905210494995,
                1.8943856954574585,
                5.027157306671143
            ],
            "min" : [
                -0.64909827709198,
                0.45099377632141113,
                -5.027157306671143
            ],
            "type" : "VEC3"
        },
        {
            "bufferView" : 16,
            "componentType" : 5126,
            "count" : 90,
            "type" : "VEC3"
        },
        {
            "bufferView" : 17,
            "componentType" : 5126,
            "count" : 90,
            "type" : "VEC2"
        },
        {
            "bufferView" : 18,
            "componentType" : 5126,
            "count" : 90,
            "type" : "VEC2"
        },
        {
            "bufferView" : 19,
            "componentType" : 5123,
            "count" : 258,
            "type" : "SCALAR"
        }
    ],
    "bufferViews" : [
        {
            "buffer" : 0,
            "byteLength" : 1284,
            "byteOffset" : 0
        },
        {
            "buffer" : 0,
            "byteLength" : 1284,
            "byteOffset" : 1284
        },
        {
            "buffer" : 0,
            "byteLength" : 856,
            "byteOffset" : 2568
        },
        {
            "buffer" : 0,
            "byteLength" : 856,
            "byteOffset" : 3424
        },
        {
            "buffer" : 0,
            "byteLength" : 330,
            "byteOffset" : 4280
        },
        {
            "buffer" : 0,
            "byteLength" : 696,
            "byteOffset" : 4612
        },
        {
            "buffer" : 0,
            "byteLength" : 696,
            "byteOffset" : 5308
        },
        {
            "buffer" : 0,
            "byteLength" : 464,
            "byteOffset" : 6004
        },
        {
            "buffer" : 0,
            "byteLength" : 464,
            "byteOffset" : 6468
        },
        {
            "buffer" : 0,
            "byteLength" : 252,
            "byteOffset" : 6932
        },
        {
            "buffer" : 0,
            "byteLength" : 144,
            "byteOffset" : 7184
        },
        {
            "buffer" : 0,
            "byteLength" : 144,
            "byteOffset" : 7328
        },
        {
            "buffer" : 0,
            "byteLength" : 96,
            "byteOffset" : 7472
        },
        {
            "buffer" : 0,
            "byteLength" : 96,
            "byteOffset" : 7568
        },
        {
            "buffer" : 0,
            "byteLength" : 36,
            "byteOffset" : 7664
        },
        {
            "buffer" : 0,
            "byteLength" : 1080,
            "byteOffset" : 7700
        },
        {
            "buffer" : 0,
            "byteLength" : 1080,
            "byteOffset" : 8780
        },
        {
            "buffer" : 0,
            "byteLength" : 720,
            "byteOffset" : 9860
        },
        {
            "buffer" : 0,
            "byteLength" : 720,
            "byteOffset" : 10580
        },
        {
            "buffer" : 0,
            "byteLength" : 516,
            "byteOffset" : 11300
        }
    ],
    "buffers" : [
        {
            "byteLength" : 11816,
            "uri" : "hang-glider-green-launch-cbj_LOD02.bin"
        }
    ]
}
