{
    "asset" : {
        "extensions" : {
            "ASOBO_normal_map_convention" : {
                "tangent_space_convention" : "DirectX"
            }
        },
        "generator" : "Extended Khronos glTF Blender I/O v1.0.0",
        "version" : "2.0"
    },
    "extensionsUsed" : [
        "ASOBO_normal_map_convention",
        "ASOBO_material_invisible"
    ],
    "scene" : 0,
    "scenes" : [
        {
            "extras" : {
                "glTF2ExportSettings" : {
                    "export_apply" : 1,
                    "export_extras" : 1,
                    "export_lods" : 1,
                    "export_texture_dir" : "../texture",
                    "export_xml" : 1,
                    "export_xml_file" : "fence-mesh-gate-2m-cbj",
                    "use_selection" : 1
                }
            },
            "name" : "Scene",
            "nodes" : [
                0
            ]
        }
    ],
    "nodes" : [
        {
            "mesh" : 0,
            "name" : "post01"
        }
    ],
    "materials" : [
        {
            "emissiveFactor" : [
                0,
                0,
                0
            ],
            "extras" : {
                "msfs_material_mode" : 1,
                "msfs_albedo_texture" : {
                    "name" : "fence-wire-post-TEXTURE.png.002",
                    "type" : "Image"
                },
                "msfs_metallic_texture" : {
                    "name" : "fence-wire-post-AO.png.002",
                    "type" : "Image"
                },
                "msfs_normal_texture" : {
                    "name" : "fence-wire-post-NORMAL.png.002",
                    "type" : "Image"
                },
                "msfs_show_tint" : 1,
                "msfs_show_sss_color" : 0,
                "msfs_show_glass_parameters" : 0,
                "msfs_show_decal_parameters" : 0,
                "msfs_show_fresnel_parameters" : 0,
                "msfs_show_parallax_parameters" : 0,
                "msfs_show_geo_decal_parameters" : 0,
                "msfs_show_albedo" : 1,
                "msfs_show_metallic" : 1,
                "msfs_show_normal" : 1,
                "msfs_show_emissive" : 1,
                "msfs_show_detail_albedo" : 1,
                "msfs_show_detail_metallic" : 1,
                "msfs_show_detail_normal" : 1,
                "msfs_show_blend_mask" : 1,
                "msfs_show_anisotropic_direction" : 0,
                "msfs_show_clearcoat" : 0,
                "msfs_show_behind_glass" : 0,
                "msfs_show_blend_mode" : 1,
                "msfs_show_draworder" : 1,
                "msfs_show_no_cast_shadow" : 1,
                "msfs_show_double_sided" : 1,
                "msfs_show_responsive_aa" : 0,
                "msfs_show_day_night_cycle" : 1,
                "msfs_show_collision_material" : 1,
                "msfs_show_road_material" : 1,
                "msfs_show_ao_use_uv2" : 1,
                "msfs_show_uv_clamp" : 1,
                "msfs_show_alpha_cutoff" : 1,
                "msfs_show_blend_threshold" : 1
            },
            "name" : "post01",
            "normalTexture" : {
                "index" : 0,
                "texCoord" : 0
            },
            "pbrMetallicRoughness" : {
                "baseColorTexture" : {
                    "index" : 1,
                    "texCoord" : 0
                },
                "metallicRoughnessTexture" : {
                    "index" : 2,
                    "texCoord" : 0
                }
            }
        },
        {
            "alphaMode" : "BLEND",
            "emissiveFactor" : [
                0,
                0,
                0
            ],
            "extras" : {
                "msfs_material_mode" : 1,
                "msfs_albedo_texture" : {
                    "name" : "fence-wire-TEXTURE.png.001",
                    "type" : "Image"
                },
                "msfs_metallic_texture" : {
                    "name" : "fence-wire-OA.png.001",
                    "type" : "Image"
                },
                "msfs_normal_texture" : {
                    "name" : "fence-wire-NORMAL.png.001",
                    "type" : "Image"
                },
                "msfs_show_tint" : 1,
                "msfs_show_sss_color" : 0,
                "msfs_show_glass_parameters" : 0,
                "msfs_show_decal_parameters" : 0,
                "msfs_show_fresnel_parameters" : 0,
                "msfs_show_parallax_parameters" : 0,
                "msfs_show_geo_decal_parameters" : 0,
                "msfs_show_albedo" : 1,
                "msfs_show_metallic" : 1,
                "msfs_show_normal" : 1,
                "msfs_show_emissive" : 1,
                "msfs_show_detail_albedo" : 1,
                "msfs_show_detail_metallic" : 1,
                "msfs_show_detail_normal" : 1,
                "msfs_show_blend_mask" : 1,
                "msfs_show_anisotropic_direction" : 0,
                "msfs_show_clearcoat" : 0,
                "msfs_show_behind_glass" : 0,
                "msfs_show_blend_mode" : 1,
                "msfs_show_draworder" : 1,
                "msfs_show_no_cast_shadow" : 1,
                "msfs_show_double_sided" : 1,
                "msfs_show_responsive_aa" : 0,
                "msfs_show_day_night_cycle" : 1,
                "msfs_show_collision_material" : 1,
                "msfs_show_road_material" : 1,
                "msfs_show_ao_use_uv2" : 1,
                "msfs_show_uv_clamp" : 1,
                "msfs_show_alpha_cutoff" : 1,
                "msfs_show_blend_threshold" : 1,
                "msfs_blend_mode" : 2,
                "msfs_double_sided" : 0
            },
            "name" : "wire01",
            "normalTexture" : {
                "index" : 3,
                "texCoord" : 0
            },
            "pbrMetallicRoughness" : {
                "baseColorTexture" : {
                    "index" : 4,
                    "texCoord" : 0
                },
                "metallicRoughnessTexture" : {
                    "index" : 5,
                    "texCoord" : 0
                }
            }
        },
        {
            "alphaMode" : "BLEND",
            "emissiveFactor" : [
                0,
                0,
                0
            ],
            "extensions" : {
                "ASOBO_material_invisible" : {
                    "enabled" : true
                }
            },
            "extras" : {
                "msfs_material_mode" : 15,
                "msfs_show_tint" : 0,
                "msfs_show_sss_color" : 0,
                "msfs_show_glass_parameters" : 0,
                "msfs_show_decal_parameters" : 0,
                "msfs_show_fresnel_parameters" : 0,
                "msfs_show_parallax_parameters" : 0,
                "msfs_show_geo_decal_parameters" : 0,
                "msfs_show_albedo" : 0,
                "msfs_show_metallic" : 0,
                "msfs_show_normal" : 0,
                "msfs_show_emissive" : 0,
                "msfs_show_detail_albedo" : 0,
                "msfs_show_detail_metallic" : 0,
                "msfs_show_detail_normal" : 0,
                "msfs_show_blend_mask" : 0,
                "msfs_show_anisotropic_direction" : 0,
                "msfs_show_clearcoat" : 0,
                "msfs_show_behind_glass" : 0,
                "msfs_show_blend_mode" : 0,
                "msfs_show_draworder" : 0,
                "msfs_show_no_cast_shadow" : 0,
                "msfs_show_double_sided" : 0,
                "msfs_show_responsive_aa" : 0,
                "msfs_show_day_night_cycle" : 0,
                "msfs_show_collision_material" : 1,
                "msfs_show_road_material" : 1,
                "msfs_show_ao_use_uv2" : 0,
                "msfs_show_uv_clamp" : 1,
                "msfs_show_alpha_cutoff" : 0,
                "msfs_show_blend_threshold" : 0
            },
            "name" : "invisible01",
            "pbrMetallicRoughness" : {
                "baseColorFactor" : [
                    1,
                    0,
                    0,
                    0
                ],
                "metallicFactor" : 0,
                "roughnessFactor" : 0.5
            }
        }
    ],
    "meshes" : [
        {
            "name" : "Cube.001",
            "primitives" : [
                {
                    "attributes" : {
                        "POSITION" : 0,
                        "NORMAL" : 1,
                        "TEXCOORD_0" : 2
                    },
                    "indices" : 3,
                    "material" : 0
                },
                {
                    "attributes" : {
                        "POSITION" : 4,
                        "NORMAL" : 5,
                        "TEXCOORD_0" : 6
                    },
                    "indices" : 7,
                    "material" : 1
                },
                {
                    "attributes" : {
                        "POSITION" : 8,
                        "NORMAL" : 9,
                        "TEXCOORD_0" : 10
                    },
                    "indices" : 11,
                    "material" : 2
                }
            ]
        }
    ],
    "textures" : [
        {
            "source" : 0
        },
        {
            "source" : 1
        },
        {
            "source" : 2
        },
        {
            "source" : 3
        },
        {
            "source" : 4
        },
        {
            "source" : 5
        }
    ],
    "images" : [
        {
            "mimeType" : "image/png",
            "name" : "fence-wire-post-NORMAL",
            "uri" : "fence-wire-post-NORMAL.png"
        },
        {
            "mimeType" : "image/png",
            "name" : "fence-wire-post-TEXTURE",
            "uri" : "fence-wire-post-TEXTURE.png"
        },
        {
            "mimeType" : "image/png",
            "name" : "fence-wire-post-AO",
            "uri" : "fence-wire-post-AO.png"
        },
        {
            "mimeType" : "image/png",
            "name" : "fence-wire-NORMAL",
            "uri" : "fence-wire-NORMAL.png"
        },
        {
            "mimeType" : "image/png",
            "name" : "fence-wire-TEXTURE",
            "uri" : "fence-wire-TEXTURE.png"
        },
        {
            "mimeType" : "image/png",
            "name" : "fence-wire-OA",
            "uri" : "fence-wire-OA.png"
        }
    ],
    "accessors" : [
        {
            "bufferView" : 0,
            "componentType" : 5126,
            "count" : 64,
            "max" : [
                2.1203765869140625,
                1.100000023841858,
                0.06190909445285797
            ],
            "min" : [
                -0.0039952602237463,
                -0.30000001192092896,
                -0.06190910190343857
            ],
            "type" : "VEC3"
        },
        {
            "bufferView" : 1,
            "componentType" : 5126,
            "count" : 64,
            "type" : "VEC3"
        },
        {
            "bufferView" : 2,
            "componentType" : 5126,
            "count" : 64,
            "type" : "VEC2"
        },
        {
            "bufferView" : 3,
            "componentType" : 5123,
            "count" : 96,
            "type" : "SCALAR"
        },
        {
            "bufferView" : 4,
            "componentType" : 5126,
            "count" : 8,
            "max" : [
                1.9604651927947998,
                0.9789016842842102,
                0.004000000189989805
            ],
            "min" : [
                0.16000021994113922,
                0.08000002801418304,
                -0.004000000189989805
            ],
            "type" : "VEC3"
        },
        {
            "bufferView" : 5,
            "componentType" : 5126,
            "count" : 8,
            "type" : "VEC3"
        },
        {
            "bufferView" : 6,
            "componentType" : 5126,
            "count" : 8,
            "type" : "VEC2"
        },
        {
            "bufferView" : 7,
            "componentType" : 5123,
            "count" : 12,
            "type" : "SCALAR"
        },
        {
            "bufferView" : 8,
            "componentType" : 5126,
            "count" : 3,
            "max" : [
                6.669026851654053,
                -1,
                5.25177001953125
            ],
            "min" : [
                -3.8345131874084473,
                -1,
                -5.25177001953125
            ],
            "type" : "VEC3"
        },
        {
            "bufferView" : 9,
            "componentType" : 5126,
            "count" : 3,
            "type" : "VEC3"
        },
        {
            "bufferView" : 10,
            "componentType" : 5126,
            "count" : 3,
            "type" : "VEC2"
        },
        {
            "bufferView" : 11,
            "componentType" : 5123,
            "count" : 3,
            "type" : "SCALAR"
        }
    ],
    "bufferViews" : [
        {
            "buffer" : 0,
            "byteLength" : 768,
            "byteOffset" : 0
        },
        {
            "buffer" : 0,
            "byteLength" : 768,
            "byteOffset" : 768
        },
        {
            "buffer" : 0,
            "byteLength" : 512,
            "byteOffset" : 1536
        },
        {
            "buffer" : 0,
            "byteLength" : 192,
            "byteOffset" : 2048
        },
        {
            "buffer" : 0,
            "byteLength" : 96,
            "byteOffset" : 2240
        },
        {
            "buffer" : 0,
            "byteLength" : 96,
            "byteOffset" : 2336
        },
        {
            "buffer" : 0,
            "byteLength" : 64,
            "byteOffset" : 2432
        },
        {
            "buffer" : 0,
            "byteLength" : 24,
            "byteOffset" : 2496
        },
        {
            "buffer" : 0,
            "byteLength" : 36,
            "byteOffset" : 2520
        },
        {
            "buffer" : 0,
            "byteLength" : 36,
            "byteOffset" : 2556
        },
        {
            "buffer" : 0,
            "byteLength" : 24,
            "byteOffset" : 2592
        },
        {
            "buffer" : 0,
            "byteLength" : 6,
            "byteOffset" : 2616
        }
    ],
    "buffers" : [
        {
            "byteLength" : 2624,
            "uri" : "fence-mesh-gate-2m-cbj_LOD01.bin"
        }
    ]
}
