{
    "asset" : {
        "extensions" : {
            "ASOBO_normal_map_convention" : {
                "tangent_space_convention" : "DirectX"
            }
        },
        "generator" : "Extended Khronos glTF Blender I/O v1.0.0",
        "version" : "2.0"
    },
    "extensionsUsed" : [
        "ASOBO_normal_map_convention"
    ],
    "scene" : 0,
    "scenes" : [
        {
            "extras" : {},
            "name" : "Scene",
            "nodes" : [
                0,
                1,
                2
            ]
        }
    ],
    "nodes" : [
        {
            "mesh" : 0,
            "name" : "Tankstelle_JET_A-1",
            "scale" : [
                0.25,
                1,
                0.5
            ],
            "translation" : [
                0,
                0.09223377704620361,
                1
            ]
        },
        {
            "mesh" : 1,
            "name" : "Tankstelle_Terminal",
            "scale" : [
                0.07500000298023224,
                1,
                0.07500000298023224
            ],
            "translation" : [
                0,
                0.10414399951696396,
                0
            ]
        },
        {
            "mesh" : 2,
            "name" : "Tankstelle_Mogas",
            "scale" : [
                0.25,
                1,
                0.5
            ],
            "translation" : [
                0,
                0.09223377704620361,
                -1
            ]
        }
    ],
    "materials" : [
        {
            "emissiveFactor" : [
                0,
                0,
                0
            ],
            "extras" : {
                "msfs_material_mode" : 1,
                "msfs_albedo_texture" : {
                    "name" : "props.jpeg",
                    "type" : "Image"
                },
                "msfs_show_tint" : 1,
                "msfs_show_sss_color" : 0,
                "msfs_show_glass_parameters" : 0,
                "msfs_show_decal_parameters" : 0,
                "msfs_show_fresnel_parameters" : 0,
                "msfs_show_parallax_parameters" : 0,
                "msfs_show_geo_decal_parameters" : 0,
                "msfs_show_albedo" : 1,
                "msfs_show_metallic" : 1,
                "msfs_show_normal" : 1,
                "msfs_show_emissive" : 1,
                "msfs_show_detail_albedo" : 1,
                "msfs_show_detail_metallic" : 1,
                "msfs_show_detail_normal" : 1,
                "msfs_show_blend_mask" : 1,
                "msfs_show_anisotropic_direction" : 0,
                "msfs_show_clearcoat" : 0,
                "msfs_show_behind_glass" : 0,
                "msfs_show_blend_mode" : 1,
                "msfs_show_draworder" : 1,
                "msfs_show_no_cast_shadow" : 1,
                "msfs_show_double_sided" : 1,
                "msfs_show_responsive_aa" : 0,
                "msfs_show_day_night_cycle" : 1,
                "msfs_show_collision_material" : 1,
                "msfs_show_road_material" : 1,
                "msfs_show_ao_use_uv2" : 1,
                "msfs_show_uv_clamp" : 1,
                "msfs_show_alpha_cutoff" : 1,
                "msfs_show_blend_threshold" : 1
            },
            "name" : "Tankstelle",
            "pbrMetallicRoughness" : {
                "baseColorTexture" : {
                    "index" : 0,
                    "texCoord" : 0
                },
                "metallicFactor" : 0,
                "roughnessFactor" : 0.5
            }
        },
        {
            "doubleSided" : true,
            "emissiveFactor" : [
                0,
                0,
                0
            ],
            "name" : "unicolor-_schwarz",
            "pbrMetallicRoughness" : {
                "baseColorFactor" : [
                    0.02624122053384781,
                    0.024157628417015076,
                    0.022173885256052017,
                    1
                ],
                "metallicFactor" : 0,
                "roughnessFactor" : 0.5
            }
        },
        {
            "doubleSided" : true,
            "emissiveFactor" : [
                0,
                0,
                0
            ],
            "name" : "unicolor_Metal",
            "pbrMetallicRoughness" : {
                "baseColorFactor" : [
                    0.16264207661151886,
                    0.16264207661151886,
                    0.16264207661151886,
                    1
                ],
                "metallicFactor" : 0.6473429799079895,
                "roughnessFactor" : 0.7463768124580383
            }
        },
        {
            "doubleSided" : true,
            "emissiveFactor" : [
                0,
                0,
                0
            ],
            "name" : "unicolor_green",
            "pbrMetallicRoughness" : {
                "baseColorFactor" : [
                    0.03189603611826897,
                    0.33245155215263367,
                    0.18447501957416534,
                    1
                ],
                "metallicFactor" : 0,
                "roughnessFactor" : 0.5
            }
        }
    ],
    "meshes" : [
        {
            "name" : "Plane",
            "primitives" : [
                {
                    "attributes" : {
                        "POSITION" : 0,
                        "NORMAL" : 1,
                        "TEXCOORD_0" : 2
                    },
                    "indices" : 3,
                    "material" : 0
                },
                {
                    "attributes" : {
                        "POSITION" : 4,
                        "NORMAL" : 5,
                        "TEXCOORD_0" : 6
                    },
                    "indices" : 7,
                    "material" : 1
                },
                {
                    "attributes" : {
                        "POSITION" : 8,
                        "NORMAL" : 9,
                        "TEXCOORD_0" : 10
                    },
                    "indices" : 11,
                    "material" : 2
                }
            ]
        },
        {
            "name" : "Plane.001",
            "primitives" : [
                {
                    "attributes" : {
                        "POSITION" : 12,
                        "NORMAL" : 13,
                        "TEXCOORD_0" : 14
                    },
                    "indices" : 15,
                    "material" : 0
                }
            ]
        },
        {
            "name" : "Plane.002",
            "primitives" : [
                {
                    "attributes" : {
                        "POSITION" : 16,
                        "NORMAL" : 17,
                        "TEXCOORD_0" : 18
                    },
                    "indices" : 19,
                    "material" : 0
                },
                {
                    "attributes" : {
                        "POSITION" : 20,
                        "NORMAL" : 21,
                        "TEXCOORD_0" : 22
                    },
                    "indices" : 23,
                    "material" : 1
                },
                {
                    "attributes" : {
                        "POSITION" : 24,
                        "NORMAL" : 25,
                        "TEXCOORD_0" : 26
                    },
                    "indices" : 27,
                    "material" : 2
                },
                {
                    "attributes" : {
                        "POSITION" : 28,
                        "NORMAL" : 29,
                        "TEXCOORD_0" : 30
                    },
                    "indices" : 31,
                    "material" : 3
                }
            ]
        }
    ],
    "textures" : [
        {
            "source" : 0
        }
    ],
    "images" : [
        {
            "mimeType" : "image/jpeg",
            "name" : "props",
            "uri" : "props.jpg"
        }
    ],
    "accessors" : [
        {
            "bufferView" : 0,
            "componentType" : 5126,
            "count" : 24,
            "max" : [
                1.2000000476837158,
                1.9077662229537964,
                1
            ],
            "min" : [
                -1,
                0,
                -1
            ],
            "type" : "VEC3"
        },
        {
            "bufferView" : 1,
            "componentType" : 5126,
            "count" : 24,
            "type" : "VEC3"
        },
        {
            "bufferView" : 2,
            "componentType" : 5126,
            "count" : 24,
            "type" : "VEC2"
        },
        {
            "bufferView" : 3,
            "componentType" : 5123,
            "count" : 36,
            "type" : "SCALAR"
        },
        {
            "bufferView" : 4,
            "componentType" : 5126,
            "count" : 68,
            "max" : [
                1.2000000476837158,
                1.9077662229537964,
                0.7999999523162842
            ],
            "min" : [
                -1.2000000476837158,
                0.15000000596046448,
                -0.7999999523162842
            ],
            "type" : "VEC3"
        },
        {
            "bufferView" : 5,
            "componentType" : 5126,
            "count" : 68,
            "type" : "VEC3"
        },
        {
            "bufferView" : 6,
            "componentType" : 5126,
            "count" : 68,
            "type" : "VEC2"
        },
        {
            "bufferView" : 7,
            "componentType" : 5123,
            "count" : 102,
            "type" : "SCALAR"
        },
        {
            "bufferView" : 8,
            "componentType" : 5126,
            "count" : 72,
            "max" : [
                1,
                1.9077662229537964,
                1
            ],
            "min" : [
                -1,
                0,
                -1
            ],
            "type" : "VEC3"
        },
        {
            "bufferView" : 9,
            "componentType" : 5126,
            "count" : 72,
            "type" : "VEC3"
        },
        {
            "bufferView" : 10,
            "componentType" : 5126,
            "count" : 72,
            "type" : "VEC2"
        },
        {
            "bufferView" : 11,
            "componentType" : 5123,
            "count" : 168,
            "type" : "SCALAR"
        },
        {
            "bufferView" : 12,
            "componentType" : 5126,
            "count" : 44,
            "max" : [
                2.6666667461395264,
                1.6458561420440674,
                3.6638505458831787
            ],
            "min" : [
                -2.6666667461395264,
                0,
                -3.6638505458831787
            ],
            "type" : "VEC3"
        },
        {
            "bufferView" : 13,
            "componentType" : 5126,
            "count" : 44,
            "type" : "VEC3"
        },
        {
            "bufferView" : 14,
            "componentType" : 5126,
            "count" : 44,
            "type" : "VEC2"
        },
        {
            "bufferView" : 15,
            "componentType" : 5123,
            "count" : 66,
            "type" : "SCALAR"
        },
        {
            "bufferView" : 16,
            "componentType" : 5126,
            "count" : 20,
            "max" : [
                1.2000000476837158,
                1.9077662229537964,
                1
            ],
            "min" : [
                -1,
                0,
                -1
            ],
            "type" : "VEC3"
        },
        {
            "bufferView" : 17,
            "componentType" : 5126,
            "count" : 20,
            "type" : "VEC3"
        },
        {
            "bufferView" : 18,
            "componentType" : 5126,
            "count" : 20,
            "type" : "VEC2"
        },
        {
            "bufferView" : 19,
            "componentType" : 5123,
            "count" : 30,
            "type" : "SCALAR"
        },
        {
            "bufferView" : 20,
            "componentType" : 5126,
            "count" : 32,
            "max" : [
                1.1200000047683716,
                1.9077662229537964,
                0.7999999523162842
            ],
            "min" : [
                -1.1200000047683716,
                1.4077662229537964,
                -0.7999999523162842
            ],
            "type" : "VEC3"
        },
        {
            "bufferView" : 21,
            "componentType" : 5126,
            "count" : 32,
            "type" : "VEC3"
        },
        {
            "bufferView" : 22,
            "componentType" : 5126,
            "count" : 32,
            "type" : "VEC2"
        },
        {
            "bufferView" : 23,
            "componentType" : 5123,
            "count" : 48,
            "type" : "SCALAR"
        },
        {
            "bufferView" : 24,
            "componentType" : 5126,
            "count" : 80,
            "max" : [
                1.2000000476837158,
                1.9077662229537964,
                1
            ],
            "min" : [
                -1.2000000476837158,
                0,
                -1
            ],
            "type" : "VEC3"
        },
        {
            "bufferView" : 25,
            "componentType" : 5126,
            "count" : 80,
            "type" : "VEC3"
        },
        {
            "bufferView" : 26,
            "componentType" : 5126,
            "count" : 80,
            "type" : "VEC2"
        },
        {
            "bufferView" : 27,
            "componentType" : 5123,
            "count" : 186,
            "type" : "SCALAR"
        },
        {
            "bufferView" : 28,
            "componentType" : 5126,
            "count" : 28,
            "max" : [
                1.2000000476837158,
                1.049999713897705,
                0.7999999523162842
            ],
            "min" : [
                -1.2000000476837158,
                0.15000000596046448,
                -0.7999999523162842
            ],
            "type" : "VEC3"
        },
        {
            "bufferView" : 29,
            "componentType" : 5126,
            "count" : 28,
            "type" : "VEC3"
        },
        {
            "bufferView" : 30,
            "componentType" : 5126,
            "count" : 28,
            "type" : "VEC2"
        },
        {
            "bufferView" : 31,
            "componentType" : 5123,
            "count" : 42,
            "type" : "SCALAR"
        }
    ],
    "bufferViews" : [
        {
            "buffer" : 0,
            "byteLength" : 288,
            "byteOffset" : 0
        },
        {
            "buffer" : 0,
            "byteLength" : 288,
            "byteOffset" : 288
        },
        {
            "buffer" : 0,
            "byteLength" : 192,
            "byteOffset" : 576
        },
        {
            "buffer" : 0,
            "byteLength" : 72,
            "byteOffset" : 768
        },
        {
            "buffer" : 0,
            "byteLength" : 816,
            "byteOffset" : 840
        },
        {
            "buffer" : 0,
            "byteLength" : 816,
            "byteOffset" : 1656
        },
        {
            "buffer" : 0,
            "byteLength" : 544,
            "byteOffset" : 2472
        },
        {
            "buffer" : 0,
            "byteLength" : 204,
            "byteOffset" : 3016
        },
        {
            "buffer" : 0,
            "byteLength" : 864,
            "byteOffset" : 3220
        },
        {
            "buffer" : 0,
            "byteLength" : 864,
            "byteOffset" : 4084
        },
        {
            "buffer" : 0,
            "byteLength" : 576,
            "byteOffset" : 4948
        },
        {
            "buffer" : 0,
            "byteLength" : 336,
            "byteOffset" : 5524
        },
        {
            "buffer" : 0,
            "byteLength" : 528,
            "byteOffset" : 5860
        },
        {
            "buffer" : 0,
            "byteLength" : 528,
            "byteOffset" : 6388
        },
        {
            "buffer" : 0,
            "byteLength" : 352,
            "byteOffset" : 6916
        },
        {
            "buffer" : 0,
            "byteLength" : 132,
            "byteOffset" : 7268
        },
        {
            "buffer" : 0,
            "byteLength" : 240,
            "byteOffset" : 7400
        },
        {
            "buffer" : 0,
            "byteLength" : 240,
            "byteOffset" : 7640
        },
        {
            "buffer" : 0,
            "byteLength" : 160,
            "byteOffset" : 7880
        },
        {
            "buffer" : 0,
            "byteLength" : 60,
            "byteOffset" : 8040
        },
        {
            "buffer" : 0,
            "byteLength" : 384,
            "byteOffset" : 8100
        },
        {
            "buffer" : 0,
            "byteLength" : 384,
            "byteOffset" : 8484
        },
        {
            "buffer" : 0,
            "byteLength" : 256,
            "byteOffset" : 8868
        },
        {
            "buffer" : 0,
            "byteLength" : 96,
            "byteOffset" : 9124
        },
        {
            "buffer" : 0,
            "byteLength" : 960,
            "byteOffset" : 9220
        },
        {
            "buffer" : 0,
            "byteLength" : 960,
            "byteOffset" : 10180
        },
        {
            "buffer" : 0,
            "byteLength" : 640,
            "byteOffset" : 11140
        },
        {
            "buffer" : 0,
            "byteLength" : 372,
            "byteOffset" : 11780
        },
        {
            "buffer" : 0,
            "byteLength" : 336,
            "byteOffset" : 12152
        },
        {
            "buffer" : 0,
            "byteLength" : 336,
            "byteOffset" : 12488
        },
        {
            "buffer" : 0,
            "byteLength" : 224,
            "byteOffset" : 12824
        },
        {
            "buffer" : 0,
            "byteLength" : 84,
            "byteOffset" : 13048
        }
    ],
    "buffers" : [
        {
            "byteLength" : 13132,
            "uri" : "lszf-tankstelle-slave.bin"
        }
    ]
}
