{"asset":{"version":"2.0","generator":"babylon.js glTF exporter for 3dsmax 2019 v1.5.0","extensions":{"ASOBO_normal_map_convention":{"tangent_space_convention":"DirectX"}}},"extensionsUsed":["ASOBO_normal_map_convention"],"scene":0,"scenes":[{"nodes":[0],"extensions":{}}],"nodes":[{"mesh":0,"translation":[13.2015762,0.05,116.612595],"rotation":[0.0,0.0,0.0,1.0],"scale":[1.0,1.0,1.0],"name":"Loft001"}],"meshes":[{"primitives":[{"attributes":{"POSITION":1,"NORMAL":2},"indices":0,"mode":4,"material":0},{"attributes":{"POSITION":4,"NORMAL":5},"indices":3,"mode":4,"material":1}],"name":"Loft001"}],"accessors":[{"bufferView":0,"componentType":5123,"count":792,"type":"SCALAR","name":"accessorIndices"},{"bufferView":1,"componentType":5126,"count":792,"max":[-12.8515272,0.5000491,-116.602585],"min":[-13.5516262,-5.0,-116.6226],"type":"VEC3","name":"accessorPositions"},{"bufferView":1,"byteOffset":9504,"componentType":5126,"count":792,"type":"VEC3","name":"accessorNormals"},{"bufferView":0,"byteOffset":1584,"componentType":5123,"count":372,"type":"SCALAR","name":"accessorIndices"},{"bufferView":1,"byteOffset":19008,"componentType":5126,"count":372,"max":[-12.8510761,0.45,-116.6018],"min":[-13.5520763,0.0,-116.6234],"type":"VEC3","name":"accessorPositions"},{"bufferView":1,"byteOffset":23472,"componentType":5126,"count":372,"type":"VEC3","name":"accessorNormals"}],"bufferViews":[{"buffer":0,"byteLength":2328,"name":"bufferViewScalar"},{"buffer":0,"byteOffset":2328,"byteLength":27936,"byteStride":12,"name":"bufferViewFloatVec3"}],"buffers":[{"uri":"marker2_white_LOD0.bin","byteLength":30264}],"materials":[{"pbrMetallicRoughness":{"baseColorFactor":[0.294117659,0.294117659,0.294117659,1.0],"metallicFactor":0.0,"roughnessFactor":0.3},"emissiveFactor":[0.0,0.0,0.0],"alphaMode":"OPAQUE","name":"Material #26"},{"pbrMetallicRoughness":{"baseColorFactor":[1.0,1.0,1.0,1.0],"metallicFactor":0.0,"roughnessFactor":0.6},"emissiveFactor":[0.0,0.0,0.0],"alphaMode":"BLEND","doubleSided":true,"name":"Material #25"}]}