{"asset":{"version":"2.0","generator":"babylon.js glTF exporter for 3dsmax 2019 v1.5.0","extensions":{"ASOBO_normal_map_convention":{"tangent_space_convention":"DirectX"}}},"extensionsUsed":["ASOBO_normal_map_convention"],"scene":0,"scenes":[{"nodes":[0],"extensions":{}}],"nodes":[{"mesh":0,"translation":[0.0,0.0,0.0],"rotation":[0.0,0.0,0.0,1.0],"scale":[1.0,1.0,1.0],"name":"Box001"}],"meshes":[{"primitives":[{"attributes":{"POSITION":1,"NORMAL":2,"TEXCOORD_0":3},"indices":0,"mode":4,"material":0}],"name":"Box001"}],"accessors":[{"bufferView":0,"componentType":5123,"count":168,"type":"SCALAR","name":"accessorIndices"},{"bufferView":1,"componentType":5126,"count":168,"max":[0.3000002,0.4499998,0.500000238],"min":[-0.3000002,-5.5,-0.5000003],"type":"VEC3","name":"accessorPositions"},{"bufferView":1,"byteOffset":2016,"componentType":5126,"count":168,"type":"VEC3","name":"accessorNormals"},{"bufferView":2,"componentType":5126,"count":168,"type":"VEC2","name":"accessorUVs"}],"bufferViews":[{"buffer":0,"byteLength":336,"name":"bufferViewScalar"},{"buffer":0,"byteOffset":336,"byteLength":4032,"byteStride":12,"name":"bufferViewFloatVec3"},{"buffer":0,"byteOffset":4368,"byteLength":1344,"byteStride":8,"name":"bufferViewFloatVec2"}],"buffers":[{"uri":"boundary2-100-red.bin","byteLength":5712}],"materials":[{"pbrMetallicRoughness":{"baseColorFactor":[0.7697842,0.06309708,0.05047764,1.0],"metallicFactor":0.0,"roughnessFactor":0.7},"emissiveFactor":[0.0,0.0,0.0],"alphaMode":"OPAQUE","name":"Material #26"}]}