{"asset":{"version":"2.0","generator":"babylon.js glTF exporter for 3dsmax 2019 v1.0.0.0","extensions":{"ASOBO_normal_map_convention":{"tangent_space_convention":"DirectX"}}},"extensionsUsed":["ASOBO_normal_map_convention"],"scene":0,"scenes":[{"nodes":[0],"extensions":{}}],"nodes":[{"children":[1,2,3,4,5,6,7,8,9,10,11,12,13,14],"translation":[0.0,0.480000019,0.0],"rotation":[0.0,0.0,0.0,1.0],"scale":[1.0,1.0,1.0],"name":"ClosedSignOpen"},{"mesh":0,"translation":[0.0,0.435000062,0.0],"rotation":[0.0,0.0,0.0,1.0],"scale":[1.0,1.0,1.0],"name":"Line006"},{"mesh":1,"translation":[0.8436041,0.36,0.8241291],"rotation":[0.0,0.0,0.0,1.0],"scale":[1.0,1.0,1.0],"name":"Line005"},{"mesh":2,"translation":[-0.8209642,0.36,-0.8203842],"rotation":[0.0,0.0,0.0,1.0],"scale":[1.0,1.0,1.0],"name":"Line004"},{"mesh":3,"translation":[0.0,0.475000024,0.0],"rotation":[0.0,0.0,0.0,1.0],"scale":[1.0,1.0,1.0],"name":"Line003"},{"mesh":4,"translation":[-0.0129990578,0.36,0.0162254181],"rotation":[0.0,0.0,0.0,1.0],"scale":[1.0,1.0,1.0],"name":"Line002"},{"mesh":5,"translation":[0.0,0.269999981,0.0],"rotation":[0.0,0.0,-1.110223E-16,1.0],"scale":[1.0,1.0,1.0],"name":"Box009"},{"mesh":6,"translation":[1.0,-0.480000019,1.95],"rotation":[0.0,0.0,0.0,1.0],"scale":[1.0,1.0,1.0],"name":"Box008"},{"mesh":7,"translation":[-1.0,-0.480000019,1.95],"rotation":[0.0,0.0,0.0,1.0],"scale":[1.0,1.0,1.0],"name":"Box007"},{"mesh":8,"translation":[-1.0,-0.480000019,-1.95],"rotation":[0.0,0.0,0.0,1.0],"scale":[1.0,1.0,1.0],"name":"Box006"},{"mesh":9,"translation":[1.0,-0.480000019,-1.95],"rotation":[0.0,0.0,0.0,1.0],"scale":[1.0,1.0,1.0],"name":"Box005"},{"mesh":10,"translation":[-1.95,-0.480000019,1.0],"rotation":[0.0,0.0,0.0,1.0],"scale":[1.0,1.0,1.0],"name":"Box004"},{"mesh":11,"translation":[-1.95,-0.480000019,-1.0],"rotation":[0.0,0.0,0.0,1.0],"scale":[1.0,1.0,1.0],"name":"Box003"},{"mesh":12,"translation":[1.94999981,-0.480000019,1.0],"rotation":[0.0,0.0,0.0,1.0],"scale":[1.0,1.0,1.0],"name":"Box002"},{"mesh":13,"translation":[1.94999981,-0.480000019,-1.0],"rotation":[0.0,0.0,0.0,1.0],"scale":[1.0,1.0,1.0],"name":"Box001"}],"meshes":[{"primitives":[{"attributes":{"POSITION":1,"NORMAL":2},"indices":0,"mode":4,"material":0}],"name":"Line006"},{"primitives":[{"attributes":{"POSITION":4,"NORMAL":5},"indices":3,"mode":4,"material":1}],"name":"Line005"},{"primitives":[{"attributes":{"POSITION":7,"NORMAL":8},"indices":6,"mode":4,"material":1}],"name":"Line004"},{"primitives":[{"attributes":{"POSITION":10,"NORMAL":11},"indices":9,"mode":4,"material":2}],"name":"Line003"},{"primitives":[{"attributes":{"POSITION":13,"NORMAL":14},"indices":12,"mode":4,"material":2}],"name":"Line002"},{"primitives":[{"attributes":{"POSITION":16,"NORMAL":17,"TEXCOORD_0":18},"indices":15,"mode":4,"material":0}],"name":"Box009"},{"primitives":[{"attributes":{"POSITION":20,"NORMAL":21,"TEXCOORD_0":22},"indices":19,"mode":4,"material":0}],"name":"Box008"},{"primitives":[{"attributes":{"POSITION":24,"NORMAL":25,"TEXCOORD_0":26},"indices":23,"mode":4,"material":0}],"name":"Box007"},{"primitives":[{"attributes":{"POSITION":28,"NORMAL":29,"TEXCOORD_0":30},"indices":27,"mode":4,"material":0}],"name":"Box006"},{"primitives":[{"attributes":{"POSITION":32,"NORMAL":33,"TEXCOORD_0":34},"indices":31,"mode":4,"material":0}],"name":"Box005"},{"primitives":[{"attributes":{"POSITION":36,"NORMAL":37,"TEXCOORD_0":38},"indices":35,"mode":4,"material":0}],"name":"Box004"},{"primitives":[{"attributes":{"POSITION":40,"NORMAL":41,"TEXCOORD_0":42},"indices":39,"mode":4,"material":0}],"name":"Box003"},{"primitives":[{"attributes":{"POSITION":44,"NORMAL":45,"TEXCOORD_0":46},"indices":43,"mode":4,"material":0}],"name":"Box002"},{"primitives":[{"attributes":{"POSITION":48,"NORMAL":49,"TEXCOORD_0":50},"indices":47,"mode":4,"material":0}],"name":"Box001"}],"accessors":[{"bufferView":0,"componentType":5123,"count":60,"type":"SCALAR","name":"accessorIndices"},{"bufferView":1,"componentType":5126,"count":36,"max":[2.0,0.0349999741,2.0],"min":[-2.0,-0.0350000262,-2.0],"type":"VEC3","name":"accessorPositions"},{"bufferView":1,"byteOffset":432,"componentType":5126,"count":36,"type":"VEC3","name":"accessorNormals"},{"bufferView":0,"byteOffset":120,"componentType":5123,"count":24,"type":"SCALAR","name":"accessorIndices"},{"bufferView":1,"byteOffset":864,"componentType":5126,"count":18,"max":[1.15639591,0.01,1.1758709],"min":[-2.419604,0.0,-2.400129],"type":"VEC3","name":"accessorPositions"},{"bufferView":1,"byteOffset":1080,"componentType":5126,"count":18,"type":"VEC3","name":"accessorNormals"},{"bufferView":0,"byteOffset":168,"componentType":5123,"count":24,"type":"SCALAR","name":"accessorIndices"},{"bufferView":1,"byteOffset":1296,"componentType":5126,"count":18,"max":[2.396964,0.01,2.39638424],"min":[-1.17903578,0.0,-1.17961574],"type":"VEC3","name":"accessorPositions"},{"bufferView":1,"byteOffset":1512,"componentType":5126,"count":18,"type":"VEC3","name":"accessorNormals"},{"bufferView":0,"byteOffset":216,"componentType":5123,"count":60,"type":"SCALAR","name":"accessorIndices"},{"bufferView":1,"byteOffset":1728,"componentType":5126,"count":36,"max":[2.0,0.005,2.0],"min":[-2.0,-0.005,-2.0],"type":"VEC3","name":"accessorPositions"},{"bufferView":1,"byteOffset":2160,"componentType":5126,"count":36,"type":"VEC3","name":"accessorNormals"},{"bufferView":0,"byteOffset":336,"componentType":5123,"count":60,"type":"SCALAR","name":"accessorIndices"},{"bufferView":1,"byteOffset":2592,"componentType":5126,"count":36,"max":[2.012999,0.01,1.98377466],"min":[-1.987001,0.0,-2.01622534],"type":"VEC3","name":"accessorPositions"},{"bufferView":1,"byteOffset":3024,"componentType":5126,"count":36,"type":"VEC3","name":"accessorNormals"},{"bufferView":0,"byteOffset":456,"componentType":5123,"count":36,"type":"SCALAR","name":"accessorIndices"},{"bufferView":1,"byteOffset":3456,"componentType":5126,"count":24,"max":[2.0,0.09,2.0],"min":[-2.0,0.0,-2.0],"type":"VEC3","name":"accessorPositions"},{"bufferView":1,"byteOffset":3744,"componentType":5126,"count":24,"type":"VEC3","name":"accessorNormals"},{"bufferView":2,"componentType":5126,"count":24,"type":"VEC2","name":"accessorUVs"},{"bufferView":0,"byteOffset":528,"componentType":5123,"count":36,"type":"SCALAR","name":"accessorIndices"},{"bufferView":1,"byteOffset":4032,"componentType":5126,"count":24,"max":[0.045,0.75,0.045],"min":[-0.045,0.0,-0.045],"type":"VEC3","name":"accessorPositions"},{"bufferView":1,"byteOffset":4320,"componentType":5126,"count":24,"type":"VEC3","name":"accessorNormals"},{"bufferView":2,"byteOffset":192,"componentType":5126,"count":24,"type":"VEC2","name":"accessorUVs"},{"bufferView":0,"byteOffset":600,"componentType":5123,"count":36,"type":"SCALAR","name":"accessorIndices"},{"bufferView":1,"byteOffset":4608,"componentType":5126,"count":24,"max":[0.045,0.75,0.045],"min":[-0.045,0.0,-0.045],"type":"VEC3","name":"accessorPositions"},{"bufferView":1,"byteOffset":4896,"componentType":5126,"count":24,"type":"VEC3","name":"accessorNormals"},{"bufferView":2,"byteOffset":384,"componentType":5126,"count":24,"type":"VEC2","name":"accessorUVs"},{"bufferView":0,"byteOffset":672,"componentType":5123,"count":36,"type":"SCALAR","name":"accessorIndices"},{"bufferView":1,"byteOffset":5184,"componentType":5126,"count":24,"max":[0.045,0.75,0.045],"min":[-0.045,0.0,-0.045],"type":"VEC3","name":"accessorPositions"},{"bufferView":1,"byteOffset":5472,"componentType":5126,"count":24,"type":"VEC3","name":"accessorNormals"},{"bufferView":2,"byteOffset":576,"componentType":5126,"count":24,"type":"VEC2","name":"accessorUVs"},{"bufferView":0,"byteOffset":744,"componentType":5123,"count":36,"type":"SCALAR","name":"accessorIndices"},{"bufferView":1,"byteOffset":5760,"componentType":5126,"count":24,"max":[0.045,0.75,0.045],"min":[-0.045,0.0,-0.045],"type":"VEC3","name":"accessorPositions"},{"bufferView":1,"byteOffset":6048,"componentType":5126,"count":24,"type":"VEC3","name":"accessorNormals"},{"bufferView":2,"byteOffset":768,"componentType":5126,"count":24,"type":"VEC2","name":"accessorUVs"},{"bufferView":0,"byteOffset":816,"componentType":5123,"count":36,"type":"SCALAR","name":"accessorIndices"},{"bufferView":1,"byteOffset":6336,"componentType":5126,"count":24,"max":[0.045,0.75,0.045],"min":[-0.045,0.0,-0.045],"type":"VEC3","name":"accessorPositions"},{"bufferView":1,"byteOffset":6624,"componentType":5126,"count":24,"type":"VEC3","name":"accessorNormals"},{"bufferView":2,"byteOffset":960,"componentType":5126,"count":24,"type":"VEC2","name":"accessorUVs"},{"bufferView":0,"byteOffset":888,"componentType":5123,"count":36,"type":"SCALAR","name":"accessorIndices"},{"bufferView":1,"byteOffset":6912,"componentType":5126,"count":24,"max":[0.045,0.75,0.045],"min":[-0.045,0.0,-0.045],"type":"VEC3","name":"accessorPositions"},{"bufferView":1,"byteOffset":7200,"componentType":5126,"count":24,"type":"VEC3","name":"accessorNormals"},{"bufferView":2,"byteOffset":1152,"componentType":5126,"count":24,"type":"VEC2","name":"accessorUVs"},{"bufferView":0,"byteOffset":960,"componentType":5123,"count":36,"type":"SCALAR","name":"accessorIndices"},{"bufferView":1,"byteOffset":7488,"componentType":5126,"count":24,"max":[0.045,0.75,0.045],"min":[-0.045,0.0,-0.045],"type":"VEC3","name":"accessorPositions"},{"bufferView":1,"byteOffset":7776,"componentType":5126,"count":24,"type":"VEC3","name":"accessorNormals"},{"bufferView":2,"byteOffset":1344,"componentType":5126,"count":24,"type":"VEC2","name":"accessorUVs"},{"bufferView":0,"byteOffset":1032,"componentType":5123,"count":36,"type":"SCALAR","name":"accessorIndices"},{"bufferView":1,"byteOffset":8064,"componentType":5126,"count":24,"max":[0.045,0.75,0.045],"min":[-0.045,0.0,-0.045],"type":"VEC3","name":"accessorPositions"},{"bufferView":1,"byteOffset":8352,"componentType":5126,"count":24,"type":"VEC3","name":"accessorNormals"},{"bufferView":2,"byteOffset":1536,"componentType":5126,"count":24,"type":"VEC2","name":"accessorUVs"}],"bufferViews":[{"buffer":0,"byteLength":1104,"name":"bufferViewScalar"},{"buffer":0,"byteOffset":1104,"byteLength":8640,"byteStride":12,"name":"bufferViewFloatVec3"},{"buffer":0,"byteOffset":9744,"byteLength":1728,"byteStride":8,"name":"bufferViewFloatVec2"}],"buffers":[{"uri":"ClosedSign.bin","byteLength":11472}],"materials":[{"pbrMetallicRoughness":{"baseColorFactor":[0.3137255,0.3137255,0.3137255,1.0]},"name":"Grey Metal"},{"pbrMetallicRoughness":{"baseColorFactor":[0.458823562,0.0,0.0,1.0],"metallicFactor":0.0},"name":"Red Paint"},{"pbrMetallicRoughness":{"baseColorFactor":[0.7411765,0.4901961,0.0,1.0]},"name":"Yellow Paint"}]}