{
    "asset" : {
        "extensions" : {
            "ASOBO_normal_map_convention" : {
                "tangent_space_convention" : "DirectX"
            }
        },
        "generator" : "Khronos glTF Blender I/O v3.3.36 and Asobo Studio MSFS Blender I/O v1.3.0",
        "version" : "2.0"
    },
    "extensionsUsed" : [
        "ASOBO_normal_map_convention",
        "ASOBO_unique_id",
        "KHR_materials_specular"
    ],
    "scene" : 0,
    "scenes" : [
        {
            "name" : "Scene",
            "nodes" : [
                7
            ]
        }
    ],
    "nodes" : [
        {
            "extensions" : {
                "ASOBO_unique_id" : {
                    "id" : "Lower Left Joint"
                }
            },
            "mesh" : 0,
            "name" : "Lower Left Joint",
            "translation" : [
                -0.6200001239776611,
                0.8199999332427979,
                0
            ]
        },
        {
            "extensions" : {
                "ASOBO_unique_id" : {
                    "id" : "Lower Right Join t"
                }
            },
            "mesh" : 1,
            "name" : "Lower Right Join t",
            "translation" : [
                0.6200000047683716,
                0.8199999332427979,
                0
            ]
        },
        {
            "extensions" : {
                "ASOBO_unique_id" : {
                    "id" : "Post 1"
                }
            },
            "mesh" : 2,
            "name" : "Post 1",
            "translation" : [
                -0.6650000214576721,
                -0.1499999761581421,
                0
            ]
        },
        {
            "extensions" : {
                "ASOBO_unique_id" : {
                    "id" : "Post 2"
                }
            },
            "mesh" : 3,
            "name" : "Post 2",
            "translation" : [
                0.6650000214576721,
                -0.1499999761581421,
                0
            ]
        },
        {
            "extensions" : {
                "ASOBO_unique_id" : {
                    "id" : "Sign Face"
                }
            },
            "mesh" : 4,
            "name" : "Sign Face",
            "translation" : [
                0,
                0.7999999523162842,
                0
            ]
        },
        {
            "extensions" : {
                "ASOBO_unique_id" : {
                    "id" : "Upper Left Joint"
                }
            },
            "mesh" : 5,
            "name" : "Upper Left Joint",
            "translation" : [
                -0.6200001239776611,
                1.779999852180481,
                0
            ]
        },
        {
            "extensions" : {
                "ASOBO_unique_id" : {
                    "id" : "Upper Right Joint"
                }
            },
            "mesh" : 6,
            "name" : "Upper Right Joint",
            "translation" : [
                0.6200000047683716,
                1.779999852180481,
                0
            ]
        },
        {
            "children" : [
                0,
                1,
                2,
                3,
                4,
                5,
                6
            ],
            "extensions" : {
                "ASOBO_unique_id" : {
                    "id" : "lszf-sign"
                }
            },
            "name" : "lszf-sign",
            "translation" : [
                0,
                0.11331546306610107,
                0
            ]
        }
    ],
    "materials" : [
        {
            "name" : "Brown Paint",
            "pbrMetallicRoughness" : {
                "baseColorFactor" : [
                    0.04091508686542511,
                    0.09084164351224899,
                    0.08437623083591461,
                    1
                ],
                "metallicFactor" : 0,
                "roughnessFactor" : 0.4000000059604645
            }
        },
        {
            "name" : "Front New",
            "pbrMetallicRoughness" : {
                "baseColorTexture" : {
                    "index" : 0
                }
            }
        },
        {
            "extensions" : {
                "KHR_materials_specular" : {
                    "specularColorFactor" : [
                        1.8601036071777342,
                        1.8601036071777342,
                        1.8601036071777342
                    ]
                }
            },
            "name" : "back",
            "pbrMetallicRoughness" : {
                "baseColorTexture" : {
                    "index" : 1
                },
                "metallicFactor" : 0.4818652868270874
            }
        }
    ],
    "meshes" : [
        {
            "name" : "Box004",
            "primitives" : [
                {
                    "attributes" : {
                        "POSITION" : 0,
                        "NORMAL" : 1,
                        "TANGENT" : 2,
                        "TEXCOORD_0" : 3
                    },
                    "indices" : 4,
                    "material" : 0
                }
            ]
        },
        {
            "name" : "Box005",
            "primitives" : [
                {
                    "attributes" : {
                        "POSITION" : 5,
                        "NORMAL" : 6,
                        "TANGENT" : 7,
                        "TEXCOORD_0" : 8
                    },
                    "indices" : 4,
                    "material" : 0
                }
            ]
        },
        {
            "name" : "Cylinder001",
            "primitives" : [
                {
                    "attributes" : {
                        "POSITION" : 9,
                        "NORMAL" : 10,
                        "TANGENT" : 11,
                        "TEXCOORD_0" : 12
                    },
                    "indices" : 13,
                    "material" : 0
                }
            ]
        },
        {
            "name" : "Cylinder002",
            "primitives" : [
                {
                    "attributes" : {
                        "POSITION" : 14,
                        "NORMAL" : 15,
                        "TANGENT" : 16,
                        "TEXCOORD_0" : 17
                    },
                    "indices" : 13,
                    "material" : 0
                }
            ]
        },
        {
            "name" : "Box001",
            "primitives" : [
                {
                    "attributes" : {
                        "POSITION" : 18,
                        "NORMAL" : 19,
                        "TANGENT" : 20,
                        "TEXCOORD_0" : 21
                    },
                    "indices" : 22,
                    "material" : 1
                },
                {
                    "attributes" : {
                        "POSITION" : 23,
                        "NORMAL" : 24,
                        "TANGENT" : 25,
                        "TEXCOORD_0" : 26
                    },
                    "indices" : 22,
                    "material" : 2
                },
                {
                    "attributes" : {
                        "POSITION" : 27,
                        "NORMAL" : 28,
                        "TANGENT" : 29,
                        "TEXCOORD_0" : 30
                    },
                    "indices" : 31,
                    "material" : 0
                }
            ]
        },
        {
            "name" : "Box002",
            "primitives" : [
                {
                    "attributes" : {
                        "POSITION" : 32,
                        "NORMAL" : 33,
                        "TANGENT" : 34,
                        "TEXCOORD_0" : 35
                    },
                    "indices" : 4,
                    "material" : 0
                }
            ]
        },
        {
            "name" : "Box003",
            "primitives" : [
                {
                    "attributes" : {
                        "POSITION" : 36,
                        "NORMAL" : 37,
                        "TANGENT" : 38,
                        "TEXCOORD_0" : 39
                    },
                    "indices" : 4,
                    "material" : 0
                }
            ]
        }
    ],
    "textures" : [
        {
            "sampler" : 0,
            "source" : 0
        },
        {
            "sampler" : 0,
            "source" : 1
        }
    ],
    "images" : [
        {
            "mimeType" : "image/png",
            "name" : "LSZF_MISC_2_ALBD.PNG",
            "uri" : "LSZF_MISC_2_ALBD_PNG.png"
        },
        {
            "mimeType" : "image/png",
            "name" : "sign_back",
            "uri" : "sign_back.png"
        }
    ],
    "accessors" : [
        {
            "bufferView" : 0,
            "componentType" : 5126,
            "count" : 24,
            "max" : [
                0.019999999552965164,
                0.03999999910593033,
                0.009999999776482582
            ],
            "min" : [
                -0.019999999552965164,
                0,
                -0.009999999776482582
            ],
            "type" : "VEC3"
        },
        {
            "bufferView" : 1,
            "componentType" : 5126,
            "count" : 24,
            "type" : "VEC3"
        },
        {
            "bufferView" : 2,
            "componentType" : 5126,
            "count" : 24,
            "type" : "VEC4"
        },
        {
            "bufferView" : 3,
            "componentType" : 5126,
            "count" : 24,
            "type" : "VEC2"
        },
        {
            "bufferView" : 4,
            "componentType" : 5123,
            "count" : 36,
            "type" : "SCALAR"
        },
        {
            "bufferView" : 5,
            "componentType" : 5126,
            "count" : 24,
            "max" : [
                0.019999999552965164,
                0.03999999910593033,
                0.009999999776482582
            ],
            "min" : [
                -0.019999999552965164,
                0,
                -0.009999999776482582
            ],
            "type" : "VEC3"
        },
        {
            "bufferView" : 6,
            "componentType" : 5126,
            "count" : 24,
            "type" : "VEC3"
        },
        {
            "bufferView" : 7,
            "componentType" : 5126,
            "count" : 24,
            "type" : "VEC4"
        },
        {
            "bufferView" : 8,
            "componentType" : 5126,
            "count" : 24,
            "type" : "VEC2"
        },
        {
            "bufferView" : 9,
            "componentType" : 5126,
            "count" : 90,
            "max" : [
                0.04500000178813934,
                2,
                0.044316355139017105
            ],
            "min" : [
                -0.04500000178813934,
                0,
                -0.04431635141372681
            ],
            "type" : "VEC3"
        },
        {
            "bufferView" : 10,
            "componentType" : 5126,
            "count" : 90,
            "type" : "VEC3"
        },
        {
            "bufferView" : 11,
            "componentType" : 5126,
            "count" : 90,
            "type" : "VEC4"
        },
        {
            "bufferView" : 12,
            "componentType" : 5126,
            "count" : 90,
            "type" : "VEC2"
        },
        {
            "bufferView" : 13,
            "componentType" : 5123,
            "count" : 216,
            "type" : "SCALAR"
        },
        {
            "bufferView" : 14,
            "componentType" : 5126,
            "count" : 90,
            "max" : [
                0.04500000178813934,
                2,
                0.044316355139017105
            ],
            "min" : [
                -0.04500000178813934,
                0,
                -0.04431635141372681
            ],
            "type" : "VEC3"
        },
        {
            "bufferView" : 15,
            "componentType" : 5126,
            "count" : 90,
            "type" : "VEC3"
        },
        {
            "bufferView" : 16,
            "componentType" : 5126,
            "count" : 90,
            "type" : "VEC4"
        },
        {
            "bufferView" : 17,
            "componentType" : 5126,
            "count" : 90,
            "type" : "VEC2"
        },
        {
            "bufferView" : 18,
            "componentType" : 5126,
            "count" : 4,
            "max" : [
                0.6000000238418579,
                1.0399999618530273,
                0.019999999552965164
            ],
            "min" : [
                -0.6000000238418579,
                0,
                0.019999999552965164
            ],
            "type" : "VEC3"
        },
        {
            "bufferView" : 19,
            "componentType" : 5126,
            "count" : 4,
            "type" : "VEC3"
        },
        {
            "bufferView" : 20,
            "componentType" : 5126,
            "count" : 4,
            "type" : "VEC4"
        },
        {
            "bufferView" : 21,
            "componentType" : 5126,
            "count" : 4,
            "type" : "VEC2"
        },
        {
            "bufferView" : 22,
            "componentType" : 5123,
            "count" : 6,
            "type" : "SCALAR"
        },
        {
            "bufferView" : 23,
            "componentType" : 5126,
            "count" : 4,
            "max" : [
                0.6000000238418579,
                1.0399999618530273,
                -0.019999999552965164
            ],
            "min" : [
                -0.6000000238418579,
                0,
                -0.019999999552965164
            ],
            "type" : "VEC3"
        },
        {
            "bufferView" : 24,
            "componentType" : 5126,
            "count" : 4,
            "type" : "VEC3"
        },
        {
            "bufferView" : 25,
            "componentType" : 5126,
            "count" : 4,
            "type" : "VEC4"
        },
        {
            "bufferView" : 26,
            "componentType" : 5126,
            "count" : 4,
            "type" : "VEC2"
        },
        {
            "bufferView" : 27,
            "componentType" : 5126,
            "count" : 16,
            "max" : [
                0.6000000238418579,
                1.0399999618530273,
                0.019999999552965164
            ],
            "min" : [
                -0.6000000238418579,
                0,
                -0.019999999552965164
            ],
            "type" : "VEC3"
        },
        {
            "bufferView" : 28,
            "componentType" : 5126,
            "count" : 16,
            "type" : "VEC3"
        },
        {
            "bufferView" : 29,
            "componentType" : 5126,
            "count" : 16,
            "type" : "VEC4"
        },
        {
            "bufferView" : 30,
            "componentType" : 5126,
            "count" : 16,
            "type" : "VEC2"
        },
        {
            "bufferView" : 31,
            "componentType" : 5123,
            "count" : 24,
            "type" : "SCALAR"
        },
        {
            "bufferView" : 32,
            "componentType" : 5126,
            "count" : 24,
            "max" : [
                0.019999999552965164,
                0.03999999910593033,
                0.009999999776482582
            ],
            "min" : [
                -0.019999999552965164,
                0,
                -0.009999999776482582
            ],
            "type" : "VEC3"
        },
        {
            "bufferView" : 33,
            "componentType" : 5126,
            "count" : 24,
            "type" : "VEC3"
        },
        {
            "bufferView" : 34,
            "componentType" : 5126,
            "count" : 24,
            "type" : "VEC4"
        },
        {
            "bufferView" : 35,
            "componentType" : 5126,
            "count" : 24,
            "type" : "VEC2"
        },
        {
            "bufferView" : 36,
            "componentType" : 5126,
            "count" : 24,
            "max" : [
                0.019999999552965164,
                0.03999999910593033,
                0.009999999776482582
            ],
            "min" : [
                -0.019999999552965164,
                0,
                -0.009999999776482582
            ],
            "type" : "VEC3"
        },
        {
            "bufferView" : 37,
            "componentType" : 5126,
            "count" : 24,
            "type" : "VEC3"
        },
        {
            "bufferView" : 38,
            "componentType" : 5126,
            "count" : 24,
            "type" : "VEC4"
        },
        {
            "bufferView" : 39,
            "componentType" : 5126,
            "count" : 24,
            "type" : "VEC2"
        }
    ],
    "bufferViews" : [
        {
            "buffer" : 0,
            "byteLength" : 288,
            "byteOffset" : 0,
            "target" : 34962
        },
        {
            "buffer" : 0,
            "byteLength" : 288,
            "byteOffset" : 288,
            "target" : 34962
        },
        {
            "buffer" : 0,
            "byteLength" : 384,
            "byteOffset" : 576,
            "target" : 34962
        },
        {
            "buffer" : 0,
            "byteLength" : 192,
            "byteOffset" : 960,
            "target" : 34962
        },
        {
            "buffer" : 0,
            "byteLength" : 72,
            "byteOffset" : 1152,
            "target" : 34963
        },
        {
            "buffer" : 0,
            "byteLength" : 288,
            "byteOffset" : 1224,
            "target" : 34962
        },
        {
            "buffer" : 0,
            "byteLength" : 288,
            "byteOffset" : 1512,
            "target" : 34962
        },
        {
            "buffer" : 0,
            "byteLength" : 384,
            "byteOffset" : 1800,
            "target" : 34962
        },
        {
            "buffer" : 0,
            "byteLength" : 192,
            "byteOffset" : 2184,
            "target" : 34962
        },
        {
            "buffer" : 0,
            "byteLength" : 1080,
            "byteOffset" : 2376,
            "target" : 34962
        },
        {
            "buffer" : 0,
            "byteLength" : 1080,
            "byteOffset" : 3456,
            "target" : 34962
        },
        {
            "buffer" : 0,
            "byteLength" : 1440,
            "byteOffset" : 4536,
            "target" : 34962
        },
        {
            "buffer" : 0,
            "byteLength" : 720,
            "byteOffset" : 5976,
            "target" : 34962
        },
        {
            "buffer" : 0,
            "byteLength" : 432,
            "byteOffset" : 6696,
            "target" : 34963
        },
        {
            "buffer" : 0,
            "byteLength" : 1080,
            "byteOffset" : 7128,
            "target" : 34962
        },
        {
            "buffer" : 0,
            "byteLength" : 1080,
            "byteOffset" : 8208,
            "target" : 34962
        },
        {
            "buffer" : 0,
            "byteLength" : 1440,
            "byteOffset" : 9288,
            "target" : 34962
        },
        {
            "buffer" : 0,
            "byteLength" : 720,
            "byteOffset" : 10728,
            "target" : 34962
        },
        {
            "buffer" : 0,
            "byteLength" : 48,
            "byteOffset" : 11448,
            "target" : 34962
        },
        {
            "buffer" : 0,
            "byteLength" : 48,
            "byteOffset" : 11496,
            "target" : 34962
        },
        {
            "buffer" : 0,
            "byteLength" : 64,
            "byteOffset" : 11544,
            "target" : 34962
        },
        {
            "buffer" : 0,
            "byteLength" : 32,
            "byteOffset" : 11608,
            "target" : 34962
        },
        {
            "buffer" : 0,
            "byteLength" : 12,
            "byteOffset" : 11640,
            "target" : 34963
        },
        {
            "buffer" : 0,
            "byteLength" : 48,
            "byteOffset" : 11652,
            "target" : 34962
        },
        {
            "buffer" : 0,
            "byteLength" : 48,
            "byteOffset" : 11700,
            "target" : 34962
        },
        {
            "buffer" : 0,
            "byteLength" : 64,
            "byteOffset" : 11748,
            "target" : 34962
        },
        {
            "buffer" : 0,
            "byteLength" : 32,
            "byteOffset" : 11812,
            "target" : 34962
        },
        {
            "buffer" : 0,
            "byteLength" : 192,
            "byteOffset" : 11844,
            "target" : 34962
        },
        {
            "buffer" : 0,
            "byteLength" : 192,
            "byteOffset" : 12036,
            "target" : 34962
        },
        {
            "buffer" : 0,
            "byteLength" : 256,
            "byteOffset" : 12228,
            "target" : 34962
        },
        {
            "buffer" : 0,
            "byteLength" : 128,
            "byteOffset" : 12484,
            "target" : 34962
        },
        {
            "buffer" : 0,
            "byteLength" : 48,
            "byteOffset" : 12612,
            "target" : 34963
        },
        {
            "buffer" : 0,
            "byteLength" : 288,
            "byteOffset" : 12660,
            "target" : 34962
        },
        {
            "buffer" : 0,
            "byteLength" : 288,
            "byteOffset" : 12948,
            "target" : 34962
        },
        {
            "buffer" : 0,
            "byteLength" : 384,
            "byteOffset" : 13236,
            "target" : 34962
        },
        {
            "buffer" : 0,
            "byteLength" : 192,
            "byteOffset" : 13620,
            "target" : 34962
        },
        {
            "buffer" : 0,
            "byteLength" : 288,
            "byteOffset" : 13812,
            "target" : 34962
        },
        {
            "buffer" : 0,
            "byteLength" : 288,
            "byteOffset" : 14100,
            "target" : 34962
        },
        {
            "buffer" : 0,
            "byteLength" : 384,
            "byteOffset" : 14388,
            "target" : 34962
        },
        {
            "buffer" : 0,
            "byteLength" : 192,
            "byteOffset" : 14772,
            "target" : 34962
        }
    ],
    "samplers" : [
        {
            "magFilter" : 9729,
            "minFilter" : 9987
        }
    ],
    "buffers" : [
        {
            "byteLength" : 14964,
            "uri" : "lszf-sign.bin"
        }
    ]
}
