{
    "asset" : {
        "extensions" : {
            "ASOBO_normal_map_convention" : {
                "tangent_space_convention" : "DirectX"
            }
        },
        "generator" : "Extended Khronos glTF Blender I/O v1.0.0",
        "version" : "2.0"
    },
    "extensionsUsed" : [
        "ASOBO_normal_map_convention"
    ],
    "scene" : 0,
    "scenes" : [
        {
            "extras" : {
                "matlib" : {
                    "lib_index" : 0,
                    "filter" : 0,
                    "cat_index" : -1,
                    "all_materials" : [
                        {
                            "name" : "CC0_Blech"
                        },
                        {
                            "name" : "CC0_Brick_Wall15"
                        },
                        {
                            "name" : "CC0_Bricks"
                        },
                        {
                            "name" : "CC0_Gargentor"
                        },
                        {
                            "name" : "CC0_Hangar_Dach"
                        },
                        {
                            "name" : "CC0_Hangar_Dach_Wellblech"
                        },
                        {
                            "name" : "CC0_Hangarboden"
                        },
                        {
                            "name" : "CC0_Hangarglas"
                        },
                        {
                            "name" : "CC0_Hangartor"
                        },
                        {
                            "name" : "CC0_Metal"
                        },
                        {
                            "name" : "CC0_Sichtbetong"
                        },
                        {
                            "name" : "CC0_wood_planks"
                        },
                        {
                            "name" : "Fensterglas"
                        },
                        {
                            "name" : "Glas"
                        },
                        {
                            "name" : "Hangar_Dach"
                        }
                    ],
                    "materials" : [
                        {
                            "name" : "CC0_Blech",
                            "category" : ""
                        },
                        {
                            "name" : "CC0_Brick_Wall15",
                            "category" : ""
                        },
                        {
                            "name" : "CC0_Bricks",
                            "category" : ""
                        },
                        {
                            "name" : "CC0_Gargentor",
                            "category" : ""
                        },
                        {
                            "name" : "CC0_Hangar_Dach",
                            "category" : ""
                        },
                        {
                            "name" : "CC0_Hangar_Dach_Wellblech",
                            "category" : ""
                        },
                        {
                            "name" : "CC0_Hangarboden",
                            "category" : ""
                        },
                        {
                            "name" : "CC0_Hangarglas",
                            "category" : ""
                        },
                        {
                            "name" : "CC0_Hangartor",
                            "category" : ""
                        },
                        {
                            "name" : "CC0_Metal",
                            "category" : ""
                        },
                        {
                            "name" : "CC0_Sichtbetong",
                            "category" : ""
                        },
                        {
                            "name" : "CC0_wood_planks",
                            "category" : ""
                        },
                        {
                            "name" : "Fensterglas",
                            "category" : ""
                        },
                        {
                            "name" : "Glas",
                            "category" : ""
                        },
                        {
                            "name" : "Hangar_Dach",
                            "category" : ""
                        }
                    ],
                    "mat_index" : 9
                },
                "glTF2ExportSettings" : {
                    "export_apply" : 1,
                    "export_extras" : 1,
                    "export_generate_guid" : 1,
                    "export_texture_dir" : "texture",
                    "export_xml" : 0,
                    "export_xml_file" : "prop_schirmstaender_rad",
                    "use_selection" : 1
                }
            },
            "name" : "Scene",
            "nodes" : [
                0
            ]
        }
    ],
    "nodes" : [
        {
            "mesh" : 0,
            "name" : "Cylinder",
            "translation" : [
                0,
                0.09999999403953552,
                0
            ]
        }
    ],
    "materials" : [
        {
            "emissiveFactor" : [
                0,
                0,
                0
            ],
            "extras" : {
                "msfs_material_mode" : 1,
                "msfs_albedo_texture" : {
                    "name" : "Prop_tireprofile_1K_albedo.tif",
                    "type" : "Image"
                },
                "msfs_metallic_texture" : {
                    "name" : "Prop_tireprofile_1K_roughness.tif",
                    "type" : "Image"
                },
                "msfs_normal_texture" : {
                    "name" : "Prop_tireprofile_1K_normal.tif",
                    "type" : "Image"
                },
                "msfs_show_tint" : 1,
                "msfs_show_sss_color" : 0,
                "msfs_show_glass_parameters" : 0,
                "msfs_show_decal_parameters" : 0,
                "msfs_show_fresnel_parameters" : 0,
                "msfs_show_parallax_parameters" : 0,
                "msfs_show_geo_decal_parameters" : 0,
                "msfs_show_albedo" : 1,
                "msfs_show_metallic" : 1,
                "msfs_show_normal" : 1,
                "msfs_show_emissive" : 1,
                "msfs_show_detail_albedo" : 1,
                "msfs_show_detail_metallic" : 1,
                "msfs_show_detail_normal" : 1,
                "msfs_show_blend_mask" : 1,
                "msfs_show_anisotropic_direction" : 0,
                "msfs_show_clearcoat" : 0,
                "msfs_show_behind_glass" : 0,
                "msfs_show_blend_mode" : 1,
                "msfs_show_draworder" : 1,
                "msfs_show_no_cast_shadow" : 1,
                "msfs_show_double_sided" : 1,
                "msfs_show_responsive_aa" : 0,
                "msfs_show_day_night_cycle" : 1,
                "msfs_show_collision_material" : 1,
                "msfs_show_road_material" : 1,
                "msfs_show_ao_use_uv2" : 1,
                "msfs_show_uv_clamp" : 1,
                "msfs_show_alpha_cutoff" : 1,
                "msfs_show_blend_threshold" : 1,
                "msfs_normal_scale" : 5.499999523162842
            },
            "name" : "CCO_Reifen",
            "normalTexture" : {
                "index" : 0,
                "scale" : 5.499999523162842,
                "texCoord" : 0
            },
            "occlusionTexture" : {
                "index" : 1,
                "texCoord" : 0
            },
            "pbrMetallicRoughness" : {
                "baseColorTexture" : {
                    "index" : 2,
                    "texCoord" : 0
                },
                "metallicRoughnessTexture" : {
                    "index" : 1,
                    "texCoord" : 0
                }
            }
        },
        {
            "doubleSided" : true,
            "emissiveFactor" : [
                0,
                0,
                0
            ],
            "name" : "Material.002",
            "pbrMetallicRoughness" : {
                "baseColorFactor" : [
                    0.018142428249120712,
                    0.01647203043103218,
                    0.014849189668893814,
                    1
                ],
                "metallicFactor" : 0,
                "roughnessFactor" : 0.5
            }
        },
        {
            "emissiveFactor" : [
                0,
                0,
                0
            ],
            "extras" : {
                "msfs_material_mode" : 1,
                "msfs_albedo_texture" : {
                    "name" : "generic_concrete_4_1K_albedo.jpg.001",
                    "type" : "Image"
                },
                "msfs_normal_texture" : {
                    "name" : "generic_concrete_4_1K_normal.jpg.001",
                    "type" : "Image"
                },
                "msfs_show_tint" : 1,
                "msfs_show_sss_color" : 0,
                "msfs_show_glass_parameters" : 0,
                "msfs_show_decal_parameters" : 0,
                "msfs_show_fresnel_parameters" : 0,
                "msfs_show_parallax_parameters" : 0,
                "msfs_show_geo_decal_parameters" : 0,
                "msfs_show_albedo" : 1,
                "msfs_show_metallic" : 1,
                "msfs_show_normal" : 1,
                "msfs_show_emissive" : 1,
                "msfs_show_detail_albedo" : 1,
                "msfs_show_detail_metallic" : 1,
                "msfs_show_detail_normal" : 1,
                "msfs_show_blend_mask" : 1,
                "msfs_show_anisotropic_direction" : 0,
                "msfs_show_clearcoat" : 0,
                "msfs_show_behind_glass" : 0,
                "msfs_show_blend_mode" : 1,
                "msfs_show_draworder" : 1,
                "msfs_show_no_cast_shadow" : 1,
                "msfs_show_double_sided" : 1,
                "msfs_show_responsive_aa" : 0,
                "msfs_show_day_night_cycle" : 1,
                "msfs_show_collision_material" : 1,
                "msfs_show_road_material" : 1,
                "msfs_show_ao_use_uv2" : 1,
                "msfs_show_uv_clamp" : 1,
                "msfs_show_alpha_cutoff" : 1,
                "msfs_show_blend_threshold" : 1
            },
            "name" : "CC0_Sichtbetong",
            "normalTexture" : {
                "index" : 3,
                "texCoord" : 0
            },
            "pbrMetallicRoughness" : {
                "baseColorTexture" : {
                    "index" : 4,
                    "texCoord" : 0
                },
                "metallicFactor" : 0,
                "roughnessFactor" : 0.5
            }
        },
        {
            "emissiveFactor" : [
                0,
                0,
                0
            ],
            "extras" : {
                "msfs_material_mode" : 1,
                "msfs_albedo_texture" : {
                    "name" : "generic_metal01_1K_albedo.jpg",
                    "type" : "Image"
                },
                "msfs_metallic_texture" : {
                    "name" : "generic_metal01_1K_roughness.jpg",
                    "type" : "Image"
                },
                "msfs_normal_texture" : {
                    "name" : "generic_metal01_1K_normal.jpg",
                    "type" : "Image"
                },
                "msfs_show_tint" : 1,
                "msfs_show_sss_color" : 0,
                "msfs_show_glass_parameters" : 0,
                "msfs_show_decal_parameters" : 0,
                "msfs_show_fresnel_parameters" : 0,
                "msfs_show_parallax_parameters" : 0,
                "msfs_show_geo_decal_parameters" : 0,
                "msfs_show_albedo" : 1,
                "msfs_show_metallic" : 1,
                "msfs_show_normal" : 1,
                "msfs_show_emissive" : 1,
                "msfs_show_detail_albedo" : 1,
                "msfs_show_detail_metallic" : 1,
                "msfs_show_detail_normal" : 1,
                "msfs_show_blend_mask" : 1,
                "msfs_show_anisotropic_direction" : 0,
                "msfs_show_clearcoat" : 0,
                "msfs_show_behind_glass" : 0,
                "msfs_show_blend_mode" : 1,
                "msfs_show_draworder" : 1,
                "msfs_show_no_cast_shadow" : 1,
                "msfs_show_double_sided" : 1,
                "msfs_show_responsive_aa" : 0,
                "msfs_show_day_night_cycle" : 1,
                "msfs_show_collision_material" : 1,
                "msfs_show_road_material" : 1,
                "msfs_show_ao_use_uv2" : 1,
                "msfs_show_uv_clamp" : 1,
                "msfs_show_alpha_cutoff" : 1,
                "msfs_show_blend_threshold" : 1,
                "prop" : 1
            },
            "name" : "CC0_Metal",
            "normalTexture" : {
                "index" : 5,
                "texCoord" : 0
            },
            "pbrMetallicRoughness" : {
                "baseColorTexture" : {
                    "index" : 6,
                    "texCoord" : 0
                },
                "metallicRoughnessTexture" : {
                    "index" : 7,
                    "texCoord" : 0
                }
            }
        }
    ],
    "meshes" : [
        {
            "name" : "Cylinder",
            "primitives" : [
                {
                    "attributes" : {
                        "POSITION" : 0,
                        "NORMAL" : 1,
                        "TEXCOORD_0" : 2,
                        "JOINTS_0" : 3,
                        "WEIGHTS_0" : 4
                    },
                    "indices" : 5,
                    "material" : 0
                },
                {
                    "attributes" : {
                        "POSITION" : 6,
                        "NORMAL" : 7,
                        "TEXCOORD_0" : 8,
                        "JOINTS_0" : 9,
                        "WEIGHTS_0" : 10
                    },
                    "indices" : 11,
                    "material" : 1
                },
                {
                    "attributes" : {
                        "POSITION" : 12,
                        "NORMAL" : 13,
                        "TEXCOORD_0" : 14,
                        "JOINTS_0" : 15,
                        "WEIGHTS_0" : 16
                    },
                    "indices" : 17,
                    "material" : 2
                },
                {
                    "attributes" : {
                        "POSITION" : 18,
                        "NORMAL" : 19,
                        "TEXCOORD_0" : 20,
                        "JOINTS_0" : 21,
                        "WEIGHTS_0" : 22
                    },
                    "indices" : 23,
                    "material" : 3
                }
            ]
        }
    ],
    "textures" : [
        {
            "source" : 0
        },
        {
            "source" : 1
        },
        {
            "source" : 2
        },
        {
            "source" : 3
        },
        {
            "source" : 4
        },
        {
            "source" : 5
        },
        {
            "source" : 6
        },
        {
            "source" : 7
        }
    ],
    "images" : [
        {
            "mimeType" : "image/png",
            "name" : "Prop_tireprofile_1K_normal",
            "uri" : "Prop_tireprofile_1K_normal.png"
        },
        {
            "mimeType" : "image/png",
            "name" : "Prop_tireprofile_1K_roughness",
            "uri" : "Prop_tireprofile_1K_roughness.png"
        },
        {
            "mimeType" : "image/png",
            "name" : "Prop_tireprofile_1K_albedo",
            "uri" : "Prop_tireprofile_1K_albedo.png"
        },
        {
            "mimeType" : "image/jpeg",
            "name" : "generic_concrete_4_1K_normal",
            "uri" : "generic_concrete_4_1K_normal.jpg"
        },
        {
            "mimeType" : "image/jpeg",
            "name" : "generic_concrete_4_1K_albedo",
            "uri" : "generic_concrete_4_1K_albedo.jpg"
        },
        {
            "mimeType" : "image/jpeg",
            "name" : "generic_metal01_1K_normal",
            "uri" : "generic_metal01_1K_normal.jpg"
        },
        {
            "mimeType" : "image/jpeg",
            "name" : "generic_metal01_1K_albedo",
            "uri" : "generic_metal01_1K_albedo.jpg"
        },
        {
            "mimeType" : "image/jpeg",
            "name" : "generic_metal01_1K_roughness",
            "uri" : "generic_metal01_1K_roughness.jpg"
        }
    ],
    "accessors" : [
        {
            "bufferView" : 0,
            "componentType" : 5126,
            "count" : 904,
            "max" : [
                0.30000001192092896,
                0.08302700519561768,
                0.29999998211860657
            ],
            "min" : [
                -0.29999998211860657,
                -0.09196153283119202,
                -0.30000001192092896
            ],
            "type" : "VEC3"
        },
        {
            "bufferView" : 1,
            "componentType" : 5126,
            "count" : 904,
            "type" : "VEC3"
        },
        {
            "bufferView" : 2,
            "componentType" : 5126,
            "count" : 904,
            "type" : "VEC2"
        },
        {
            "bufferView" : 3,
            "componentType" : 5123,
            "count" : 904,
            "type" : "VEC4"
        },
        {
            "bufferView" : 4,
            "componentType" : 5126,
            "count" : 904,
            "type" : "VEC4"
        },
        {
            "bufferView" : 5,
            "componentType" : 5123,
            "count" : 1362,
            "type" : "SCALAR"
        },
        {
            "bufferView" : 6,
            "componentType" : 5126,
            "count" : 160,
            "max" : [
                0.27588385343551636,
                -0.09196153283119202,
                0.27588382363319397
            ],
            "min" : [
                -0.27588382363319397,
                -0.10000000149011612,
                -0.27588385343551636
            ],
            "type" : "VEC3"
        },
        {
            "bufferView" : 7,
            "componentType" : 5126,
            "count" : 160,
            "type" : "VEC3"
        },
        {
            "bufferView" : 8,
            "componentType" : 5126,
            "count" : 160,
            "type" : "VEC2"
        },
        {
            "bufferView" : 9,
            "componentType" : 5123,
            "count" : 160,
            "type" : "VEC4"
        },
        {
            "bufferView" : 10,
            "componentType" : 5126,
            "count" : 160,
            "type" : "VEC4"
        },
        {
            "bufferView" : 11,
            "componentType" : 5123,
            "count" : 282,
            "type" : "SCALAR"
        },
        {
            "bufferView" : 12,
            "componentType" : 5126,
            "count" : 128,
            "max" : [
                0.2193538397550583,
                0.09531314671039581,
                0.2193538099527359
            ],
            "min" : [
                -0.21935385465621948,
                0.06870205700397491,
                -0.21935388445854187
            ],
            "type" : "VEC3"
        },
        {
            "bufferView" : 13,
            "componentType" : 5126,
            "count" : 128,
            "type" : "VEC3"
        },
        {
            "bufferView" : 14,
            "componentType" : 5126,
            "count" : 128,
            "type" : "VEC2"
        },
        {
            "bufferView" : 15,
            "componentType" : 5123,
            "count" : 128,
            "type" : "VEC4"
        },
        {
            "bufferView" : 16,
            "componentType" : 5126,
            "count" : 128,
            "type" : "VEC4"
        },
        {
            "bufferView" : 17,
            "componentType" : 5123,
            "count" : 192,
            "type" : "SCALAR"
        },
        {
            "bufferView" : 18,
            "componentType" : 5126,
            "count" : 40,
            "max" : [
                0.029999999329447746,
                1,
                0.029999999329447746
            ],
            "min" : [
                -0.029999999329447746,
                0,
                -0.029999999329447746
            ],
            "type" : "VEC3"
        },
        {
            "bufferView" : 19,
            "componentType" : 5126,
            "count" : 40,
            "type" : "VEC3"
        },
        {
            "bufferView" : 20,
            "componentType" : 5126,
            "count" : 40,
            "type" : "VEC2"
        },
        {
            "bufferView" : 21,
            "componentType" : 5123,
            "count" : 40,
            "type" : "VEC4"
        },
        {
            "bufferView" : 22,
            "componentType" : 5126,
            "count" : 40,
            "type" : "VEC4"
        },
        {
            "bufferView" : 23,
            "componentType" : 5123,
            "count" : 66,
            "type" : "SCALAR"
        }
    ],
    "bufferViews" : [
        {
            "buffer" : 0,
            "byteLength" : 10848,
            "byteOffset" : 0
        },
        {
            "buffer" : 0,
            "byteLength" : 10848,
            "byteOffset" : 10848
        },
        {
            "buffer" : 0,
            "byteLength" : 7232,
            "byteOffset" : 21696
        },
        {
            "buffer" : 0,
            "byteLength" : 7232,
            "byteOffset" : 28928
        },
        {
            "buffer" : 0,
            "byteLength" : 14464,
            "byteOffset" : 36160
        },
        {
            "buffer" : 0,
            "byteLength" : 2724,
            "byteOffset" : 50624
        },
        {
            "buffer" : 0,
            "byteLength" : 1920,
            "byteOffset" : 53348
        },
        {
            "buffer" : 0,
            "byteLength" : 1920,
            "byteOffset" : 55268
        },
        {
            "buffer" : 0,
            "byteLength" : 1280,
            "byteOffset" : 57188
        },
        {
            "buffer" : 0,
            "byteLength" : 1280,
            "byteOffset" : 58468
        },
        {
            "buffer" : 0,
            "byteLength" : 2560,
            "byteOffset" : 59748
        },
        {
            "buffer" : 0,
            "byteLength" : 564,
            "byteOffset" : 62308
        },
        {
            "buffer" : 0,
            "byteLength" : 1536,
            "byteOffset" : 62872
        },
        {
            "buffer" : 0,
            "byteLength" : 1536,
            "byteOffset" : 64408
        },
        {
            "buffer" : 0,
            "byteLength" : 1024,
            "byteOffset" : 65944
        },
        {
            "buffer" : 0,
            "byteLength" : 1024,
            "byteOffset" : 66968
        },
        {
            "buffer" : 0,
            "byteLength" : 2048,
            "byteOffset" : 67992
        },
        {
            "buffer" : 0,
            "byteLength" : 384,
            "byteOffset" : 70040
        },
        {
            "buffer" : 0,
            "byteLength" : 480,
            "byteOffset" : 70424
        },
        {
            "buffer" : 0,
            "byteLength" : 480,
            "byteOffset" : 70904
        },
        {
            "buffer" : 0,
            "byteLength" : 320,
            "byteOffset" : 71384
        },
        {
            "buffer" : 0,
            "byteLength" : 320,
            "byteOffset" : 71704
        },
        {
            "buffer" : 0,
            "byteLength" : 640,
            "byteOffset" : 72024
        },
        {
            "buffer" : 0,
            "byteLength" : 132,
            "byteOffset" : 72664
        }
    ],
    "buffers" : [
        {
            "byteLength" : 72796,
            "uri" : "prop_schirmstaender_rad.bin"
        }
    ]
}
