{
    "asset" : {
        "extensions" : {
            "ASOBO_normal_map_convention" : {
                "tangent_space_convention" : "DirectX"
            }
        },
        "generator" : "Extended Khronos glTF Blender I/O v1.0.0",
        "version" : "2.0"
    },
    "extensionsUsed" : [
        "ASOBO_normal_map_convention",
        "ASOBO_material_invisible",
        "ASOBO_macro_light"
    ],
    "scene" : 0,
    "scenes" : [
        {
            "extras" : {},
            "name" : "Scene",
            "nodes" : [
                0,
                1,
                2
            ]
        }
    ],
    "nodes" : [
        {
            "mesh" : 0,
            "name" : "Cube.007"
        },
        {
            "extensions" : {
                "ASOBO_macro_light" : {
                    "color" : [
                        0.2496185004711151,
                        0.5172857642173767,
                        0.6920710802078247
                    ],
                    "intensity" : 13,
                    "cone_angle" : 109.99999850756943,
                    "has_simmetry" : false,
                    "flash_frequency" : 0,
                    "flash_duration" : 0,
                    "flash_phase" : 0,
                    "rotation_speed" : 0,
                    "day_night_cycle" : true
                }
            },
            "extras" : {
                "msfs_light_day_night_cycle" : 1
            },
            "name" : "Spot.099",
            "rotation" : [
                0.6830126643180847,
                -0.1830126941204071,
                -0.1830127090215683,
                0.6830127239227295
            ],
            "translation" : [
                13.501692771911621,
                7.277976989746094,
                -5.5122480392456055
            ]
        },
        {
            "extensions" : {
                "ASOBO_macro_light" : {
                    "color" : [
                        0.2496185004711151,
                        0.5172857642173767,
                        0.6920710802078247
                    ],
                    "intensity" : 13,
                    "cone_angle" : 109.99999850756943,
                    "has_simmetry" : false,
                    "flash_frequency" : 0,
                    "flash_duration" : 0,
                    "flash_phase" : 0,
                    "rotation_speed" : 0,
                    "day_night_cycle" : true
                }
            },
            "extras" : {
                "msfs_light_day_night_cycle" : 1
            },
            "name" : "Spot.091",
            "rotation" : [
                0.6830126643180847,
                -0.1830126941204071,
                -0.1830127090215683,
                0.6830127239227295
            ],
            "translation" : [
                13.405999183654785,
                7.277976989746094,
                5.161017417907715
            ]
        }
    ],
    "materials" : [
        {
            "emissiveFactor" : [
                0,
                0,
                0
            ],
            "extras" : {
                "msfs_material_mode" : 1,
                "msfs_albedo_texture" : {
                    "name" : "metal_white1.jpg.008",
                    "type" : "Image"
                },
                "msfs_normal_texture" : {
                    "name" : "metal_NRML.jpg.008",
                    "type" : "Image"
                },
                "msfs_show_tint" : 1,
                "msfs_show_sss_color" : 0,
                "msfs_show_glass_parameters" : 0,
                "msfs_show_decal_parameters" : 0,
                "msfs_show_fresnel_parameters" : 0,
                "msfs_show_parallax_parameters" : 0,
                "msfs_show_geo_decal_parameters" : 0,
                "msfs_show_albedo" : 1,
                "msfs_show_metallic" : 1,
                "msfs_show_normal" : 1,
                "msfs_show_emissive" : 1,
                "msfs_show_detail_albedo" : 1,
                "msfs_show_detail_metallic" : 1,
                "msfs_show_detail_normal" : 1,
                "msfs_show_blend_mask" : 1,
                "msfs_show_anisotropic_direction" : 0,
                "msfs_show_clearcoat" : 0,
                "msfs_show_behind_glass" : 0,
                "msfs_show_blend_mode" : 1,
                "msfs_show_draworder" : 1,
                "msfs_show_no_cast_shadow" : 1,
                "msfs_show_double_sided" : 1,
                "msfs_show_responsive_aa" : 0,
                "msfs_show_day_night_cycle" : 1,
                "msfs_show_collision_material" : 1,
                "msfs_show_road_material" : 1,
                "msfs_show_ao_use_uv2" : 1,
                "msfs_show_uv_clamp" : 1,
                "msfs_show_alpha_cutoff" : 1,
                "msfs_show_blend_threshold" : 1,
                "msfs_normal_scale" : 2,
                "msfs_double_sided" : 0
            },
            "name" : "Material.430",
            "normalTexture" : {
                "index" : 0,
                "scale" : 2,
                "texCoord" : 0
            },
            "pbrMetallicRoughness" : {
                "baseColorTexture" : {
                    "index" : 1,
                    "texCoord" : 0
                },
                "metallicFactor" : 0,
                "roughnessFactor" : 1
            }
        },
        {
            "alphaMode" : "BLEND",
            "emissiveFactor" : [
                0,
                0,
                0
            ],
            "extensions" : {
                "ASOBO_material_invisible" : {
                    "enabled" : true
                }
            },
            "extras" : {
                "msfs_material_mode" : 15,
                "msfs_show_tint" : 0,
                "msfs_show_sss_color" : 0,
                "msfs_show_glass_parameters" : 0,
                "msfs_show_decal_parameters" : 0,
                "msfs_show_fresnel_parameters" : 0,
                "msfs_show_parallax_parameters" : 0,
                "msfs_show_geo_decal_parameters" : 0,
                "msfs_show_albedo" : 0,
                "msfs_show_metallic" : 0,
                "msfs_show_normal" : 0,
                "msfs_show_emissive" : 0,
                "msfs_show_detail_albedo" : 0,
                "msfs_show_detail_metallic" : 0,
                "msfs_show_detail_normal" : 0,
                "msfs_show_blend_mask" : 0,
                "msfs_show_anisotropic_direction" : 0,
                "msfs_show_clearcoat" : 0,
                "msfs_show_behind_glass" : 0,
                "msfs_show_blend_mode" : 0,
                "msfs_show_draworder" : 0,
                "msfs_show_no_cast_shadow" : 0,
                "msfs_show_double_sided" : 0,
                "msfs_show_responsive_aa" : 0,
                "msfs_show_day_night_cycle" : 0,
                "msfs_show_collision_material" : 1,
                "msfs_show_road_material" : 1,
                "msfs_show_ao_use_uv2" : 0,
                "msfs_show_uv_clamp" : 1,
                "msfs_show_alpha_cutoff" : 0,
                "msfs_show_blend_threshold" : 0
            },
            "name" : "invisible",
            "pbrMetallicRoughness" : {
                "baseColorFactor" : [
                    0.800000011920929,
                    0,
                    0,
                    0
                ],
                "metallicFactor" : 0,
                "roughnessFactor" : 0.5
            }
        }
    ],
    "meshes" : [
        {
            "name" : "Cube.009",
            "primitives" : [
                {
                    "attributes" : {
                        "POSITION" : 0,
                        "NORMAL" : 1,
                        "TEXCOORD_0" : 2
                    },
                    "indices" : 3,
                    "material" : 0
                },
                {
                    "attributes" : {
                        "POSITION" : 4,
                        "NORMAL" : 5,
                        "TEXCOORD_0" : 6
                    },
                    "indices" : 7,
                    "material" : 1
                }
            ]
        }
    ],
    "textures" : [
        {
            "source" : 0
        },
        {
            "source" : 1
        }
    ],
    "images" : [
        {
            "mimeType" : "image/jpeg",
            "name" : "metal_NRML",
            "uri" : "metal_NRML.jpg"
        },
        {
            "mimeType" : "image/jpeg",
            "name" : "metal_white1",
            "uri" : "metal_white1.jpg"
        }
    ],
    "accessors" : [
        {
            "bufferView" : 0,
            "componentType" : 5126,
            "count" : 20,
            "max" : [
                11.040657997131348,
                8.617925643920898,
                13.47461223602295
            ],
            "min" : [
                -12.499553680419922,
                -0.2812318503856659,
                -13.612441062927246
            ],
            "type" : "VEC3"
        },
        {
            "bufferView" : 1,
            "componentType" : 5126,
            "count" : 20,
            "type" : "VEC3"
        },
        {
            "bufferView" : 2,
            "componentType" : 5126,
            "count" : 20,
            "type" : "VEC2"
        },
        {
            "bufferView" : 3,
            "componentType" : 5123,
            "count" : 30,
            "type" : "SCALAR"
        },
        {
            "bufferView" : 4,
            "componentType" : 5126,
            "count" : 3,
            "max" : [
                46.49091339111328,
                -10.113369941711426,
                34.84324645996094
            ],
            "min" : [
                -23.611717224121094,
                -10.113369941711426,
                -35.25938415527344
            ],
            "type" : "VEC3"
        },
        {
            "bufferView" : 5,
            "componentType" : 5126,
            "count" : 3,
            "type" : "VEC3"
        },
        {
            "bufferView" : 6,
            "componentType" : 5126,
            "count" : 3,
            "type" : "VEC2"
        },
        {
            "bufferView" : 7,
            "componentType" : 5123,
            "count" : 3,
            "type" : "SCALAR"
        }
    ],
    "bufferViews" : [
        {
            "buffer" : 0,
            "byteLength" : 240,
            "byteOffset" : 0
        },
        {
            "buffer" : 0,
            "byteLength" : 240,
            "byteOffset" : 240
        },
        {
            "buffer" : 0,
            "byteLength" : 160,
            "byteOffset" : 480
        },
        {
            "buffer" : 0,
            "byteLength" : 60,
            "byteOffset" : 640
        },
        {
            "buffer" : 0,
            "byteLength" : 36,
            "byteOffset" : 700
        },
        {
            "buffer" : 0,
            "byteLength" : 36,
            "byteOffset" : 736
        },
        {
            "buffer" : 0,
            "byteLength" : 24,
            "byteOffset" : 772
        },
        {
            "buffer" : 0,
            "byteLength" : 6,
            "byteOffset" : 796
        }
    ],
    "buffers" : [
        {
            "byteLength" : 804,
            "uri" : "gen_open_hangar09-27x23x8-cbj_LOD07.bin"
        }
    ]
}
