{"asset":{"version":"2.0","generator":"babylon.js glTF exporter for 3dsmax 2019 v1.0.0.0","extensions":{"ASOBO_normal_map_convention":{"tangent_space_convention":"DirectX"}}},"extensionsUsed":["ASOBO_normal_map_convention","ASOBO_macro_light","ASOBO_material_shadow_options","ASOBO_material_glass"],"scene":0,"scenes":[{"nodes":[0],"extensions":{}}],"nodes":[{"children":[1,2,3],"translation":[0.0,0.0,0.0],"rotation":[0.0,0.0,0.0,1.0],"scale":[1.0,1.0,1.0],"name":"TaxiwayLight"},{"mesh":0,"translation":[0.0,-10.0,0.0],"rotation":[0.0,0.0,0.0,1.0],"scale":[1.0,1.0,1.0],"name":"Light"},{"mesh":1,"translation":[0.00299072266,-0.3499999,0.00170898438],"rotation":[0.0,0.0,0.0,1.0],"scale":[1.0,1.0,1.0],"name":"Cylinder001"},{"translation":[-9.536743E-07,0.340000153,0.0],"rotation":[-3.090862E-08,0.707106769,0.707106769,-3.090862E-08],"scale":[1.0,1.0,1.0],"name":"WarmWhiteOmni","extensions":{"ASOBO_macro_light":{"color":[1.0,0.7882354,0.349019617],"intensity":1.50000012,"cone_angle":270.0,"has_simmetry":false,"flash_frequency":0.0,"flash_duration":0.2,"flash_phase":0.0,"rotation_speed":0.0,"day_night_cycle":true}}}],"meshes":[{"primitives":[{"attributes":{"POSITION":1,"NORMAL":2,"TEXCOORD_0":3},"indices":0,"mode":4,"material":0},{"attributes":{"POSITION":5,"NORMAL":6,"TEXCOORD_0":7},"indices":4,"mode":4,"material":1},{"attributes":{"POSITION":9,"NORMAL":10,"TEXCOORD_0":11},"indices":8,"mode":4,"material":2}],"name":"Light"},{"primitives":[{"attributes":{"POSITION":13,"NORMAL":14,"TEXCOORD_0":15},"indices":12,"mode":4,"material":3}],"name":"Cylinder001"}],"accessors":[{"bufferView":0,"componentType":5123,"count":2064,"type":"SCALAR","name":"accessorIndices"},{"bufferView":1,"componentType":5126,"count":497,"max":[0.224996567,10.44,0.224995956],"min":[-0.225000381,10.05,-0.225000992],"type":"VEC3","name":"accessorPositions"},{"bufferView":1,"byteOffset":5964,"componentType":5126,"count":497,"type":"VEC3","name":"accessorNormals"},{"bufferView":2,"componentType":5126,"count":497,"type":"VEC2","name":"accessorUVs"},{"bufferView":0,"byteOffset":4128,"componentType":5123,"count":240,"type":"SCALAR","name":"accessorIndices"},{"bufferView":1,"byteOffset":11928,"componentType":5126,"count":81,"max":[0.08377261,10.29,0.0837726146],"min":[-0.0837726146,10.2500134,-0.0837726],"type":"VEC3","name":"accessorPositions"},{"bufferView":1,"byteOffset":12900,"componentType":5126,"count":81,"type":"VEC3","name":"accessorNormals"},{"bufferView":2,"byteOffset":3976,"componentType":5126,"count":81,"type":"VEC2","name":"accessorUVs"},{"bufferView":0,"byteOffset":4608,"componentType":5123,"count":1344,"type":"SCALAR","name":"accessorIndices"},{"bufferView":1,"byteOffset":13872,"componentType":5126,"count":240,"max":[0.08461966,10.4000635,0.08461966],"min":[-0.08461966,10.2512255,-0.08461966],"type":"VEC3","name":"accessorPositions"},{"bufferView":1,"byteOffset":16752,"componentType":5126,"count":240,"type":"VEC3","name":"accessorNormals"},{"bufferView":2,"byteOffset":4624,"componentType":5126,"count":240,"type":"VEC2","name":"accessorUVs"},{"bufferView":0,"byteOffset":7296,"componentType":5123,"count":288,"type":"SCALAR","name":"accessorIndices"},{"bufferView":1,"byteOffset":19632,"componentType":5126,"count":100,"max":[0.2,0.4,0.2],"min":[-0.2,0.0,-0.2],"type":"VEC3","name":"accessorPositions"},{"bufferView":1,"byteOffset":20832,"componentType":5126,"count":100,"type":"VEC3","name":"accessorNormals"},{"bufferView":2,"byteOffset":6544,"componentType":5126,"count":100,"type":"VEC2","name":"accessorUVs"},{"bufferView":3,"componentType":5126,"count":101,"max":[3.33333325],"min":[0.0],"type":"SCALAR","name":"accessorAnimationInput"},{"bufferView":4,"componentType":5126,"count":101,"type":"VEC4","name":"accessorAnimationRotations"}],"bufferViews":[{"buffer":0,"byteLength":7872,"name":"bufferViewScalar"},{"buffer":0,"byteOffset":7872,"byteLength":22032,"byteStride":12,"name":"bufferViewFloatVec3"},{"buffer":0,"byteOffset":29904,"byteLength":7344,"byteStride":8,"name":"bufferViewFloatVec2"},{"buffer":0,"byteOffset":37248,"byteLength":404,"name":"bufferViewAnimationFloatScalar"},{"buffer":0,"byteOffset":37652,"byteLength":1616,"name":"bufferViewAnimationFloatVec4"}],"buffers":[{"uri":"LSGE_RunwayLight_LOD0.bin","byteLength":39268}],"materials":[{"pbrMetallicRoughness":{"baseColorFactor":[0.9568628,0.607843161,0.0,1.0],"metallicFactor":0.0,"roughnessFactor":0.2},"name":"YellowPaint"},{"pbrMetallicRoughness":{"baseColorFactor":[0.03137255,0.03137255,0.0431372561,1.0],"metallicFactor":0.0},"name":"DarkMatte"},{"pbrMetallicRoughness":{"baseColorFactor":[0.7254902,0.7254902,0.7294118,0.01],"metallicFactor":0.0,"roughnessFactor":0.0},"alphaMode":"BLEND","name":"Glass","extensions":{"ASOBO_material_shadow_options":{"noCastShadow":true},"ASOBO_material_glass":{"glassReflectionMaskFactor":1.0,"glassDeformationFactor":0.0}}},{"pbrMetallicRoughness":{"baseColorFactor":[0.329411775,0.3372549,0.34117648,1.0],"metallicFactor":0.0},"name":"Concrete"}],"animations":[{"channels":[{"sampler":0,"target":{"node":3,"path":"rotation"}}],"samplers":[{"input":16,"interpolation":"LINEAR","output":17}],"name":"All Animations"}]}