{"asset":{"version":"2.0","generator":"babylon.js glTF exporter for 3dsmax 2019 v1.0.0.0","extensions":{"ASOBO_normal_map_convention":{"tangent_space_convention":"DirectX"}}},"extensionsUsed":["ASOBO_normal_map_convention"],"scene":0,"scenes":[{"nodes":[0,1,2,3,4,5,6],"extensions":{}}],"nodes":[{"mesh":0,"translation":[0.0,0.0,1.07],"rotation":[0.0,0.0,0.0,1.0],"scale":[1.0,1.0,1.0],"name":"Cylinder001"},{"mesh":1,"translation":[0.0,0.18,1.07],"rotation":[0.0,0.0,0.0,1.0],"scale":[1.0,1.0,1.0],"name":"Cylinder003"},{"mesh":2,"translation":[0.0,0.0,-1.07],"rotation":[0.0,0.0,0.0,1.0],"scale":[1.0,1.0,1.0],"name":"Cylinder004"},{"mesh":3,"translation":[0.0,0.1,0.0],"rotation":[0.0,0.0,0.0,1.0],"scale":[1.0,1.0,1.0],"name":"Box001"},{"mesh":4,"translation":[0.0,0.18,-1.07],"rotation":[0.0,0.0,0.0,1.0],"scale":[1.0,1.0,1.0],"name":"Cylinder005"},{"mesh":5,"translation":[0.0,0.59,1.07],"rotation":[0.7071068,0.0,0.0,0.7071067],"scale":[1.0,1.0,1.0],"name":"Line001"},{"mesh":6,"translation":[0.0,0.71,-1.07],"rotation":[-0.50000006,-0.49999997,0.5000001,-0.49999997],"scale":[1.0,1.0,1.0],"name":"Line002"}],"meshes":[{"primitives":[{"attributes":{"POSITION":1,"NORMAL":2,"TEXCOORD_0":3},"indices":0,"mode":4,"material":0}],"name":"Cylinder001"},{"primitives":[{"attributes":{"POSITION":5,"NORMAL":6,"TEXCOORD_0":7},"indices":4,"mode":4,"material":0}],"name":"Cylinder003"},{"primitives":[{"attributes":{"POSITION":9,"NORMAL":10,"TEXCOORD_0":11},"indices":8,"mode":4,"material":0}],"name":"Cylinder004"},{"primitives":[{"attributes":{"POSITION":13,"NORMAL":14,"TEXCOORD_0":15},"indices":12,"mode":4,"material":0}],"name":"Box001"},{"primitives":[{"attributes":{"POSITION":17,"NORMAL":18,"TEXCOORD_0":19},"indices":16,"mode":4,"material":0}],"name":"Cylinder005"},{"primitives":[{"attributes":{"POSITION":21,"NORMAL":22},"indices":20,"mode":4,"material":1}],"name":"Line001"},{"primitives":[{"attributes":{"POSITION":24,"NORMAL":25},"indices":23,"mode":4,"material":1}],"name":"Line002"}],"accessors":[{"bufferView":0,"componentType":5123,"count":192,"type":"SCALAR","name":"accessorIndices"},{"bufferView":1,"componentType":5126,"count":68,"max":[0.18,0.18,0.18],"min":[-0.18,0.0,-0.18],"type":"VEC3","name":"accessorPositions"},{"bufferView":1,"byteOffset":816,"componentType":5126,"count":68,"type":"VEC3","name":"accessorNormals"},{"bufferView":2,"componentType":5126,"count":68,"type":"VEC2","name":"accessorUVs"},{"bufferView":0,"byteOffset":384,"componentType":5123,"count":192,"type":"SCALAR","name":"accessorIndices"},{"bufferView":1,"byteOffset":1632,"componentType":5126,"count":68,"max":[0.125,0.4,0.125],"min":[-0.125,0.0,-0.125],"type":"VEC3","name":"accessorPositions"},{"bufferView":1,"byteOffset":2448,"componentType":5126,"count":68,"type":"VEC3","name":"accessorNormals"},{"bufferView":2,"byteOffset":544,"componentType":5126,"count":68,"type":"VEC2","name":"accessorUVs"},{"bufferView":0,"byteOffset":768,"componentType":5123,"count":192,"type":"SCALAR","name":"accessorIndices"},{"bufferView":1,"byteOffset":3264,"componentType":5126,"count":68,"max":[0.18,0.18,0.18],"min":[-0.18,0.0,-0.18],"type":"VEC3","name":"accessorPositions"},{"bufferView":1,"byteOffset":4080,"componentType":5126,"count":68,"type":"VEC3","name":"accessorNormals"},{"bufferView":2,"byteOffset":1088,"componentType":5126,"count":68,"type":"VEC2","name":"accessorUVs"},{"bufferView":0,"byteOffset":1152,"componentType":5123,"count":36,"type":"SCALAR","name":"accessorIndices"},{"bufferView":1,"byteOffset":4896,"componentType":5126,"count":24,"max":[0.06,0.18,1.0],"min":[-0.06,0.0,-1.0],"type":"VEC3","name":"accessorPositions"},{"bufferView":1,"byteOffset":5184,"componentType":5126,"count":24,"type":"VEC3","name":"accessorNormals"},{"bufferView":2,"byteOffset":1632,"componentType":5126,"count":24,"type":"VEC2","name":"accessorUVs"},{"bufferView":0,"byteOffset":1224,"componentType":5123,"count":192,"type":"SCALAR","name":"accessorIndices"},{"bufferView":1,"byteOffset":5472,"componentType":5126,"count":68,"max":[0.125,0.52,0.125],"min":[-0.125,0.0,-0.125],"type":"VEC3","name":"accessorPositions"},{"bufferView":1,"byteOffset":6288,"componentType":5126,"count":68,"type":"VEC3","name":"accessorNormals"},{"bufferView":2,"byteOffset":1824,"componentType":5126,"count":68,"type":"VEC2","name":"accessorUVs"},{"bufferView":0,"byteOffset":1608,"componentType":5123,"count":48,"type":"SCALAR","name":"accessorIndices"},{"bufferView":1,"byteOffset":7104,"componentType":5126,"count":30,"max":[0.179999948,2.0,3.27825546E-07],"min":[-0.180000037,-2.0,-0.109999672],"type":"VEC3","name":"accessorPositions"},{"bufferView":1,"byteOffset":7464,"componentType":5126,"count":30,"type":"VEC3","name":"accessorNormals"},{"bufferView":0,"byteOffset":1704,"componentType":5123,"count":48,"type":"SCALAR","name":"accessorIndices"},{"bufferView":1,"byteOffset":7824,"componentType":5126,"count":30,"max":[0.179999948,2.0,3.27825546E-07],"min":[-0.180000037,-2.0,-0.109999672],"type":"VEC3","name":"accessorPositions"},{"bufferView":1,"byteOffset":8184,"componentType":5126,"count":30,"type":"VEC3","name":"accessorNormals"},{"bufferView":3,"componentType":5126,"count":2,"max":[0.0333333351],"min":[0.0],"type":"SCALAR","name":"accessorAnimationInput"},{"bufferView":4,"componentType":5126,"count":2,"type":"VEC4","name":"accessorAnimationRotations"},{"bufferView":3,"byteOffset":8,"componentType":5126,"count":2,"max":[0.0333333351],"min":[0.0],"type":"SCALAR","name":"accessorAnimationInput"},{"bufferView":4,"byteOffset":32,"componentType":5126,"count":2,"type":"VEC4","name":"accessorAnimationRotations"}],"bufferViews":[{"buffer":0,"byteLength":1800,"name":"bufferViewScalar"},{"buffer":0,"byteOffset":1800,"byteLength":8544,"byteStride":12,"name":"bufferViewFloatVec3"},{"buffer":0,"byteOffset":10344,"byteLength":2368,"byteStride":8,"name":"bufferViewFloatVec2"},{"buffer":0,"byteOffset":12712,"byteLength":16,"name":"bufferViewAnimationFloatScalar"},{"buffer":0,"byteOffset":12728,"byteLength":64,"name":"bufferViewAnimationFloatVec4"}],"buffers":[{"uri":"LSGT-tee.bin","byteLength":12792}],"materials":[{"pbrMetallicRoughness":{"baseColorFactor":[0.03137255,0.03137255,0.03137255,1.0],"metallicFactor":0.1},"name":"tee-base"},{"pbrMetallicRoughness":{"baseColorFactor":[0.7490196,0.7490196,0.7490196,1.0],"metallicFactor":0.6,"roughnessFactor":0.1},"name":"Material #6"}],"animations":[{"channels":[{"sampler":0,"target":{"node":5,"path":"rotation"}},{"sampler":1,"target":{"node":6,"path":"rotation"}}],"samplers":[{"input":26,"interpolation":"LINEAR","output":27},{"input":28,"interpolation":"LINEAR","output":29}],"name":"flip"}]}