{
    "asset" : {
        "extensions" : {
            "ASOBO_normal_map_convention" : {
                "tangent_space_convention" : "DirectX"
            }
        },
        "generator" : "Extended Khronos glTF Blender I/O v1.0.0",
        "version" : "2.0"
    },
    "extensionsUsed" : [
        "ASOBO_normal_map_convention",
        "ASOBO_macro_light"
    ],
    "scene" : 0,
    "scenes" : [
        {
            "name" : "Scene",
            "nodes" : [
                0,
                1,
                2,
                3,
                4,
                5,
                6,
                7,
                8
            ]
        }
    ],
    "nodes" : [
        {
            "extensions" : {
                "ASOBO_macro_light" : {
                    "color" : [
                        1,
                        1,
                        1
                    ],
                    "intensity" : 1000,
                    "cone_angle" : 360,
                    "has_simmetry" : false,
                    "flash_frequency" : 0,
                    "flash_duration" : 0,
                    "flash_phase" : 0,
                    "rotation_speed" : 0,
                    "day_night_cycle" : false
                }
            },
            "name" : "Light",
            "rotation" : [
                0.5232754945755005,
                0.34203392267227173,
                -0.7269423604011536,
                0.28416627645492554
            ],
            "translation" : [
                4.076245307922363,
                5.903861999511719,
                -1.0054539442062378
            ]
        },
        {
            "name" : "Camera",
            "rotation" : [
                0.483536034822464,
                0.33687159419059753,
                -0.20870360732078552,
                0.7804827094078064
            ],
            "translation" : [
                7.358891487121582,
                4.958309173583984,
                6.925790786743164
            ]
        },
        {
            "mesh" : 0,
            "name" : "Cylinder",
            "scale" : [
                1,
                1.0810810327529907,
                1
            ],
            "translation" : [
                -0.6650000214576721,
                0.8500000238418579,
                0
            ]
        },
        {
            "mesh" : 1,
            "name" : "Cylinder.001",
            "scale" : [
                1,
                1.0810810327529907,
                1
            ],
            "translation" : [
                0.6650000214576721,
                0.8500000238418579,
                0
            ]
        },
        {
            "mesh" : 2,
            "name" : "Cube",
            "scale" : [
                0.6000000238418579,
                0.5199999809265137,
                0.019999999552965164
            ],
            "translation" : [
                0,
                1.3200000524520874,
                0
            ]
        },
        {
            "mesh" : 3,
            "name" : "Cube.001",
            "scale" : [
                0.019999999552965164,
                0.019999999552965164,
                0.009999999776482582
            ],
            "translation" : [
                -0.6100000143051147,
                1.7999999523162842,
                0
            ]
        },
        {
            "mesh" : 4,
            "name" : "Cube.002",
            "scale" : [
                0.019999999552965164,
                0.019999999552965164,
                0.009999999776482582
            ],
            "translation" : [
                0.6100000143051147,
                1.7999999523162842,
                0
            ]
        },
        {
            "mesh" : 5,
            "name" : "Cube.003",
            "scale" : [
                0.019999999552965164,
                0.019999999552965164,
                0.009999999776482582
            ],
            "translation" : [
                0.6100000143051147,
                0.8399999737739563,
                0
            ]
        },
        {
            "mesh" : 6,
            "name" : "Cube.004",
            "scale" : [
                0.019999999552965164,
                0.019999999552965164,
                0.009999999776482582
            ],
            "translation" : [
                -0.6100000143051147,
                0.8399999737739563,
                0
            ]
        }
    ],
    "materials" : [
        {
            "emissiveFactor" : [
                0,
                0,
                0
            ],
            "name" : "Red Paint",
            "pbrMetallicRoughness" : {
                "baseColorFactor" : [
                    0.2917707860469818,
                    0.09084167331457138,
                    0.06124605983495712,
                    1
                ],
                "metallicFactor" : 0.09090910851955414,
                "roughnessFactor" : 0.3636363744735718
            }
        },
        {
            "emissiveFactor" : [
                0,
                0,
                0
            ],
            "name" : "sign front",
            "pbrMetallicRoughness" : {
                "baseColorTexture" : {
                    "index" : 0,
                    "texCoord" : 0
                },
                "metallicFactor" : 0,
                "roughnessFactor" : 0.20000000298023224
            }
        },
        {
            "emissiveFactor" : [
                0,
                0,
                0
            ],
            "name" : "sign back",
            "pbrMetallicRoughness" : {
                "baseColorTexture" : {
                    "index" : 1,
                    "texCoord" : 0
                },
                "metallicFactor" : 0,
                "roughnessFactor" : 0.40909090638160706
            }
        }
    ],
    "meshes" : [
        {
            "name" : "Cylinder.001",
            "primitives" : [
                {
                    "attributes" : {
                        "POSITION" : 0,
                        "NORMAL" : 1,
                        "TEXCOORD_0" : 2
                    },
                    "indices" : 3,
                    "material" : 0
                }
            ]
        },
        {
            "name" : "Cylinder.003",
            "primitives" : [
                {
                    "attributes" : {
                        "POSITION" : 4,
                        "NORMAL" : 5,
                        "TEXCOORD_0" : 6
                    },
                    "indices" : 3,
                    "material" : 0
                }
            ]
        },
        {
            "name" : "Cube.002",
            "primitives" : [
                {
                    "attributes" : {
                        "POSITION" : 7,
                        "NORMAL" : 8,
                        "TEXCOORD_0" : 9
                    },
                    "indices" : 10,
                    "material" : 0
                },
                {
                    "attributes" : {
                        "POSITION" : 11,
                        "NORMAL" : 12,
                        "TEXCOORD_0" : 13
                    },
                    "indices" : 14,
                    "material" : 1
                },
                {
                    "attributes" : {
                        "POSITION" : 15,
                        "NORMAL" : 16,
                        "TEXCOORD_0" : 17
                    },
                    "indices" : 14,
                    "material" : 2
                }
            ]
        },
        {
            "name" : "Cube.003",
            "primitives" : [
                {
                    "attributes" : {
                        "POSITION" : 18,
                        "NORMAL" : 19,
                        "TEXCOORD_0" : 20
                    },
                    "indices" : 21,
                    "material" : 0
                }
            ]
        },
        {
            "name" : "Cube.004",
            "primitives" : [
                {
                    "attributes" : {
                        "POSITION" : 22,
                        "NORMAL" : 23,
                        "TEXCOORD_0" : 24
                    },
                    "indices" : 21,
                    "material" : 0
                }
            ]
        },
        {
            "name" : "Cube.005",
            "primitives" : [
                {
                    "attributes" : {
                        "POSITION" : 25,
                        "NORMAL" : 26,
                        "TEXCOORD_0" : 27
                    },
                    "indices" : 21,
                    "material" : 0
                }
            ]
        },
        {
            "name" : "Cube.006",
            "primitives" : [
                {
                    "attributes" : {
                        "POSITION" : 28,
                        "NORMAL" : 29,
                        "TEXCOORD_0" : 30
                    },
                    "indices" : 21,
                    "material" : 0
                }
            ]
        }
    ],
    "textures" : [
        {
            "source" : 0
        },
        {
            "source" : 1
        }
    ],
    "images" : [
        {
            "mimeType" : "image/png",
            "name" : "front",
            "uri" : "front.png"
        },
        {
            "mimeType" : "image/png",
            "name" : "backside",
            "uri" : "backside.png"
        }
    ],
    "accessors" : [
        {
            "bufferView" : 0,
            "componentType" : 5126,
            "count" : 130,
            "max" : [
                0.04500000178813934,
                0.925000011920929,
                0.04500000178813934
            ],
            "min" : [
                -0.04500000178813934,
                -0.925000011920929,
                -0.04500000178813934
            ],
            "type" : "VEC3"
        },
        {
            "bufferView" : 1,
            "componentType" : 5126,
            "count" : 130,
            "type" : "VEC3"
        },
        {
            "bufferView" : 2,
            "componentType" : 5126,
            "count" : 130,
            "type" : "VEC2"
        },
        {
            "bufferView" : 3,
            "componentType" : 5123,
            "count" : 372,
            "type" : "SCALAR"
        },
        {
            "bufferView" : 4,
            "componentType" : 5126,
            "count" : 130,
            "max" : [
                0.04500000178813934,
                0.925000011920929,
                0.04500000178813934
            ],
            "min" : [
                -0.04500000178813934,
                -0.925000011920929,
                -0.04500000178813934
            ],
            "type" : "VEC3"
        },
        {
            "bufferView" : 5,
            "componentType" : 5126,
            "count" : 130,
            "type" : "VEC3"
        },
        {
            "bufferView" : 6,
            "componentType" : 5126,
            "count" : 130,
            "type" : "VEC2"
        },
        {
            "bufferView" : 7,
            "componentType" : 5126,
            "count" : 16,
            "max" : [
                1,
                1,
                1
            ],
            "min" : [
                -1,
                -1,
                -1
            ],
            "type" : "VEC3"
        },
        {
            "bufferView" : 8,
            "componentType" : 5126,
            "count" : 16,
            "type" : "VEC3"
        },
        {
            "bufferView" : 9,
            "componentType" : 5126,
            "count" : 16,
            "type" : "VEC2"
        },
        {
            "bufferView" : 10,
            "componentType" : 5123,
            "count" : 24,
            "type" : "SCALAR"
        },
        {
            "bufferView" : 11,
            "componentType" : 5126,
            "count" : 4,
            "max" : [
                1,
                1,
                1
            ],
            "min" : [
                -1,
                -1,
                1
            ],
            "type" : "VEC3"
        },
        {
            "bufferView" : 12,
            "componentType" : 5126,
            "count" : 4,
            "type" : "VEC3"
        },
        {
            "bufferView" : 13,
            "componentType" : 5126,
            "count" : 4,
            "type" : "VEC2"
        },
        {
            "bufferView" : 14,
            "componentType" : 5123,
            "count" : 6,
            "type" : "SCALAR"
        },
        {
            "bufferView" : 15,
            "componentType" : 5126,
            "count" : 4,
            "max" : [
                1,
                1,
                -1
            ],
            "min" : [
                -1,
                -1,
                -1
            ],
            "type" : "VEC3"
        },
        {
            "bufferView" : 16,
            "componentType" : 5126,
            "count" : 4,
            "type" : "VEC3"
        },
        {
            "bufferView" : 17,
            "componentType" : 5126,
            "count" : 4,
            "type" : "VEC2"
        },
        {
            "bufferView" : 18,
            "componentType" : 5126,
            "count" : 24,
            "max" : [
                1,
                1,
                1
            ],
            "min" : [
                -1,
                -1,
                -1
            ],
            "type" : "VEC3"
        },
        {
            "bufferView" : 19,
            "componentType" : 5126,
            "count" : 24,
            "type" : "VEC3"
        },
        {
            "bufferView" : 20,
            "componentType" : 5126,
            "count" : 24,
            "type" : "VEC2"
        },
        {
            "bufferView" : 21,
            "componentType" : 5123,
            "count" : 36,
            "type" : "SCALAR"
        },
        {
            "bufferView" : 22,
            "componentType" : 5126,
            "count" : 24,
            "max" : [
                1,
                1,
                1
            ],
            "min" : [
                -1,
                -1,
                -1
            ],
            "type" : "VEC3"
        },
        {
            "bufferView" : 23,
            "componentType" : 5126,
            "count" : 24,
            "type" : "VEC3"
        },
        {
            "bufferView" : 24,
            "componentType" : 5126,
            "count" : 24,
            "type" : "VEC2"
        },
        {
            "bufferView" : 25,
            "componentType" : 5126,
            "count" : 24,
            "max" : [
                1,
                1,
                1
            ],
            "min" : [
                -1,
                -1,
                -1
            ],
            "type" : "VEC3"
        },
        {
            "bufferView" : 26,
            "componentType" : 5126,
            "count" : 24,
            "type" : "VEC3"
        },
        {
            "bufferView" : 27,
            "componentType" : 5126,
            "count" : 24,
            "type" : "VEC2"
        },
        {
            "bufferView" : 28,
            "componentType" : 5126,
            "count" : 24,
            "max" : [
                1,
                1,
                1
            ],
            "min" : [
                -1,
                -1,
                -1
            ],
            "type" : "VEC3"
        },
        {
            "bufferView" : 29,
            "componentType" : 5126,
            "count" : 24,
            "type" : "VEC3"
        },
        {
            "bufferView" : 30,
            "componentType" : 5126,
            "count" : 24,
            "type" : "VEC2"
        }
    ],
    "bufferViews" : [
        {
            "buffer" : 0,
            "byteLength" : 1560,
            "byteOffset" : 0
        },
        {
            "buffer" : 0,
            "byteLength" : 1560,
            "byteOffset" : 1560
        },
        {
            "buffer" : 0,
            "byteLength" : 1040,
            "byteOffset" : 3120
        },
        {
            "buffer" : 0,
            "byteLength" : 744,
            "byteOffset" : 4160
        },
        {
            "buffer" : 0,
            "byteLength" : 1560,
            "byteOffset" : 4904
        },
        {
            "buffer" : 0,
            "byteLength" : 1560,
            "byteOffset" : 6464
        },
        {
            "buffer" : 0,
            "byteLength" : 1040,
            "byteOffset" : 8024
        },
        {
            "buffer" : 0,
            "byteLength" : 192,
            "byteOffset" : 9064
        },
        {
            "buffer" : 0,
            "byteLength" : 192,
            "byteOffset" : 9256
        },
        {
            "buffer" : 0,
            "byteLength" : 128,
            "byteOffset" : 9448
        },
        {
            "buffer" : 0,
            "byteLength" : 48,
            "byteOffset" : 9576
        },
        {
            "buffer" : 0,
            "byteLength" : 48,
            "byteOffset" : 9624
        },
        {
            "buffer" : 0,
            "byteLength" : 48,
            "byteOffset" : 9672
        },
        {
            "buffer" : 0,
            "byteLength" : 32,
            "byteOffset" : 9720
        },
        {
            "buffer" : 0,
            "byteLength" : 12,
            "byteOffset" : 9752
        },
        {
            "buffer" : 0,
            "byteLength" : 48,
            "byteOffset" : 9764
        },
        {
            "buffer" : 0,
            "byteLength" : 48,
            "byteOffset" : 9812
        },
        {
            "buffer" : 0,
            "byteLength" : 32,
            "byteOffset" : 9860
        },
        {
            "buffer" : 0,
            "byteLength" : 288,
            "byteOffset" : 9892
        },
        {
            "buffer" : 0,
            "byteLength" : 288,
            "byteOffset" : 10180
        },
        {
            "buffer" : 0,
            "byteLength" : 192,
            "byteOffset" : 10468
        },
        {
            "buffer" : 0,
            "byteLength" : 72,
            "byteOffset" : 10660
        },
        {
            "buffer" : 0,
            "byteLength" : 288,
            "byteOffset" : 10732
        },
        {
            "buffer" : 0,
            "byteLength" : 288,
            "byteOffset" : 11020
        },
        {
            "buffer" : 0,
            "byteLength" : 192,
            "byteOffset" : 11308
        },
        {
            "buffer" : 0,
            "byteLength" : 288,
            "byteOffset" : 11500
        },
        {
            "buffer" : 0,
            "byteLength" : 288,
            "byteOffset" : 11788
        },
        {
            "buffer" : 0,
            "byteLength" : 192,
            "byteOffset" : 12076
        },
        {
            "buffer" : 0,
            "byteLength" : 288,
            "byteOffset" : 12268
        },
        {
            "buffer" : 0,
            "byteLength" : 288,
            "byteOffset" : 12556
        },
        {
            "buffer" : 0,
            "byteLength" : 192,
            "byteOffset" : 12844
        }
    ],
    "buffers" : [
        {
            "byteLength" : 13036,
            "uri" : "lsph-sign.bin"
        }
    ]
}
