{
    "asset": {
        "version": "2.0",
        "generator": "babylon.js glTF exporter for 3dsmax 2019 v1.0.0.0",
        "extensions": {
            "ASOBO_normal_map_convention": {
                "tangent_space_convention": "DirectX"
            }
        }
    },
    "extensionsUsed": ["ASOBO_normal_map_convention"],
    "scene": 0,
    "scenes": [{
            "nodes": [0],
            "extensions": {}
        }
    ],
    "nodes": [{
            "children": [1, 2, 3, 4, 5, 6, 7],
            "translation": [0.0, 0.0, 0.0],
            "rotation": [0.0, 0.0, 0.0, 1.0],
            "scale": [1.0, 1.0, 1.0],
            "name": "Sign"
        }, {
            "mesh": 0,
            "translation": [-0.665, -0.149999976, 0.0],
            "rotation": [0.0, 0.0, 0.0, 1.0],
            "scale": [1.0, 1.0, 1.0],
            "name": "Cylinder001"
        }, {
            "mesh": 1,
            "translation": [0.665, -0.149999976, 0.0],
            "rotation": [0.0, 0.0, 0.0, 1.0],
            "scale": [1.0, 1.0, 1.0],
            "name": "Cylinder002"
        }, {
            "mesh": 2,
            "translation": [-0.6200001, 1.77999985, 0.0],
            "rotation": [0.0, 0.0, 0.0, 1.0],
            "scale": [1.0, 1.0, 1.0],
            "name": "Box002"
        }, {
            "mesh": 3,
            "translation": [0.62, 1.77999985, 0.0],
            "rotation": [0.0, 0.0, 0.0, 1.0],
            "scale": [1.0, 1.0, 1.0],
            "name": "Box003"
        }, {
            "mesh": 4,
            "translation": [-0.6200001, 0.819999933, 0.0],
            "rotation": [0.0, 0.0, 0.0, 1.0],
            "scale": [1.0, 1.0, 1.0],
            "name": "Box004"
        }, {
            "mesh": 5,
            "translation": [0.62, 0.819999933, 0.0],
            "rotation": [0.0, 0.0, 0.0, 1.0],
            "scale": [1.0, 1.0, 1.0],
            "name": "Box005"
        }, {
            "mesh": 6,
            "translation": [0.0, 0.799999952, 0.0],
            "rotation": [0.0, 0.0, 0.0, 1.0],
            "scale": [1.0, 1.0, 1.0],
            "name": "Box001"
        }
    ],
    "meshes": [{
            "primitives": [{
                    "attributes": {
                        "POSITION": 1,
                        "NORMAL": 2,
                        "TEXCOORD_0": 3
                    },
                    "indices": 0,
                    "mode": 4,
                    "material": 0
                }
            ],
            "name": "Cylinder001"
        }, {
            "primitives": [{
                    "attributes": {
                        "POSITION": 5,
                        "NORMAL": 6,
                        "TEXCOORD_0": 7
                    },
                    "indices": 4,
                    "mode": 4,
                    "material": 0
                }
            ],
            "name": "Cylinder002"
        }, {
            "primitives": [{
                    "attributes": {
                        "POSITION": 9,
                        "NORMAL": 10,
                        "TEXCOORD_0": 11
                    },
                    "indices": 8,
                    "mode": 4,
                    "material": 0
                }
            ],
            "name": "Box002"
        }, {
            "primitives": [{
                    "attributes": {
                        "POSITION": 13,
                        "NORMAL": 14,
                        "TEXCOORD_0": 15
                    },
                    "indices": 12,
                    "mode": 4,
                    "material": 0
                }
            ],
            "name": "Box003"
        }, {
            "primitives": [{
                    "attributes": {
                        "POSITION": 17,
                        "NORMAL": 18,
                        "TEXCOORD_0": 19
                    },
                    "indices": 16,
                    "mode": 4,
                    "material": 0
                }
            ],
            "name": "Box004"
        }, {
            "primitives": [{
                    "attributes": {
                        "POSITION": 21,
                        "NORMAL": 22,
                        "TEXCOORD_0": 23
                    },
                    "indices": 20,
                    "mode": 4,
                    "material": 0
                }
            ],
            "name": "Box005"
        }, {
            "primitives": [{
                    "attributes": {
                        "POSITION": 25,
                        "NORMAL": 26,
                        "TEXCOORD_0": 27
                    },
                    "indices": 24,
                    "mode": 4,
                    "material": 1
                }, {
                    "attributes": {
                        "POSITION": 29,
                        "NORMAL": 30,
                        "TEXCOORD_0": 31
                    },
                    "indices": 28,
                    "mode": 4,
                    "material": 2
                }, {
                    "attributes": {
                        "POSITION": 33,
                        "NORMAL": 34,
                        "TEXCOORD_0": 35
                    },
                    "indices": 32,
                    "mode": 4,
                    "material": 0
                }
            ],
            "name": "Box001"
        }
    ],
    "accessors": [{
            "bufferView": 0,
            "componentType": 5123,
            "count": 216,
            "type": "SCALAR",
            "name": "accessorIndices"
        }, {
            "bufferView": 1,
            "componentType": 5126,
            "count": 76,
            "max": [0.045, 2.0, 0.0443163551],
            "min": [-0.045, 0.0, -0.04431635],
            "type": "VEC3",
            "name": "accessorPositions"
        }, {
            "bufferView": 1,
            "byteOffset": 912,
            "componentType": 5126,
            "count": 76,
            "type": "VEC3",
            "name": "accessorNormals"
        }, {
            "bufferView": 2,
            "componentType": 5126,
            "count": 76,
            "type": "VEC2",
            "name": "accessorUVs"
        }, {
            "bufferView": 0,
            "byteOffset": 432,
            "componentType": 5123,
            "count": 216,
            "type": "SCALAR",
            "name": "accessorIndices"
        }, {
            "bufferView": 1,
            "byteOffset": 1824,
            "componentType": 5126,
            "count": 76,
            "max": [0.045, 2.0, 0.0443163551],
            "min": [-0.045, 0.0, -0.04431635],
            "type": "VEC3",
            "name": "accessorPositions"
        }, {
            "bufferView": 1,
            "byteOffset": 2736,
            "componentType": 5126,
            "count": 76,
            "type": "VEC3",
            "name": "accessorNormals"
        }, {
            "bufferView": 2,
            "byteOffset": 608,
            "componentType": 5126,
            "count": 76,
            "type": "VEC2",
            "name": "accessorUVs"
        }, {
            "bufferView": 0,
            "byteOffset": 864,
            "componentType": 5123,
            "count": 36,
            "type": "SCALAR",
            "name": "accessorIndices"
        }, {
            "bufferView": 1,
            "byteOffset": 3648,
            "componentType": 5126,
            "count": 24,
            "max": [0.02, 0.04, 0.01],
            "min": [-0.02, 0.0, -0.01],
            "type": "VEC3",
            "name": "accessorPositions"
        }, {
            "bufferView": 1,
            "byteOffset": 3936,
            "componentType": 5126,
            "count": 24,
            "type": "VEC3",
            "name": "accessorNormals"
        }, {
            "bufferView": 2,
            "byteOffset": 1216,
            "componentType": 5126,
            "count": 24,
            "type": "VEC2",
            "name": "accessorUVs"
        }, {
            "bufferView": 0,
            "byteOffset": 936,
            "componentType": 5123,
            "count": 36,
            "type": "SCALAR",
            "name": "accessorIndices"
        }, {
            "bufferView": 1,
            "byteOffset": 4224,
            "componentType": 5126,
            "count": 24,
            "max": [0.02, 0.04, 0.01],
            "min": [-0.02, 0.0, -0.01],
            "type": "VEC3",
            "name": "accessorPositions"
        }, {
            "bufferView": 1,
            "byteOffset": 4512,
            "componentType": 5126,
            "count": 24,
            "type": "VEC3",
            "name": "accessorNormals"
        }, {
            "bufferView": 2,
            "byteOffset": 1408,
            "componentType": 5126,
            "count": 24,
            "type": "VEC2",
            "name": "accessorUVs"
        }, {
            "bufferView": 0,
            "byteOffset": 1008,
            "componentType": 5123,
            "count": 36,
            "type": "SCALAR",
            "name": "accessorIndices"
        }, {
            "bufferView": 1,
            "byteOffset": 4800,
            "componentType": 5126,
            "count": 24,
            "max": [0.02, 0.04, 0.01],
            "min": [-0.02, 0.0, -0.01],
            "type": "VEC3",
            "name": "accessorPositions"
        }, {
            "bufferView": 1,
            "byteOffset": 5088,
            "componentType": 5126,
            "count": 24,
            "type": "VEC3",
            "name": "accessorNormals"
        }, {
            "bufferView": 2,
            "byteOffset": 1600,
            "componentType": 5126,
            "count": 24,
            "type": "VEC2",
            "name": "accessorUVs"
        }, {
            "bufferView": 0,
            "byteOffset": 1080,
            "componentType": 5123,
            "count": 36,
            "type": "SCALAR",
            "name": "accessorIndices"
        }, {
            "bufferView": 1,
            "byteOffset": 5376,
            "componentType": 5126,
            "count": 24,
            "max": [0.02, 0.04, 0.01],
            "min": [-0.02, 0.0, -0.01],
            "type": "VEC3",
            "name": "accessorPositions"
        }, {
            "bufferView": 1,
            "byteOffset": 5664,
            "componentType": 5126,
            "count": 24,
            "type": "VEC3",
            "name": "accessorNormals"
        }, {
            "bufferView": 2,
            "byteOffset": 1792,
            "componentType": 5126,
            "count": 24,
            "type": "VEC2",
            "name": "accessorUVs"
        }, {
            "bufferView": 0,
            "byteOffset": 1152,
            "componentType": 5123,
            "count": 6,
            "type": "SCALAR",
            "name": "accessorIndices"
        }, {
            "bufferView": 1,
            "byteOffset": 5952,
            "componentType": 5126,
            "count": 4,
            "max": [0.6, 1.04, 0.02],
            "min": [-0.6, 0.0, 0.02],
            "type": "VEC3",
            "name": "accessorPositions"
        }, {
            "bufferView": 1,
            "byteOffset": 6000,
            "componentType": 5126,
            "count": 4,
            "type": "VEC3",
            "name": "accessorNormals"
        }, {
            "bufferView": 2,
            "byteOffset": 1984,
            "componentType": 5126,
            "count": 4,
            "type": "VEC2",
            "name": "accessorUVs"
        }, {
            "bufferView": 0,
            "byteOffset": 1164,
            "componentType": 5123,
            "count": 6,
            "type": "SCALAR",
            "name": "accessorIndices"
        }, {
            "bufferView": 1,
            "byteOffset": 6048,
            "componentType": 5126,
            "count": 4,
            "max": [0.6, 1.04, -0.02],
            "min": [-0.6, 0.0, -0.02],
            "type": "VEC3",
            "name": "accessorPositions"
        }, {
            "bufferView": 1,
            "byteOffset": 6096,
            "componentType": 5126,
            "count": 4,
            "type": "VEC3",
            "name": "accessorNormals"
        }, {
            "bufferView": 2,
            "byteOffset": 2016,
            "componentType": 5126,
            "count": 4,
            "type": "VEC2",
            "name": "accessorUVs"
        }, {
            "bufferView": 0,
            "byteOffset": 1176,
            "componentType": 5123,
            "count": 24,
            "type": "SCALAR",
            "name": "accessorIndices"
        }, {
            "bufferView": 1,
            "byteOffset": 6144,
            "componentType": 5126,
            "count": 16,
            "max": [0.6, 1.04, 0.02],
            "min": [-0.6, 0.0, -0.02],
            "type": "VEC3",
            "name": "accessorPositions"
        }, {
            "bufferView": 1,
            "byteOffset": 6336,
            "componentType": 5126,
            "count": 16,
            "type": "VEC3",
            "name": "accessorNormals"
        }, {
            "bufferView": 2,
            "byteOffset": 2048,
            "componentType": 5126,
            "count": 16,
            "type": "VEC2",
            "name": "accessorUVs"
        }
    ],
    "bufferViews": [{
            "buffer": 0,
            "byteLength": 1224,
            "name": "bufferViewScalar"
        }, {
            "buffer": 0,
            "byteOffset": 1224,
            "byteLength": 6528,
            "byteStride": 12,
            "name": "bufferViewFloatVec3"
        }, {
            "buffer": 0,
            "byteOffset": 7752,
            "byteLength": 2176,
            "byteStride": 8,
            "name": "bufferViewFloatVec2"
        }
    ],
    "buffers": [{
            "uri": "LSPH_Sign_LOD0.bin",
            "byteLength": 9928
        }
    ],
    "materials": [{
            "pbrMetallicRoughness": {
                "baseColorFactor": [0.18, 0.048, 0.015, 1.0],
                "metallicFactor": 0.0,
                "roughnessFactor": 0.4
            },
            "name": "Brown Paint"
        }, {
            "pbrMetallicRoughness": {
                "baseColorTexture": {
                    "index": 0
                }
            },
            "name": "front"
        }, {
            "pbrMetallicRoughness": {
                "baseColorTexture": {
                    "index": 1
                }
            },
            "name": "back"
        }
    ],
    "textures": [{
            "source": 0,
            "name": "sign_front"
        }, {
            "source": 1,
            "name": "sign_back"
        }
    ],
    "images": [{
            "uri": "sign_front.png"
        }, {
            "uri": "sign_back.png"
        }
    ]
}
