{
    "asset" : {
        "extensions" : {
            "ASOBO_normal_map_convention" : {
                "tangent_space_convention" : "DirectX"
            }
        },
        "generator" : "Extended Khronos glTF Blender I/O v1.0.0",
        "version" : "2.0"
    },
    "extensionsUsed" : [
        "ASOBO_normal_map_convention"
    ],
    "scene" : 0,
    "scenes" : [
        {
            "extras" : {},
            "name" : "Scene",
            "nodes" : [
                0
            ]
        }
    ],
    "nodes" : [
        {
            "mesh" : 0,
            "name" : "Cube"
        }
    ],
    "materials" : [
        {
            "emissiveFactor" : [
                0,
                0,
                0
            ],
            "extras" : {
                "msfs_material_mode" : 1,
                "msfs_albedo_texture" : {
                    "name" : "stawell-terminal-10-sides-TEXTURE.png",
                    "type" : "Image"
                },
                "msfs_metallic_texture" : {
                    "name" : "stawell-terminal-10-sides-AO.png",
                    "type" : "Image"
                },
                "msfs_normal_texture" : {
                    "name" : "stawell-terminal-10-sides-NORMAL.png",
                    "type" : "Image"
                },
                "msfs_show_tint" : 1,
                "msfs_show_sss_color" : 0,
                "msfs_show_glass_parameters" : 0,
                "msfs_show_decal_parameters" : 0,
                "msfs_show_fresnel_parameters" : 0,
                "msfs_show_parallax_parameters" : 0,
                "msfs_show_geo_decal_parameters" : 0,
                "msfs_show_albedo" : 1,
                "msfs_show_metallic" : 1,
                "msfs_show_normal" : 1,
                "msfs_show_emissive" : 1,
                "msfs_show_detail_albedo" : 1,
                "msfs_show_detail_metallic" : 1,
                "msfs_show_detail_normal" : 1,
                "msfs_show_blend_mask" : 1,
                "msfs_show_anisotropic_direction" : 0,
                "msfs_show_clearcoat" : 0,
                "msfs_show_behind_glass" : 0,
                "msfs_show_blend_mode" : 1,
                "msfs_show_draworder" : 1,
                "msfs_show_no_cast_shadow" : 1,
                "msfs_show_double_sided" : 1,
                "msfs_show_responsive_aa" : 0,
                "msfs_show_day_night_cycle" : 1,
                "msfs_show_collision_material" : 1,
                "msfs_show_road_material" : 1,
                "msfs_show_ao_use_uv2" : 1,
                "msfs_show_uv_clamp" : 1,
                "msfs_show_alpha_cutoff" : 1,
                "msfs_show_blend_threshold" : 1
            },
            "name" : "stawell-term-side",
            "normalTexture" : {
                "index" : 0,
                "texCoord" : 0
            },
            "occlusionTexture" : {
                "index" : 1,
                "texCoord" : 0
            },
            "pbrMetallicRoughness" : {
                "baseColorTexture" : {
                    "index" : 2,
                    "texCoord" : 0
                },
                "metallicRoughnessTexture" : {
                    "index" : 1,
                    "texCoord" : 0
                }
            }
        },
        {
            "emissiveFactor" : [
                0,
                0,
                0
            ],
            "extras" : {
                "msfs_material_mode" : 1,
                "msfs_albedo_texture" : {
                    "name" : "stawell-terminal-10-front-back-grey-TEXTURE.png",
                    "type" : "Image"
                },
                "msfs_metallic_texture" : {
                    "name" : "stawell-terminal-10-front-back-grey-AO.png",
                    "type" : "Image"
                },
                "msfs_normal_texture" : {
                    "name" : "stawell-terminal-10-front-back-grey-NORMAL.png",
                    "type" : "Image"
                },
                "msfs_show_tint" : 1,
                "msfs_show_sss_color" : 0,
                "msfs_show_glass_parameters" : 0,
                "msfs_show_decal_parameters" : 0,
                "msfs_show_fresnel_parameters" : 0,
                "msfs_show_parallax_parameters" : 0,
                "msfs_show_geo_decal_parameters" : 0,
                "msfs_show_albedo" : 1,
                "msfs_show_metallic" : 1,
                "msfs_show_normal" : 1,
                "msfs_show_emissive" : 1,
                "msfs_show_detail_albedo" : 1,
                "msfs_show_detail_metallic" : 1,
                "msfs_show_detail_normal" : 1,
                "msfs_show_blend_mask" : 1,
                "msfs_show_anisotropic_direction" : 0,
                "msfs_show_clearcoat" : 0,
                "msfs_show_behind_glass" : 0,
                "msfs_show_blend_mode" : 1,
                "msfs_show_draworder" : 1,
                "msfs_show_no_cast_shadow" : 1,
                "msfs_show_double_sided" : 1,
                "msfs_show_responsive_aa" : 0,
                "msfs_show_day_night_cycle" : 1,
                "msfs_show_collision_material" : 1,
                "msfs_show_road_material" : 1,
                "msfs_show_ao_use_uv2" : 1,
                "msfs_show_uv_clamp" : 1,
                "msfs_show_alpha_cutoff" : 1,
                "msfs_show_blend_threshold" : 1
            },
            "name" : "stawell-term-front-back",
            "normalTexture" : {
                "index" : 3,
                "texCoord" : 0
            },
            "occlusionTexture" : {
                "index" : 4,
                "texCoord" : 0
            },
            "pbrMetallicRoughness" : {
                "baseColorTexture" : {
                    "index" : 5,
                    "texCoord" : 0
                },
                "metallicRoughnessTexture" : {
                    "index" : 4,
                    "texCoord" : 0
                }
            }
        },
        {
            "emissiveFactor" : [
                0,
                0,
                0
            ],
            "extras" : {
                "msfs_material_mode" : 1,
                "msfs_albedo_texture" : {
                    "name" : "stawell-terminal-10-veranda-grey-TEXTURE.png",
                    "type" : "Image"
                },
                "msfs_metallic_texture" : {
                    "name" : "stawell-terminal-10-veranda-grey-AO.png",
                    "type" : "Image"
                },
                "msfs_normal_texture" : {
                    "name" : "stawell-terminal-10-veranda-grey-NORMAL.png",
                    "type" : "Image"
                },
                "msfs_show_tint" : 1,
                "msfs_show_sss_color" : 0,
                "msfs_show_glass_parameters" : 0,
                "msfs_show_decal_parameters" : 0,
                "msfs_show_fresnel_parameters" : 0,
                "msfs_show_parallax_parameters" : 0,
                "msfs_show_geo_decal_parameters" : 0,
                "msfs_show_albedo" : 1,
                "msfs_show_metallic" : 1,
                "msfs_show_normal" : 1,
                "msfs_show_emissive" : 1,
                "msfs_show_detail_albedo" : 1,
                "msfs_show_detail_metallic" : 1,
                "msfs_show_detail_normal" : 1,
                "msfs_show_blend_mask" : 1,
                "msfs_show_anisotropic_direction" : 0,
                "msfs_show_clearcoat" : 0,
                "msfs_show_behind_glass" : 0,
                "msfs_show_blend_mode" : 1,
                "msfs_show_draworder" : 1,
                "msfs_show_no_cast_shadow" : 1,
                "msfs_show_double_sided" : 1,
                "msfs_show_responsive_aa" : 0,
                "msfs_show_day_night_cycle" : 1,
                "msfs_show_collision_material" : 1,
                "msfs_show_road_material" : 1,
                "msfs_show_ao_use_uv2" : 1,
                "msfs_show_uv_clamp" : 1,
                "msfs_show_alpha_cutoff" : 1,
                "msfs_show_blend_threshold" : 1
            },
            "name" : "stanwell-term-veranda",
            "normalTexture" : {
                "index" : 6,
                "texCoord" : 0
            },
            "occlusionTexture" : {
                "index" : 7,
                "texCoord" : 0
            },
            "pbrMetallicRoughness" : {
                "baseColorTexture" : {
                    "index" : 8,
                    "texCoord" : 0
                },
                "metallicRoughnessTexture" : {
                    "index" : 7,
                    "texCoord" : 0
                }
            }
        }
    ],
    "meshes" : [
        {
            "name" : "Cube",
            "primitives" : [
                {
                    "attributes" : {
                        "POSITION" : 0,
                        "NORMAL" : 1,
                        "TEXCOORD_0" : 2
                    },
                    "indices" : 3,
                    "material" : 0
                },
                {
                    "attributes" : {
                        "POSITION" : 4,
                        "NORMAL" : 5,
                        "TEXCOORD_0" : 6
                    },
                    "indices" : 7,
                    "material" : 1
                },
                {
                    "attributes" : {
                        "POSITION" : 8,
                        "NORMAL" : 9,
                        "TEXCOORD_0" : 10
                    },
                    "indices" : 11,
                    "material" : 2
                }
            ]
        }
    ],
    "textures" : [
        {
            "source" : 0
        },
        {
            "source" : 1
        },
        {
            "source" : 2
        },
        {
            "source" : 3
        },
        {
            "source" : 4
        },
        {
            "source" : 5
        },
        {
            "source" : 6
        },
        {
            "source" : 7
        },
        {
            "source" : 8
        }
    ],
    "images" : [
        {
            "mimeType" : "image/png",
            "name" : "stawell-terminal-10-sides-NORMAL",
            "uri" : "stawell-terminal-10-sides-NORMAL.png"
        },
        {
            "mimeType" : "image/png",
            "name" : "stawell-terminal-10-sides-AO",
            "uri" : "stawell-terminal-10-sides-AO.png"
        },
        {
            "mimeType" : "image/png",
            "name" : "stawell-terminal-10-sides-TEXTURE",
            "uri" : "stawell-terminal-10-sides-TEXTURE.png"
        },
        {
            "mimeType" : "image/png",
            "name" : "stawell-terminal-10-front-back-grey-NORMAL",
            "uri" : "stawell-terminal-10-front-back-grey-NORMAL.png"
        },
        {
            "mimeType" : "image/png",
            "name" : "stawell-terminal-10-front-back-grey-AO",
            "uri" : "stawell-terminal-10-front-back-grey-AO.png"
        },
        {
            "mimeType" : "image/png",
            "name" : "stawell-terminal-10-front-back-grey-TEXTURE",
            "uri" : "stawell-terminal-10-front-back-grey-TEXTURE.png"
        },
        {
            "mimeType" : "image/png",
            "name" : "stawell-terminal-10-veranda-grey-NORMAL",
            "uri" : "stawell-terminal-10-veranda-grey-NORMAL.png"
        },
        {
            "mimeType" : "image/png",
            "name" : "stawell-terminal-10-veranda-grey-AO",
            "uri" : "stawell-terminal-10-veranda-grey-AO.png"
        },
        {
            "mimeType" : "image/png",
            "name" : "stawell-terminal-10-veranda-grey-TEXTURE",
            "uri" : "stawell-terminal-10-veranda-grey-TEXTURE.png"
        }
    ],
    "accessors" : [
        {
            "bufferView" : 0,
            "componentType" : 5126,
            "count" : 50,
            "max" : [
                10,
                4.349999904632568,
                2.4000000953674316
            ],
            "min" : [
                0,
                0,
                -9
            ],
            "type" : "VEC3"
        },
        {
            "bufferView" : 1,
            "componentType" : 5126,
            "count" : 50,
            "type" : "VEC3"
        },
        {
            "bufferView" : 2,
            "componentType" : 5126,
            "count" : 50,
            "type" : "VEC2"
        },
        {
            "bufferView" : 3,
            "componentType" : 5123,
            "count" : 78,
            "type" : "SCALAR"
        },
        {
            "bufferView" : 4,
            "componentType" : 5126,
            "count" : 50,
            "max" : [
                10.399999618530273,
                4.549999713897705,
                2.4000000953674316
            ],
            "min" : [
                -0.4000000059604645,
                -0.6000000238418579,
                -9.600000381469727
            ],
            "type" : "VEC3"
        },
        {
            "bufferView" : 5,
            "componentType" : 5126,
            "count" : 50,
            "type" : "VEC3"
        },
        {
            "bufferView" : 6,
            "componentType" : 5126,
            "count" : 50,
            "type" : "VEC2"
        },
        {
            "bufferView" : 7,
            "componentType" : 5123,
            "count" : 78,
            "type" : "SCALAR"
        },
        {
            "bufferView" : 8,
            "componentType" : 5126,
            "count" : 126,
            "max" : [
                10.399999618530273,
                4.349999904632568,
                2.4000000953674316
            ],
            "min" : [
                -0.4000000059604645,
                0.15000000596046448,
                -9.600000381469727
            ],
            "type" : "VEC3"
        },
        {
            "bufferView" : 9,
            "componentType" : 5126,
            "count" : 126,
            "type" : "VEC3"
        },
        {
            "bufferView" : 10,
            "componentType" : 5126,
            "count" : 126,
            "type" : "VEC2"
        },
        {
            "bufferView" : 11,
            "componentType" : 5123,
            "count" : 192,
            "type" : "SCALAR"
        }
    ],
    "bufferViews" : [
        {
            "buffer" : 0,
            "byteLength" : 600,
            "byteOffset" : 0
        },
        {
            "buffer" : 0,
            "byteLength" : 600,
            "byteOffset" : 600
        },
        {
            "buffer" : 0,
            "byteLength" : 400,
            "byteOffset" : 1200
        },
        {
            "buffer" : 0,
            "byteLength" : 156,
            "byteOffset" : 1600
        },
        {
            "buffer" : 0,
            "byteLength" : 600,
            "byteOffset" : 1756
        },
        {
            "buffer" : 0,
            "byteLength" : 600,
            "byteOffset" : 2356
        },
        {
            "buffer" : 0,
            "byteLength" : 400,
            "byteOffset" : 2956
        },
        {
            "buffer" : 0,
            "byteLength" : 156,
            "byteOffset" : 3356
        },
        {
            "buffer" : 0,
            "byteLength" : 1512,
            "byteOffset" : 3512
        },
        {
            "buffer" : 0,
            "byteLength" : 1512,
            "byteOffset" : 5024
        },
        {
            "buffer" : 0,
            "byteLength" : 1008,
            "byteOffset" : 6536
        },
        {
            "buffer" : 0,
            "byteLength" : 384,
            "byteOffset" : 7544
        }
    ],
    "buffers" : [
        {
            "byteLength" : 7928,
            "uri" : "terminal-tiny-05-10x10-cbj_LOD00.bin"
        }
    ]
}
