{"accessors":[{"bufferView":0,"componentType":5126,"count":2,"min":[0.0],"max":[0.0333333351],"type":"SCALAR","name":"accessorAnimationInput"},{"bufferView":1,"componentType":5126,"count":2,"type":"VEC4","name":"accessorAnimationRotations"},{"bufferView":2,"componentType":5126,"count":480,"min":[-2.5,-10.0,-2.0],"max":[1.5,0.8299999237060547,2.0],"type":"VEC3","name":"Cylinder001_vertices#0_POSITION"},{"bufferView":2,"byteOffset":12,"componentType":5120,"count":480,"type":"VEC4","name":"Cylinder001_vertices#0_TANGENT"},{"bufferView":2,"byteOffset":16,"componentType":5120,"count":480,"type":"VEC4","name":"Cylinder001_vertices#0_NORMAL"},{"bufferView":2,"byteOffset":20,"componentType":5122,"count":480,"type":"VEC2","name":"Cylinder001_vertices#0_TEXCOORD_0"},{"bufferView":2,"byteOffset":24,"componentType":5122,"count":480,"type":"VEC2","name":"Cylinder001_vertices#0_TEXCOORD_1"},{"bufferView":2,"byteOffset":28,"componentType":5123,"count":480,"type":"VEC4","name":"Cylinder001_vertices#0_COLOR_0"},{"bufferView":3,"componentType":5123,"count":480,"type":"SCALAR","name":"Cylinder001_indices#1"}],"animations":[{"name":"flip","channels":[{"sampler":0,"target":{"node":0,"path":"rotation"}}],"samplers":[{"input":0,"output":1,"interpolation":"LINEAR"}]}],"asset":{"generator":"babylon.js glTF exporter for 3dsmax 2019 v1.5.0","version":"2.0","extensions":{"ASOBO_asset_optimized":{"BoundingBoxMax":[1.5,0.8299999237060547,2.0],"BoundingBoxMin":[-2.5,-10.0,-2.0],"MajorVersion":4,"MinorVersion":2},"ASOBO_normal_map_convention":{"tangent_space_convention":"DirectX"}}},"bufferViews":[{"buffer":0,"byteLength":8,"name":"bufferViewAnimationFloatScalar"},{"buffer":0,"byteLength":32,"byteOffset":8,"name":"bufferViewAnimationFloatVec4"},{"buffer":0,"byteLength":17280,"byteStride":36,"byteOffset":40,"target":34962,"name":"BufferViewVertexND"},{"buffer":0,"byteLength":960,"byteOffset":17320,"target":34963,"name":"BufferViewIndex"}],"extensionsUsed":["ASOBO_normal_map_convention","ASOBO_asset_optimized"],"materials":[{"name":"Material #25","pbrMetallicRoughness":{"baseColorFactor":[0.8588236,0.854902,0.8470589,1.0],"metallicFactor":0.0,"roughnessFactor":0.7}},{"name":"Material #26","pbrMetallicRoughness":{"baseColorFactor":[0.03246442,0.03455563,0.058604598,1.0],"metallicFactor":0.0,"roughnessFactor":0.8}}],"meshes":[{"primitives":[{"attributes":{"COLOR_0":7,"NORMAL":4,"POSITION":2,"TANGENT":3,"TEXCOORD_0":5,"TEXCOORD_1":6},"indices":8,"material":0,"mode":4,"extras":{"ASOBO_primitive":{"PrimitiveCount":72,"VertexType":"VTX","VertexVersion":2}}},{"attributes":{"COLOR_0":7,"NORMAL":4,"POSITION":2,"TANGENT":3,"TEXCOORD_0":5,"TEXCOORD_1":6},"indices":8,"material":1,"mode":4,"extras":{"ASOBO_primitive":{"PrimitiveCount":88,"StartIndex":216,"VertexType":"VTX","VertexVersion":2}}}],"name":"Cylinder001"}],"nodes":[{"translation":[0.0,0.0,0.0],"rotation":[0.0,0.7071068,0.0,0.7071067],"scale":[1.0,1.0,1.0],"mesh":0,"name":"Cylinder001"}],"scene":0,"scenes":[{"nodes":[0]}],"buffers":[{"byteLength":18280,"uri":"LSZV-tee.bin"}]}
