{
    "asset" : {
        "extensions" : {
            "ASOBO_normal_map_convention" : {
                "tangent_space_convention" : "DirectX"
            }
        },
        "generator" : "Extended Khronos glTF Blender I/O v1.0.0",
        "version" : "2.0"
    },
    "extensionsUsed" : [
        "ASOBO_normal_map_convention",
        "ASOBO_tags"
    ],
    "scene" : 0,
    "scenes" : [
        {
            "name" : "Scene",
            "nodes" : [
                0,
                1
            ]
        }
    ],
    "nodes" : [
        {
            "mesh" : 0,
            "name" : "Fenctube"
        },
        {
            "mesh" : 1,
            "name" : "Fenc"
        }
    ],
    "materials" : [
        {
            "alphaMode" : "BLEND",
            "emissiveFactor" : [
                0,
                0,
                0
            ],
            "extensions" : {
                "ASOBO_tags" : {
                    "tags" : [
                        "Road"
                    ]
                }
            },
            "name" : "Material",
            "pbrMetallicRoughness" : {
                "baseColorTexture" : {
                    "index" : 0,
                    "texCoord" : 0
                },
                "metallicFactor" : 0,
                "roughnessFactor" : 0.5
            }
        },
        {
            "alphaMode" : "BLEND",
            "doubleSided" : true,
            "emissiveFactor" : [
                0,
                0,
                0
            ],
            "emissiveTexture" : {
                "index" : 1,
                "texCoord" : 0
            },
            "extensions" : {
                "ASOBO_tags" : {
                    "tags" : [
                        "Road"
                    ]
                }
            },
            "name" : "fence",
            "normalTexture" : {
                "index" : 2,
                "scale" : 10.510000228881836,
                "texCoord" : 0
            },
            "occlusionTexture" : {
                "index" : 3,
                "texCoord" : 0
            },
            "pbrMetallicRoughness" : {
                "baseColorTexture" : {
                    "index" : 4,
                    "texCoord" : 0
                },
                "metallicRoughnessTexture" : {
                    "index" : 3,
                    "texCoord" : 0
                }
            }
        }
    ],
    "meshes" : [
        {
            "name" : "Cube",
            "primitives" : [
                {
                    "attributes" : {
                        "POSITION" : 0,
                        "NORMAL" : 1,
                        "TEXCOORD_0" : 2
                    },
                    "indices" : 3,
                    "material" : 0
                }
            ]
        },
        {
            "name" : "Plane",
            "primitives" : [
                {
                    "attributes" : {
                        "POSITION" : 4,
                        "NORMAL" : 5,
                        "TEXCOORD_0" : 6
                    },
                    "indices" : 7,
                    "material" : 1
                }
            ]
        }
    ],
    "textures" : [
        {
            "source" : 0
        },
        {
            "source" : 1
        },
        {
            "source" : 2
        },
        {
            "source" : 3
        },
        {
            "source" : 4
        }
    ],
    "images" : [
        {
            "mimeType" : "image/png",
            "name" : "MetalSpottyDiscoloration001_DISP_1K_SPECULAR",
            "uri" : "MetalSpottyDiscoloration001_DISP_1K_SPECULAR.png"
        },
        {
            "mimeType" : "image/png",
            "name" : "TexturesCom_Metal_WireFence__Clean_1K_roughness",
            "uri" : "TexturesCom_Metal_WireFence__Clean_1K_roughness.png"
        },
        {
            "mimeType" : "image/png",
            "name" : "TexturesCom_Metal_WireFence__Clean_1K_normal",
            "uri" : "TexturesCom_Metal_WireFence__Clean_1K_normal.png"
        },
        {
            "mimeType" : "image/png",
            "name" : "TexturesCom_Metal_WireFence__Clean_1K_metallic",
            "uri" : "TexturesCom_Metal_WireFence__Clean_1K_metallic.png"
        },
        {
            "mimeType" : "image/png",
            "name" : "TexturesCom_Metal_WireFence__Clean_1K_albedo",
            "uri" : "TexturesCom_Metal_WireFence__Clean_1K_albedo.png"
        }
    ],
    "accessors" : [
        {
            "bufferView" : 0,
            "componentType" : 5126,
            "count" : 280,
            "max" : [
                0.02500000037252903,
                2.74955153465271,
                11.725000381469727
            ],
            "min" : [
                -0.34013232588768005,
                0.09916679561138153,
                -0.02500000037252903
            ],
            "type" : "VEC3"
        },
        {
            "bufferView" : 1,
            "componentType" : 5126,
            "count" : 280,
            "type" : "VEC3"
        },
        {
            "bufferView" : 2,
            "componentType" : 5126,
            "count" : 280,
            "type" : "VEC2"
        },
        {
            "bufferView" : 3,
            "componentType" : 5123,
            "count" : 432,
            "type" : "SCALAR"
        },
        {
            "bufferView" : 4,
            "componentType" : 5126,
            "count" : 48,
            "max" : [
                6.99671716120065e-08,
                2.722773551940918,
                11.731293678283691
            ],
            "min" : [
                -0.3314499855041504,
                0.09916683286428452,
                0.024374861270189285
            ],
            "type" : "VEC3"
        },
        {
            "bufferView" : 5,
            "componentType" : 5126,
            "count" : 48,
            "type" : "VEC3"
        },
        {
            "bufferView" : 6,
            "componentType" : 5126,
            "count" : 48,
            "type" : "VEC2"
        },
        {
            "bufferView" : 7,
            "componentType" : 5123,
            "count" : 72,
            "type" : "SCALAR"
        }
    ],
    "bufferViews" : [
        {
            "buffer" : 0,
            "byteLength" : 3360,
            "byteOffset" : 0
        },
        {
            "buffer" : 0,
            "byteLength" : 3360,
            "byteOffset" : 3360
        },
        {
            "buffer" : 0,
            "byteLength" : 2240,
            "byteOffset" : 6720
        },
        {
            "buffer" : 0,
            "byteLength" : 864,
            "byteOffset" : 8960
        },
        {
            "buffer" : 0,
            "byteLength" : 576,
            "byteOffset" : 9824
        },
        {
            "buffer" : 0,
            "byteLength" : 576,
            "byteOffset" : 10400
        },
        {
            "buffer" : 0,
            "byteLength" : 384,
            "byteOffset" : 10976
        },
        {
            "buffer" : 0,
            "byteLength" : 144,
            "byteOffset" : 11360
        }
    ],
    "buffers" : [
        {
            "byteLength" : 11504,
            "uri" : "lszf-fence-high-long.bin"
        }
    ]
}
