{
    "asset" : {
        "extensions" : {
            "ASOBO_normal_map_convention" : {
                "tangent_space_convention" : "DirectX"
            }
        },
        "generator" : "Extended Khronos glTF Blender I/O v1.0.0",
        "version" : "2.0"
    },
    "extensionsUsed" : [
        "ASOBO_normal_map_convention"
    ],
    "scene" : 0,
    "scenes" : [
        {
            "name" : "Scene",
            "nodes" : [
                0
            ]
        }
    ],
    "nodes" : [
        {
            "mesh" : 0,
            "name" : "Cylinder01"
        }
    ],
    "materials" : [
        {
            "emissiveFactor" : [
                0,
                0,
                0
            ],
            "name" : "tank.001",
            "normalTexture" : {
                "index" : 0,
                "texCoord" : 0
            },
            "pbrMetallicRoughness" : {
                "baseColorTexture" : {
                    "index" : 1,
                    "texCoord" : 0
                },
                "metallicRoughnessTexture" : {
                    "index" : 2,
                    "texCoord" : 0
                }
            }
        },
        {
            "emissiveFactor" : [
                0,
                0,
                0
            ],
            "name" : "small-tank.001",
            "normalTexture" : {
                "index" : 3,
                "texCoord" : 0
            },
            "pbrMetallicRoughness" : {
                "baseColorTexture" : {
                    "index" : 4,
                    "texCoord" : 0
                },
                "metallicRoughnessTexture" : {
                    "index" : 5,
                    "texCoord" : 0
                }
            }
        }
    ],
    "meshes" : [
        {
            "name" : "Cylinder.001",
            "primitives" : [
                {
                    "attributes" : {
                        "POSITION" : 0,
                        "NORMAL" : 1,
                        "TEXCOORD_0" : 2
                    },
                    "indices" : 3,
                    "material" : 0
                },
                {
                    "attributes" : {
                        "POSITION" : 4,
                        "NORMAL" : 5,
                        "TEXCOORD_0" : 6
                    },
                    "indices" : 7,
                    "material" : 1
                }
            ]
        }
    ],
    "textures" : [
        {
            "source" : 0
        },
        {
            "source" : 1
        },
        {
            "source" : 2
        },
        {
            "source" : 3
        },
        {
            "source" : 4
        },
        {
            "source" : 5
        }
    ],
    "images" : [
        {
            "mimeType" : "image/png",
            "name" : "water-tank-NORMAL",
            "uri" : "water-tank-NORMAL.png"
        },
        {
            "mimeType" : "image/png",
            "name" : "water-tank-TEXTURE",
            "uri" : "water-tank-TEXTURE.png"
        },
        {
            "mimeType" : "image/png",
            "name" : "water-tank-AO",
            "uri" : "water-tank-AO.png"
        },
        {
            "mimeType" : "image/png",
            "name" : "water-tank-small-NORMAL",
            "uri" : "water-tank-small-NORMAL.png"
        },
        {
            "mimeType" : "image/png",
            "name" : "water-tank-small-TEXTURE",
            "uri" : "water-tank-small-TEXTURE.png"
        },
        {
            "mimeType" : "image/png",
            "name" : "water-tank-small-AO",
            "uri" : "water-tank-small-AO.png"
        }
    ],
    "accessors" : [
        {
            "bufferView" : 0,
            "componentType" : 5126,
            "count" : 66,
            "max" : [
                1.600000023841858,
                1.600000023841858,
                1.600000023841858
            ],
            "min" : [
                -1.600000023841858,
                -1.600000023841858,
                -1.600000023841858
            ],
            "type" : "VEC3"
        },
        {
            "bufferView" : 1,
            "componentType" : 5126,
            "count" : 66,
            "type" : "VEC3"
        },
        {
            "bufferView" : 2,
            "componentType" : 5126,
            "count" : 66,
            "type" : "VEC2"
        },
        {
            "bufferView" : 3,
            "componentType" : 5123,
            "count" : 192,
            "type" : "SCALAR"
        },
        {
            "bufferView" : 4,
            "componentType" : 5126,
            "count" : 32,
            "max" : [
                1.600000023841858,
                1.600000023841858,
                1.600000023841858
            ],
            "min" : [
                -1.600000023841858,
                1.600000023841858,
                -1.600000023841858
            ],
            "type" : "VEC3"
        },
        {
            "bufferView" : 5,
            "componentType" : 5126,
            "count" : 32,
            "type" : "VEC3"
        },
        {
            "bufferView" : 6,
            "componentType" : 5126,
            "count" : 32,
            "type" : "VEC2"
        },
        {
            "bufferView" : 7,
            "componentType" : 5123,
            "count" : 90,
            "type" : "SCALAR"
        }
    ],
    "bufferViews" : [
        {
            "buffer" : 0,
            "byteLength" : 792,
            "byteOffset" : 0
        },
        {
            "buffer" : 0,
            "byteLength" : 792,
            "byteOffset" : 792
        },
        {
            "buffer" : 0,
            "byteLength" : 528,
            "byteOffset" : 1584
        },
        {
            "buffer" : 0,
            "byteLength" : 384,
            "byteOffset" : 2112
        },
        {
            "buffer" : 0,
            "byteLength" : 384,
            "byteOffset" : 2496
        },
        {
            "buffer" : 0,
            "byteLength" : 384,
            "byteOffset" : 2880
        },
        {
            "buffer" : 0,
            "byteLength" : 256,
            "byteOffset" : 3264
        },
        {
            "buffer" : 0,
            "byteLength" : 180,
            "byteOffset" : 3520
        }
    ],
    "buffers" : [
        {
            "byteLength" : 3700,
            "uri" : "water-tank-corrigated-3x2-cbj_LOD01.bin"
        }
    ]
}
