{"asset":{"version":"2.0","generator":"babylon.js glTF exporter for 3dsmax 2019 v1.0.0.0","extensions":{"ASOBO_normal_map_convention":{"tangent_space_convention":"DirectX"}}},"extensionsUsed":["ASOBO_normal_map_convention"],"scene":0,"scenes":[{"nodes":[0],"extensions":{}}],"nodes":[{"children":[1,2],"translation":[0.0,0.0,-3.81469727E-06],"rotation":[0.0,0.0,0.0,1.0],"scale":[1.0,1.0,1.0],"name":"marker2_blue_LOD0"},{"mesh":0,"translation":[0.0,0.0,3.81469727E-06],"rotation":[0.0,0.0,0.0,1.0],"scale":[1.0,1.0,1.0],"name":"Mesh001"},{"mesh":1,"translation":[0.0,0.0,3.81469727E-06],"rotation":[0.0,0.0,0.0,1.0],"scale":[1.0,1.0,1.0],"name":"Loft001"}],"meshes":[{"primitives":[{"attributes":{"POSITION":1,"NORMAL":2,"TEXCOORD_0":3},"indices":0,"mode":4,"material":0}],"name":"Mesh001"},{"primitives":[{"attributes":{"POSITION":5,"NORMAL":6,"TEXCOORD_0":7},"indices":4,"mode":4,"material":1}],"name":"Loft001"}],"accessors":[{"bufferView":0,"componentType":5123,"count":366,"type":"SCALAR","name":"accessorIndices"},{"bufferView":1,"componentType":5126,"count":132,"max":[0.3505001,0.5,0.0107955933],"min":[-0.3505001,0.05,-0.0108032227],"type":"VEC3","name":"accessorPositions"},{"bufferView":1,"byteOffset":1584,"componentType":5126,"count":132,"type":"VEC3","name":"accessorNormals"},{"bufferView":2,"componentType":5126,"count":132,"type":"VEC2","name":"accessorUVs"},{"bufferView":0,"byteOffset":732,"componentType":5123,"count":792,"type":"SCALAR","name":"accessorIndices"},{"bufferView":1,"byteOffset":3168,"componentType":5126,"count":144,"max":[0.350049019,0.5500491,0.0100097656],"min":[-0.350049973,-8.0,-0.0100021362],"type":"VEC3","name":"accessorPositions"},{"bufferView":1,"byteOffset":4896,"componentType":5126,"count":144,"type":"VEC3","name":"accessorNormals"},{"bufferView":2,"byteOffset":1056,"componentType":5126,"count":144,"type":"VEC2","name":"accessorUVs"}],"bufferViews":[{"buffer":0,"byteLength":2316,"name":"bufferViewScalar"},{"buffer":0,"byteOffset":2316,"byteLength":6624,"byteStride":12,"name":"bufferViewFloatVec3"},{"buffer":0,"byteOffset":8940,"byteLength":2208,"byteStride":8,"name":"bufferViewFloatVec2"}],"buffers":[{"uri":"marker2_blue_LOD0.bin","byteLength":11148}],"materials":[{"pbrMetallicRoughness":{"baseColorFactor":[0.0,0.5137255,0.6627451,1.0],"baseColorTexture":{"index":0},"metallicFactor":0.1,"roughnessFactor":0.1,"metallicRoughnessTexture":{"index":1}},"normalTexture":{"scale":0.5,"index":2},"occlusionTexture":{"index":1},"doubleSided":true,"name":"Colored Plastic"},{"pbrMetallicRoughness":{"baseColorFactor":[0.196078449,0.196078449,0.196078449,1.0],"metallicFactor":0.8,"roughnessFactor":0.6},"name":"Stick"}],"textures":[{"source":0,"name":"StandardOpaque_6535_BaseColorTex"},{"source":1,"name":"StandardOpaque_6535_OcclusionRoughnessMetallicTex"},{"source":2,"name":"StandardOpaque_6535_NormalTex"}],"images":[{"uri":"StandardOpaque_6535_BaseColorTex..png"},{"uri":"StandardOpaque_6535_OcclusionRoughnessMetallicTex..png"},{"uri":"StandardOpaque_6535_NormalTex..png"}]}