{"asset":{"version":"2.0","generator":"babylon.js glTF exporter for 3dsmax 2019 v1.0.0.0","extensions":{"ASOBO_normal_map_convention":{"tangent_space_convention":"DirectX"}}},"extensionsUsed":["ASOBO_normal_map_convention"],"scene":0,"scenes":[{"nodes":[0],"extensions":{}}],"nodes":[{"children":[1,2],"translation":[5.2511692E-05,0.0,0.0],"rotation":[0.0,0.0,0.0,1.0],"scale":[1.0,1.0,1.0],"name":"marker2_blue_LOD0"},{"mesh":0,"translation":[-5.2511692E-05,0.0,0.0],"rotation":[0.0,0.0,0.0,1.0],"scale":[1.0,1.0,1.0],"name":"Rod"},{"mesh":1,"translation":[-5.2511692E-05,0.0499999523,0.0],"rotation":[0.0,0.0,0.0,1.0],"scale":[1.0,1.0,1.0],"name":"Flag"}],"meshes":[{"primitives":[{"attributes":{"POSITION":1,"NORMAL":2,"TEXCOORD_0":3},"indices":0,"mode":4,"material":0}],"name":"Rod"},{"primitives":[{"attributes":{"POSITION":5,"NORMAL":6,"TEXCOORD_0":7},"indices":4,"mode":4,"material":1}],"name":"Flag"}],"accessors":[{"bufferView":0,"componentType":5123,"count":792,"type":"SCALAR","name":"accessorIndices"},{"bufferView":1,"componentType":5126,"count":144,"max":[0.350049019,0.5500491,0.0100097656],"min":[-0.350049973,-8.0,-0.0100021362],"type":"VEC3","name":"accessorPositions"},{"bufferView":1,"byteOffset":1728,"componentType":5126,"count":144,"type":"VEC3","name":"accessorNormals"},{"bufferView":2,"componentType":5126,"count":144,"type":"VEC2","name":"accessorUVs"},{"bufferView":0,"byteOffset":1584,"componentType":5123,"count":372,"type":"SCALAR","name":"accessorIndices"},{"bufferView":1,"byteOffset":3456,"componentType":5126,"count":140,"max":[0.351105,0.45,0.011],"min":[-0.350999981,0.0,-0.011],"type":"VEC3","name":"accessorPositions"},{"bufferView":1,"byteOffset":5136,"componentType":5126,"count":140,"type":"VEC3","name":"accessorNormals"},{"bufferView":2,"byteOffset":1152,"componentType":5126,"count":140,"type":"VEC2","name":"accessorUVs"}],"bufferViews":[{"buffer":0,"byteLength":2328,"name":"bufferViewScalar"},{"buffer":0,"byteOffset":2328,"byteLength":6816,"byteStride":12,"name":"bufferViewFloatVec3"},{"buffer":0,"byteOffset":9144,"byteLength":2272,"byteStride":8,"name":"bufferViewFloatVec2"}],"buffers":[{"uri":"marker2_blue_LOD0.bin","byteLength":11416}],"materials":[{"pbrMetallicRoughness":{"baseColorFactor":[0.196078449,0.196078449,0.196078449,1.0],"metallicFactor":0.8,"roughnessFactor":0.6},"name":"Stick"},{"pbrMetallicRoughness":{"baseColorFactor":[0.0,0.5137255,0.6627451,1.0],"metallicFactor":0.1,"roughnessFactor":0.1},"doubleSided":true,"name":"Colored Plastic"}]}