{
    "asset" : {
        "extensions" : {
            "ASOBO_normal_map_convention" : {
                "tangent_space_convention" : "DirectX"
            }
        },
        "generator" : "Extended Khronos glTF Blender I/O v1.0.0",
        "version" : "2.0"
    },
    "extensionsUsed" : [
        "ASOBO_normal_map_convention"
    ],
    "scene" : 0,
    "scenes" : [
        {
            "extras" : {},
            "name" : "Scene",
            "nodes" : [
                0,
                1,
                2
            ]
        }
    ],
    "nodes" : [
        {
            "mesh" : 0,
            "name" : "head",
            "translation" : [
                0,
                1.5499999523162842,
                -0.009999999776482582
            ]
        },
        {
            "mesh" : 1,
            "name" : "legs"
        },
        {
            "mesh" : 2,
            "name" : "trunk",
            "translation" : [
                0,
                1.0499999523162842,
                0.03999999910593033
            ]
        }
    ],
    "animations" : [
        {
            "channels" : [
                {
                    "sampler" : 0,
                    "target" : {
                        "node" : 0,
                        "path" : "rotation"
                    }
                }
            ],
            "name" : "head",
            "samplers" : [
                {
                    "input" : 12,
                    "interpolation" : "LINEAR",
                    "output" : 13
                }
            ]
        },
        {
            "channels" : [
                {
                    "sampler" : 0,
                    "target" : {
                        "node" : 2,
                        "path" : "rotation"
                    }
                }
            ],
            "name" : "trunk",
            "samplers" : [
                {
                    "input" : 12,
                    "interpolation" : "LINEAR",
                    "output" : 14
                }
            ]
        }
    ],
    "materials" : [
        {
            "emissiveFactor" : [
                0,
                0,
                0
            ],
            "extras" : {
                "msfs_material_mode" : 1,
                "msfs_albedo_texture" : {
                    "name" : "CILVEKS2-TEXTURE.png.004",
                    "type" : "Image"
                },
                "msfs_normal_texture" : {
                    "name" : "CILVEKS2-NORMAL.png.004",
                    "type" : "Image"
                },
                "msfs_show_tint" : 1,
                "msfs_show_sss_color" : 0,
                "msfs_show_glass_parameters" : 0,
                "msfs_show_decal_parameters" : 0,
                "msfs_show_fresnel_parameters" : 0,
                "msfs_show_parallax_parameters" : 0,
                "msfs_show_geo_decal_parameters" : 0,
                "msfs_show_albedo" : 1,
                "msfs_show_metallic" : 1,
                "msfs_show_normal" : 1,
                "msfs_show_emissive" : 1,
                "msfs_show_detail_albedo" : 1,
                "msfs_show_detail_metallic" : 1,
                "msfs_show_detail_normal" : 1,
                "msfs_show_blend_mask" : 1,
                "msfs_show_anisotropic_direction" : 0,
                "msfs_show_clearcoat" : 0,
                "msfs_show_behind_glass" : 0,
                "msfs_show_blend_mode" : 1,
                "msfs_show_draworder" : 1,
                "msfs_show_no_cast_shadow" : 1,
                "msfs_show_double_sided" : 1,
                "msfs_show_responsive_aa" : 0,
                "msfs_show_day_night_cycle" : 1,
                "msfs_show_collision_material" : 1,
                "msfs_show_road_material" : 1,
                "msfs_show_ao_use_uv2" : 1,
                "msfs_show_uv_clamp" : 1,
                "msfs_show_alpha_cutoff" : 1,
                "msfs_show_blend_threshold" : 1
            },
            "name" : "VRayMtl1.004",
            "normalTexture" : {
                "index" : 0,
                "texCoord" : 0
            },
            "pbrMetallicRoughness" : {
                "baseColorTexture" : {
                    "index" : 1,
                    "texCoord" : 0
                },
                "metallicFactor" : 0,
                "roughnessFactor" : 0.5
            }
        }
    ],
    "meshes" : [
        {
            "name" : "Mesh.012",
            "primitives" : [
                {
                    "attributes" : {
                        "POSITION" : 0,
                        "NORMAL" : 1,
                        "TEXCOORD_0" : 2
                    },
                    "indices" : 3,
                    "material" : 0
                }
            ]
        },
        {
            "name" : "Mesh.013",
            "primitives" : [
                {
                    "attributes" : {
                        "POSITION" : 4,
                        "NORMAL" : 5,
                        "TEXCOORD_0" : 6
                    },
                    "indices" : 7,
                    "material" : 0
                }
            ]
        },
        {
            "name" : "Mesh.014",
            "primitives" : [
                {
                    "attributes" : {
                        "POSITION" : 8,
                        "NORMAL" : 9,
                        "TEXCOORD_0" : 10
                    },
                    "indices" : 11,
                    "material" : 0
                }
            ]
        }
    ],
    "textures" : [
        {
            "source" : 0
        },
        {
            "source" : 1
        }
    ],
    "images" : [
        {
            "mimeType" : "image/png",
            "name" : "CILVEKS2-NORMAL",
            "uri" : "CILVEKS2-NORMAL.png"
        },
        {
            "mimeType" : "image/png",
            "name" : "CILVEKS2-TEXTURE",
            "uri" : "CILVEKS2-TEXTURE.png"
        }
    ],
    "accessors" : [
        {
            "bufferView" : 0,
            "componentType" : 5126,
            "count" : 173,
            "max" : [
                0.09100215137004852,
                0.2723540961742401,
                0.14736919105052948
            ],
            "min" : [
                -0.09050312638282776,
                -0.07455813884735107,
                -0.08419742435216904
            ],
            "type" : "VEC3"
        },
        {
            "bufferView" : 1,
            "componentType" : 5126,
            "count" : 173,
            "type" : "VEC3"
        },
        {
            "bufferView" : 2,
            "componentType" : 5126,
            "count" : 173,
            "type" : "VEC2"
        },
        {
            "bufferView" : 3,
            "componentType" : 5123,
            "count" : 876,
            "type" : "SCALAR"
        },
        {
            "bufferView" : 4,
            "componentType" : 5126,
            "count" : 302,
            "max" : [
                0.22199474275112152,
                1.0741682052612305,
                0.21069292724132538
            ],
            "min" : [
                -0.22349999845027924,
                -0.02973305992782116,
                -0.12767837941646576
            ],
            "type" : "VEC3"
        },
        {
            "bufferView" : 5,
            "componentType" : 5126,
            "count" : 302,
            "type" : "VEC3"
        },
        {
            "bufferView" : 6,
            "componentType" : 5126,
            "count" : 302,
            "type" : "VEC2"
        },
        {
            "bufferView" : 7,
            "componentType" : 5123,
            "count" : 1176,
            "type" : "SCALAR"
        },
        {
            "bufferView" : 8,
            "componentType" : 5126,
            "count" : 484,
            "max" : [
                0.3808526396751404,
                0.5130025744438171,
                0.14356255531311035
            ],
            "min" : [
                -0.33723872900009155,
                -0.3620695173740387,
                -0.18335965275764465
            ],
            "type" : "VEC3"
        },
        {
            "bufferView" : 9,
            "componentType" : 5126,
            "count" : 484,
            "type" : "VEC3"
        },
        {
            "bufferView" : 10,
            "componentType" : 5126,
            "count" : 484,
            "type" : "VEC2"
        },
        {
            "bufferView" : 11,
            "componentType" : 5123,
            "count" : 1755,
            "type" : "SCALAR"
        },
        {
            "bufferView" : 12,
            "componentType" : 5126,
            "count" : 384,
            "max" : [
                16
            ],
            "min" : [
                0.041666666666666664
            ],
            "type" : "SCALAR"
        },
        {
            "bufferView" : 13,
            "componentType" : 5126,
            "count" : 384,
            "type" : "VEC4"
        },
        {
            "bufferView" : 14,
            "componentType" : 5126,
            "count" : 384,
            "type" : "VEC4"
        }
    ],
    "bufferViews" : [
        {
            "buffer" : 0,
            "byteLength" : 2076,
            "byteOffset" : 0
        },
        {
            "buffer" : 0,
            "byteLength" : 2076,
            "byteOffset" : 2076
        },
        {
            "buffer" : 0,
            "byteLength" : 1384,
            "byteOffset" : 4152
        },
        {
            "buffer" : 0,
            "byteLength" : 1752,
            "byteOffset" : 5536
        },
        {
            "buffer" : 0,
            "byteLength" : 3624,
            "byteOffset" : 7288
        },
        {
            "buffer" : 0,
            "byteLength" : 3624,
            "byteOffset" : 10912
        },
        {
            "buffer" : 0,
            "byteLength" : 2416,
            "byteOffset" : 14536
        },
        {
            "buffer" : 0,
            "byteLength" : 2352,
            "byteOffset" : 16952
        },
        {
            "buffer" : 0,
            "byteLength" : 5808,
            "byteOffset" : 19304
        },
        {
            "buffer" : 0,
            "byteLength" : 5808,
            "byteOffset" : 25112
        },
        {
            "buffer" : 0,
            "byteLength" : 3872,
            "byteOffset" : 30920
        },
        {
            "buffer" : 0,
            "byteLength" : 3510,
            "byteOffset" : 34792
        },
        {
            "buffer" : 0,
            "byteLength" : 1536,
            "byteOffset" : 38304
        },
        {
            "buffer" : 0,
            "byteLength" : 6144,
            "byteOffset" : 39840
        },
        {
            "buffer" : 0,
            "byteLength" : 6144,
            "byteOffset" : 45984
        }
    ],
    "buffers" : [
        {
            "byteLength" : 52128,
            "uri" : "man-casual-red-cbj_LOD00.bin"
        }
    ]
}
