{
    "asset" : {
        "extensions" : {
            "ASOBO_normal_map_convention" : {
                "tangent_space_convention" : "DirectX"
            }
        },
        "generator" : "Extended Khronos glTF Blender I/O v1.0.0",
        "version" : "2.0"
    },
    "extensionsUsed" : [
        "ASOBO_normal_map_convention",
        "ASOBO_macro_light",
        "ASOBO_material_draw_order"
    ],
    "scene" : 0,
    "scenes" : [
        {
            "extras" : {},
            "name" : "Scene",
            "nodes" : [
                0,
                1,
                2,
                3,
                4,
                5,
                6,
                7,
                8,
                9,
                10,
                11,
                12
            ]
        }
    ],
    "nodes" : [
        {
            "extensions" : {
                "ASOBO_macro_light" : {
                    "color" : [
                        1,
                        1,
                        1
                    ],
                    "intensity" : 50,
                    "cone_angle" : 360,
                    "has_simmetry" : false,
                    "flash_frequency" : 40,
                    "flash_duration" : 1.2000000476837158,
                    "flash_phase" : 0,
                    "rotation_speed" : 0,
                    "day_night_cycle" : true
                }
            },
            "extras" : {
                "msfs_light_flash_frequency" : 40,
                "msfs_light_flash_duration" : 1.2000000476837158,
                "msfs_light_flash_phase" : 0,
                "msfs_light_day_night_cycle" : 1
            },
            "name" : "Point.060",
            "rotation" : [
                0.7071067690849304,
                0,
                0,
                0.7071068286895752
            ],
            "translation" : [
                -2.764298915863037,
                49.040985107421875,
                -1.5779807567596436
            ]
        },
        {
            "extensions" : {
                "ASOBO_macro_light" : {
                    "color" : [
                        1,
                        1,
                        1
                    ],
                    "intensity" : 100,
                    "cone_angle" : 360,
                    "has_simmetry" : false,
                    "flash_frequency" : 40,
                    "flash_duration" : 1.2000000476837158,
                    "flash_phase" : 0,
                    "rotation_speed" : 0,
                    "day_night_cycle" : true
                }
            },
            "extras" : {
                "msfs_light_flash_frequency" : 40,
                "msfs_light_flash_duration" : 1.2000000476837158,
                "msfs_light_flash_phase" : 0,
                "msfs_light_day_night_cycle" : 1
            },
            "name" : "Point.059",
            "rotation" : [
                0.7071067690849304,
                0,
                0,
                0.7071068286895752
            ],
            "translation" : [
                -4.61931037902832,
                99.04098510742188,
                -2.1626102924346924
            ]
        },
        {
            "extensions" : {
                "ASOBO_macro_light" : {
                    "color" : [
                        1,
                        1,
                        1
                    ],
                    "intensity" : 50,
                    "cone_angle" : 360,
                    "has_simmetry" : false,
                    "flash_frequency" : 40,
                    "flash_duration" : 1.2000000476837158,
                    "flash_phase" : 0,
                    "rotation_speed" : 0,
                    "day_night_cycle" : true
                }
            },
            "extras" : {
                "msfs_light_flash_frequency" : 40,
                "msfs_light_flash_duration" : 1.2000000476837158,
                "msfs_light_flash_phase" : 0,
                "msfs_light_day_night_cycle" : 1
            },
            "name" : "Point.058",
            "rotation" : [
                0.7071067690849304,
                0,
                0,
                0.7071068286895752
            ],
            "translation" : [
                3.5028045177459717,
                49.040985107421875,
                -1.8136794567108154
            ]
        },
        {
            "extensions" : {
                "ASOBO_macro_light" : {
                    "color" : [
                        1,
                        1,
                        1
                    ],
                    "intensity" : 100,
                    "cone_angle" : 360,
                    "has_simmetry" : false,
                    "flash_frequency" : 40,
                    "flash_duration" : 1.2000000476837158,
                    "flash_phase" : 0,
                    "rotation_speed" : 0,
                    "day_night_cycle" : true
                }
            },
            "extras" : {
                "msfs_light_flash_frequency" : 40,
                "msfs_light_flash_duration" : 1.2000000476837158,
                "msfs_light_flash_phase" : 0,
                "msfs_light_day_night_cycle" : 1
            },
            "name" : "Point.057",
            "rotation" : [
                0.7071067690849304,
                0,
                0,
                0.7071068286895752
            ],
            "translation" : [
                3.5095319747924805,
                99.04098510742188,
                -2.160478115081787
            ]
        },
        {
            "extensions" : {
                "ASOBO_macro_light" : {
                    "color" : [
                        1,
                        1,
                        1
                    ],
                    "intensity" : 100,
                    "cone_angle" : 360,
                    "has_simmetry" : false,
                    "flash_frequency" : 40,
                    "flash_duration" : 1.2000000476837158,
                    "flash_phase" : 0,
                    "rotation_speed" : 0,
                    "day_night_cycle" : true
                }
            },
            "extras" : {
                "msfs_light_flash_frequency" : 40,
                "msfs_light_flash_duration" : 1.2000000476837158,
                "msfs_light_flash_phase" : 0,
                "msfs_light_day_night_cycle" : 1
            },
            "name" : "Point.056",
            "rotation" : [
                0.7071067690849304,
                0,
                0,
                0.7071068286895752
            ],
            "translation" : [
                -3.434413194656372,
                149.04098510742188,
                -1.7713303565979004
            ]
        },
        {
            "extensions" : {
                "ASOBO_macro_light" : {
                    "color" : [
                        1,
                        1,
                        1
                    ],
                    "intensity" : 100,
                    "cone_angle" : 360,
                    "has_simmetry" : false,
                    "flash_frequency" : 40,
                    "flash_duration" : 1.2000000476837158,
                    "flash_phase" : 0,
                    "rotation_speed" : 0,
                    "day_night_cycle" : true
                }
            },
            "extras" : {
                "msfs_light_flash_frequency" : 40,
                "msfs_light_flash_duration" : 1.2000000476837158,
                "msfs_light_flash_phase" : 0,
                "msfs_light_day_night_cycle" : 1
            },
            "name" : "Point.055",
            "rotation" : [
                0.7071067690849304,
                0,
                0,
                0.7071068286895752
            ],
            "translation" : [
                4.610977649688721,
                149.04098510742188,
                -1.7736543416976929
            ]
        },
        {
            "extensions" : {
                "ASOBO_macro_light" : {
                    "color" : [
                        1,
                        1,
                        1
                    ],
                    "intensity" : 50,
                    "cone_angle" : 360,
                    "has_simmetry" : false,
                    "flash_frequency" : 40,
                    "flash_duration" : 1.2000000476837158,
                    "flash_phase" : 0,
                    "rotation_speed" : 0,
                    "day_night_cycle" : true
                }
            },
            "extras" : {
                "msfs_light_flash_frequency" : 40,
                "msfs_light_flash_duration" : 1.2000000476837158,
                "msfs_light_flash_phase" : 0,
                "msfs_light_day_night_cycle" : 1
            },
            "name" : "Point.054",
            "rotation" : [
                0.7071067690849304,
                0,
                0,
                0.7071068286895752
            ],
            "translation" : [
                -0.4194275736808777,
                49.040985107421875,
                3.2446272373199463
            ]
        },
        {
            "extensions" : {
                "ASOBO_macro_light" : {
                    "color" : [
                        1,
                        1,
                        1
                    ],
                    "intensity" : 100,
                    "cone_angle" : 360,
                    "has_simmetry" : false,
                    "flash_frequency" : 40,
                    "flash_duration" : 1.2000000476837158,
                    "flash_phase" : 0,
                    "rotation_speed" : 0,
                    "day_night_cycle" : true
                }
            },
            "extras" : {
                "msfs_light_flash_frequency" : 40,
                "msfs_light_flash_duration" : 1.2000000476837158,
                "msfs_light_flash_phase" : 0,
                "msfs_light_day_night_cycle" : 1
            },
            "name" : "Point.053",
            "rotation" : [
                0.7071067690849304,
                0,
                0,
                0.7071068286895752
            ],
            "translation" : [
                -0.6769459247589111,
                99.04098510742188,
                4.100132942199707
            ]
        },
        {
            "extensions" : {
                "ASOBO_macro_light" : {
                    "color" : [
                        1,
                        1,
                        1
                    ],
                    "intensity" : 100,
                    "cone_angle" : 360,
                    "has_simmetry" : false,
                    "flash_frequency" : 40,
                    "flash_duration" : 1.2000000476837158,
                    "flash_phase" : 0,
                    "rotation_speed" : 0,
                    "day_night_cycle" : true
                }
            },
            "extras" : {
                "msfs_light_flash_frequency" : 40,
                "msfs_light_flash_duration" : 1.2000000476837158,
                "msfs_light_flash_phase" : 0,
                "msfs_light_day_night_cycle" : 1
            },
            "name" : "Point.052",
            "rotation" : [
                0.7071067690849304,
                0,
                0,
                0.7071068286895752
            ],
            "translation" : [
                0.3712739050388336,
                149.04098510742188,
                3.2910187244415283
            ]
        },
        {
            "extensions" : {
                "ASOBO_macro_light" : {
                    "color" : [
                        1,
                        1,
                        1
                    ],
                    "intensity" : 200,
                    "cone_angle" : 360,
                    "has_simmetry" : false,
                    "flash_frequency" : 40,
                    "flash_duration" : 1.2000000476837158,
                    "flash_phase" : 0,
                    "rotation_speed" : 0,
                    "day_night_cycle" : true
                }
            },
            "extras" : {
                "msfs_light_flash_frequency" : 40,
                "msfs_light_flash_duration" : 1.2000000476837158,
                "msfs_light_flash_phase" : 0,
                "msfs_light_day_night_cycle" : 1
            },
            "name" : "Point.038",
            "rotation" : [
                0.7071067690849304,
                0,
                0,
                0.7071068286895752
            ],
            "translation" : [
                -0.18174457550048828,
                208.9171600341797,
                1.235121488571167
            ]
        },
        {
            "extensions" : {
                "ASOBO_macro_light" : {
                    "color" : [
                        1,
                        1,
                        1
                    ],
                    "intensity" : 200,
                    "cone_angle" : 360,
                    "has_simmetry" : false,
                    "flash_frequency" : 40,
                    "flash_duration" : 1.2000000476837158,
                    "flash_phase" : 0,
                    "rotation_speed" : 0,
                    "day_night_cycle" : true
                }
            },
            "extras" : {
                "msfs_light_flash_frequency" : 40,
                "msfs_light_flash_duration" : 1.2000000476837158,
                "msfs_light_flash_phase" : 0,
                "msfs_light_day_night_cycle" : 1
            },
            "name" : "Point.026",
            "rotation" : [
                0.7071067690849304,
                0,
                0,
                0.7071068286895752
            ],
            "translation" : [
                -0.8917809128761292,
                209.24034118652344,
                -0.37688979506492615
            ]
        },
        {
            "extensions" : {
                "ASOBO_macro_light" : {
                    "color" : [
                        1,
                        1,
                        1
                    ],
                    "intensity" : 200,
                    "cone_angle" : 360,
                    "has_simmetry" : false,
                    "flash_frequency" : 40,
                    "flash_duration" : 1.2000000476837158,
                    "flash_phase" : 0,
                    "rotation_speed" : 0,
                    "day_night_cycle" : true
                }
            },
            "extras" : {
                "msfs_light_flash_frequency" : 40,
                "msfs_light_flash_duration" : 1.2000000476837158,
                "msfs_light_flash_phase" : 0,
                "msfs_light_day_night_cycle" : 1
            },
            "name" : "Point.012",
            "rotation" : [
                0.7071067690849304,
                0,
                0,
                0.7071068286895752
            ],
            "translation" : [
                1.336763620376587,
                209.00889587402344,
                -0.6703917384147644
            ]
        },
        {
            "mesh" : 0,
            "name" : "post.004"
        }
    ],
    "materials" : [
        {
            "emissiveFactor" : [
                0,
                0,
                0
            ],
            "extras" : {
                "msfs_material_mode" : 1,
                "msfs_albedo_texture" : {
                    "name" : "towers2-cbj-TEXTURE.png.002",
                    "type" : "Image"
                },
                "msfs_metallic_texture" : {
                    "name" : "towers2-cbj-AO.png.002",
                    "type" : "Image"
                },
                "msfs_normal_texture" : {
                    "name" : "towers2-cbj-NORMAL.png.002",
                    "type" : "Image"
                },
                "msfs_show_tint" : 1,
                "msfs_show_sss_color" : 0,
                "msfs_show_glass_parameters" : 0,
                "msfs_show_decal_parameters" : 0,
                "msfs_show_fresnel_parameters" : 0,
                "msfs_show_parallax_parameters" : 0,
                "msfs_show_geo_decal_parameters" : 0,
                "msfs_show_albedo" : 1,
                "msfs_show_metallic" : 1,
                "msfs_show_normal" : 1,
                "msfs_show_emissive" : 1,
                "msfs_show_detail_albedo" : 1,
                "msfs_show_detail_metallic" : 1,
                "msfs_show_detail_normal" : 1,
                "msfs_show_blend_mask" : 1,
                "msfs_show_anisotropic_direction" : 0,
                "msfs_show_clearcoat" : 0,
                "msfs_show_behind_glass" : 0,
                "msfs_show_blend_mode" : 1,
                "msfs_show_draworder" : 1,
                "msfs_show_no_cast_shadow" : 1,
                "msfs_show_double_sided" : 1,
                "msfs_show_responsive_aa" : 0,
                "msfs_show_day_night_cycle" : 1,
                "msfs_show_collision_material" : 1,
                "msfs_show_road_material" : 1,
                "msfs_show_ao_use_uv2" : 1,
                "msfs_show_uv_clamp" : 1,
                "msfs_show_alpha_cutoff" : 1,
                "msfs_show_blend_threshold" : 1
            },
            "name" : "tower-solid.002",
            "normalTexture" : {
                "index" : 0,
                "texCoord" : 0
            },
            "pbrMetallicRoughness" : {
                "baseColorTexture" : {
                    "index" : 1,
                    "texCoord" : 0
                },
                "metallicRoughnessTexture" : {
                    "index" : 2,
                    "texCoord" : 0
                }
            }
        },
        {
            "emissiveFactor" : [
                0,
                0,
                0
            ],
            "extensions" : {
                "ASOBO_material_draw_order" : {
                    "drawOrderOffset" : 3
                }
            },
            "extras" : {
                "msfs_material_mode" : 1,
                "msfs_albedo_texture" : {
                    "name" : "towers-cbj-TEXTURE.png.005",
                    "type" : "Image"
                },
                "msfs_normal_texture" : {
                    "name" : "towers-cbj-NORMAL.png.005",
                    "type" : "Image"
                },
                "msfs_show_tint" : 1,
                "msfs_show_sss_color" : 0,
                "msfs_show_glass_parameters" : 0,
                "msfs_show_decal_parameters" : 0,
                "msfs_show_fresnel_parameters" : 0,
                "msfs_show_parallax_parameters" : 0,
                "msfs_show_geo_decal_parameters" : 0,
                "msfs_show_albedo" : 1,
                "msfs_show_metallic" : 1,
                "msfs_show_normal" : 1,
                "msfs_show_emissive" : 1,
                "msfs_show_detail_albedo" : 1,
                "msfs_show_detail_metallic" : 1,
                "msfs_show_detail_normal" : 1,
                "msfs_show_blend_mask" : 1,
                "msfs_show_anisotropic_direction" : 0,
                "msfs_show_clearcoat" : 0,
                "msfs_show_behind_glass" : 0,
                "msfs_show_blend_mode" : 1,
                "msfs_show_draworder" : 1,
                "msfs_show_no_cast_shadow" : 1,
                "msfs_show_double_sided" : 1,
                "msfs_show_responsive_aa" : 0,
                "msfs_show_day_night_cycle" : 1,
                "msfs_show_collision_material" : 1,
                "msfs_show_road_material" : 1,
                "msfs_show_ao_use_uv2" : 1,
                "msfs_show_uv_clamp" : 1,
                "msfs_show_alpha_cutoff" : 1,
                "msfs_show_blend_threshold" : 1,
                "msfs_draw_order" : 3
            },
            "name" : "tower-opaque.001",
            "normalTexture" : {
                "index" : 3,
                "texCoord" : 0
            },
            "pbrMetallicRoughness" : {
                "baseColorTexture" : {
                    "index" : 4,
                    "texCoord" : 0
                },
                "metallicFactor" : 0,
                "roughnessFactor" : 0.5
            }
        }
    ],
    "meshes" : [
        {
            "name" : "Cube.007",
            "primitives" : [
                {
                    "attributes" : {
                        "POSITION" : 0,
                        "NORMAL" : 1,
                        "TEXCOORD_0" : 2
                    },
                    "indices" : 3,
                    "material" : 0
                },
                {
                    "attributes" : {
                        "POSITION" : 4,
                        "NORMAL" : 5,
                        "TEXCOORD_0" : 6
                    },
                    "indices" : 7,
                    "material" : 1
                }
            ]
        }
    ],
    "textures" : [
        {
            "source" : 0
        },
        {
            "source" : 1
        },
        {
            "source" : 2
        },
        {
            "source" : 3
        },
        {
            "source" : 4
        }
    ],
    "images" : [
        {
            "mimeType" : "image/png",
            "name" : "towers2-cbj-NORMAL",
            "uri" : "towers2-cbj-NORMAL.png"
        },
        {
            "mimeType" : "image/png",
            "name" : "towers2-cbj-TEXTURE",
            "uri" : "towers2-cbj-TEXTURE.png"
        },
        {
            "mimeType" : "image/png",
            "name" : "towers2-cbj-AO",
            "uri" : "towers2-cbj-AO.png"
        },
        {
            "mimeType" : "image/png",
            "name" : "towers-cbj-NORMAL",
            "uri" : "towers-cbj-NORMAL.png"
        },
        {
            "mimeType" : "image/png",
            "name" : "towers-cbj-TEXTURE",
            "uri" : "towers-cbj-TEXTURE.png"
        }
    ],
    "accessors" : [
        {
            "bufferView" : 0,
            "componentType" : 5126,
            "count" : 102,
            "max" : [
                9.409957885742188,
                213.81378173828125,
                11.168344497680664
            ],
            "min" : [
                -8.49385929107666,
                43.604209899902344,
                -7.752378463745117
            ],
            "type" : "VEC3"
        },
        {
            "bufferView" : 1,
            "componentType" : 5126,
            "count" : 102,
            "type" : "VEC3"
        },
        {
            "bufferView" : 2,
            "componentType" : 5126,
            "count" : 102,
            "type" : "VEC2"
        },
        {
            "bufferView" : 3,
            "componentType" : 5123,
            "count" : 102,
            "type" : "SCALAR"
        },
        {
            "bufferView" : 4,
            "componentType" : 5126,
            "count" : 16,
            "max" : [
                2.4626128673553467,
                207.93492126464844,
                1.5311455726623535
            ],
            "min" : [
                -2.2560503482818604,
                0,
                -2.5553364753723145
            ],
            "type" : "VEC3"
        },
        {
            "bufferView" : 5,
            "componentType" : 5126,
            "count" : 16,
            "type" : "VEC3"
        },
        {
            "bufferView" : 6,
            "componentType" : 5126,
            "count" : 16,
            "type" : "VEC2"
        },
        {
            "bufferView" : 7,
            "componentType" : 5123,
            "count" : 24,
            "type" : "SCALAR"
        }
    ],
    "bufferViews" : [
        {
            "buffer" : 0,
            "byteLength" : 1224,
            "byteOffset" : 0
        },
        {
            "buffer" : 0,
            "byteLength" : 1224,
            "byteOffset" : 1224
        },
        {
            "buffer" : 0,
            "byteLength" : 816,
            "byteOffset" : 2448
        },
        {
            "buffer" : 0,
            "byteLength" : 204,
            "byteOffset" : 3264
        },
        {
            "buffer" : 0,
            "byteLength" : 192,
            "byteOffset" : 3468
        },
        {
            "buffer" : 0,
            "byteLength" : 192,
            "byteOffset" : 3660
        },
        {
            "buffer" : 0,
            "byteLength" : 128,
            "byteOffset" : 3852
        },
        {
            "buffer" : 0,
            "byteLength" : 48,
            "byteOffset" : 3980
        }
    ],
    "buffers" : [
        {
            "byteLength" : 4028,
            "uri" : "tower-radio-guy-207m-cbj_LOD06.bin"
        }
    ]
}
