{
    "asset" : {
        "extensions" : {
            "ASOBO_normal_map_convention" : {
                "tangent_space_convention" : "DirectX"
            }
        },
        "generator" : "Extended Khronos glTF Blender I/O v1.0.0",
        "version" : "2.0"
    },
    "extensionsUsed" : [
        "ASOBO_normal_map_convention",
        "ASOBO_macro_light",
        "ASOBO_material_draw_order"
    ],
    "scene" : 0,
    "scenes" : [
        {
            "extras" : {},
            "name" : "Scene",
            "nodes" : [
                0,
                1,
                2,
                3,
                4,
                5,
                6,
                7,
                8,
                9,
                10,
                11,
                12
            ]
        }
    ],
    "nodes" : [
        {
            "extensions" : {
                "ASOBO_macro_light" : {
                    "color" : [
                        1,
                        1,
                        1
                    ],
                    "intensity" : 50,
                    "cone_angle" : 360,
                    "has_simmetry" : false,
                    "flash_frequency" : 40,
                    "flash_duration" : 1.2000000476837158,
                    "flash_phase" : 0,
                    "rotation_speed" : 0,
                    "day_night_cycle" : true
                }
            },
            "extras" : {
                "msfs_light_flash_frequency" : 40,
                "msfs_light_flash_duration" : 1.2000000476837158,
                "msfs_light_flash_phase" : 0,
                "msfs_light_day_night_cycle" : 1
            },
            "name" : "Point.072",
            "rotation" : [
                0.7071067690849304,
                0,
                0,
                0.7071068286895752
            ],
            "translation" : [
                -3.1288866996765137,
                49.040985107421875,
                -1.985861897468567
            ]
        },
        {
            "extensions" : {
                "ASOBO_macro_light" : {
                    "color" : [
                        1,
                        1,
                        1
                    ],
                    "intensity" : 100,
                    "cone_angle" : 360,
                    "has_simmetry" : false,
                    "flash_frequency" : 40,
                    "flash_duration" : 1.2000000476837158,
                    "flash_phase" : 0,
                    "rotation_speed" : 0,
                    "day_night_cycle" : true
                }
            },
            "extras" : {
                "msfs_light_flash_frequency" : 40,
                "msfs_light_flash_duration" : 1.2000000476837158,
                "msfs_light_flash_phase" : 0,
                "msfs_light_day_night_cycle" : 1
            },
            "name" : "Point.071",
            "rotation" : [
                0.7071067690849304,
                0,
                0,
                0.7071068286895752
            ],
            "translation" : [
                -3.084104537963867,
                99.04098510742188,
                -1.575445532798767
            ]
        },
        {
            "extensions" : {
                "ASOBO_macro_light" : {
                    "color" : [
                        1,
                        1,
                        1
                    ],
                    "intensity" : 50,
                    "cone_angle" : 360,
                    "has_simmetry" : false,
                    "flash_frequency" : 40,
                    "flash_duration" : 1.2000000476837158,
                    "flash_phase" : 0,
                    "rotation_speed" : 0,
                    "day_night_cycle" : true
                }
            },
            "extras" : {
                "msfs_light_flash_frequency" : 40,
                "msfs_light_flash_duration" : 1.2000000476837158,
                "msfs_light_flash_phase" : 0,
                "msfs_light_day_night_cycle" : 1
            },
            "name" : "Point.070",
            "rotation" : [
                0.7071067690849304,
                0,
                0,
                0.7071068286895752
            ],
            "translation" : [
                2.3953893184661865,
                49.040985107421875,
                -2.20699405670166
            ]
        },
        {
            "extensions" : {
                "ASOBO_macro_light" : {
                    "color" : [
                        1,
                        1,
                        1
                    ],
                    "intensity" : 100,
                    "cone_angle" : 360,
                    "has_simmetry" : false,
                    "flash_frequency" : 40,
                    "flash_duration" : 1.2000000476837158,
                    "flash_phase" : 0,
                    "rotation_speed" : 0,
                    "day_night_cycle" : true
                }
            },
            "extras" : {
                "msfs_light_flash_frequency" : 40,
                "msfs_light_flash_duration" : 1.2000000476837158,
                "msfs_light_flash_phase" : 0,
                "msfs_light_day_night_cycle" : 1
            },
            "name" : "Point.069",
            "rotation" : [
                0.7071067690849304,
                0,
                0,
                0.7071068286895752
            ],
            "translation" : [
                2.4948227405548096,
                99.04098510742188,
                -1.62090003490448
            ]
        },
        {
            "extensions" : {
                "ASOBO_macro_light" : {
                    "color" : [
                        1,
                        1,
                        1
                    ],
                    "intensity" : 100,
                    "cone_angle" : 360,
                    "has_simmetry" : false,
                    "flash_frequency" : 40,
                    "flash_duration" : 1.2000000476837158,
                    "flash_phase" : 0,
                    "rotation_speed" : 0,
                    "day_night_cycle" : true
                }
            },
            "extras" : {
                "msfs_light_flash_frequency" : 40,
                "msfs_light_flash_duration" : 1.2000000476837158,
                "msfs_light_flash_phase" : 0,
                "msfs_light_day_night_cycle" : 1
            },
            "name" : "Point.068",
            "rotation" : [
                0.7071067690849304,
                0,
                0,
                0.7071068286895752
            ],
            "translation" : [
                -2.628187656402588,
                149.04098510742188,
                -1.4035471677780151
            ]
        },
        {
            "extensions" : {
                "ASOBO_macro_light" : {
                    "color" : [
                        1,
                        1,
                        1
                    ],
                    "intensity" : 100,
                    "cone_angle" : 360,
                    "has_simmetry" : false,
                    "flash_frequency" : 40,
                    "flash_duration" : 1.2000000476837158,
                    "flash_phase" : 0,
                    "rotation_speed" : 0,
                    "day_night_cycle" : true
                }
            },
            "extras" : {
                "msfs_light_flash_frequency" : 40,
                "msfs_light_flash_duration" : 1.2000000476837158,
                "msfs_light_flash_phase" : 0,
                "msfs_light_day_night_cycle" : 1
            },
            "name" : "Point.067",
            "rotation" : [
                0.7071067690849304,
                0,
                0,
                0.7071068286895752
            ],
            "translation" : [
                2.0841665267944336,
                149.04098510742188,
                -1.9065700769424438
            ]
        },
        {
            "extensions" : {
                "ASOBO_macro_light" : {
                    "color" : [
                        1,
                        1,
                        1
                    ],
                    "intensity" : 50,
                    "cone_angle" : 360,
                    "has_simmetry" : false,
                    "flash_frequency" : 40,
                    "flash_duration" : 1.2000000476837158,
                    "flash_phase" : 0,
                    "rotation_speed" : 0,
                    "day_night_cycle" : true
                }
            },
            "extras" : {
                "msfs_light_flash_frequency" : 40,
                "msfs_light_flash_duration" : 1.2000000476837158,
                "msfs_light_flash_phase" : 0,
                "msfs_light_day_night_cycle" : 1
            },
            "name" : "Point.066",
            "rotation" : [
                0.7071067690849304,
                0,
                0,
                0.7071068286895752
            ],
            "translation" : [
                -0.4194275736808777,
                49.040985107421875,
                3.2446272373199463
            ]
        },
        {
            "extensions" : {
                "ASOBO_macro_light" : {
                    "color" : [
                        1,
                        1,
                        1
                    ],
                    "intensity" : 100,
                    "cone_angle" : 360,
                    "has_simmetry" : false,
                    "flash_frequency" : 40,
                    "flash_duration" : 1.2000000476837158,
                    "flash_phase" : 0,
                    "rotation_speed" : 0,
                    "day_night_cycle" : true
                }
            },
            "extras" : {
                "msfs_light_flash_frequency" : 40,
                "msfs_light_flash_duration" : 1.2000000476837158,
                "msfs_light_flash_phase" : 0,
                "msfs_light_day_night_cycle" : 1
            },
            "name" : "Point.065",
            "rotation" : [
                0.7071067690849304,
                0,
                0,
                0.7071068286895752
            ],
            "translation" : [
                -0.6769459247589111,
                99.04098510742188,
                3.0854954719543457
            ]
        },
        {
            "extensions" : {
                "ASOBO_macro_light" : {
                    "color" : [
                        1,
                        1,
                        1
                    ],
                    "intensity" : 100,
                    "cone_angle" : 360,
                    "has_simmetry" : false,
                    "flash_frequency" : 40,
                    "flash_duration" : 1.2000000476837158,
                    "flash_phase" : 0,
                    "rotation_speed" : 0,
                    "day_night_cycle" : true
                }
            },
            "extras" : {
                "msfs_light_flash_frequency" : 40,
                "msfs_light_flash_duration" : 1.2000000476837158,
                "msfs_light_flash_phase" : 0,
                "msfs_light_day_night_cycle" : 1
            },
            "name" : "Point.064",
            "rotation" : [
                0.7071067690849304,
                0,
                0,
                0.7071068286895752
            ],
            "translation" : [
                0.3712739050388336,
                149.04098510742188,
                2.643777847290039
            ]
        },
        {
            "extensions" : {
                "ASOBO_macro_light" : {
                    "color" : [
                        1,
                        1,
                        1
                    ],
                    "intensity" : 200,
                    "cone_angle" : 360,
                    "has_simmetry" : false,
                    "flash_frequency" : 40,
                    "flash_duration" : 1.2000000476837158,
                    "flash_phase" : 0,
                    "rotation_speed" : 0,
                    "day_night_cycle" : true
                }
            },
            "extras" : {
                "msfs_light_flash_frequency" : 40,
                "msfs_light_flash_duration" : 1.2000000476837158,
                "msfs_light_flash_phase" : 0,
                "msfs_light_day_night_cycle" : 1
            },
            "name" : "Point.063",
            "rotation" : [
                0.7071067690849304,
                0,
                0,
                0.7071068286895752
            ],
            "translation" : [
                -0.401773601770401,
                208.9171600341797,
                0.8014563322067261
            ]
        },
        {
            "extensions" : {
                "ASOBO_macro_light" : {
                    "color" : [
                        1,
                        1,
                        1
                    ],
                    "intensity" : 200,
                    "cone_angle" : 360,
                    "has_simmetry" : false,
                    "flash_frequency" : 40,
                    "flash_duration" : 1.2000000476837158,
                    "flash_phase" : 0,
                    "rotation_speed" : 0,
                    "day_night_cycle" : true
                }
            },
            "extras" : {
                "msfs_light_flash_frequency" : 40,
                "msfs_light_flash_duration" : 1.2000000476837158,
                "msfs_light_flash_phase" : 0,
                "msfs_light_day_night_cycle" : 1
            },
            "name" : "Point.062",
            "rotation" : [
                0.7071067690849304,
                0,
                0,
                0.7071068286895752
            ],
            "translation" : [
                -0.9421821236610413,
                209.03994750976562,
                -0.40272071957588196
            ]
        },
        {
            "extensions" : {
                "ASOBO_macro_light" : {
                    "color" : [
                        1,
                        1,
                        1
                    ],
                    "intensity" : 200,
                    "cone_angle" : 360,
                    "has_simmetry" : false,
                    "flash_frequency" : 40,
                    "flash_duration" : 1.2000000476837158,
                    "flash_phase" : 0,
                    "rotation_speed" : 0,
                    "day_night_cycle" : true
                }
            },
            "extras" : {
                "msfs_light_flash_frequency" : 40,
                "msfs_light_flash_duration" : 1.2000000476837158,
                "msfs_light_flash_phase" : 0,
                "msfs_light_day_night_cycle" : 1
            },
            "name" : "Point.061",
            "rotation" : [
                0.7071067690849304,
                0,
                0,
                0.7071068286895752
            ],
            "translation" : [
                0.42039209604263306,
                209.00889587402344,
                -0.5613314509391785
            ]
        },
        {
            "mesh" : 0,
            "name" : "post.005"
        }
    ],
    "materials" : [
        {
            "emissiveFactor" : [
                0,
                0,
                0
            ],
            "extras" : {
                "msfs_material_mode" : 1,
                "msfs_albedo_texture" : {
                    "name" : "towers2-cbj-TEXTURE.png.005",
                    "type" : "Image"
                },
                "msfs_metallic_texture" : {
                    "name" : "towers2-cbj-AO.png.005",
                    "type" : "Image"
                },
                "msfs_normal_texture" : {
                    "name" : "towers2-cbj-NORMAL.png.005",
                    "type" : "Image"
                },
                "msfs_show_tint" : 1,
                "msfs_show_sss_color" : 0,
                "msfs_show_glass_parameters" : 0,
                "msfs_show_decal_parameters" : 0,
                "msfs_show_fresnel_parameters" : 0,
                "msfs_show_parallax_parameters" : 0,
                "msfs_show_geo_decal_parameters" : 0,
                "msfs_show_albedo" : 1,
                "msfs_show_metallic" : 1,
                "msfs_show_normal" : 1,
                "msfs_show_emissive" : 1,
                "msfs_show_detail_albedo" : 1,
                "msfs_show_detail_metallic" : 1,
                "msfs_show_detail_normal" : 1,
                "msfs_show_blend_mask" : 1,
                "msfs_show_anisotropic_direction" : 0,
                "msfs_show_clearcoat" : 0,
                "msfs_show_behind_glass" : 0,
                "msfs_show_blend_mode" : 1,
                "msfs_show_draworder" : 1,
                "msfs_show_no_cast_shadow" : 1,
                "msfs_show_double_sided" : 1,
                "msfs_show_responsive_aa" : 0,
                "msfs_show_day_night_cycle" : 1,
                "msfs_show_collision_material" : 1,
                "msfs_show_road_material" : 1,
                "msfs_show_ao_use_uv2" : 1,
                "msfs_show_uv_clamp" : 1,
                "msfs_show_alpha_cutoff" : 1,
                "msfs_show_blend_threshold" : 1
            },
            "name" : "tower-solid.005",
            "normalTexture" : {
                "index" : 0,
                "texCoord" : 0
            },
            "pbrMetallicRoughness" : {
                "baseColorTexture" : {
                    "index" : 1,
                    "texCoord" : 0
                },
                "metallicRoughnessTexture" : {
                    "index" : 2,
                    "texCoord" : 0
                }
            }
        },
        {
            "emissiveFactor" : [
                0,
                0,
                0
            ],
            "extensions" : {
                "ASOBO_material_draw_order" : {
                    "drawOrderOffset" : 3
                }
            },
            "extras" : {
                "msfs_material_mode" : 1,
                "msfs_albedo_texture" : {
                    "name" : "towers-cbj-TEXTURE.png.007",
                    "type" : "Image"
                },
                "msfs_normal_texture" : {
                    "name" : "towers-cbj-NORMAL.png.007",
                    "type" : "Image"
                },
                "msfs_show_tint" : 1,
                "msfs_show_sss_color" : 0,
                "msfs_show_glass_parameters" : 0,
                "msfs_show_decal_parameters" : 0,
                "msfs_show_fresnel_parameters" : 0,
                "msfs_show_parallax_parameters" : 0,
                "msfs_show_geo_decal_parameters" : 0,
                "msfs_show_albedo" : 1,
                "msfs_show_metallic" : 1,
                "msfs_show_normal" : 1,
                "msfs_show_emissive" : 1,
                "msfs_show_detail_albedo" : 1,
                "msfs_show_detail_metallic" : 1,
                "msfs_show_detail_normal" : 1,
                "msfs_show_blend_mask" : 1,
                "msfs_show_anisotropic_direction" : 0,
                "msfs_show_clearcoat" : 0,
                "msfs_show_behind_glass" : 0,
                "msfs_show_blend_mode" : 1,
                "msfs_show_draworder" : 1,
                "msfs_show_no_cast_shadow" : 1,
                "msfs_show_double_sided" : 1,
                "msfs_show_responsive_aa" : 0,
                "msfs_show_day_night_cycle" : 1,
                "msfs_show_collision_material" : 1,
                "msfs_show_road_material" : 1,
                "msfs_show_ao_use_uv2" : 1,
                "msfs_show_uv_clamp" : 1,
                "msfs_show_alpha_cutoff" : 1,
                "msfs_show_blend_threshold" : 1,
                "msfs_draw_order" : 3
            },
            "name" : "tower-opaque.002",
            "normalTexture" : {
                "index" : 3,
                "texCoord" : 0
            },
            "pbrMetallicRoughness" : {
                "baseColorTexture" : {
                    "index" : 4,
                    "texCoord" : 0
                },
                "metallicFactor" : 0,
                "roughnessFactor" : 0.5
            }
        }
    ],
    "meshes" : [
        {
            "name" : "Cube.008",
            "primitives" : [
                {
                    "attributes" : {
                        "POSITION" : 0,
                        "NORMAL" : 1,
                        "TEXCOORD_0" : 2
                    },
                    "indices" : 3,
                    "material" : 0
                },
                {
                    "attributes" : {
                        "POSITION" : 4,
                        "NORMAL" : 5,
                        "TEXCOORD_0" : 6
                    },
                    "indices" : 7,
                    "material" : 1
                }
            ]
        }
    ],
    "textures" : [
        {
            "source" : 0
        },
        {
            "source" : 1
        },
        {
            "source" : 2
        },
        {
            "source" : 3
        },
        {
            "source" : 4
        }
    ],
    "images" : [
        {
            "mimeType" : "image/png",
            "name" : "towers2-cbj-NORMAL",
            "uri" : "towers2-cbj-NORMAL.png"
        },
        {
            "mimeType" : "image/png",
            "name" : "towers2-cbj-TEXTURE",
            "uri" : "towers2-cbj-TEXTURE.png"
        },
        {
            "mimeType" : "image/png",
            "name" : "towers2-cbj-AO",
            "uri" : "towers2-cbj-AO.png"
        },
        {
            "mimeType" : "image/png",
            "name" : "towers-cbj-NORMAL",
            "uri" : "towers-cbj-NORMAL.png"
        },
        {
            "mimeType" : "image/png",
            "name" : "towers-cbj-TEXTURE",
            "uri" : "towers-cbj-TEXTURE.png"
        }
    ],
    "accessors" : [
        {
            "bufferView" : 0,
            "componentType" : 5126,
            "count" : 102,
            "max" : [
                5.995522499084473,
                211.7685089111328,
                8.158172607421875
            ],
            "min" : [
                -6.076258659362793,
                45.21586227416992,
                -6.076167583465576
            ],
            "type" : "VEC3"
        },
        {
            "bufferView" : 1,
            "componentType" : 5126,
            "count" : 102,
            "type" : "VEC3"
        },
        {
            "bufferView" : 2,
            "componentType" : 5126,
            "count" : 102,
            "type" : "VEC2"
        },
        {
            "bufferView" : 3,
            "componentType" : 5123,
            "count" : 102,
            "type" : "SCALAR"
        },
        {
            "bufferView" : 4,
            "componentType" : 5126,
            "count" : 16,
            "max" : [
                2.0693907737731934,
                207.93492126464844,
                1.1906055212020874
            ],
            "min" : [
                -1.8628283739089966,
                0,
                -2.214796304702759
            ],
            "type" : "VEC3"
        },
        {
            "bufferView" : 5,
            "componentType" : 5126,
            "count" : 16,
            "type" : "VEC3"
        },
        {
            "bufferView" : 6,
            "componentType" : 5126,
            "count" : 16,
            "type" : "VEC2"
        },
        {
            "bufferView" : 7,
            "componentType" : 5123,
            "count" : 24,
            "type" : "SCALAR"
        }
    ],
    "bufferViews" : [
        {
            "buffer" : 0,
            "byteLength" : 1224,
            "byteOffset" : 0
        },
        {
            "buffer" : 0,
            "byteLength" : 1224,
            "byteOffset" : 1224
        },
        {
            "buffer" : 0,
            "byteLength" : 816,
            "byteOffset" : 2448
        },
        {
            "buffer" : 0,
            "byteLength" : 204,
            "byteOffset" : 3264
        },
        {
            "buffer" : 0,
            "byteLength" : 192,
            "byteOffset" : 3468
        },
        {
            "buffer" : 0,
            "byteLength" : 192,
            "byteOffset" : 3660
        },
        {
            "buffer" : 0,
            "byteLength" : 128,
            "byteOffset" : 3852
        },
        {
            "buffer" : 0,
            "byteLength" : 48,
            "byteOffset" : 3980
        }
    ],
    "buffers" : [
        {
            "byteLength" : 4028,
            "uri" : "tower-radio-guy-207m-cbj_LOD05.bin"
        }
    ]
}
