{
    "asset" : {
        "extensions" : {
            "ASOBO_normal_map_convention" : {
                "tangent_space_convention" : "DirectX"
            }
        },
        "generator" : "Extended Khronos glTF Blender I/O v1.0.0",
        "version" : "2.0"
    },
    "extensionsUsed" : [
        "ASOBO_normal_map_convention",
        "ASOBO_material_invisible",
        "ASOBO_macro_light"
    ],
    "scene" : 0,
    "scenes" : [
        {
            "extras" : {},
            "name" : "Scene",
            "nodes" : [
                0,
                1,
                2,
                3,
                4,
                5,
                6,
                7
            ]
        }
    ],
    "nodes" : [
        {
            "mesh" : 0,
            "name" : "night.001"
        },
        {
            "extensions" : {
                "ASOBO_macro_light" : {
                    "color" : [
                        1,
                        0,
                        0
                    ],
                    "intensity" : 67,
                    "cone_angle" : 69.99999967119774,
                    "has_simmetry" : false,
                    "flash_frequency" : 0,
                    "flash_duration" : 0,
                    "flash_phase" : 0,
                    "rotation_speed" : 0,
                    "day_night_cycle" : true
                }
            },
            "extras" : {
                "msfs_light_flash_frequency" : 0,
                "msfs_light_flash_duration" : 0,
                "msfs_light_day_night_cycle" : 1,
                "msfs_light_has_symmetry" : 0
            },
            "name" : "Point.031",
            "rotation" : [
                0,
                0.9764364361763,
                0.21580520272254944,
                -1.0750825367722427e-06
            ],
            "scale" : [
                11.304018020629883,
                14.932729721069336,
                9.066224098205566
            ],
            "translation" : [
                0.002318732673302293,
                0.1666117161512375,
                3.680712938308716
            ]
        },
        {
            "extensions" : {
                "ASOBO_macro_light" : {
                    "color" : [
                        1,
                        0.0008177325944416225,
                        0.00200350908562541
                    ],
                    "intensity" : 5,
                    "cone_angle" : 84.99999667351618,
                    "has_simmetry" : false,
                    "flash_frequency" : 0,
                    "flash_duration" : 0,
                    "flash_phase" : 0,
                    "rotation_speed" : 0,
                    "day_night_cycle" : true
                }
            },
            "extras" : {
                "msfs_light_flash_frequency" : 0,
                "msfs_light_flash_duration" : 0,
                "msfs_light_day_night_cycle" : 1,
                "msfs_light_has_symmetry" : 0
            },
            "name" : "Spot.004",
            "rotation" : [
                0.7050945162773132,
                -0.0030370629392564297,
                -0.0030370631720870733,
                0.7091003656387329
            ],
            "scale" : [
                1.6899998188018799,
                1.6899998188018799,
                1.6899998188018799
            ],
            "translation" : [
                0,
                9.505781173706055,
                0
            ]
        },
        {
            "extensions" : {
                "ASOBO_macro_light" : {
                    "color" : [
                        1,
                        0,
                        0
                    ],
                    "intensity" : 67,
                    "cone_angle" : 69.99999967119774,
                    "has_simmetry" : false,
                    "flash_frequency" : 0,
                    "flash_duration" : 0,
                    "flash_phase" : 0,
                    "rotation_speed" : 0,
                    "day_night_cycle" : true
                }
            },
            "extras" : {
                "msfs_light_flash_frequency" : 0,
                "msfs_light_flash_duration" : 0,
                "msfs_light_day_night_cycle" : 1,
                "msfs_light_has_symmetry" : 0
            },
            "name" : "Point.012",
            "rotation" : [
                0.10790291428565979,
                0.8456181287765503,
                0.18689268827438354,
                -0.4882192611694336
            ],
            "scale" : [
                11.304018020629883,
                14.932729721069336,
                9.066224098205566
            ],
            "translation" : [
                3.1887505054473877,
                0.1666117161512375,
                1.8383482694625854
            ]
        },
        {
            "extensions" : {
                "ASOBO_macro_light" : {
                    "color" : [
                        1,
                        0,
                        0
                    ],
                    "intensity" : 67,
                    "cone_angle" : 69.99999967119774,
                    "has_simmetry" : false,
                    "flash_frequency" : 0,
                    "flash_duration" : 0,
                    "flash_phase" : 0,
                    "rotation_speed" : 0,
                    "day_night_cycle" : true
                }
            },
            "extras" : {
                "msfs_light_flash_frequency" : 0,
                "msfs_light_flash_duration" : 0,
                "msfs_light_day_night_cycle" : 1,
                "msfs_light_has_symmetry" : 0
            },
            "name" : "Point.013",
            "rotation" : [
                0.18689298629760742,
                0.4882170557975769,
                0.10790231823921204,
                -0.8456194400787354
            ],
            "scale" : [
                11.304018020629883,
                14.932729721069336,
                9.066224098205566
            ],
            "translation" : [
                3.186431407928467,
                0.1666117161512375,
                -1.8423649072647095
            ]
        },
        {
            "extensions" : {
                "ASOBO_macro_light" : {
                    "color" : [
                        1,
                        0,
                        0
                    ],
                    "intensity" : 67,
                    "cone_angle" : 69.99999967119774,
                    "has_simmetry" : false,
                    "flash_frequency" : 0,
                    "flash_duration" : 0,
                    "flash_phase" : 0,
                    "rotation_speed" : 0,
                    "day_night_cycle" : true
                }
            },
            "extras" : {
                "msfs_light_flash_frequency" : 0,
                "msfs_light_flash_duration" : 0,
                "msfs_light_day_night_cycle" : 1,
                "msfs_light_has_symmetry" : 0
            },
            "name" : "Point.014",
            "rotation" : [
                0.21580520272254944,
                0,
                0,
                -0.9764364361763
            ],
            "scale" : [
                11.304018020629883,
                14.932729721069336,
                9.066224098205566
            ],
            "translation" : [
                -0.0023193359375,
                0.1666117161512375,
                -3.680713176727295
            ]
        },
        {
            "extensions" : {
                "ASOBO_macro_light" : {
                    "color" : [
                        1,
                        0,
                        0
                    ],
                    "intensity" : 67,
                    "cone_angle" : 69.99999967119774,
                    "has_simmetry" : false,
                    "flash_frequency" : 0,
                    "flash_duration" : 0,
                    "flash_phase" : 0,
                    "rotation_speed" : 0,
                    "day_night_cycle" : true
                }
            },
            "extras" : {
                "msfs_light_flash_frequency" : 0,
                "msfs_light_flash_duration" : 0,
                "msfs_light_day_night_cycle" : 1,
                "msfs_light_has_symmetry" : 0
            },
            "name" : "Point.030",
            "rotation" : [
                0.18689262866973877,
                -0.48821961879730225,
                -0.10790298879146576,
                -0.8456180095672607
            ],
            "scale" : [
                11.304018020629883,
                14.932729721069336,
                9.066224098205566
            ],
            "translation" : [
                -3.188750982284546,
                0.1666117161512375,
                -1.8383479118347168
            ]
        },
        {
            "extensions" : {
                "ASOBO_macro_light" : {
                    "color" : [
                        1,
                        0,
                        0
                    ],
                    "intensity" : 67,
                    "cone_angle" : 69.99999967119774,
                    "has_simmetry" : false,
                    "flash_frequency" : 0,
                    "flash_duration" : 0,
                    "flash_phase" : 0,
                    "rotation_speed" : 0,
                    "day_night_cycle" : true
                }
            },
            "extras" : {
                "msfs_light_flash_frequency" : 0,
                "msfs_light_flash_duration" : 0,
                "msfs_light_day_night_cycle" : 1,
                "msfs_light_has_symmetry" : 0
            },
            "name" : "Point.032",
            "rotation" : [
                0.1079021692276001,
                -0.8456196784973145,
                -0.1868930459022522,
                -0.4882165193557739
            ],
            "scale" : [
                11.304018020629883,
                14.932729721069336,
                9.066224098205566
            ],
            "translation" : [
                -3.186431407928467,
                0.1666117161512375,
                1.8423655033111572
            ]
        }
    ],
    "materials" : [
        {
            "emissiveFactor" : [
                0,
                0,
                0
            ],
            "emissiveTexture" : {
                "index" : 0,
                "texCoord" : 0
            },
            "extras" : {
                "msfs_material_mode" : 1,
                "msfs_albedo_texture" : {
                    "name" : "gable_color_msfs.png.004",
                    "type" : "Image"
                },
                "msfs_emissive_texture" : {
                    "name" : "gable_color_msfs.png.004",
                    "type" : "Image"
                },
                "msfs_show_tint" : 1,
                "msfs_show_sss_color" : 0,
                "msfs_show_glass_parameters" : 0,
                "msfs_show_decal_parameters" : 0,
                "msfs_show_fresnel_parameters" : 0,
                "msfs_show_parallax_parameters" : 0,
                "msfs_show_geo_decal_parameters" : 0,
                "msfs_show_albedo" : 1,
                "msfs_show_metallic" : 1,
                "msfs_show_normal" : 1,
                "msfs_show_emissive" : 1,
                "msfs_show_detail_albedo" : 1,
                "msfs_show_detail_metallic" : 1,
                "msfs_show_detail_normal" : 1,
                "msfs_show_blend_mask" : 1,
                "msfs_show_anisotropic_direction" : 0,
                "msfs_show_clearcoat" : 0,
                "msfs_show_behind_glass" : 0,
                "msfs_show_blend_mode" : 1,
                "msfs_show_draworder" : 1,
                "msfs_show_no_cast_shadow" : 1,
                "msfs_show_double_sided" : 1,
                "msfs_show_responsive_aa" : 0,
                "msfs_show_day_night_cycle" : 1,
                "msfs_show_collision_material" : 1,
                "msfs_show_road_material" : 1,
                "msfs_show_ao_use_uv2" : 1,
                "msfs_show_uv_clamp" : 1,
                "msfs_show_alpha_cutoff" : 1,
                "msfs_show_blend_threshold" : 1
            },
            "name" : "light-material.004",
            "pbrMetallicRoughness" : {
                "baseColorTexture" : {
                    "index" : 1,
                    "texCoord" : 0
                },
                "metallicFactor" : 0,
                "roughnessFactor" : 0.5
            }
        },
        {
            "alphaMode" : "BLEND",
            "emissiveFactor" : [
                0,
                0,
                0
            ],
            "extensions" : {
                "ASOBO_material_invisible" : {
                    "enabled" : true
                }
            },
            "extras" : {
                "msfs_material_mode" : 15,
                "msfs_show_tint" : 0,
                "msfs_show_sss_color" : 0,
                "msfs_show_glass_parameters" : 0,
                "msfs_show_decal_parameters" : 0,
                "msfs_show_fresnel_parameters" : 0,
                "msfs_show_parallax_parameters" : 0,
                "msfs_show_geo_decal_parameters" : 0,
                "msfs_show_albedo" : 0,
                "msfs_show_metallic" : 0,
                "msfs_show_normal" : 0,
                "msfs_show_emissive" : 0,
                "msfs_show_detail_albedo" : 0,
                "msfs_show_detail_metallic" : 0,
                "msfs_show_detail_normal" : 0,
                "msfs_show_blend_mask" : 0,
                "msfs_show_anisotropic_direction" : 0,
                "msfs_show_clearcoat" : 0,
                "msfs_show_behind_glass" : 0,
                "msfs_show_blend_mode" : 0,
                "msfs_show_draworder" : 0,
                "msfs_show_no_cast_shadow" : 0,
                "msfs_show_double_sided" : 0,
                "msfs_show_responsive_aa" : 0,
                "msfs_show_day_night_cycle" : 0,
                "msfs_show_collision_material" : 1,
                "msfs_show_road_material" : 1,
                "msfs_show_ao_use_uv2" : 0,
                "msfs_show_uv_clamp" : 1,
                "msfs_show_alpha_cutoff" : 0,
                "msfs_show_blend_threshold" : 0
            },
            "name" : "invisible4",
            "pbrMetallicRoughness" : {
                "baseColorFactor" : [
                    0.963880717754364,
                    0,
                    0,
                    0
                ],
                "metallicFactor" : 0,
                "roughnessFactor" : 0.5
            }
        }
    ],
    "meshes" : [
        {
            "name" : "Cube.004",
            "primitives" : [
                {
                    "attributes" : {
                        "POSITION" : 0,
                        "NORMAL" : 1,
                        "TEXCOORD_0" : 2
                    },
                    "indices" : 3,
                    "material" : 0
                },
                {
                    "attributes" : {
                        "POSITION" : 4,
                        "NORMAL" : 5,
                        "TEXCOORD_0" : 6
                    },
                    "indices" : 7,
                    "material" : 1
                }
            ]
        }
    ],
    "textures" : [
        {
            "source" : 0
        },
        {
            "source" : 0
        }
    ],
    "images" : [
        {
            "mimeType" : "image/png",
            "name" : "gable_color_msfs",
            "uri" : "gable_color_msfs.png"
        }
    ],
    "accessors" : [
        {
            "bufferView" : 0,
            "componentType" : 5126,
            "count" : 15,
            "max" : [
                1.0392305850982666,
                2.716003179550171,
                1.2000000476837158
            ],
            "min" : [
                -1.0392305850982666,
                0.31600287556648254,
                -0.6000000238418579
            ],
            "type" : "VEC3"
        },
        {
            "bufferView" : 1,
            "componentType" : 5126,
            "count" : 15,
            "type" : "VEC3"
        },
        {
            "bufferView" : 2,
            "componentType" : 5126,
            "count" : 15,
            "type" : "VEC2"
        },
        {
            "bufferView" : 3,
            "componentType" : 5123,
            "count" : 21,
            "type" : "SCALAR"
        },
        {
            "bufferView" : 4,
            "componentType" : 5126,
            "count" : 3,
            "max" : [
                15.529801368713379,
                -13.022872924804688,
                11.726059913635254
            ],
            "min" : [
                -7.92232084274292,
                -13.022872924804688,
                -11.726059913635254
            ],
            "type" : "VEC3"
        },
        {
            "bufferView" : 5,
            "componentType" : 5126,
            "count" : 3,
            "type" : "VEC3"
        },
        {
            "bufferView" : 6,
            "componentType" : 5126,
            "count" : 3,
            "type" : "VEC2"
        },
        {
            "bufferView" : 7,
            "componentType" : 5123,
            "count" : 3,
            "type" : "SCALAR"
        }
    ],
    "bufferViews" : [
        {
            "buffer" : 0,
            "byteLength" : 180,
            "byteOffset" : 0
        },
        {
            "buffer" : 0,
            "byteLength" : 180,
            "byteOffset" : 180
        },
        {
            "buffer" : 0,
            "byteLength" : 120,
            "byteOffset" : 360
        },
        {
            "buffer" : 0,
            "byteLength" : 42,
            "byteOffset" : 480
        },
        {
            "buffer" : 0,
            "byteLength" : 36,
            "byteOffset" : 524
        },
        {
            "buffer" : 0,
            "byteLength" : 36,
            "byteOffset" : 560
        },
        {
            "buffer" : 0,
            "byteLength" : 24,
            "byteOffset" : 596
        },
        {
            "buffer" : 0,
            "byteLength" : 6,
            "byteOffset" : 620
        }
    ],
    "buffers" : [
        {
            "byteLength" : 628,
            "uri" : "obstacle-light-steady-red-cbj_LOD04.bin"
        }
    ]
}
