{"asset":{"version":"2.0","generator":"babylon.js glTF exporter for 3dsmax 2019 v1.5.0","extensions":{"ASOBO_normal_map_convention":{"tangent_space_convention":"DirectX"}}},"extensionsUsed":["ASOBO_normal_map_convention"],"scene":0,"scenes":[{"nodes":[0],"extensions":{}}],"nodes":[{"children":[1,2],"translation":[0.0,0.03,0.875000656],"rotation":[0.0,0.0,0.0,1.0],"scale":[1.0,1.0,1.0],"name":"tee"},{"mesh":0,"translation":[0.0,-0.03,0.224999249],"rotation":[0.0,0.7071068,0.0,0.7071067],"scale":[1.0,1.0,1.0],"name":"Box002"},{"mesh":1,"translation":[0.0,-0.03,-1.97499919],"rotation":[0.0,0.0,0.0,1.0],"scale":[1.0,1.0,1.0],"name":"Box001"}],"meshes":[{"primitives":[{"attributes":{"POSITION":1,"NORMAL":2,"TEXCOORD_0":3},"indices":0,"mode":4,"material":0}],"name":"Box002"},{"primitives":[{"attributes":{"POSITION":5,"NORMAL":6,"TEXCOORD_0":7},"indices":4,"mode":4,"material":0}],"name":"Box001"}],"accessors":[{"bufferView":0,"componentType":5123,"count":36,"type":"SCALAR","name":"accessorIndices"},{"bufferView":1,"componentType":5126,"count":36,"max":[2.1,0.06,0.35],"min":[-2.1,0.0,-0.35],"type":"VEC3","name":"accessorPositions"},{"bufferView":1,"byteOffset":432,"componentType":5126,"count":36,"type":"VEC3","name":"accessorNormals"},{"bufferView":2,"componentType":5126,"count":36,"type":"VEC2","name":"accessorUVs"},{"bufferView":0,"byteOffset":72,"componentType":5123,"count":36,"type":"SCALAR","name":"accessorIndices"},{"bufferView":1,"byteOffset":864,"componentType":5126,"count":36,"max":[2.1,0.06,0.35],"min":[-2.1,0.0,-0.35],"type":"VEC3","name":"accessorPositions"},{"bufferView":1,"byteOffset":1296,"componentType":5126,"count":36,"type":"VEC3","name":"accessorNormals"},{"bufferView":2,"byteOffset":288,"componentType":5126,"count":36,"type":"VEC2","name":"accessorUVs"},{"bufferView":3,"componentType":5126,"count":2,"max":[0.0333333351],"min":[0.0],"type":"SCALAR","name":"accessorAnimationInput"},{"bufferView":4,"componentType":5126,"count":2,"type":"VEC4","name":"accessorAnimationRotations"},{"bufferView":3,"byteOffset":8,"componentType":5126,"count":2,"max":[0.0333333351],"min":[0.0],"type":"SCALAR","name":"accessorAnimationInput"},{"bufferView":4,"byteOffset":32,"componentType":5126,"count":2,"type":"VEC4","name":"accessorAnimationRotations"}],"bufferViews":[{"buffer":0,"byteLength":144,"name":"bufferViewScalar"},{"buffer":0,"byteOffset":144,"byteLength":1728,"byteStride":12,"name":"bufferViewFloatVec3"},{"buffer":0,"byteOffset":1872,"byteLength":576,"byteStride":8,"name":"bufferViewFloatVec2"},{"buffer":0,"byteOffset":2448,"byteLength":16,"name":"bufferViewAnimationFloatScalar"},{"buffer":0,"byteOffset":2464,"byteLength":64,"name":"bufferViewAnimationFloatVec4"}],"buffers":[{"uri":"LSZI-tee.bin","byteLength":2528}],"materials":[{"pbrMetallicRoughness":{"baseColorFactor":[0.9640288,0.9640288,0.9640288,1.0],"metallicFactor":0.0,"roughnessFactor":0.7},"emissiveFactor":[0.0,0.0,0.0],"alphaMode":"OPAQUE","name":"Material #25"}],"animations":[{"channels":[{"sampler":0,"target":{"node":1,"path":"rotation"}},{"sampler":1,"target":{"node":2,"path":"rotation"}}],"samplers":[{"input":8,"interpolation":"LINEAR","output":9},{"input":10,"interpolation":"LINEAR","output":11}],"name":"flip"}]}