{
    "asset" : {
        "extensions" : {
            "ASOBO_normal_map_convention" : {
                "tangent_space_convention" : "DirectX"
            }
        },
        "generator" : "Extended Khronos glTF Blender I/O v1.0.0",
        "version" : "2.0"
    },
    "extensionsUsed" : [
        "ASOBO_normal_map_convention",
        "ASOBO_tags"
    ],
    "scene" : 0,
    "scenes" : [
        {
            "name" : "Scene",
            "nodes" : [
                0,
                1,
                2
            ]
        }
    ],
    "nodes" : [
        {
            "mesh" : 0,
            "name" : "Fenctube.001"
        },
        {
            "mesh" : 1,
            "name" : "Fenc.001"
        },
        {
            "mesh" : 2,
            "name" : "Fenc.002"
        }
    ],
    "materials" : [
        {
            "alphaMode" : "BLEND",
            "emissiveFactor" : [
                0,
                0,
                0
            ],
            "extensions" : {
                "ASOBO_tags" : {
                    "tags" : [
                        "Road"
                    ]
                }
            },
            "name" : "Material",
            "pbrMetallicRoughness" : {
                "baseColorTexture" : {
                    "index" : 0,
                    "texCoord" : 0
                },
                "metallicFactor" : 0,
                "roughnessFactor" : 0.5
            }
        },
        {
            "alphaMode" : "BLEND",
            "doubleSided" : true,
            "emissiveFactor" : [
                0,
                0,
                0
            ],
            "emissiveTexture" : {
                "index" : 1,
                "texCoord" : 0
            },
            "extensions" : {
                "ASOBO_tags" : {
                    "tags" : [
                        "Road"
                    ]
                }
            },
            "name" : "fence",
            "normalTexture" : {
                "index" : 2,
                "scale" : 10.510000228881836,
                "texCoord" : 0
            },
            "occlusionTexture" : {
                "index" : 3,
                "texCoord" : 0
            },
            "pbrMetallicRoughness" : {
                "baseColorTexture" : {
                    "index" : 4,
                    "texCoord" : 0
                },
                "metallicRoughnessTexture" : {
                    "index" : 3,
                    "texCoord" : 0
                }
            }
        }
    ],
    "meshes" : [
        {
            "name" : "Cube.001",
            "primitives" : [
                {
                    "attributes" : {
                        "POSITION" : 0,
                        "NORMAL" : 1,
                        "TEXCOORD_0" : 2
                    },
                    "indices" : 3,
                    "material" : 0
                }
            ]
        },
        {
            "name" : "Plane.001",
            "primitives" : [
                {
                    "attributes" : {
                        "POSITION" : 4,
                        "NORMAL" : 5,
                        "TEXCOORD_0" : 6
                    },
                    "indices" : 7,
                    "material" : 1
                }
            ]
        },
        {
            "name" : "Plane.002",
            "primitives" : [
                {
                    "attributes" : {
                        "POSITION" : 8,
                        "NORMAL" : 9,
                        "TEXCOORD_0" : 10
                    },
                    "indices" : 11,
                    "material" : 1
                }
            ]
        }
    ],
    "textures" : [
        {
            "source" : 0
        },
        {
            "source" : 1
        },
        {
            "source" : 2
        },
        {
            "source" : 3
        },
        {
            "source" : 4
        }
    ],
    "images" : [
        {
            "mimeType" : "image/png",
            "name" : "MetalSpottyDiscoloration001_DISP_1K_SPECULAR",
            "uri" : "MetalSpottyDiscoloration001_DISP_1K_SPECULAR.png"
        },
        {
            "mimeType" : "image/png",
            "name" : "TexturesCom_Metal_WireFence__Clean_1K_roughness",
            "uri" : "TexturesCom_Metal_WireFence__Clean_1K_roughness.png"
        },
        {
            "mimeType" : "image/png",
            "name" : "TexturesCom_Metal_WireFence__Clean_1K_normal",
            "uri" : "TexturesCom_Metal_WireFence__Clean_1K_normal.png"
        },
        {
            "mimeType" : "image/png",
            "name" : "TexturesCom_Metal_WireFence__Clean_1K_metallic",
            "uri" : "TexturesCom_Metal_WireFence__Clean_1K_metallic.png"
        },
        {
            "mimeType" : "image/png",
            "name" : "TexturesCom_Metal_WireFence__Clean_1K_albedo",
            "uri" : "TexturesCom_Metal_WireFence__Clean_1K_albedo.png"
        }
    ],
    "accessors" : [
        {
            "bufferView" : 0,
            "componentType" : 5126,
            "count" : 92,
            "max" : [
                0.0353553406894207,
                2.772740125656128,
                -3.524512529373169
            ],
            "min" : [
                -0.37548765540122986,
                0.09916679561138153,
                -3.9353554248809814
            ],
            "type" : "VEC3"
        },
        {
            "bufferView" : 1,
            "componentType" : 5126,
            "count" : 92,
            "type" : "VEC3"
        },
        {
            "bufferView" : 2,
            "componentType" : 5126,
            "count" : 92,
            "type" : "VEC2"
        },
        {
            "bufferView" : 3,
            "componentType" : 5123,
            "count" : 144,
            "type" : "SCALAR"
        },
        {
            "bufferView" : 4,
            "componentType" : 5126,
            "count" : 16,
            "max" : [
                6.99671716120065e-08,
                2.746367931365967,
                -0.018082141876220703
            ],
            "min" : [
                -0.33728107810020447,
                0.09916683286428452,
                -3.86464524269104
            ],
            "type" : "VEC3"
        },
        {
            "bufferView" : 5,
            "componentType" : 5126,
            "count" : 16,
            "type" : "VEC3"
        },
        {
            "bufferView" : 6,
            "componentType" : 5126,
            "count" : 16,
            "type" : "VEC2"
        },
        {
            "bufferView" : 7,
            "componentType" : 5123,
            "count" : 24,
            "type" : "SCALAR"
        },
        {
            "bufferView" : 8,
            "componentType" : 5126,
            "count" : 16,
            "max" : [
                0,
                2.722773551940918,
                -3.603905439376831
            ],
            "min" : [
                -3.9000003337860107,
                0.09916651248931885,
                -3.9353554248809814
            ],
            "type" : "VEC3"
        },
        {
            "bufferView" : 9,
            "componentType" : 5126,
            "count" : 16,
            "type" : "VEC3"
        },
        {
            "bufferView" : 10,
            "componentType" : 5126,
            "count" : 16,
            "type" : "VEC2"
        },
        {
            "bufferView" : 11,
            "componentType" : 5123,
            "count" : 24,
            "type" : "SCALAR"
        }
    ],
    "bufferViews" : [
        {
            "buffer" : 0,
            "byteLength" : 1104,
            "byteOffset" : 0
        },
        {
            "buffer" : 0,
            "byteLength" : 1104,
            "byteOffset" : 1104
        },
        {
            "buffer" : 0,
            "byteLength" : 736,
            "byteOffset" : 2208
        },
        {
            "buffer" : 0,
            "byteLength" : 288,
            "byteOffset" : 2944
        },
        {
            "buffer" : 0,
            "byteLength" : 192,
            "byteOffset" : 3232
        },
        {
            "buffer" : 0,
            "byteLength" : 192,
            "byteOffset" : 3424
        },
        {
            "buffer" : 0,
            "byteLength" : 128,
            "byteOffset" : 3616
        },
        {
            "buffer" : 0,
            "byteLength" : 48,
            "byteOffset" : 3744
        },
        {
            "buffer" : 0,
            "byteLength" : 192,
            "byteOffset" : 3792
        },
        {
            "buffer" : 0,
            "byteLength" : 192,
            "byteOffset" : 3984
        },
        {
            "buffer" : 0,
            "byteLength" : 128,
            "byteOffset" : 4176
        },
        {
            "buffer" : 0,
            "byteLength" : 48,
            "byteOffset" : 4304
        }
    ],
    "buffers" : [
        {
            "byteLength" : 4352,
            "uri" : "lszf-fence-high-corner.bin"
        }
    ]
}
