{"asset":{"version":"2.0","generator":"babylon.js glTF exporter for 3dsmax 2021 v1.0.7978.30147","extensions":{"ASOBO_normal_map_convention":{"tangent_space_convention":"DirectX"}}},"extensionsUsed":["ASOBO_normal_map_convention"],"scene":0,"scenes":[{"nodes":[0]}],"nodes":[{"children":[1,2,3],"translation":[0.0,0.0,3.77185643E-08],"name":"marker1_white_LOD0"},{"mesh":0,"translation":[0.24,-8.0,-3.77185643E-08],"name":"leg1"},{"mesh":0,"translation":[-0.24,-8.0,-3.77185643E-08],"name":"leg2"},{"mesh":1,"translation":[0.0,0.0,-3.77185643E-08],"rotation":[0.7071068,0.0,0.0,0.7071067],"name":"head"}],"meshes":[{"primitives":[{"attributes":{"POSITION":1,"NORMAL":2,"TEXCOORD_0":3},"indices":0,"mode":4,"material":0}],"name":"leg1"},{"primitives":[{"attributes":{"POSITION":5,"NORMAL":6,"TEXCOORD_0":7},"indices":4,"mode":4,"material":0}],"name":"head"}],"accessors":[{"bufferView":0,"componentType":5123,"count":96,"type":"SCALAR","name":"accessorIndices"},{"bufferView":1,"componentType":5126,"count":36,"max":[0.01,8.05,0.01],"min":[-0.01,0.0,-0.01],"type":"VEC3","name":"accessorPositions"},{"bufferView":1,"byteOffset":432,"componentType":5126,"count":36,"type":"VEC3","name":"accessorNormals"},{"bufferView":2,"componentType":5126,"count":36,"type":"VEC2","name":"accessorUVs"},{"bufferView":0,"byteOffset":192,"componentType":5123,"count":744,"type":"SCALAR","name":"accessorIndices"},{"bufferView":1,"byteOffset":864,"componentType":5126,"count":182,"max":[0.2500319,0.0100001208,-0.0500000119],"min":[-0.2500319,-0.0100001255,-0.450031936],"type":"VEC3","name":"accessorPositions"},{"bufferView":1,"byteOffset":3048,"componentType":5126,"count":182,"type":"VEC3","name":"accessorNormals"},{"bufferView":2,"byteOffset":288,"componentType":5126,"count":182,"type":"VEC2","name":"accessorUVs"}],"bufferViews":[{"buffer":0,"byteLength":1680,"name":"bufferViewScalar"},{"buffer":0,"byteOffset":1680,"byteLength":5232,"byteStride":12,"name":"bufferViewFloatVec3"},{"buffer":0,"byteOffset":6912,"byteLength":1744,"byteStride":8,"name":"bufferViewFloatVec2"}],"buffers":[{"uri":"marker1_white_LOD0.bin","byteLength":8656}],"materials":[{"pbrMetallicRoughness":{"metallicFactor":0.1,"roughnessFactor":0.8},"name":"White plastic"}]}