{
    "asset" : {
        "extensions" : {
            "ASOBO_normal_map_convention" : {
                "tangent_space_convention" : "DirectX"
            }
        },
        "generator" : "Extended Khronos glTF Blender I/O v1.0.0",
        "version" : "2.0"
    },
    "extensionsUsed" : [
        "ASOBO_normal_map_convention"
    ],
    "scene" : 0,
    "scenes" : [
        {
            "extras" : {},
            "name" : "Scene",
            "nodes" : [
                0
            ]
        }
    ],
    "nodes" : [
        {
            "extras" : {
                "MaxHandle" : 43
            },
            "mesh" : 0,
            "name" : "Line01.002",
            "rotation" : [
                0.00035101803950965405,
                -0.011165639385581017,
                -0.005024778191000223,
                0.9999249577522278
            ],
            "scale" : [
                0.009999999776482582,
                0.010000001639127731,
                0.010000001639127731
            ]
        }
    ],
    "materials" : [
        {
            "emissiveFactor" : [
                0,
                0,
                0
            ],
            "extras" : {
                "msfs_material_mode" : 1,
                "msfs_albedo_texture" : {
                    "name" : "Diffuse_Cow_new_grey_COLOR.png",
                    "type" : "Image"
                },
                "msfs_metallic_texture" : {
                    "name" : "Diffuse_Cow_new_OCC.png.014",
                    "type" : "Image"
                },
                "msfs_normal_texture" : {
                    "name" : "Diffuse_Cow_new_NRM.png.014",
                    "type" : "Image"
                },
                "msfs_show_tint" : 1,
                "msfs_show_sss_color" : 0,
                "msfs_show_glass_parameters" : 0,
                "msfs_show_decal_parameters" : 0,
                "msfs_show_fresnel_parameters" : 0,
                "msfs_show_parallax_parameters" : 0,
                "msfs_show_geo_decal_parameters" : 0,
                "msfs_show_albedo" : 1,
                "msfs_show_metallic" : 1,
                "msfs_show_normal" : 1,
                "msfs_show_emissive" : 1,
                "msfs_show_detail_albedo" : 1,
                "msfs_show_detail_metallic" : 1,
                "msfs_show_detail_normal" : 1,
                "msfs_show_blend_mask" : 1,
                "msfs_show_anisotropic_direction" : 0,
                "msfs_show_clearcoat" : 0,
                "msfs_show_behind_glass" : 0,
                "msfs_show_blend_mode" : 1,
                "msfs_show_draworder" : 1,
                "msfs_show_no_cast_shadow" : 1,
                "msfs_show_double_sided" : 1,
                "msfs_show_responsive_aa" : 0,
                "msfs_show_day_night_cycle" : 1,
                "msfs_show_collision_material" : 1,
                "msfs_show_road_material" : 1,
                "msfs_show_ao_use_uv2" : 1,
                "msfs_show_uv_clamp" : 1,
                "msfs_show_alpha_cutoff" : 1,
                "msfs_show_blend_threshold" : 1
            },
            "name" : "Material.015",
            "normalTexture" : {
                "index" : 0,
                "texCoord" : 0
            },
            "pbrMetallicRoughness" : {
                "baseColorTexture" : {
                    "index" : 1,
                    "texCoord" : 0
                },
                "metallicRoughnessTexture" : {
                    "index" : 2,
                    "texCoord" : 0
                }
            }
        }
    ],
    "meshes" : [
        {
            "name" : "Untitled.011",
            "primitives" : [
                {
                    "attributes" : {
                        "POSITION" : 0,
                        "NORMAL" : 1,
                        "TEXCOORD_0" : 2
                    },
                    "indices" : 3,
                    "material" : 0
                }
            ]
        }
    ],
    "textures" : [
        {
            "source" : 0
        },
        {
            "source" : 1
        },
        {
            "source" : 2
        }
    ],
    "images" : [
        {
            "mimeType" : "image/png",
            "name" : "Diffuse_Cow_new_NRM",
            "uri" : "Diffuse_Cow_new_NRM.png"
        },
        {
            "mimeType" : "image/png",
            "name" : "Diffuse_Cow_new_grey_COLOR",
            "uri" : "Diffuse_Cow_new_grey_COLOR.png"
        },
        {
            "mimeType" : "image/png",
            "name" : "Diffuse_Cow_new_OCC",
            "uri" : "Diffuse_Cow_new_OCC.png"
        }
    ],
    "accessors" : [
        {
            "bufferView" : 0,
            "componentType" : 5126,
            "count" : 607,
            "max" : [
                40.108768463134766,
                179.1569061279297,
                172.77879333496094
            ],
            "min" : [
                -44.018829345703125,
                0.6267260313034058,
                -176.78338623046875
            ],
            "type" : "VEC3"
        },
        {
            "bufferView" : 1,
            "componentType" : 5126,
            "count" : 607,
            "type" : "VEC3"
        },
        {
            "bufferView" : 2,
            "componentType" : 5126,
            "count" : 607,
            "type" : "VEC2"
        },
        {
            "bufferView" : 3,
            "componentType" : 5123,
            "count" : 1731,
            "type" : "SCALAR"
        }
    ],
    "bufferViews" : [
        {
            "buffer" : 0,
            "byteLength" : 7284,
            "byteOffset" : 0
        },
        {
            "buffer" : 0,
            "byteLength" : 7284,
            "byteOffset" : 7284
        },
        {
            "buffer" : 0,
            "byteLength" : 4856,
            "byteOffset" : 14568
        },
        {
            "buffer" : 0,
            "byteLength" : 3462,
            "byteOffset" : 19424
        }
    ],
    "buffers" : [
        {
            "byteLength" : 22888,
            "uri" : "cow-stand-black-cbj_LOD01.bin"
        }
    ]
}
