{"asset":{"version":"2.0","generator":"babylon.js glTF exporter for 3dsmax 2019 v1.0.0.0","extensions":{"ASOBO_normal_map_convention":{"tangent_space_convention":"DirectX"}}},"extensionsUsed":["ASOBO_normal_map_convention","ASOBO_material_pearlescent"],"scene":0,"scenes":[{"nodes":[0],"extensions":{}}],"nodes":[{"mesh":0,"translation":[0.0,0.0,0.0],"rotation":[0.0,0.0,0.0,1.0],"scale":[1.0,1.0,1.0],"name":"Cylinder001"}],"meshes":[{"primitives":[{"attributes":{"POSITION":1,"NORMAL":2,"TEXCOORD_0":3},"indices":0,"mode":4,"material":0},{"attributes":{"POSITION":5,"NORMAL":6,"TEXCOORD_0":7},"indices":4,"mode":4,"material":1}],"name":"Cylinder001"}],"accessors":[{"bufferView":0,"componentType":5123,"count":96,"type":"SCALAR","name":"accessorIndices"},{"bufferView":1,"componentType":5126,"count":34,"max":[0.04,0.520000041,0.04],"min":[-0.04,0.230000019,-0.04],"type":"VEC3","name":"accessorPositions"},{"bufferView":1,"byteOffset":408,"componentType":5126,"count":34,"type":"VEC3","name":"accessorNormals"},{"bufferView":2,"componentType":5126,"count":34,"type":"VEC2","name":"accessorUVs"},{"bufferView":0,"byteOffset":192,"componentType":5123,"count":384,"type":"SCALAR","name":"accessorIndices"},{"bufferView":1,"byteOffset":816,"componentType":5126,"count":119,"max":[0.04,0.54,0.04],"min":[-0.04,0.0,-0.04],"type":"VEC3","name":"accessorPositions"},{"bufferView":1,"byteOffset":2244,"componentType":5126,"count":119,"type":"VEC3","name":"accessorNormals"},{"bufferView":2,"byteOffset":272,"componentType":5126,"count":119,"type":"VEC2","name":"accessorUVs"}],"bufferViews":[{"buffer":0,"byteLength":960,"name":"bufferViewScalar"},{"buffer":0,"byteOffset":960,"byteLength":3672,"byteStride":12,"name":"bufferViewFloatVec3"},{"buffer":0,"byteOffset":4632,"byteLength":1224,"byteStride":8,"name":"bufferViewFloatVec2"}],"buffers":[{"uri":"marker3.bin","byteLength":5856}],"materials":[{"pbrMetallicRoughness":{"baseColorFactor":[0.0156862754,0.0,0.5882353,1.0],"roughnessFactor":0.5},"name":"ReflectiveBlue","extensions":{"ASOBO_material_pearlescent":{"pearlShift":0.0,"pearlRange":0.0,"pearlBrightness":0.0}}},{"pbrMetallicRoughness":{"baseColorFactor":[0.8078432,0.7490196,0.07450981,1.0],"metallicFactor":0.2,"roughnessFactor":0.1},"name":"YellowPlastic"}]}