{"asset":{"version":"2.0","generator":"babylon.js glTF exporter for 3dsmax 2019 v1.5.0","extensions":{"ASOBO_normal_map_convention":{"tangent_space_convention":"DirectX"}}},"extensionsUsed":["ASOBO_normal_map_convention","ASOBO_macro_light","ASOBO_material_shadow_options","ASOBO_material_day_night_switch","ASOBO_material_glass"],"scene":0,"scenes":[{"nodes":[0],"extensions":{}}],"nodes":[{"children":[1,2],"translation":[0.0,0.0,0.0],"rotation":[0.0,0.0,0.0,1.0],"scale":[1.0,1.0,1.0],"name":"RunwayLight01-WarmWhite-LOD0"},{"mesh":0,"translation":[-9.536743E-07,-10.0,0.0],"rotation":[0.0,0.0,0.0,1.0],"scale":[1.0,1.0,1.0],"name":"Light"},{"translation":[-9.536743E-07,0.340000153,0.0],"rotation":[-3.090862E-08,0.707106769,0.707106769,-3.090862E-08],"scale":[1.0,1.0,1.0],"name":"WarmWhiteOmni","extensions":{"ASOBO_macro_light":{"color":[1.0,0.7833459,0.131768823],"intensity":2.5,"cone_angle":270.0,"has_simmetry":false,"flash_frequency":0.0,"flash_duration":0.2,"flash_phase":0.0,"rotation_speed":0.0,"day_night_cycle":true}}}],"meshes":[{"primitives":[{"attributes":{"POSITION":1,"NORMAL":2,"TEXCOORD_0":3},"indices":0,"mode":4,"material":0},{"attributes":{"POSITION":5,"NORMAL":6,"TEXCOORD_0":7},"indices":4,"mode":4,"material":1},{"attributes":{"POSITION":9,"NORMAL":10,"TEXCOORD_0":11},"indices":8,"mode":4,"material":2},{"attributes":{"POSITION":13,"NORMAL":14,"TEXCOORD_0":15},"indices":12,"mode":4,"material":3},{"attributes":{"POSITION":17,"NORMAL":18,"TEXCOORD_0":19},"indices":16,"mode":4,"material":4}],"name":"Light"}],"accessors":[{"bufferView":0,"componentType":5123,"count":648,"type":"SCALAR","name":"accessorIndices"},{"bufferView":1,"componentType":5126,"count":648,"max":[0.200000018,10.05,0.196961582],"min":[-0.200000018,0.0,-0.196961582],"type":"VEC3","name":"accessorPositions"},{"bufferView":1,"byteOffset":7776,"componentType":5126,"count":648,"type":"VEC3","name":"accessorNormals"},{"bufferView":2,"componentType":5126,"count":648,"type":"VEC2","name":"accessorUVs"},{"bufferView":0,"byteOffset":1296,"componentType":5123,"count":2064,"type":"SCALAR","name":"accessorIndices"},{"bufferView":1,"byteOffset":15552,"componentType":5126,"count":2064,"max":[0.224996567,10.44,0.224995956],"min":[-0.225000381,10.05,-0.225000992],"type":"VEC3","name":"accessorPositions"},{"bufferView":1,"byteOffset":40320,"componentType":5126,"count":2064,"type":"VEC3","name":"accessorNormals"},{"bufferView":2,"byteOffset":5184,"componentType":5126,"count":2064,"type":"VEC2","name":"accessorUVs"},{"bufferView":0,"byteOffset":5424,"componentType":5123,"count":240,"type":"SCALAR","name":"accessorIndices"},{"bufferView":1,"byteOffset":65088,"componentType":5126,"count":240,"max":[0.08377261,10.29,0.0837726146],"min":[-0.0837726146,10.2500134,-0.0837726],"type":"VEC3","name":"accessorPositions"},{"bufferView":1,"byteOffset":67968,"componentType":5126,"count":240,"type":"VEC3","name":"accessorNormals"},{"bufferView":2,"byteOffset":21696,"componentType":5126,"count":240,"type":"VEC2","name":"accessorUVs"},{"bufferView":0,"byteOffset":5904,"componentType":5123,"count":144,"type":"SCALAR","name":"accessorIndices"},{"bufferView":1,"byteOffset":70848,"componentType":5126,"count":144,"max":[0.07000095,10.3899994,0.06999974],"min":[-0.0699990541,10.25,-0.070000276],"type":"VEC3","name":"accessorPositions"},{"bufferView":1,"byteOffset":72576,"componentType":5126,"count":144,"type":"VEC3","name":"accessorNormals"},{"bufferView":2,"byteOffset":23616,"componentType":5126,"count":144,"type":"VEC2","name":"accessorUVs"},{"bufferView":0,"byteOffset":6192,"componentType":5123,"count":1344,"type":"SCALAR","name":"accessorIndices"},{"bufferView":1,"byteOffset":74304,"componentType":5126,"count":1344,"max":[0.08461966,10.4000635,0.08461966],"min":[-0.08461966,10.2512255,-0.08461966],"type":"VEC3","name":"accessorPositions"},{"bufferView":1,"byteOffset":90432,"componentType":5126,"count":1344,"type":"VEC3","name":"accessorNormals"},{"bufferView":2,"byteOffset":24768,"componentType":5126,"count":1344,"type":"VEC2","name":"accessorUVs"}],"bufferViews":[{"buffer":0,"byteLength":8880,"name":"bufferViewScalar"},{"buffer":0,"byteOffset":8880,"byteLength":106560,"byteStride":12,"name":"bufferViewFloatVec3"},{"buffer":0,"byteOffset":115440,"byteLength":35520,"byteStride":8,"name":"bufferViewFloatVec2"}],"buffers":[{"uri":"RunwayLight01-WarmWhite_LOD0.bin","byteLength":150960}],"materials":[{"pbrMetallicRoughness":{"baseColorFactor":[0.329411775,0.3372549,0.34117648,1.0],"metallicFactor":0.0},"name":"Concrete"},{"pbrMetallicRoughness":{"baseColorFactor":[0.9568628,0.607843161,0.0,1.0],"metallicFactor":0.0,"roughnessFactor":0.2},"name":"YellowPaint"},{"pbrMetallicRoughness":{"baseColorFactor":[0.03137255,0.03137255,0.0431372561,1.0],"metallicFactor":0.0},"name":"DarkMatte"},{"pbrMetallicRoughness":{"baseColorFactor":[0.345098048,0.345098048,0.345098048,1.0]},"emissiveFactor":[1.0,0.8901099,0.5142857],"name":"WarmWhiteEmissive","extensions":{"ASOBO_material_shadow_options":{"noCastShadow":true},"ASOBO_material_day_night_switch":{}}},{"pbrMetallicRoughness":{"baseColorFactor":[0.7254902,0.7254902,0.7294118,0.01],"metallicFactor":0.0,"roughnessFactor":0.0},"alphaMode":"BLEND","name":"Glass","extensions":{"ASOBO_material_shadow_options":{"noCastShadow":true},"ASOBO_material_glass":{"glassReflectionMaskFactor":1.0,"glassDeformationFactor":0.0}}}]}