{"asset":{"version":"2.0","generator":"babylon.js glTF exporter for 3dsmax 2019 v1.5.0","extensions":{"ASOBO_normal_map_convention":{"tangent_space_convention":"DirectX"}}},"extensionsUsed":["ASOBO_normal_map_convention","ASOBO_macro_light","ASOBO_material_shadow_options","ASOBO_material_day_night_switch"],"scene":0,"scenes":[{"nodes":[0],"extensions":{}}],"nodes":[{"children":[1,2],"translation":[0.0,0.0,0.0],"rotation":[0.0,0.0,0.0,1.0],"scale":[1.0,1.0,1.0],"name":"RunwayLight01-WarmWhite-LOD4"},{"mesh":0,"translation":[-9.536743E-07,-10.0,0.0],"rotation":[0.0,0.0,0.0,1.0],"scale":[1.0,1.0,1.0],"name":"Light001"},{"translation":[-9.536743E-07,0.340000153,0.0],"rotation":[-3.090862E-08,0.707106769,0.707106769,-3.090862E-08],"scale":[1.0,1.0,1.0],"name":"WarmWhiteOmni001","extensions":{"ASOBO_macro_light":{"color":[1.0,0.7833459,0.131768823],"intensity":2.5,"cone_angle":270.0,"has_simmetry":false,"flash_frequency":0.0,"flash_duration":0.2,"flash_phase":0.0,"rotation_speed":0.0,"day_night_cycle":true}}}],"meshes":[{"primitives":[{"attributes":{"POSITION":1,"NORMAL":2,"TEXCOORD_0":3},"indices":0,"mode":4,"material":0},{"attributes":{"POSITION":5,"NORMAL":6,"TEXCOORD_0":7},"indices":4,"mode":4,"material":1},{"attributes":{"POSITION":9,"NORMAL":10,"TEXCOORD_0":11},"indices":8,"mode":4,"material":2}],"name":"Light001"}],"accessors":[{"bufferView":0,"componentType":5123,"count":72,"type":"SCALAR","name":"accessorIndices"},{"bufferView":1,"componentType":5126,"count":72,"max":[0.2,10.05,0.173205093],"min":[-0.2,0.0,-0.173205093],"type":"VEC3","name":"accessorPositions"},{"bufferView":1,"byteOffset":864,"componentType":5126,"count":72,"type":"VEC3","name":"accessorNormals"},{"bufferView":2,"componentType":5126,"count":72,"type":"VEC2","name":"accessorUVs"},{"bufferView":0,"byteOffset":144,"componentType":5123,"count":96,"type":"SCALAR","name":"accessorIndices"},{"bufferView":1,"byteOffset":1728,"componentType":5126,"count":96,"max":[0.233070984,10.2388649,0.23307097],"min":[-0.233070955,10.0508518,-0.23307097],"type":"VEC3","name":"accessorPositions"},{"bufferView":1,"byteOffset":2880,"componentType":5126,"count":96,"type":"VEC3","name":"accessorNormals"},{"bufferView":2,"byteOffset":576,"componentType":5126,"count":96,"type":"VEC2","name":"accessorUVs"},{"bufferView":0,"byteOffset":336,"componentType":5123,"count":144,"type":"SCALAR","name":"accessorIndices"},{"bufferView":1,"byteOffset":4032,"componentType":5126,"count":144,"max":[0.250000954,10.59,0.25],"min":[-0.249999046,10.09,-0.25],"type":"VEC3","name":"accessorPositions"},{"bufferView":1,"byteOffset":5760,"componentType":5126,"count":144,"type":"VEC3","name":"accessorNormals"},{"bufferView":2,"byteOffset":1344,"componentType":5126,"count":144,"type":"VEC2","name":"accessorUVs"}],"bufferViews":[{"buffer":0,"byteLength":624,"name":"bufferViewScalar"},{"buffer":0,"byteOffset":624,"byteLength":7488,"byteStride":12,"name":"bufferViewFloatVec3"},{"buffer":0,"byteOffset":8112,"byteLength":2496,"byteStride":8,"name":"bufferViewFloatVec2"}],"buffers":[{"uri":"RunwayLight01-WarmWhite_LOD4.bin","byteLength":10608}],"materials":[{"pbrMetallicRoughness":{"baseColorFactor":[0.329411775,0.3372549,0.34117648,1.0],"metallicFactor":0.0},"name":"Concrete"},{"pbrMetallicRoughness":{"baseColorFactor":[0.9568628,0.607843161,0.0,1.0],"metallicFactor":0.0,"roughnessFactor":0.2},"name":"YellowPaint"},{"pbrMetallicRoughness":{"baseColorFactor":[0.345098048,0.345098048,0.345098048,1.0]},"emissiveFactor":[1.0,0.8901099,0.5142857],"name":"WarmWhiteEmissive","extensions":{"ASOBO_material_shadow_options":{"noCastShadow":true},"ASOBO_material_day_night_switch":{}}}]}